<svg width="18" height="18" viewBox="0 0 18 18" fill="none" xmlns="http://www.w3.org/2000/svg">
<g clip-path="url(#clip0_308_2693)">
<path d="M8.0397 15.6004L14.5634 15.6004L12.9219 17.2419C12.8802 17.283 12.8471 17.332 12.8245 17.386C12.8018 17.44 12.79 17.4979 12.7899 17.5565C12.7897 17.615 12.8011 17.673 12.8234 17.7272C12.8457 17.7813 12.8785 17.8305 12.9199 17.8719C12.9613 17.9133 13.0105 17.9461 13.0646 17.9684C13.1188 17.9907 13.1768 18.0021 13.2353 18.002C13.2939 18.0018 13.3518 17.99 13.4058 17.9674C13.4598 17.9447 13.5088 17.9116 13.5499 17.8699L15.8619 15.5579C15.9725 15.447 16.0347 15.2968 16.0347 15.1401C16.0347 14.9835 15.9725 14.8333 15.8619 14.7224L13.5499 12.4104C13.5088 12.3687 13.4598 12.3356 13.4058 12.3129C13.3518 12.2903 13.2939 12.2785 13.2353 12.2783C13.1768 12.2782 13.1188 12.2896 13.0646 12.3119C13.0105 12.3342 12.9613 12.367 12.9199 12.4084C12.8785 12.4498 12.8457 12.499 12.8234 12.5531C12.8011 12.6072 12.7897 12.6653 12.7899 12.7238C12.79 12.7824 12.8018 12.8403 12.8245 12.8943C12.8471 12.9483 12.8802 12.9973 12.9219 13.0384L14.5795 14.6961L14.5795 14.7115L8.0397 14.7115C5.18065 14.7115 2.85465 13.5105 2.85465 10.6515L2.85465 2.69445C2.85465 2.57657 2.80782 2.46353 2.72447 2.38018C2.64112 2.29683 2.52808 2.25 2.4102 2.25C2.29233 2.25 2.17928 2.29683 2.09593 2.38018C2.01258 2.46353 1.96576 2.57657 1.96576 2.69445L1.96575 10.6515C1.96575 14.0007 4.6905 15.6004 8.0397 15.6004Z" fill="black"/>
</g>
<defs>
<clipPath id="clip0_308_2693">
<rect width="18" height="18" fill="white" transform="translate(18 18) rotate(-180)"/>
</clipPath>
</defs>
</svg>
