<svg width="180" height="60" viewBox="0 0 180 60" fill="none" xmlns="http://www.w3.org/2000/svg">
<path d="M171.052 36.838V33.5571H156.553V29.7697H171.052V26.3682H156.553V22.5566H175.129V36.838H171.052ZM155.419 38.1406H176.263V41.9522H155.419V38.1406Z" fill="black"/>
<path d="M147.195 29.5034V33.6286H143.432V22.1697H147.195V25.7401H148.908V22.0732H152.719V34.304H148.908V29.5034H147.195ZM142.032 22.3145V33.2185H132.576V22.3145H136.243V24.5821H138.366V22.3145H142.032ZM136.243 30.0582H138.366V27.67H136.243V30.0582ZM143.239 34.3282C148.667 34.3282 152.912 35.4378 152.912 38.6222C152.912 41.8065 148.667 42.9162 143.239 42.9162C137.835 42.9162 133.565 41.8065 133.565 38.6222C133.565 35.4378 137.835 34.3282 143.239 34.3282ZM143.239 39.756C146.158 39.756 148.57 39.4907 148.57 38.6222C148.57 37.7779 146.158 37.4884 143.239 37.4884C140.32 37.4884 137.907 37.7779 137.907 38.6222C137.907 39.4907 140.32 39.756 143.239 39.756Z" fill="black"/>
<path d="M119.31 29.792C116.921 32.9522 113.351 34.8821 109.419 34.8821V31.0223C113.52 31.0223 117.331 27.452 118.079 22L122.229 22.6513C122.036 24.0505 121.674 25.3773 121.143 26.5835L129.852 31.6495L127.753 34.9786L119.31 29.792ZM121.505 33.5794V38.1389H129.852V41.9504H109.009V38.1389H117.356V33.5794H121.505Z" fill="black"/>
<path d="M105.151 26.6568H107.563V30.6131H105.151V37.3919H101.074V22.0732H105.151V26.6568ZM100.109 34.1834C99.0235 34.6418 97.0212 34.9071 95.0913 34.9071H86.262V22.3145H98.927V25.4988H90.2906V27.091H98.5169V30.1065H90.2906V31.7228H95.3567C97.2142 31.7228 99.0235 31.4574 100.109 31.0473V34.1834ZM91.1109 36.2098V39.0806H105.44V42.675H86.9616V36.2098H91.1109Z" fill="black"/>
<g clip-path="url(#clip0_262_2253)">
<path fill-rule="evenodd" clip-rule="evenodd" d="M27.9338 10.7489C32.6096 10.3648 37.3865 10.901 41.987 12.494C57.1631 17.7421 65.5292 32.7287 63.0188 48.1046C55.5345 50.1538 49.0019 50.7029 43.3874 49.6125L43.5404 49.1898C44.4818 46.5966 45.0757 43.9236 45.2572 41.217C46.1078 28.5168 37.9726 18.3762 27.9338 10.7489Z" fill="#2B53C0"/>
<path fill-rule="evenodd" clip-rule="evenodd" d="M9.51104 2C38.2476 15.9014 47.5368 32.5815 41.7045 48.6405C32.4697 45.4596 25.2136 38.8298 20.3355 28.8284C23.7432 45.8076 39.6713 59.0336 65.4644 49.3648C37.0469 73.283 -11.2666 44.2765 9.51104 2Z" fill="#7AC016"/>
</g>
<defs>
<clipPath id="clip0_262_2253">
<rect width="61" height="56" fill="white" transform="translate(4.46692 2)"/>
</clipPath>
</defs>
</svg>
