<svg width="1078" height="160" viewBox="0 0 1078 160" fill="none" xmlns="http://www.w3.org/2000/svg">
<path d="M275.914 67.793C275.458 63.0534 273.681 59.2936 270.582 56.5137C267.529 53.7337 263.427 52.3438 258.277 52.3438C251.441 52.3438 246.155 54.8275 242.418 59.7949C238.681 64.7168 236.812 71.6211 236.812 80.5078C236.812 89.668 238.658 96.6406 242.35 101.426C246.087 106.211 251.35 108.626 258.141 108.672C263.108 108.626 267.118 107.373 270.172 104.912C273.271 102.406 275.185 98.9193 275.914 94.4531L302.301 94.7266C301.799 100.697 299.749 106.507 296.148 112.158C292.594 117.764 287.512 122.367 280.904 125.967C274.342 129.567 266.572 131.367 257.594 131.367C248.434 131.367 240.253 129.385 233.053 125.42C225.898 121.455 220.27 115.645 216.168 107.988C212.066 100.332 210.016 91.1719 210.016 80.5078C210.016 69.8438 212.089 60.6836 216.236 53.0273C220.429 45.3711 226.126 39.5605 233.326 35.5957C240.527 31.6309 248.616 29.6484 257.594 29.6484C265.842 29.6484 273.202 31.1523 279.674 34.1602C286.145 37.1224 291.34 41.4746 295.26 47.2168C299.225 52.959 301.572 59.8177 302.301 67.793H275.914ZM311.598 109.492C311.598 101.79 314.081 96.0482 319.049 92.2656C324.062 88.4831 330.693 86.3411 338.941 85.8398L350.768 85.3613L356.305 85.1562V79.1406C356.259 77.1354 355.462 75.5632 353.912 74.4238C352.408 73.2845 350.38 72.7148 347.828 72.7148C345.139 72.7148 342.975 73.3073 341.334 74.4922C339.693 75.6315 338.714 77.3633 338.395 79.6875H314.469C314.788 75.0391 316.246 70.8464 318.844 67.1094C321.487 63.3268 325.292 60.3418 330.26 58.1543C335.227 55.9212 341.22 54.8047 348.238 54.8047C354.983 54.8047 360.908 55.8529 366.012 57.9492C371.161 60 375.126 62.8939 377.906 66.6309C380.732 70.3223 382.145 74.5378 382.145 79.2773V130H357.945V119.609H357.398C355.211 123.574 352.317 126.491 348.717 128.359C345.162 130.228 340.855 131.185 335.797 131.23C328.414 131.185 322.535 129.339 318.16 125.693C313.785 122.048 311.598 116.647 311.598 109.492ZM335.934 107.988C335.979 110.176 336.754 111.839 338.258 112.979C339.762 114.118 341.767 114.688 344.273 114.688C346.461 114.688 348.489 114.232 350.357 113.32C352.226 112.409 353.707 111.133 354.801 109.492C355.895 107.806 356.441 105.846 356.441 103.613V99.6484C351.018 99.7852 346.734 100.013 343.59 100.332C341.266 100.651 339.42 101.517 338.053 102.93C336.686 104.297 335.979 105.983 335.934 107.988ZM395.27 55.7617H420.289V69.707H421.109C422.431 64.7396 424.527 61.0254 427.398 58.5645C430.315 56.0579 433.801 54.8047 437.857 54.8047C440.045 54.8047 442.346 55.0781 444.762 55.625V77.9102C443.577 77.5 442.027 77.181 440.113 76.9531C438.245 76.6797 436.559 76.543 435.055 76.543C432.366 76.543 429.951 77.1582 427.809 78.3887C425.712 79.5736 424.072 81.2598 422.887 83.4473C421.702 85.5892 421.109 88.0729 421.109 90.8984V130H395.27V55.7617ZM453.375 31.0156H479.215V68.6133H479.625C481.174 64.6029 483.727 61.2988 487.281 58.7012C490.836 56.1035 495.257 54.8047 500.543 54.8047C505.738 54.8047 510.546 56.1719 514.967 58.9062C519.387 61.6406 522.942 65.8789 525.631 71.6211C528.32 77.3177 529.664 84.4271 529.664 92.9492C529.664 101.198 528.365 108.193 525.768 113.936C523.17 119.632 519.638 123.916 515.172 126.787C510.751 129.613 505.784 131.003 500.27 130.957C495.211 131.003 490.904 129.818 487.35 127.402C483.795 124.941 481.22 121.751 479.625 117.832H478.941V130H453.375V31.0156ZM478.531 92.8125C478.577 98.4635 479.693 102.93 481.881 106.211C484.114 109.447 487.145 111.087 490.973 111.133C494.755 111.087 497.695 109.469 499.791 106.279C501.933 103.089 503.004 98.6914 503.004 93.0859C503.004 87.3438 501.956 82.8548 499.859 79.6191C497.763 76.3379 494.801 74.7201 490.973 74.7656C487.099 74.7201 484.068 76.3151 481.881 79.5508C479.693 82.7409 478.577 87.1615 478.531 92.8125ZM576.559 131.367C568.72 131.367 561.907 129.772 556.119 126.582C550.377 123.392 545.956 118.926 542.857 113.184C539.804 107.396 538.277 100.697 538.277 93.0859C538.277 85.4753 539.804 78.7988 542.857 73.0566C545.956 67.2689 550.377 62.7799 556.119 59.5898C561.907 56.3997 568.72 54.8047 576.559 54.8047C584.397 54.8047 591.188 56.3997 596.93 59.5898C602.717 62.7799 607.115 67.2689 610.123 73.0566C613.176 78.7988 614.703 85.4753 614.703 93.0859C614.703 100.697 613.176 107.396 610.123 113.184C607.115 118.926 602.717 123.392 596.93 126.582C591.188 129.772 584.397 131.367 576.559 131.367ZM564.664 92.9492C564.71 98.8737 565.781 103.568 567.877 107.031C569.973 110.449 572.913 112.181 576.695 112.227C580.296 112.181 583.121 110.472 585.172 107.1C587.268 103.682 588.316 99.056 588.316 93.2227C588.316 87.1615 587.291 82.3763 585.24 78.8672C583.189 75.3581 580.341 73.6263 576.695 73.6719C572.913 73.6263 569.973 75.3353 567.877 78.7988C565.781 82.2168 564.71 86.9336 564.664 92.9492ZM651.754 130H625.914V55.7617H650.387V69.707H651.207C652.802 65.1042 655.605 61.4811 659.615 58.8379C663.671 56.1491 668.434 54.8047 673.902 54.8047C679.052 54.8047 683.587 55.9896 687.506 58.3594C691.471 60.7292 694.501 64.0332 696.598 68.2715C698.74 72.4642 699.788 77.2721 699.742 82.6953V130H673.902V88.0273C673.993 84.2448 673.082 81.2826 671.168 79.1406C669.254 76.9531 666.565 75.8594 663.102 75.8594C659.638 75.8594 656.881 76.9531 654.83 79.1406C652.779 81.2826 651.754 84.2448 651.754 88.0273V130ZM743.492 31.0156H785.875C793.258 31.0156 799.524 32.041 804.674 34.0918C809.824 36.097 813.697 38.9681 816.295 42.7051C818.938 46.4421 820.283 50.8398 820.328 55.8984C820.328 59.4987 819.531 62.8027 817.936 65.8105C816.34 68.7728 814.107 71.2793 811.236 73.3301C808.365 75.3353 805.061 76.7253 801.324 77.5V78.457C805.517 78.5938 809.345 79.6647 812.809 81.6699C816.318 83.6296 819.075 86.3867 821.08 89.9414C823.131 93.4505 824.156 97.5065 824.156 102.109C824.156 107.487 822.743 112.295 819.918 116.533C817.138 120.726 813.128 124.03 807.887 126.445C802.646 128.815 796.493 130 789.43 130H743.492V31.0156ZM782.73 109.082C787.379 109.128 790.865 108.285 793.189 106.553C795.514 104.775 796.676 102.201 796.676 98.8281C796.676 95.2734 795.468 92.4935 793.053 90.4883C790.637 88.4831 787.333 87.4805 783.141 87.4805H769.469V109.082H782.73ZM781.09 71.2109C784.827 71.2109 787.835 70.3451 790.113 68.6133C792.392 66.8815 793.531 64.4661 793.531 61.3672C793.531 58.2682 792.415 55.8529 790.182 54.1211C787.994 52.3893 785.1 51.5234 781.5 51.5234H769.469V71.2109H781.09ZM830.855 109.492C830.855 101.79 833.339 96.0482 838.307 92.2656C843.32 88.4831 849.951 86.3411 858.199 85.8398L870.025 85.3613L875.562 85.1562V79.1406C875.517 77.1354 874.719 75.5632 873.17 74.4238C871.666 73.2845 869.638 72.7148 867.086 72.7148C864.397 72.7148 862.232 73.3073 860.592 74.4922C858.951 75.6315 857.971 77.3633 857.652 79.6875H833.727C834.046 75.0391 835.504 70.8464 838.102 67.1094C840.745 63.3268 844.55 60.3418 849.518 58.1543C854.485 55.9212 860.478 54.8047 867.496 54.8047C874.241 54.8047 880.165 55.8529 885.27 57.9492C890.419 60 894.384 62.8939 897.164 66.6309C899.99 70.3223 901.402 74.5378 901.402 79.2773V130H877.203V119.609H876.656C874.469 123.574 871.575 126.491 867.975 128.359C864.42 130.228 860.113 131.185 855.055 131.23C847.672 131.185 841.793 129.339 837.418 125.693C833.043 122.048 830.855 116.647 830.855 109.492ZM855.191 107.988C855.237 110.176 856.012 111.839 857.516 112.979C859.02 114.118 861.025 114.688 863.531 114.688C865.719 114.688 867.747 114.232 869.615 113.32C871.484 112.409 872.965 111.133 874.059 109.492C875.152 107.806 875.699 105.846 875.699 103.613V99.6484C870.276 99.7852 865.992 100.013 862.848 100.332C860.523 100.651 858.678 101.517 857.311 102.93C855.943 104.297 855.237 105.983 855.191 107.988ZM940.367 130H914.527V55.7617H939V69.707H939.82C941.415 65.1042 944.218 61.4811 948.229 58.8379C952.285 56.1491 957.047 54.8047 962.516 54.8047C967.665 54.8047 972.2 55.9896 976.119 58.3594C980.084 60.7292 983.115 64.0332 985.211 68.2715C987.353 72.4642 988.401 77.2721 988.355 82.6953V130H962.516V88.0273C962.607 84.2448 961.695 81.2826 959.781 79.1406C957.867 76.9531 955.178 75.8594 951.715 75.8594C948.251 75.8594 945.494 76.9531 943.443 79.1406C941.393 81.2826 940.367 84.2448 940.367 88.0273V130ZM1001.89 31.0156H1027.73V81.1914H1028.69L1047.42 55.7617H1076.54L1051.04 88.3008L1077.36 130H1047.69L1031.9 103.34L1027.73 108.535V130H1001.89V31.0156Z" fill="#C7CCBE"/>
<g clip-path="url(#clip0_294_2058)">
<path fill-rule="evenodd" clip-rule="evenodd" d="M65.9248 24.727C79.0603 23.6415 92.4799 25.1568 105.404 29.6592C148.038 44.4922 171.54 86.8493 164.488 130.306C143.463 136.098 125.111 137.65 109.338 134.568L109.768 133.374C112.413 126.045 114.081 118.49 114.591 110.84C116.98 74.945 94.1263 46.2844 65.9248 24.727Z" fill="#2B53C0"/>
<path fill-rule="evenodd" clip-rule="evenodd" d="M14.1706 0C94.8994 39.29 120.995 86.4335 104.611 131.821C78.6677 122.831 58.2833 104.093 44.5796 75.8261C54.1525 123.815 98.8991 161.196 171.359 133.869C91.5263 201.469 -44.1995 119.487 14.1706 0Z" fill="#7AC016"/>
</g>
<defs>
<clipPath id="clip0_294_2058">
<rect width="171.366" height="158.275" fill="white"/>
</clipPath>
</defs>
</svg>
