<svg width="172" height="159" viewBox="0 0 172 159" fill="none" xmlns="http://www.w3.org/2000/svg">
<g clip-path="url(#clip0_274_5697)">
<path fill-rule="evenodd" clip-rule="evenodd" d="M65.9248 24.727C79.0603 23.6415 92.4799 25.1568 105.404 29.6592C148.038 44.4922 171.54 86.8493 164.488 130.306C143.463 136.098 125.111 137.65 109.338 134.568L109.768 133.374C112.413 126.045 114.081 118.49 114.591 110.84C116.98 74.945 94.1263 46.2844 65.9248 24.727Z" fill="#2B53C0"/>
<path fill-rule="evenodd" clip-rule="evenodd" d="M14.1706 0C94.8994 39.29 120.995 86.4335 104.611 131.821C78.6677 122.831 58.2833 104.093 44.5796 75.8261C54.1525 123.815 98.8991 161.196 171.359 133.869C91.5263 201.469 -44.1995 119.487 14.1706 0Z" fill="#7AC016"/>
</g>
<defs>
<clipPath id="clip0_274_5697">
<rect width="171.366" height="158.275" fill="white"/>
</clipPath>
</defs>
</svg>
