<svg width="80" height="80" viewBox="0 0 80 80" fill="none" xmlns="http://www.w3.org/2000/svg">
<path d="M69.6779 61.7143L64.0559 64.4289V52.7646L66.2823 54.682C68.8749 53.4301 71.8846 55.3191 71.8846 58.1982C71.8846 59.6965 71.0272 61.0628 69.6779 61.7143Z" fill="#FF9966"/>
<path d="M70.5773 52.6088L64.0559 55.7577V43.6133L67.1817 45.5766C69.7743 44.3247 72.784 46.2137 72.784 49.0927C72.784 50.5911 71.9266 51.9572 70.5773 52.6088Z" fill="#FFBB99"/>
<path d="M19.555 20.7308C19.555 18.1224 17.4405 16.0078 14.832 16.0078C12.2237 16.0078 10.109 18.1223 10.109 20.7308V30.9888C10.109 37.1007 7.75952 42.8013 6 48.5759V67.4589L12.3555 77H28.3031L19.555 20.7308Z" fill="#FFD9B3"/>
<path d="M71.6312 43.4406L64.0559 47.0984V34.7568L68.2356 36.4082C70.8282 35.1563 73.8379 37.0453 73.8379 39.9244C73.8379 41.4228 72.9806 42.789 71.6312 43.4406Z" fill="#FF9966"/>
<path d="M71.6312 34.7489L64.0559 38.4067V29.7348L68.2356 27.7165C70.8282 26.4646 73.8379 28.3536 73.8379 31.2327C73.8379 32.7311 72.9806 34.0973 71.6312 34.7489Z" fill="#FFBB99"/>
<path d="M64.412 11.7388C64.412 6.92027 60.4918 3 55.6732 3H41.988L35.4841 46.2271L41.988 77H55.6732C60.4918 77 64.412 73.0797 64.412 68.2612V11.7388Z" fill="#193C80"/>
<path d="M28.303 3C23.4844 3 19.5643 6.92027 19.5643 11.7388V68.2612C19.5643 73.0797 23.4844 77 28.303 77H41.9881V3H28.303Z" fill="#1F5C99"/>
<path d="M55.6732 7.33594H41.988L35.8479 40.5166L41.9881 72.6641H55.6734C58.1011 72.6641 60.0762 70.6889 60.0762 68.2612V11.7388C60.0761 9.3111 58.1009 7.33594 55.6732 7.33594Z" fill="#6699FF"/>
<path d="M28.303 7.33594C25.8754 7.33594 23.9002 9.3111 23.9002 11.7388V68.2612C23.9002 70.6889 25.8754 72.6641 28.303 72.6641H41.9881V55.1758L44.3469 48.6719L41.9881 42.168V37.8219L39.771 31.3281L41.9881 24.8242V7.33594H28.303Z" fill="#60B7FD"/>
<path d="M41.9881 16.0078H44.1561V11.6719H41.9881L40.3253 13.5323L41.9881 16.0078Z" fill="#60B7FD"/>
<path d="M31.1483 11.6719H41.9881V16.0078H31.1483V11.6719Z" fill="#80D4FF"/>
<path d="M48.4921 11.6719H52.828V16.0078H48.4921V11.6719Z" fill="#60B7FD"/>
<path d="M31.1483 63.9922H35.4842V68.3281H31.1483V63.9922Z" fill="#80D4FF"/>
<path d="M44.1561 68.3281V63.9922H41.9881L40.9042 66.1602L41.9881 68.3281H44.1561Z" fill="#60B7FD"/>
<path d="M39.8202 63.9922H41.9881V68.3281H39.8202V63.9922Z" fill="#80D4FF"/>
<path d="M48.4921 63.9922H52.828V68.3281H48.4921V63.9922Z" fill="#60B7FD"/>
<path d="M41.9881 37.8223L41.9913 37.8332H41.9881V37.8223Z" fill="#193C80"/>
<path d="M46.327 24.8242V29.1602H39.771L41.9881 24.8242H46.327Z" fill="#193C80"/>
<path d="M28.9835 24.8242V37.832H41.9881V24.8242H28.9835ZM33.3194 33.4961V29.1602H37.6554V33.4961H33.3194Z" fill="#1F5C99"/>
<path d="M54.999 33.4961H46.3239V37.832H50.663V42.168H41.9912V50.8398H41.988L40.3253 53.097L41.9881 55.1758H54.9991V33.4961H54.999ZM50.663 50.8398H46.3271V46.5039H50.663V50.8398Z" fill="#193C80"/>
<path d="M37.6554 50.8398V42.168H33.3194V50.8398H28.9835V55.1758H41.9881V50.8398H37.6554Z" fill="#1F5C99"/>
<path d="M50.6631 24.8242H54.999V29.1602H50.6631V24.8242Z" fill="#193C80"/>
</svg>
