<svg width="130" height="130" viewBox="0 0 130 130" fill="none" xmlns="http://www.w3.org/2000/svg">
<circle cx="65" cy="65" r="65" fill="white"/>
<g clip-path="url(#clip0_263_1553)">
<path d="M87.976 43.2832H42.1761L49.7852 96.6421C49.978 97.9951 51.1385 99.0005 52.5078 99.0005H77.6443C79.0137 99.0005 80.1742 97.9951 80.3669 96.6421L87.976 43.2832Z" fill="#F3E8D7"/>
<path d="M80.4535 43.2832L72.5078 99.0005H77.6438C79.0132 99.0005 80.1742 97.9951 80.3669 96.6421L87.976 43.2832H80.4535Z" fill="#E5D8C6"/>
<path d="M83.2295 35H46.9227C46.4061 35 45.9604 35.3623 45.8557 35.8677L44.1884 43.9341H85.9638L84.2965 35.8677C84.1918 35.3623 83.7461 35 83.2295 35Z" fill="#464C50"/>
<path d="M84.7534 38.0801L84.2965 35.8677C84.1918 35.3623 83.7461 35 83.2295 35H76.7236L77.0783 36.7163C77.3684 38.1196 76.295 38.79 74.8596 38.79H45.2515L44.1884 43.9346H85.9638L84.7534 38.0801Z" fill="#31363B"/>
<path d="M89.3488 48.4014H40.8033C39.9173 48.4014 39.1996 47.6851 39.1996 46.8008V42.5566C39.1996 41.6729 39.9178 40.9561 40.8033 40.9561H89.3488C90.2343 40.9561 90.9525 41.6729 90.9525 42.5566V46.8008C90.9525 47.6851 90.2343 48.4014 89.3488 48.4014Z" fill="#464C50"/>
<path d="M89.3488 40.9561H83.5054V42.2896C83.5054 44.8223 82.2505 46.2314 79.7128 46.2314H41.6067C40.7206 46.2314 40.0029 45.5151 40.0029 44.6313L39.1996 46.8008C39.1996 47.6851 39.9178 48.4014 40.8033 48.4014H89.3488C90.2343 48.4014 90.9525 47.6851 90.9525 46.8008V42.5566C90.9525 41.6729 90.2343 40.9561 89.3488 40.9561Z" fill="#31363B"/>
<path d="M47.4007 90.0024L42.6262 56.5225C42.5157 55.7451 43.1199 55.0498 43.9066 55.0498H86.2456C87.0318 55.0498 87.6365 55.7451 87.5254 56.5225L82.7515 90.0024C82.6605 90.6387 82.115 91.1113 81.4711 91.1113H48.681C48.0372 91.1113 47.4917 90.6387 47.4007 90.0024Z" fill="#D38231"/>
<path d="M86.2456 55.0498H80.2451L75.1027 91.1113H81.4711C82.115 91.1113 82.6605 90.6387 82.7515 90.0024L87.5259 56.5225C87.6365 55.7451 87.0323 55.0498 86.2456 55.0498Z" fill="#C1752F"/>
<path d="M71.681 65.8106C68.84 62.9751 63.5793 63.628 59.9315 67.2691C56.2833 70.9097 55.6292 76.1602 58.4702 78.9957C61.3112 81.8311 66.5719 81.1783 70.2197 77.5372C73.8679 73.8965 74.522 68.646 71.681 65.8106Z" fill="#A0E557"/>
<path d="M71.6815 65.8105C71.3792 65.5088 71.0484 65.2495 70.6962 65.0264C69.0582 65.9189 65.8973 68.0171 65.0034 71.2886C64.6145 72.7124 63.2358 74.4058 61.0176 76.1841C59.7226 77.2227 58.4824 78.0112 57.9193 78.3545C58.0861 78.5791 58.2686 78.7939 58.4707 78.9956C58.7495 79.2739 59.0524 79.5176 59.3743 79.7295C61.2798 78.5225 65.9203 75.2822 66.8723 71.7974C67.6962 68.7822 71.2583 66.8838 72.2118 66.4233C72.0509 66.209 71.8748 66.0039 71.6815 65.8105Z" fill="#93CC4A"/>
</g>
<defs>
<clipPath id="clip0_263_1553">
<rect width="64" height="64" fill="white" transform="translate(33 35)"/>
</clipPath>
</defs>
</svg>
