<svg width="130" height="130" viewBox="0 0 130 130" fill="none" xmlns="http://www.w3.org/2000/svg">
<circle cx="65" cy="65" r="65" fill="white"/>
<path d="M92.3854 45.2412H37.6141V92.1212H92.3854V45.2412Z" fill="#E9EAEB"/>
<path d="M92.3862 45.2412H85.4325V92.1212H92.3862V45.2412Z" fill="#B9BBC1"/>
<path d="M92.577 45.2406H37.423V37.5449C37.423 36.93 37.9214 36.4316 38.5363 36.4316H91.4638C92.0786 36.4316 92.577 36.93 92.577 37.5449V45.2406Z" fill="#FDC74F"/>
<path d="M91.4638 36.4316H85.6233V42.225H92.577V37.5449C92.577 36.9301 92.0786 36.4316 91.4638 36.4316Z" fill="#FCA629"/>
<path d="M37.6141 59.1958C35.0934 59.1958 33.0497 57.1523 33.0497 54.6316V50.9131H42.1784V54.6316C42.1785 57.1523 40.1349 59.1958 37.6141 59.1958Z" fill="#E60D28"/>
<path d="M46.7428 59.1958C44.222 59.1958 42.1784 57.1523 42.1784 54.6316V50.9131H51.307V54.6316C51.3071 57.1523 49.2635 59.1958 46.7428 59.1958Z" fill="#F2F2F2"/>
<path d="M55.8714 59.1958C53.3506 59.1958 51.307 57.1523 51.307 54.6316V50.9131H60.4356V54.6316C60.4358 57.1523 58.3921 59.1958 55.8714 59.1958Z" fill="#E60D28"/>
<path d="M65 59.1958C62.4793 59.1958 60.4356 57.1523 60.4356 54.6316V50.9131H69.5643V54.6316C69.5643 57.1523 67.5208 59.1958 65 59.1958Z" fill="#F2F2F2"/>
<path d="M74.1286 59.1958C71.6079 59.1958 69.5642 57.1523 69.5642 54.6316V50.9131H78.6929V54.6316C78.693 57.1523 76.6494 59.1958 74.1286 59.1958Z" fill="#E60D28"/>
<path d="M83.2572 59.1958C80.7365 59.1958 78.6929 57.1523 78.6929 54.6316V50.9131H87.8215V54.6316C87.8216 57.1523 85.778 59.1958 83.2572 59.1958Z" fill="#F2F2F2"/>
<path d="M92.3859 59.1958C89.8651 59.1958 87.8215 57.1523 87.8215 54.6316V50.9131H96.9501V54.6316C96.9503 57.1523 94.9066 59.1958 92.3859 59.1958Z" fill="#E60D28"/>
<path d="M42.1784 50.9136H33.0497L37.4184 42.2256H45.2989L42.1784 50.9136Z" fill="#FC502A"/>
<path d="M51.307 50.9136H42.1784L45.2989 42.2256H53.1793L51.307 50.9136Z" fill="white"/>
<path d="M60.4356 50.9136H51.307L53.1793 42.2256H61.0598L60.4356 50.9136Z" fill="#FC502A"/>
<path d="M69.5643 50.9136H60.4356L61.0598 42.2256H68.9403L69.5643 50.9136Z" fill="white"/>
<path d="M78.6929 50.9136H69.5642L68.9402 42.2256H76.8207L78.6929 50.9136Z" fill="#FC502A"/>
<path d="M87.8215 50.9136H78.6929L76.8207 42.2256H84.7011L87.8215 50.9136Z" fill="white"/>
<path d="M96.9501 50.9136H87.8215L84.7011 42.2256H92.5816L96.9501 50.9136Z" fill="#FC502A"/>
<path d="M94.9154 87.8379H35.0846C33.9334 87.8379 33 88.7711 33 89.9225V92.9774C33 93.3038 33.2646 93.5683 33.5909 93.5683H96.409C96.7354 93.5683 96.9999 93.3036 96.9999 92.9774V89.9225C97 88.7711 96.0666 87.8379 94.9154 87.8379Z" fill="#8B8996"/>
<path d="M94.9154 87.8379H90.0249V93.5683H96.4091C96.7355 93.5683 97 93.3038 97 92.9774V89.9225C97 88.7711 96.0666 87.8379 94.9154 87.8379Z" fill="#706F7F"/>
<path d="M86.991 87.7105H58.8769C58.4181 87.7105 58.0463 87.3386 58.0463 86.8799V71.4097C58.0463 70.951 58.4181 70.5791 58.8769 70.5791H86.991C87.4498 70.5791 87.8216 70.951 87.8216 71.4097V86.88C87.8216 87.3386 87.4498 87.7105 86.991 87.7105Z" fill="#00C6C8"/>
<path d="M86.991 70.5791H80.8464V87.7105H86.991C87.4498 87.7105 87.8216 87.3386 87.8216 86.8799V71.4097C87.8216 70.951 87.4498 70.5791 86.991 70.5791Z" fill="#0FB0C0"/>
<path d="M54.0976 87.8374H41.2706V65.4097C41.2706 64.951 41.6425 64.5791 42.1013 64.5791H53.267C53.7258 64.5791 54.0976 64.951 54.0976 65.4097V87.8374Z" fill="#00C6C8"/>
<path d="M53.267 64.5791H47.1224V87.8374H54.0975V65.4097C54.0976 64.951 53.7258 64.5791 53.267 64.5791Z" fill="#0FB0C0"/>
<path d="M50.5131 77.7167C51.0465 77.7167 51.4789 77.2844 51.4789 76.751V75.0126C51.4789 74.4792 51.0465 74.0469 50.5131 74.0469C49.9797 74.0469 49.5474 74.4792 49.5474 75.0126V76.751C49.5472 77.2844 49.9797 77.7167 50.5131 77.7167Z" fill="white"/>
</svg>
