<svg width="130" height="130" viewBox="0 0 130 130" fill="none" xmlns="http://www.w3.org/2000/svg">
<circle cx="65" cy="65" r="65" fill="white"/>
<path d="M55.6378 53.8857H76.1047V81.1373H55.6378V53.8857Z" fill="#2D77FC"/>
<path d="M72.4174 53.8711L67.1646 61.9204L65.8689 63.9059L64.5732 61.9204L59.3251 53.8711H72.4174Z" fill="#F7F8F8"/>
<path d="M67.1646 61.9203L65.8689 63.9058L64.5732 61.9203L64.9973 57.7908L65.0486 57.2734H66.6892L66.7358 57.7209L67.1646 61.9203Z" fill="#F24E66"/>
<path d="M67.5206 56.8222L66.5344 57.9483C66.1626 58.3727 65.5022 58.3727 65.1305 57.9483L64.1443 56.8222C63.616 56.219 64.0443 55.2744 64.8462 55.2744H66.8187C67.6206 55.2744 68.0489 56.219 67.5206 56.8222Z" fill="#F24E66"/>
<path d="M68.7913 49.6387V53.88L65.8736 55.2736L62.9466 53.88V49.6387H68.7913Z" fill="#F9B29C"/>
<path d="M68.7913 49.6387V51.8712C67.971 52.3326 67.0295 52.5936 66.0274 52.5936C64.8902 52.5936 63.8321 52.2581 62.9466 51.6801V49.6387H68.7913Z" fill="#ED8768"/>
<path d="M70.5134 53.8836L68.2248 56.9727L65.8717 55.275L68.7943 52.7285L70.4705 53.8782L70.5134 53.8836Z" fill="#E6E8E8"/>
<path d="M61.2287 53.8836L63.5173 56.9727L65.8704 55.275L62.9478 52.7285L61.2717 53.8782L61.2287 53.8836Z" fill="#E6E8E8"/>
<path d="M85.8012 55.57L76.1051 67.3988V53.8837L80.0417 50.3668L80.8821 40.4031L86.0961 40.2168L87.1982 51.2138C87.2891 52.7925 86.7932 54.3466 85.8012 55.57Z" fill="#2D77FC"/>
<path d="M77.2689 65.9775L76.1051 67.3984V57.2725L77.2689 65.9775Z" fill="#125AC4"/>
<path d="M86.6328 37.0502L86.1153 40.4014H80.8829L79.5569 38.0554C79.3384 37.6688 79.4694 37.1785 79.8515 36.9524C80.2419 36.7214 80.7458 36.8534 80.9728 37.2461L81.3872 37.963L81.455 36.7506C81.4831 35.3874 82.5614 34.2785 83.9233 34.2121C85.5024 34.1352 86.7828 35.4763 86.6328 37.0502Z" fill="#F9B29C"/>
<path d="M45.9414 55.57L55.6375 67.3988V53.8837L51.7009 50.3668L50.8605 40.4031L45.6465 40.2168L44.5444 51.2138C44.4535 52.7925 44.9495 54.3466 45.9414 55.57Z" fill="#2D77FC"/>
<path d="M54.4737 65.9775L55.6375 67.3984V57.2725L54.4737 65.9775Z" fill="#125AC4"/>
<path d="M45.1098 37.0502L45.6273 40.4014H50.8597L52.1857 38.0554C52.4042 37.6688 52.2732 37.1785 51.8911 36.9524C51.5007 36.7214 50.9968 36.8534 50.7698 37.2461L50.3555 37.963L50.2876 36.7506C50.2595 35.3874 49.1812 34.2785 47.8194 34.2121C46.2402 34.1352 44.9598 35.4763 45.1098 37.0502Z" fill="#F9B29C"/>
<path d="M65.0509 102.199L65.9152 86.4368L66.7165 102.199H76.086L76.0147 81.1367H55.7336L55.6579 102.199H65.0509Z" fill="#29275C"/>
<path d="M60.4455 46.4539C61.2069 46.4539 61.8241 45.7336 61.8241 44.8451C61.8241 43.9566 61.2069 43.2363 60.4455 43.2363C59.6841 43.2363 59.0668 43.9566 59.0668 44.8451C59.0668 45.7336 59.6841 46.4539 60.4455 46.4539Z" fill="#F9B29C"/>
<path d="M59.9709 45.3666C59.8054 45.2202 59.7143 45.0347 59.7143 44.8443C59.7143 44.6535 59.8054 44.4681 59.9704 44.3221C60.0185 44.2795 60.023 44.2065 59.9809 44.1584C59.9382 44.1104 59.8644 44.1058 59.8172 44.148C59.601 44.3388 59.4822 44.5859 59.4822 44.8443C59.4822 45.1023 59.601 45.3494 59.8168 45.5407C59.9311 45.641 60.0861 45.4687 59.9709 45.3666Z" fill="#ED8768"/>
<path d="M71.388 46.4539C72.1494 46.4539 72.7666 45.7336 72.7666 44.8451C72.7666 43.9566 72.1494 43.2363 71.388 43.2363C70.6266 43.2363 70.0093 43.9566 70.0093 44.8451C70.0093 45.7336 70.6266 46.4539 71.388 46.4539Z" fill="#F9B29C"/>
<path d="M71.8626 45.3666C72.0281 45.2202 72.1192 45.0347 72.1192 44.8443C72.1192 44.6535 72.0281 44.4681 71.8631 44.3221C71.815 44.2795 71.8105 44.2065 71.8526 44.1584C71.8953 44.1104 71.9692 44.1058 72.0163 44.148C72.2325 44.3388 72.3513 44.5859 72.3513 44.8443C72.3513 45.1023 72.2325 45.3494 72.0168 45.5407C71.9008 45.6424 71.7481 45.4682 71.8626 45.3666Z" fill="#ED8768"/>
<path d="M60.2602 43.0904V46.0524C60.2602 49.2012 62.8142 51.7493 65.957 51.7493C69.1057 51.7493 71.6538 49.2012 71.6538 46.0524V43.0904C71.6538 39.9416 69.1057 37.3936 65.957 37.3936C62.8077 37.3936 60.2602 39.9414 60.2602 43.0904Z" fill="#F9B29C"/>
<path d="M67.6915 44.4618C67.6915 44.8573 67.9085 45.1756 68.1786 45.1756C68.4487 45.1756 68.6705 44.8573 68.6705 44.4618C68.6705 44.0663 68.4487 43.7432 68.1786 43.7432C67.9085 43.7432 67.6915 44.0663 67.6915 44.4618Z" fill="#15144F"/>
<path d="M63.2446 44.4618C63.2446 44.8573 63.4616 45.1756 63.7317 45.1756C64.0018 45.1756 64.2236 44.8573 64.2236 44.4618C64.2236 44.0663 64.0018 43.7432 63.7317 43.7432C63.4616 43.7432 63.2446 44.0663 63.2446 44.4618Z" fill="#15144F"/>
<path d="M67.9452 47.5361C67.9465 47.5652 67.9539 47.5924 67.9539 47.6217C67.9539 48.7245 67.0599 49.6185 65.9571 49.6185C64.8543 49.6185 63.9603 48.7245 63.9603 47.6217C63.9603 47.5924 63.9677 47.5652 63.9689 47.5361H67.9452Z" fill="white"/>
<path d="M60.1763 44.1193L60.2593 44.1876C60.2593 44.1876 60.9471 44.2657 60.9471 44.1876C60.9471 44.1095 61.1276 42.8753 61.1276 42.8753C61.1276 42.8753 62.357 41.1581 61.4789 39.5823C61.635 39.6653 65.3134 41.6069 70.1187 39.714C70.1187 39.714 70.787 40.2653 70.5772 41.7679C70.4699 42.5045 70.8017 43.5729 71.1188 44.6901H71.6554L72.0896 43.4558C72.0896 43.4558 74.724 41.1239 72.353 39.1481C72.3872 39.0506 72.4164 38.9579 72.4359 38.8652C72.4555 38.7969 72.4701 38.7335 72.4799 38.67C72.4896 38.6359 72.4945 38.6018 72.4994 38.5676C72.6994 37.3675 73.782 36.1934 72.8697 35.4958C72.8697 35.4958 72.8648 35.4909 72.86 35.4909C69.9573 33.2761 60.8984 32.6598 60.1763 37.2553C60.1763 37.2553 58.5176 37.4218 58.1809 38.9146C57.8346 40.4074 60.1763 44.1193 60.1763 44.1193Z" fill="#15144F"/>
<path d="M69.959 72.958C67.8499 72.958 66.0605 74.5061 65.7571 76.5932L62.6819 97.7454L68.6392 97.9751L75.7271 78.0776L69.959 72.958Z" fill="#03C88B"/>
<path d="M69.959 80.3066L67.4059 97.8801L68.6409 97.9788L72.8324 86.5838L69.959 80.3066Z" fill="#02B07E"/>
<path d="M69.9589 72.958H88.9639V100.21H69.9589V72.958Z" fill="#03C88B"/>
<path d="M82.3818 68.7109V72.9523L79.4642 74.3459L76.5372 72.9523V68.7109H82.3818Z" fill="#F9B29C"/>
<path d="M82.3818 68.7109V70.9435C81.5615 71.4049 80.6201 71.6659 79.618 71.6659C78.4807 71.6659 77.4227 71.3303 76.5372 70.7524V68.7109H82.3818Z" fill="#ED8768"/>
<path d="M84.104 72.9559L81.8154 76.045L79.4623 74.3473L82.3849 71.8008L84.061 72.9505L84.104 72.9559Z" fill="#02B07E"/>
<path d="M74.8193 72.9559L77.1079 76.045L79.461 74.3473L76.5384 71.8008L74.8622 72.9505L74.8193 72.9559Z" fill="#02B07E"/>
<path d="M85.1535 65.6216C85.9185 65.6216 86.5387 64.8978 86.5387 64.0051C86.5387 63.1124 85.9185 62.3887 85.1535 62.3887C84.3885 62.3887 83.7683 63.1124 83.7683 64.0051C83.7683 64.8978 84.3885 65.6216 85.1535 65.6216Z" fill="#F9B29C"/>
<path d="M85.6304 64.5297C85.7967 64.3826 85.8883 64.1963 85.8883 64.005C85.8883 63.8132 85.7967 63.6269 85.6309 63.4803C85.5826 63.4374 85.5781 63.3641 85.6204 63.3158C85.6632 63.2675 85.7375 63.263 85.7849 63.3054C86.0021 63.4971 86.1215 63.7454 86.1215 64.005C86.1215 64.2642 86.0021 64.5124 85.7853 64.7046C85.6688 64.8069 85.5154 64.6318 85.6304 64.5297Z" fill="#ED8768"/>
<path d="M74.1595 65.6216C74.9245 65.6216 75.5447 64.8978 75.5447 64.0051C75.5447 63.1124 74.9245 62.3887 74.1595 62.3887C73.3945 62.3887 72.7743 63.1124 72.7743 64.0051C72.7743 64.8978 73.3945 65.6216 74.1595 65.6216Z" fill="#F9B29C"/>
<path d="M73.6925 64.6946C73.7349 64.6463 73.7308 64.5725 73.6825 64.5297C73.5162 64.3826 73.4247 64.1963 73.4247 64.005C73.4247 63.8132 73.5162 63.6269 73.682 63.4803C73.7303 63.4374 73.7349 63.3641 73.6925 63.3158C73.6497 63.2675 73.5754 63.263 73.5281 63.3054C73.3108 63.4971 73.1915 63.7454 73.1915 64.005C73.1915 64.2642 73.3108 64.5124 73.5276 64.7046C73.575 64.7462 73.6486 64.7437 73.6925 64.6946Z" fill="#ED8768"/>
<path d="M85.3398 62.2424V65.2184C85.3398 68.3821 82.7738 70.9422 79.616 70.9422C76.4524 70.9422 73.8922 68.3821 73.8922 65.2184V62.2424C73.8922 59.0787 76.4524 56.5186 79.616 56.5186C81.1978 56.5186 82.6273 57.157 83.6643 58.194C84.7012 59.231 85.3398 60.6604 85.3398 62.2424Z" fill="#F9B29C"/>
<path d="M77.8734 63.6195C77.8734 64.0168 77.6553 64.3367 77.384 64.3367C77.1126 64.3367 76.8897 64.0168 76.8897 63.6195C76.8897 63.2221 77.1126 62.8975 77.384 62.8975C77.6553 62.8975 77.8734 63.2221 77.8734 63.6195Z" fill="#15144F"/>
<path d="M82.3413 63.6195C82.3413 64.0168 82.1232 64.3367 81.8519 64.3367C81.5805 64.3367 81.3576 64.0168 81.3576 63.6195C81.3576 63.2221 81.5805 62.8975 81.8519 62.8975C82.1232 62.8975 82.3413 63.2221 82.3413 63.6195Z" fill="#15144F"/>
<path d="M77.6184 66.709C77.6172 66.7381 77.6097 66.7655 77.6097 66.795C77.6097 67.903 78.508 68.8012 79.616 68.8012C80.724 68.8012 81.6222 67.903 81.6222 66.795C81.6222 66.7655 81.6148 66.7381 81.6136 66.709H77.6184Z" fill="white"/>
<path d="M85.4225 63.2747L85.343 63.3442C85.343 63.3442 84.6485 63.4237 84.6485 63.3442C84.6485 63.2649 84.47 62.0246 84.47 62.0246C84.47 62.0246 83.2297 60.298 84.1226 58.7106C84.1226 58.7106 80.3639 60.7928 75.4326 58.848C75.4326 58.848 74.7616 59.4027 74.9762 60.9118C75.0814 61.6516 74.7461 62.729 74.4286 63.8503H73.8928L73.4562 62.61C73.4562 62.61 71.3429 58.7205 73.7241 56.7361C73.7241 56.7361 72.8807 53.5609 76.4329 52.4297L77.0184 54.305C77.0184 54.305 78.4173 52.1023 81.2055 51.9833C84.0037 51.8543 83.3983 54.3943 83.3983 54.3943C83.3983 54.3943 85.1745 53.5609 85.859 54.4936C86.5338 55.4263 85.4225 56.3788 85.4225 56.3788C85.4225 56.3788 86.3155 57.0237 86.6529 58.522C87.0002 60.0203 85.4225 63.2747 85.4225 63.2747Z" fill="#15144F"/>
<path d="M98.661 74.6423L88.9648 86.4711V72.956L92.9015 69.4391L93.7419 59.4754L98.9559 59.2891L100.058 70.2861C100.149 71.8648 99.6529 73.4188 98.661 74.6423Z" fill="#03C88B"/>
<path d="M90.1287 85.0508L88.9648 86.4717V76.3457L90.1287 85.0508Z" fill="#02B07E"/>
<path d="M99.4926 56.1235L98.9751 59.4747H93.7426L92.4166 57.1286C92.1982 56.7421 92.3291 56.2518 92.7113 56.0256C93.1017 55.7946 93.6055 55.9266 93.8325 56.3194L94.2469 57.0362L94.3148 55.8239C94.3428 54.4607 95.4211 53.3517 96.783 53.2854C98.3622 53.2085 99.6425 54.5496 99.4926 56.1235Z" fill="#F9B29C"/>
<path d="M88.8812 102.199L88.8745 100.21H70.055L70.0479 102.199H88.8812Z" fill="#393982"/>
<path d="M68.6774 100.698C68.5678 100.756 68.4435 100.778 68.3266 100.778C68.0781 100.778 67.8296 100.661 67.6834 100.442L67.2595 99.8062L67.0914 102.196H61.566L62.6843 97.7451L68.6409 97.979L69.072 99.8427C69.1524 100.179 68.9843 100.537 68.6774 100.698Z" fill="#F9B29C"/>
<path d="M35.906 80.5493C35.906 81.7141 51.6796 81.7141 51.6796 80.5493C50.1681 75.8693 55.7483 64.6203 49.002 60.1966C43.2889 56.4503 40.4236 60.9749 40.4236 60.9749C40.4236 60.9749 38.9322 60.076 36.5327 62.16C33.0914 65.149 36.2173 71.4669 36.2173 71.4669C36.7399 73.5016 36.1767 78.4751 35.906 80.5493Z" fill="#15144F"/>
<path d="M36.6647 81.8604H51.5502V102.198H36.6647V81.8604Z" fill="#FF8E2E"/>
<path d="M47.2489 76.3652L47.2943 81.8622H40.9269L40.8815 76.3652H47.2489Z" fill="#F9B29C"/>
<path d="M47.2943 76.3652V79.6757C45.0397 79.7817 42.928 79.2423 40.9269 78.1634V76.3652H47.2943Z" fill="#ED8768"/>
<path d="M50.6047 81.8701C50.6047 81.8701 50.0629 86.1169 47.9287 86.824C45.5718 87.6049 44.0638 85.3096 44.0638 85.3096L48.6117 81.8633L50.6047 81.8701Z" fill="#CAF5FE"/>
<path d="M37.6097 81.8701C37.6097 81.8701 38.1515 86.1169 40.2856 86.824C42.6426 87.6049 44.1506 85.3096 44.1506 85.3096L39.6027 81.8633L37.6097 81.8701Z" fill="#CAF5FE"/>
<path d="M48.7713 81.8633C48.1924 83.9034 46.3107 85.3991 44.0845 85.3991C41.8583 85.3991 39.9835 83.9034 39.4046 81.8633H48.7713Z" fill="#F9B29C"/>
<path d="M50.5683 72.7148C51.4707 72.7148 52.2023 71.8616 52.2023 70.8091C52.2023 69.7566 51.4707 68.9033 50.5683 68.9033C49.6659 68.9033 48.9343 69.7566 48.9343 70.8091C48.9343 71.8616 49.6659 72.7148 50.5683 72.7148Z" fill="#F9B29C"/>
<path d="M51.1312 71.4279C51.3272 71.2544 51.4352 71.0348 51.4352 70.8092C51.4352 70.5832 51.3272 70.3635 51.1317 70.1906C51.0748 70.1401 51.0694 70.0536 51.1194 69.9967C51.1699 69.9398 51.2574 69.9344 51.3133 69.9844C51.5694 70.2105 51.7101 70.5031 51.7101 70.8092C51.7101 71.1148 51.5694 71.4075 51.3138 71.6341C51.1765 71.7546 50.9955 71.5482 51.1312 71.4279Z" fill="#ED8768"/>
<path d="M37.6072 72.7148C38.5096 72.7148 39.2412 71.8616 39.2412 70.8091C39.2412 69.7566 38.5096 68.9033 37.6072 68.9033C36.7048 68.9033 35.9732 69.7566 35.9732 70.8091C35.9732 71.8616 36.7048 72.7148 37.6072 72.7148Z" fill="#F9B29C"/>
<path d="M37.0447 71.4279C36.8487 71.2544 36.7407 71.0348 36.7407 70.8092C36.7407 70.5832 36.8487 70.3635 37.0441 70.1906C37.1011 70.1401 37.1064 70.0536 37.0565 69.9967C37.006 69.9398 36.9185 69.9344 36.8626 69.9844C36.6065 70.2105 36.4658 70.5031 36.4658 70.8092C36.4658 71.1148 36.6065 71.4075 36.8621 71.6341C36.9988 71.7541 37.1813 71.5491 37.0447 71.4279Z" fill="#ED8768"/>
<path d="M50.8356 67.0169V72.2444C50.8356 75.9696 47.8129 78.9918 44.0879 78.9918C40.354 78.9918 37.3403 75.9696 37.3403 72.2444V67.0169C37.3403 63.2856 40.3624 60.2695 44.0879 60.2695C47.813 60.2695 50.8356 63.2915 50.8356 67.0169Z" fill="#F9B29C"/>
<path d="M42.0325 70.3561C42.0325 70.8246 41.7754 71.2017 41.4555 71.2017C41.1355 71.2017 40.8727 70.8246 40.8727 70.3561C40.8727 69.8877 41.1355 69.5049 41.4555 69.5049C41.7754 69.5049 42.0325 69.8877 42.0325 70.3561Z" fill="#15144F"/>
<path d="M47.3001 70.3561C47.3001 70.8246 47.043 71.2017 46.7231 71.2017C46.4032 71.2017 46.1404 70.8246 46.1404 70.3561C46.1404 69.8877 46.4032 69.5049 46.7231 69.5049C47.043 69.5049 47.3001 69.8877 47.3001 70.3561Z" fill="#15144F"/>
<path d="M41.7319 73.998C41.7304 74.0324 41.7216 74.0647 41.7216 74.0994C41.7216 75.4058 42.7806 76.4648 44.087 76.4648C45.3933 76.4648 46.4523 75.4058 46.4523 74.0994C46.4523 74.0647 46.4436 74.0324 46.4421 73.998H41.7319Z" fill="white"/>
<path d="M51.152 66.8569L50.8534 68.9519C50.8534 71.1571 49.808 72.4837 49.808 72.4837C49.808 72.4837 49.518 70.4014 48.2881 68.249C47.0581 66.0965 43.0166 64.7259 41.2157 64.0845C40.8026 63.9352 40.504 63.7332 40.2929 63.5135C40.1175 65.7713 37.4642 71.8952 37.3586 71.7017L37.2818 67.021C37.2818 63.2366 40.1385 60.0947 44.0139 60.0947C45.8766 60.0947 47.5634 60.8502 48.7847 62.0715C50.0061 63.2926 51.152 64.9943 51.152 66.8569Z" fill="#15144F"/>
<path d="M58.2975 102.198V88.1338C58.2975 84.6691 55.4888 81.8604 52.0241 81.8604H51.5499V102.198H58.2975Z" fill="#FF8E2E"/>
<path d="M51.7759 92.3125H52.3085V102.199H51.7759V92.3125Z" fill="#F67112"/>
<path d="M36.6792 102.198V81.8604H36.205C32.7403 81.8604 29.9315 84.6691 29.9315 88.1338V102.198H36.6792Z" fill="#FF8E2E"/>
<path d="M35.3726 92.3125H35.9052V102.199H35.3726V92.3125Z" fill="#F67112"/>
</svg>
