<svg width="80" height="80" viewBox="0 0 80 80" fill="none" xmlns="http://www.w3.org/2000/svg">
<g clip-path="url(#clip0_264_1540)">
<path d="M60.3284 46.0238C60.3284 31.4834 48.5724 19.6963 34.0704 19.6963C19.5685 19.6963 7.8125 31.4834 7.8125 46.0238C7.8125 60.5642 19.5685 72.3513 34.0704 72.3513C48.5724 72.3513 60.3284 60.5642 60.3284 46.0238Z" fill="#42A6FA"/>
<path d="M34.0704 19.6963C32.7228 19.6963 31.3983 19.7982 30.1056 19.9948C42.7258 21.9113 52.3981 32.8347 52.3981 46.0238C52.3981 59.2129 42.7258 70.1363 30.1056 72.0529C31.3983 72.2494 32.7228 72.3513 34.0704 72.3513C48.5724 72.3513 60.3284 60.5642 60.3284 46.0238C60.3284 31.4834 48.5724 19.6963 34.0704 19.6963Z" fill="#1171C3"/>
<path d="M30.6574 29.9288C26.6126 32.4636 23.5785 36.5188 25.8539 41.0818C28.1293 45.6442 33.1854 43.8699 37.8626 43.2363C42.5397 42.6028 39.0003 57.051 41.781 60.5996C44.5618 64.1482 52.3987 57.051 51.6406 52.488C50.5176 45.7327 50.1239 43.3627 59.2249 38.547L59.2493 38.5378C56.1816 28.1503 46.8958 20.4427 35.7147 19.75L35.7135 19.7897C35.7135 19.7897 34.7022 27.394 30.6574 29.9288Z" fill="#BAEB6C"/>
<path d="M50.5219 25.5059C50.5237 25.5071 50.5255 25.5089 50.5273 25.5101C50.5255 25.5089 50.5237 25.5077 50.5219 25.5059Z" fill="#BAEB6C"/>
<path d="M53.7329 28.5771C53.7329 28.5776 53.7334 28.5781 53.7339 28.5781C53.7334 28.5776 53.7334 28.5776 53.7329 28.5771Z" fill="#BAEB6C"/>
<path d="M16.6266 57.9376C15.412 56.0852 18.7756 51.7279 19.5337 48.4326C20.2924 45.1373 15.7416 45.3906 14.3512 44.2499C12.9608 43.1091 11.0645 38.1665 9.67407 37.0258L9.4519 36.8506C8.39233 39.707 7.8125 42.7979 7.8125 46.0242C7.8125 54.7266 12.0239 62.4414 18.5144 67.2345L18.5223 66.6827C18.5223 66.6827 19.5337 62.3737 16.6266 57.9376Z" fill="#BAEB6C"/>
<path d="M51.6406 52.4879C51.6351 52.455 51.6296 52.4226 51.6241 52.3896C51.1218 54.4191 50.3845 56.3557 49.4427 58.1685C50.9363 56.4058 51.9342 54.2567 51.6406 52.4879Z" fill="#BAEB6C"/>
<path d="M35.7147 19.75L35.7135 19.7897C35.7135 19.7897 35.6293 20.4244 35.412 21.387C44.6198 24.8721 51.3611 33.3962 52.2888 43.6062C53.4491 42.0193 55.5713 40.48 59.2249 38.547L59.2493 38.5378C56.1816 28.1503 46.8958 20.4427 35.7147 19.75Z" fill="#96D629"/>
<path d="M34.035 79.9995C32.1753 79.9995 30.3021 79.847 28.4302 79.5375C19.4818 78.0598 11.6443 73.1862 6.3617 65.8144C1.07911 58.4425 -1.01623 49.4545 0.462046 40.5067C0.568858 39.8586 1.18287 39.4203 1.82923 39.5271C2.47743 39.6339 2.91627 40.2461 2.80885 40.8943C1.43495 49.2152 3.38319 57.5734 8.29591 64.4289C13.2086 71.2843 20.4962 75.8162 28.8184 77.1907C45.9979 80.0288 62.2797 68.3608 65.1172 51.1836C66.4911 42.8627 64.5429 34.5046 59.6301 27.6491C54.718 20.7936 47.4298 16.2618 39.1083 14.8872C38.4601 14.7804 38.0213 14.1683 38.1281 13.5201C38.2355 12.8719 38.8489 12.4336 39.4952 12.5404C48.4442 14.0181 56.2817 18.8918 61.5637 26.2636C66.8463 33.6354 68.9417 42.6234 67.464 51.5712C65.9863 60.519 61.1121 68.3559 53.7396 73.6379C47.9089 77.8151 41.0681 79.9995 34.035 79.9995Z" fill="#09A66D"/>
<path d="M26.8134 28.7323C14.1156 26.5777 6.2384 10.5902 6.2384 10.5902C6.2384 10.5902 18.949 -1.90432 31.6467 0.249606C44.3445 2.40354 52.2217 18.3911 52.2217 18.3911C52.2217 18.3911 39.5111 30.8862 26.8134 28.7323Z" fill="#36D84E"/>
<path d="M51.5039 17.0632L39.0863 14.9685L27.4872 0.0332031C26.5619 0.0875244 25.6451 0.205932 24.7406 0.37561L35.6195 14.3832L26.2561 12.8036L18.2666 2.46667C17.5171 2.80481 16.7883 3.1637 16.0858 3.53601L22.7978 12.2201L7.31506 9.60779C6.61987 10.2151 6.2384 10.5898 6.2384 10.5898C6.2384 10.5898 6.49353 11.1068 6.98303 11.9644L22.3816 14.562L13.8416 21.1654C14.3915 21.7318 14.9683 22.2915 15.5713 22.8347L25.5737 15.101L35.4864 16.7733L22.005 27.2036C22.8418 27.5942 23.7067 27.9324 24.5984 28.2046L38.6786 17.3123L51.1041 19.4082C51.8243 18.7801 52.2217 18.3907 52.2217 18.3907C52.2217 18.3907 51.9757 17.8927 51.5039 17.0632Z" fill="#09A66D"/>
<path d="M60.8582 13.2134C64.2645 5.15308 76.0669 2.43945 76.0669 2.43945C76.0669 2.43945 82.3468 12.7941 78.9404 20.8544C75.5347 28.9147 63.7317 31.6283 63.7317 31.6283C63.7317 31.6283 57.4518 21.2737 60.8582 13.2134Z" fill="#36D84E"/>
<path d="M79.9054 14.2064L70.8295 18.0138L76.7883 3.76758C76.3617 2.92529 76.0669 2.43945 76.0669 2.43945C76.0669 2.43945 75.5054 2.56885 74.5917 2.85449L68.4332 17.5774L64.6143 8.18103C63.9673 8.75171 63.3569 9.37183 62.8033 10.0438L67.1307 20.6914L63.0658 30.4094C63.4625 31.184 63.7317 31.6283 63.7317 31.6283C63.7317 31.6283 64.342 31.4879 65.3235 31.1766L69.5209 21.1425L79.9017 16.7882C79.9707 15.9258 79.967 15.0609 79.9054 14.2064Z" fill="#09A66D"/>
</g>
<defs>
<clipPath id="clip0_264_1540">
<rect width="80" height="80" fill="white"/>
</clipPath>
</defs>
</svg>
