<svg width="80" height="80" viewBox="0 0 80 80" fill="none" xmlns="http://www.w3.org/2000/svg">
<g clip-path="url(#clip0_264_1558)">
<path d="M7.41061 37.0024L39.5761 69.234C41.1629 70.8241 43.7356 70.8241 45.3224 69.234C46.9092 67.644 46.9092 65.066 45.3224 63.4759L36.7325 54.8684L36.7619 54.839L46.4575 64.5546C48.0443 66.1446 50.6169 66.1446 52.2038 64.5546C53.7906 62.9645 53.7906 60.3865 52.2038 58.7964L42.5082 49.0809L42.5376 49.0515L53.3388 59.8749C54.9257 61.465 57.4983 61.465 59.0851 59.8749C60.672 58.2848 60.672 55.7069 59.0851 54.1168L48.2838 43.2932L48.3132 43.2638L56.9031 51.8713C58.4899 53.4614 61.0626 53.4614 62.6494 51.8713C64.2363 50.2812 64.2363 47.7033 62.6494 46.1132L35.8118 19.2204L27.2776 17.0947L7.41061 37.0024Z" fill="#FFD8CC"/>
<path d="M56.9031 51.8718C58.4899 53.4619 61.0626 53.4619 62.6494 51.8718C62.9643 51.5562 63.214 51.2009 63.4039 50.8229C61.8274 51.8626 59.6874 51.6877 58.3005 50.298L49.7106 41.6904L49.6812 41.7198L48.212 43.192L48.3132 43.2641L56.9031 51.8718Z" fill="#FFC7B3"/>
<path d="M53.3467 59.8561C54.9335 61.4462 57.5062 61.4462 59.093 59.8561C59.4079 59.5405 59.6576 59.1852 59.8476 58.8072C58.271 59.8467 56.131 59.672 54.7441 58.2823L44.0303 47.377L42.533 48.8759L53.3467 59.8561Z" fill="#FFC7B3"/>
<path d="M40.9733 67.6603L32.3631 59.0322L30.8785 60.5186L39.5761 69.2339C41.1629 70.824 43.7356 70.824 45.3224 69.2339C45.6373 68.9184 45.887 68.563 46.0769 68.185C44.5002 69.2247 42.3602 69.05 40.9733 67.6603Z" fill="#FFC7B3"/>
<path d="M38.0821 53.5889L47.8547 62.806C49.2785 64.2326 51.4937 64.375 53.0805 63.2415C52.8823 63.7188 52.591 64.1665 52.2036 64.5547C50.6168 66.1448 48.0441 66.1448 46.4573 64.5547L45.3407 63.4359L36.7616 54.8393L38.0821 53.5889Z" fill="#FFC7B3"/>
<path d="M21.0065 10.088L0.535733 30.2622C-0.165635 30.9535 -0.180335 32.0818 0.502912 32.7911L4.68514 37.1331C5.38137 37.8559 6.53368 37.8664 7.24274 37.1564L27.5378 16.8369C28.2275 16.1463 28.2402 15.0297 27.5662 14.3237L23.5598 10.127C22.8684 9.40286 21.7195 9.38542 21.0065 10.088Z" fill="#FDBF38"/>
<path d="M7.8995 32.5078C7.33933 33.0692 6.43095 33.0692 5.87078 32.5078C5.31061 31.9464 5.31061 31.0363 5.87078 30.4748C6.43095 29.9133 7.33933 29.9134 7.8995 30.4748C8.45967 31.0363 8.45967 31.9464 7.8995 32.5078Z" fill="white"/>
<path d="M60.1563 17.3304L47.7788 15.4897C45.1687 15.1015 42.5024 15.4424 40.0732 16.4744L32.5913 19.6532C30.7923 20.4174 29.3544 21.8444 28.574 23.6397L23.5569 35.1826C23.1911 36.0241 23.5171 37.0065 24.313 37.461C27.1763 39.0964 30.8137 38.2393 32.6494 35.4966L37.1933 28.7073L45.1431 28.6308L62.2398 45.7626L71.5855 40.0031L60.1563 17.3304Z" fill="#FFC7B3"/>
<path d="M24.313 37.461C24.4404 37.5338 24.5698 37.5998 24.7 37.6629L29.7975 25.5614C30.5773 23.7673 32.0149 22.341 33.8139 21.5767L41.2963 18.3978C43.7251 17.3658 46.3915 17.0251 49.0016 17.4133L61.1055 19.2133L60.1564 17.3304L47.779 15.4897C45.1689 15.1015 42.5026 15.4424 40.0734 16.4745L32.5915 19.6533C30.7925 20.4176 29.3546 21.8446 28.5742 23.6397L23.5573 35.1826C23.1913 36.0241 23.5171 37.0065 24.313 37.461Z" fill="#F9AD95"/>
<path d="M71.8185 40.4727L60.1058 17.2313C59.6571 16.3409 60.0181 15.2546 60.9099 14.8115L66.021 12.2724C66.9074 11.832 67.9821 12.1941 68.4229 13.0816L79.812 36.0124C80.2303 36.8546 79.9296 37.8773 79.1224 38.3578L74.3351 41.2076C73.4421 41.739 72.2867 41.4016 71.8185 40.4727Z" fill="#6262F4"/>
<path d="M74.393 34.3427C73.8328 34.9041 72.9245 34.9041 72.3643 34.3427C71.8041 33.7813 71.8041 32.8712 72.3643 32.3097C72.9245 31.7483 73.8328 31.7483 74.393 32.3097C74.9532 32.8711 74.9532 33.7813 74.393 34.3427Z" fill="white"/>
<path d="M10.3892 52.3562L10.2776 52.2443C8.86616 50.8299 8.86616 48.5383 10.2776 47.1239L14.0094 43.3844C15.4227 41.9682 17.7154 41.9682 19.1287 43.3844L19.2403 43.4964C20.6518 44.9108 20.6518 47.2024 19.2403 48.6168L15.5086 52.3562C14.0952 53.7723 11.8024 53.7723 10.3892 52.3562Z" fill="#FFC7B3"/>
<path d="M19.1845 43.4406C19.0176 43.2734 18.8376 43.1276 18.6496 42.999C19.3441 44.3853 19.1166 46.1165 17.9619 47.2737L14.3417 50.9012C13.0645 52.1811 11.0853 52.3269 9.64566 51.3428C9.81848 51.6877 10.046 52.0122 10.3334 52.3002C11.7775 53.7474 14.1204 53.7474 15.5643 52.3002L19.1845 48.6727C20.6267 47.2274 20.6267 44.8857 19.1845 43.4406Z" fill="#F9AD95"/>
<path d="M15.6294 57.6023L15.5178 57.4904C14.1063 56.076 14.1063 53.7844 15.5178 52.37L19.2496 48.6305C20.6629 47.2143 22.9556 47.2143 24.3689 48.6305L24.4805 48.7425C25.892 50.1569 25.892 52.4485 24.4805 53.8628L20.7487 57.6023C19.3354 59.0186 17.0426 59.0186 15.6294 57.6023Z" fill="#FFC7B3"/>
<path d="M24.4246 48.6867C24.2578 48.5195 24.0778 48.3737 23.8898 48.2451C24.5843 49.6314 24.3568 51.3626 23.2021 52.5198L19.5819 56.1473C18.3046 57.4272 16.3255 57.573 14.8858 56.5889C15.0587 56.9338 15.2862 57.2583 15.5735 57.5463C17.0176 58.9935 19.3605 58.9935 20.8045 57.5463L24.4246 53.9188C25.8669 52.4737 25.8669 50.132 24.4246 48.6867Z" fill="#F9AD95"/>
<path d="M20.959 62.7478L20.8473 62.6359C19.4359 61.2215 19.4359 58.9299 20.8473 57.5155L24.5791 53.776C25.9925 52.3598 28.2851 52.3598 29.6985 53.776L29.8101 53.888C31.2215 55.3024 31.2215 57.594 29.8101 59.0084L26.0783 62.7478C24.665 64.1641 22.3721 64.1641 20.959 62.7478Z" fill="#FFC7B3"/>
<path d="M29.7542 53.8322C29.5874 53.665 29.4074 53.5192 29.2193 53.3906C29.9139 54.7769 29.6863 56.5081 28.5316 57.6653L24.9115 61.2928C23.6342 62.5727 21.6551 62.7185 20.2154 61.7344C20.3882 62.0793 20.6157 62.4038 20.9031 62.6918C22.3472 64.139 24.6901 64.139 26.134 62.6918L29.7542 59.0643C31.1964 57.6192 31.1964 55.2775 29.7542 53.8322Z" fill="#F9AD95"/>
<path d="M26.0217 68.1619L25.9101 68.0499C24.4986 66.6356 24.4986 64.344 25.9101 62.9296L29.6419 59.1901C31.0552 57.7739 33.3479 57.7739 34.7612 59.1901L34.8728 59.3021C36.2843 60.7164 36.2843 63.0081 34.8728 64.4224L31.141 68.1619C29.7277 69.578 27.4349 69.578 26.0217 68.1619Z" fill="#FFC7B3"/>
<path d="M34.8169 59.2462C34.6501 59.079 34.4701 58.9332 34.2821 58.8047C34.9766 60.191 34.7491 61.9221 33.5944 63.0794L29.9742 66.7069C28.6969 67.9867 26.7178 68.1326 25.2781 67.1484C25.451 67.4934 25.6785 67.8178 25.9658 68.1059C27.4099 69.5531 29.7528 69.5531 31.1968 68.1059L34.8169 64.4784C36.2592 63.0331 36.2592 60.6914 34.8169 59.2462Z" fill="#F9AD95"/>
</g>
<defs>
<clipPath id="clip0_264_1558">
<rect width="80" height="80" fill="white"/>
</clipPath>
</defs>
</svg>
