<svg width="32" height="32" viewBox="0 0 32 32" fill="none" xmlns="http://www.w3.org/2000/svg">
<rect x="0.5" y="0.5" width="31" height="31" rx="2.5" stroke="#2F3234"/>
<g clip-path="url(#clip0_262_2247)">
<path d="M13.5383 7H8.37048C7.61479 7 7.00006 7.61473 7.00006 8.37042V13.5383C7.00006 14.294 7.61479 14.9087 8.37048 14.9087H13.5383C14.294 14.9087 14.9088 14.294 14.9088 13.5383V8.37042C14.9086 7.61473 14.294 7 13.5383 7Z" fill="black"/>
<path d="M23.6295 7H18.4617C17.706 7 17.0912 7.61473 17.0912 8.37042V13.5383C17.0912 14.294 17.706 14.9087 18.4617 14.9087H23.6295C24.3852 14.9087 24.9999 14.294 24.9999 13.5383V8.37042C24.9999 7.61473 24.3852 7 23.6295 7Z" fill="black"/>
<path d="M13.5383 17.0908H8.37048C7.61479 17.0908 7.00006 17.7055 7.00006 18.4612V23.629C7.00006 24.3847 7.61479 24.9995 8.37048 24.9995H13.5383C14.294 24.9995 14.9088 24.3847 14.9088 23.629V18.4612C14.9086 17.7055 14.294 17.0908 13.5383 17.0908Z" fill="black"/>
<path d="M23.6295 17.0908H18.4617C17.706 17.0908 17.0912 17.7055 17.0912 18.4612V23.6291C17.0912 24.3848 17.706 24.9995 18.4617 24.9995H23.6295C24.3852 24.9995 24.9999 24.3847 24.9999 23.629V18.4612C24.9999 17.7055 24.3852 17.0908 23.6295 17.0908Z" fill="black"/>
</g>
<defs>
<clipPath id="clip0_262_2247">
<rect width="18" height="18" fill="white" transform="translate(7 7)"/>
</clipPath>
</defs>
</svg>
