<svg width="110" height="110" viewBox="0 0 110 110" fill="none" xmlns="http://www.w3.org/2000/svg">
<circle cx="55" cy="55" r="55" fill="white"/>
<path d="M64.4858 33.32H39.6533V27.4693C39.6533 26.4943 40.3923 25.6781 41.3626 25.5815L64.4858 23.2812V33.32Z" fill="#FC5271"/>
<path d="M57.6782 23.9584V33.32H64.4858V23.2812L57.6782 23.9584Z" fill="#E54C75"/>
<path d="M66.2105 34.3193H37.929V49.0103C37.929 53.2661 38.4736 57.5045 39.5495 61.6221C40.6253 65.7397 41.17 69.978 41.17 74.2337V83.037C41.17 85.1315 42.868 86.8295 44.9625 86.8295H59.1771C61.2716 86.8295 62.9696 85.1315 62.9696 83.037V74.2337C62.9696 69.978 63.5142 65.7396 64.5901 61.6221C65.666 57.5045 66.2106 53.2662 66.2106 49.0103L66.2105 34.3193Z" fill="#FF9F40"/>
<path d="M59.4026 34.3193V49.0103C59.4026 53.2661 58.858 57.5045 57.7823 61.6221C56.7064 65.7397 56.1619 69.978 56.1619 74.2337V83.037C56.1619 85.1315 54.4639 86.8295 52.3694 86.8295H59.177C61.2715 86.8295 62.9695 85.1315 62.9695 83.037V74.2337C62.9695 69.978 63.514 65.7396 64.5899 61.6221C65.6658 57.5045 66.2103 53.2662 66.2103 49.0103V34.3193H59.4026Z" fill="#EF8935"/>
<path d="M66.2105 38.9966H37.929V32.1852C37.929 31.1865 38.7386 30.377 39.7372 30.377H64.4021C65.4008 30.377 66.2103 31.1866 66.2103 32.1852V38.9966H66.2105Z" fill="#64696D"/>
<path d="M64.4022 30.377H59.4028V38.9968H66.2105V32.1855C66.2105 31.1867 65.401 30.377 64.4022 30.377Z" fill="#53585C"/>
<path d="M60.6745 27.0241L67.4797 26.3471C68.056 26.2899 68.4953 25.8048 68.4953 25.2255V24.1273C68.4953 23.4606 67.9199 22.9396 67.2565 23.0056L59.4358 23.7836V25.9025C59.4358 26.5691 60.0113 27.0901 60.6745 27.0241Z" fill="#FC5271"/>
<path d="M63.0707 86.9998C69.146 86.9998 74.0711 82.0747 74.0711 75.9994C74.0711 69.9241 69.146 64.999 63.0707 64.999C56.9953 64.999 52.0703 69.9241 52.0703 75.9994C52.0703 82.0747 56.9953 86.9998 63.0707 86.9998Z" fill="#1CA73A"/>
<path d="M61.9919 81.005C61.7425 81.005 61.5019 80.9083 61.3217 80.7338L57.439 76.9748C57.0568 76.6045 57.0469 75.9945 57.4169 75.6123C57.7873 75.2299 58.397 75.2202 58.7794 75.5902L61.908 78.6192L67.7593 71.4409C68.0953 71.0283 68.7023 70.9663 69.1149 71.3028C69.5274 71.639 69.5893 72.2459 69.253 72.6584L62.7388 80.6503C62.5683 80.8594 62.318 80.9875 62.0487 81.0034C62.0297 81.0045 62.0107 81.005 61.9919 81.005Z" fill="white"/>
</svg>
