<svg width="282" height="282" viewBox="0 0 282 282" fill="none" xmlns="http://www.w3.org/2000/svg">
<circle cx="141" cy="141" r="141" fill="#40A1E7"/>
<path d="M126.43 183.117H109.242V159.25H126.43V183.117ZM121.586 179.172V163.156H114.242V179.172H121.586ZM132.211 156.047H137.25V191.672H132.211V156.047ZM155.375 162.18C155.375 163.872 155.661 165.493 156.234 167.043C156.82 168.592 157.712 169.979 158.91 171.203C160.121 172.427 161.625 173.378 163.422 174.055L160.648 177.922C158.839 177.206 157.283 176.184 155.98 174.855C154.678 173.514 153.65 171.945 152.895 170.148C152.1 172.062 151.007 173.723 149.613 175.129C148.22 176.535 146.534 177.609 144.555 178.352L141.898 174.445C143.773 173.781 145.342 172.824 146.605 171.574C147.868 170.324 148.799 168.898 149.398 167.297C150.01 165.682 150.323 163.977 150.336 162.18V158.078H155.375V162.18ZM148.344 179.914H153.383V186.984H172.758V190.969H148.344V179.914ZM160.961 167.57H167.055V164.719H160.961V160.695H167.055V156.086H172.016V182.453H167.055V171.594H160.961V167.57Z" fill="#192570"/>
<path d="M63.7651 137.175V136.053L67.8111 135.577H68.5931L72.6731 136.053V137.175H63.7651ZM64.1391 113.103V111.981H69.2731V113.579H68.7971L64.1391 113.103ZM67.3691 137.175L67.4711 111.981H68.6951L68.8991 124.935V137.175H67.3691ZM77.3651 137.175L68.0831 113.443H67.8791V111.981H72.4691L80.2211 132.109H79.3371L79.5751 131.531L87.0551 111.981H88.7891V113.443H87.9391L87.4971 114.497L78.8951 137.175H77.3651ZM83.9271 137.175V136.053L89.1291 135.577H90.0131L95.2491 136.053V137.175H83.9271ZM87.0551 137.175C87.1005 135.203 87.1231 133.265 87.1231 131.361C87.1231 129.457 87.1345 127.7 87.1571 126.091L87.2931 111.981H92.0531C92.0078 113.93 91.9738 115.891 91.9511 117.863C91.9511 119.835 91.9511 121.807 91.9511 123.779V125.411C91.9511 127.405 91.9511 129.389 91.9511 131.361C91.9738 133.31 92.0078 135.248 92.0531 137.175H87.0551ZM89.5371 113.579V111.981H95.1811V113.103L90.0471 113.579H89.5371ZM98.3083 137.175V136.053L103.51 135.577H104.462L109.698 136.053V137.175H98.3083ZM101.504 137.175C101.55 135.248 101.572 133.31 101.572 131.361C101.595 129.389 101.606 127.405 101.606 125.411V123.779C101.606 121.807 101.595 119.846 101.572 117.897C101.572 115.925 101.55 113.953 101.504 111.981H106.536C106.491 113.907 106.457 115.868 106.434 117.863C106.434 119.835 106.434 121.807 106.434 123.779V125.377C106.434 127.349 106.434 129.321 106.434 131.293C106.457 133.242 106.491 135.203 106.536 137.175H101.504ZM98.3083 113.103V111.981H109.698V113.103L104.462 113.579H103.51L98.3083 113.103ZM120.673 137.821C119.29 137.821 117.908 137.639 116.525 137.277C115.142 136.914 113.975 136.415 113.023 135.781L113.227 130.205H115.029L116.729 136.631L114.655 135.747L114.281 134.455C115.392 135.248 116.378 135.781 117.239 136.053C118.1 136.302 119.098 136.427 120.231 136.427C121.954 136.427 123.302 136.041 124.277 135.271C125.252 134.477 125.739 133.367 125.739 131.939C125.739 131.145 125.614 130.465 125.365 129.899C125.116 129.332 124.685 128.822 124.073 128.369C123.484 127.915 122.679 127.473 121.659 127.043L120.095 126.363C117.919 125.388 116.253 124.289 115.097 123.065C113.964 121.841 113.397 120.254 113.397 118.305C113.397 116.809 113.771 115.551 114.519 114.531C115.29 113.488 116.332 112.706 117.647 112.185C118.984 111.641 120.503 111.369 122.203 111.369C123.54 111.369 124.764 111.539 125.875 111.879C126.986 112.196 127.983 112.661 128.867 113.273L128.629 118.577H126.827L125.161 112.457L127.405 113.409L127.677 114.769C126.725 113.998 125.898 113.465 125.195 113.171C124.515 112.876 123.699 112.729 122.747 112.729C121.228 112.729 119.993 113.091 119.041 113.817C118.089 114.542 117.613 115.573 117.613 116.911C117.613 118.135 117.953 119.109 118.633 119.835C119.313 120.56 120.276 121.195 121.523 121.739L123.223 122.487C124.923 123.235 126.272 123.983 127.269 124.731C128.289 125.479 129.014 126.306 129.445 127.213C129.898 128.119 130.125 129.196 130.125 130.443C130.125 131.916 129.751 133.208 129.003 134.319C128.255 135.407 127.178 136.268 125.773 136.903C124.368 137.515 122.668 137.821 120.673 137.821ZM140.794 137.821C139.411 137.821 138.029 137.639 136.646 137.277C135.263 136.914 134.096 136.415 133.144 135.781L133.348 130.205H135.15L136.85 136.631L134.776 135.747L134.402 134.455C135.513 135.248 136.499 135.781 137.36 136.053C138.221 136.302 139.219 136.427 140.352 136.427C142.075 136.427 143.423 136.041 144.398 135.271C145.373 134.477 145.86 133.367 145.86 131.939C145.86 131.145 145.735 130.465 145.486 129.899C145.237 129.332 144.806 128.822 144.194 128.369C143.605 127.915 142.8 127.473 141.78 127.043L140.216 126.363C138.04 125.388 136.374 124.289 135.218 123.065C134.085 121.841 133.518 120.254 133.518 118.305C133.518 116.809 133.892 115.551 134.64 114.531C135.411 113.488 136.453 112.706 137.768 112.185C139.105 111.641 140.624 111.369 142.324 111.369C143.661 111.369 144.885 111.539 145.996 111.879C147.107 112.196 148.104 112.661 148.988 113.273L148.75 118.577H146.948L145.282 112.457L147.526 113.409L147.798 114.769C146.846 113.998 146.019 113.465 145.316 113.171C144.636 112.876 143.82 112.729 142.868 112.729C141.349 112.729 140.114 113.091 139.162 113.817C138.21 114.542 137.734 115.573 137.734 116.911C137.734 118.135 138.074 119.109 138.754 119.835C139.434 120.56 140.397 121.195 141.644 121.739L143.344 122.487C145.044 123.235 146.393 123.983 147.39 124.731C148.41 125.479 149.135 126.306 149.566 127.213C150.019 128.119 150.246 129.196 150.246 130.443C150.246 131.916 149.872 133.208 149.124 134.319C148.376 135.407 147.299 136.268 145.894 136.903C144.489 137.515 142.789 137.821 140.794 137.821ZM153.16 137.175V136.053L158.362 135.577H159.314L164.55 136.053V137.175H153.16ZM156.356 137.175C156.401 135.248 156.424 133.31 156.424 131.361C156.447 129.389 156.458 127.405 156.458 125.411V123.779C156.458 121.807 156.447 119.846 156.424 117.897C156.424 115.925 156.401 113.953 156.356 111.981H161.388C161.343 113.907 161.309 115.868 161.286 117.863C161.286 119.835 161.286 121.807 161.286 123.779V125.377C161.286 127.349 161.286 129.321 161.286 131.293C161.309 133.242 161.343 135.203 161.388 137.175H156.356ZM153.16 113.103V111.981H164.55V113.103L159.314 113.579H158.362L153.16 113.103ZM178.97 137.821C177.406 137.821 175.91 137.537 174.482 136.971C173.077 136.381 171.83 135.531 170.742 134.421C169.654 133.31 168.793 131.939 168.158 130.307C167.546 128.652 167.24 126.748 167.24 124.595C167.24 122.441 167.546 120.549 168.158 118.917C168.793 117.262 169.654 115.879 170.742 114.769C171.83 113.635 173.077 112.785 174.482 112.219C175.91 111.652 177.406 111.369 178.97 111.369C180.557 111.369 182.042 111.652 183.424 112.219C184.83 112.785 186.076 113.635 187.164 114.769C188.275 115.879 189.136 117.262 189.748 118.917C190.383 120.549 190.7 122.441 190.7 124.595C190.7 126.725 190.383 128.618 189.748 130.273C189.136 131.905 188.275 133.287 187.164 134.421C186.076 135.531 184.83 136.381 183.424 136.971C182.042 137.537 180.557 137.821 178.97 137.821ZM178.97 136.563C180.104 136.563 181.078 136.257 181.894 135.645C182.733 135.033 183.424 134.194 183.968 133.129C184.512 132.041 184.92 130.771 185.192 129.321C185.464 127.847 185.6 126.272 185.6 124.595C185.6 122.895 185.464 121.319 185.192 119.869C184.92 118.418 184.512 117.149 183.968 116.061C183.424 114.973 182.733 114.134 181.894 113.545C181.078 112.933 180.104 112.627 178.97 112.627C177.837 112.627 176.851 112.933 176.012 113.545C175.174 114.134 174.482 114.973 173.938 116.061C173.394 117.149 172.986 118.418 172.714 119.869C172.442 121.319 172.306 122.895 172.306 124.595C172.306 126.272 172.442 127.847 172.714 129.321C172.986 130.771 173.394 132.041 173.938 133.129C174.482 134.194 175.174 135.033 176.012 135.645C176.851 136.257 177.837 136.563 178.97 136.563ZM193.098 137.175V136.053L196.702 135.577H197.62L202.278 136.053V137.175H193.098ZM196.396 137.175V112.933H197.688L198.028 128.301V137.175H196.396ZM209.112 113.103V111.981H218.326V113.103L214.756 113.579H213.838L209.112 113.103ZM212.512 137.311L197.314 115.211L197.212 115.109L196.056 113.375L193.234 113.103V111.981H200.782L214.314 131.735L213.668 131.973L213.566 121.875V111.981H214.96V137.311H212.512Z" fill="white"/>
</svg>
