<svg width="100" height="100" viewBox="0 0 100 100" fill="none" xmlns="http://www.w3.org/2000/svg">
<g clip-path="url(#clip0_274_6976)">
<path d="M81.3812 39.2416L53.6804 12.8267C51.6478 10.8885 48.3524 10.8885 46.3198 12.8267L18.6188 39.2416C17.192 40.6022 16.3902 42.4477 16.3902 44.372V96.3332C16.3902 98.3585 18.112 100 20.2359 100H79.7641C81.888 100 83.6098 98.3585 83.6098 96.3332V44.372C83.6098 42.4477 82.8082 40.6022 81.3812 39.2416ZM50 30.0005C47.022 30.0005 44.6078 27.5863 44.6078 24.6083C44.6078 21.6303 47.022 19.2161 50 19.2161C52.978 19.2161 55.3922 21.6303 55.3922 24.6083C55.3922 27.5863 52.978 30.0005 50 30.0005Z" fill="url(#paint0_linear_274_6976)"/>
<path d="M81.3804 39.2412L66.7647 25.304L59.6177 18.4863L55.1373 22.9667C55.3039 23.4844 55.3922 24.0353 55.3922 24.6079C55.3922 27.5863 52.9784 30.0001 50 30.0001C48.6177 30.0001 47.3588 29.4804 46.4039 28.6255L83.6098 65.8334V44.3706C83.6098 42.4471 82.8079 40.602 81.3804 39.2412Z" fill="url(#paint1_linear_274_6976)"/>
<path d="M66.2882 77.2706L83.6098 94.5902V96.3314C83.6098 98.3569 81.8882 99.9981 79.7647 99.9981H42.8314L25.9647 83.1314C25.2569 82.5746 24.6392 81.9 24.149 81.1177C22.4745 78.4353 22.5314 75.0628 24.2549 72.453L29.2137 64.9393L26.049 61.9451C24.6608 61.0294 24.851 58.9393 26.3784 58.2863L39.9706 52.4824C41.1353 51.9844 42.4059 52.6334 42.7686 53.751L66.2882 77.2706Z" fill="url(#paint2_linear_274_6976)"/>
<path d="M83.6098 79.0905V96.3317C83.6098 98.3572 81.8882 99.9984 79.7647 99.9984H60.0196L42.8392 82.818C41.5902 81.9944 41.5902 80.1611 42.8392 79.3376L55.1745 71.1964C56.3686 70.4082 57.902 71.0376 58.3059 72.2886L63.4804 77.2709H69.3706C69.4431 77.2709 69.6118 77.2709 69.7274 77.0572C69.8412 76.8454 69.7471 76.7042 69.7078 76.6435L67.7863 73.7572C67.5137 73.3474 67.6353 72.7925 68.0529 72.5356L73.0529 69.4552C73.451 69.2101 73.9725 69.3238 74.2314 69.714C74.2314 69.714 78.4059 73.8886 83.6098 79.0905Z" fill="url(#paint3_linear_274_6976)"/>
<path d="M83.6098 65.5657V93.4657L67.4059 77.2716L54.1039 63.9873C52.7039 63.3912 52.4314 61.5892 53.4588 60.5873L41.1824 48.4226C40.7686 48.1637 40.6471 47.6147 40.9177 47.2069L43.4039 43.4402C44.8451 41.2559 47.2353 39.8461 49.851 39.748C52.4314 39.65 54.8549 40.7873 56.4294 42.7775C56.4294 42.7775 65.8902 52.2128 65.9628 52.2735L67.3569 51.3539C68.553 50.5637 70.0863 51.1951 70.4902 52.4461L83.6098 65.5657Z" fill="url(#paint4_linear_274_6976)"/>
<path d="M16.3902 80.1953V96.332C16.3902 98.3573 18.112 99.9992 20.2359 99.9992H79.7641C81.888 99.9992 83.6098 98.3573 83.6098 96.332V80.1953H16.3902Z" fill="url(#paint5_linear_274_6976)"/>
<path d="M75.94 72.3068L74.1122 69.5638C73.8522 69.1736 73.33 69.0593 72.9308 69.3054L67.9247 72.3895C67.5049 72.6481 67.3833 73.2032 67.6567 73.6136L69.5814 76.5036C69.6212 76.5642 69.7147 76.7058 69.5998 76.9191C69.4851 77.1324 69.3153 77.1324 69.243 77.1324H58.2657V72.7926C58.2657 71.127 56.4145 70.1315 55.0257 71.0481L42.6726 79.2018C41.421 80.0271 41.421 81.863 42.6726 82.6881L55.0257 90.8419C56.4145 91.7585 58.2657 90.763 58.2657 89.0973V84.7511H69.243C72.2 84.7511 74.9075 83.1334 76.3088 80.5295C77.7102 77.9256 77.5688 74.7748 75.94 72.3068Z" fill="url(#paint6_linear_274_6976)"/>
<path d="M69.243 77.1322H73.3533C75.8084 77.1322 77.3079 74.4083 75.9686 72.3505C75.9592 72.336 75.9496 72.3213 75.94 72.3068L74.1122 69.5638C73.8522 69.1736 73.33 69.0593 72.9308 69.3054L67.9247 72.3895C67.5049 72.6481 67.3833 73.2032 67.6567 73.6136L69.5814 76.5036C69.6212 76.5642 69.7147 76.7058 69.5998 76.9191C69.4853 77.1322 69.3155 77.1322 69.243 77.1322Z" fill="url(#paint7_linear_274_6976)"/>
<path d="M69.243 77.133H58.2657H45.8079L42.6726 79.2024C41.421 80.0277 41.421 81.8636 42.6726 82.6887L55.0257 90.8424C56.4145 91.7591 58.2657 90.7636 58.2657 89.0979V84.7516H69.243C72.2 84.7516 74.9075 83.134 76.3088 80.5301C76.8839 79.4614 77.1986 78.3007 77.2581 77.1328H69.243V77.133Z" fill="url(#paint8_linear_274_6976)"/>
<path d="M58.2663 84.7521V89.0978C58.2663 90.7625 56.4149 91.759 55.0257 90.8418L49.0251 86.8804C49.1198 86.6459 49.1806 86.4676 49.1806 86.39C49.1806 86.0847 49.3049 85.6749 49.5043 85.3427C49.7035 85.0092 49.9806 84.752 50.2845 84.752L58.2663 84.7521Z" fill="url(#paint9_linear_274_6976)"/>
<path d="M58.2663 72.7925V77.1382H50.2843C49.6753 77.1382 49.1806 76.1107 49.1806 75.5001C49.1806 75.3997 49.1155 75.2203 49.0251 75.0097L55.0257 71.0484C56.4149 70.1313 58.2663 71.1278 58.2663 72.7925Z" fill="url(#paint10_linear_274_6976)"/>
<path d="M39.8 52.3071L26.1873 58.1191C24.6569 58.7724 24.4671 60.8658 25.8569 61.784L29.4416 64.1524L24.06 72.3064C22.3351 74.9199 22.2782 78.2991 23.9553 80.9838C25.4355 83.3538 28.073 84.7505 30.8673 84.7505H37.8986C38.3796 84.7505 38.7696 84.3605 38.7696 83.8795V78.0026C38.7696 77.5216 38.3796 77.1316 37.8986 77.1316H30.7571C30.6845 77.1316 30.5149 77.1316 30.4 76.9183C30.2853 76.705 30.3788 76.5634 30.4186 76.5028L35.7981 68.352L39.4604 70.7718C40.8502 71.6901 42.7012 70.6944 42.702 69.0305L42.7088 54.2289C42.7104 52.7297 41.1784 51.7177 39.8 52.3071Z" fill="url(#paint11_linear_274_6976)"/>
<path d="M23.9551 80.9834C25.4353 83.3534 28.0728 84.75 30.8671 84.75H37.8984C38.3794 84.75 38.7694 84.36 38.7694 83.8791V78.0022C38.7694 77.5212 38.3794 77.1312 37.8984 77.1312H30.7569C30.6933 77.1312 30.5555 77.1312 30.4451 76.9883H22.7365C22.782 78.3722 23.1855 79.751 23.9551 80.9834Z" fill="url(#paint12_linear_274_6976)"/>
<path d="M28.2239 79.9047C26.8875 81.9767 28.3494 84.7339 30.8151 84.7494C30.8326 84.7496 30.8498 84.7496 30.8673 84.7496H37.8986C38.3796 84.7496 38.7696 84.3596 38.7696 83.8786V78.0018C38.7696 77.5208 38.3796 77.1308 37.8986 77.1308H30.7571C30.6845 77.1308 30.5149 77.1308 30.4 76.9174C30.2853 76.7041 30.3788 76.5625 30.4186 76.502L28.2239 79.9047Z" fill="url(#paint13_linear_274_6976)"/>
<path d="M29.4818 64.1804L25.8561 61.7847C24.4671 60.8671 24.6565 58.7731 26.1875 58.1196L32.8004 55.2969C32.9439 55.5051 33.059 55.6541 33.1239 55.6969C33.3786 55.8651 33.652 56.1949 33.8192 56.5441C33.9877 56.8943 34.0496 57.2671 33.882 57.5206L29.4818 64.1804Z" fill="url(#paint14_linear_274_6976)"/>
<path d="M39.4606 70.7737L35.8349 68.378L40.2351 61.7184C40.5708 61.2102 41.7008 61.3639 42.2102 61.7004C42.2939 61.7557 42.4794 61.8004 42.7051 61.841L42.7024 69.0312C42.7016 70.6961 40.8496 71.6916 39.4606 70.7737Z" fill="url(#paint15_linear_274_6976)"/>
<path d="M70.468 52.9177C70.4673 51.2538 68.6161 50.2581 67.2265 51.1761L63.5957 53.5751L56.6971 43.151C55.152 40.8096 52.5149 39.4471 49.6951 39.5526C47.0759 39.6506 44.6814 41.0626 43.2377 43.25L40.7479 47.0224C40.478 47.4312 40.5982 47.982 41.0139 48.2412L46.0024 51.3516C46.4031 51.6014 46.93 51.4865 47.1902 51.0924L49.6618 47.3477C49.6947 47.2979 49.782 47.1655 50.0002 47.1655C50.2184 47.1655 50.3057 47.2979 50.3386 47.3477L57.2392 57.7747L53.6229 60.1642C52.2333 61.0824 52.4231 63.1757 53.9533 63.8291L67.5661 69.641C68.9445 70.2304 70.4763 69.2183 70.4749 67.7191L70.468 52.9177Z" fill="url(#paint16_linear_274_6976)"/>
<path d="M43.2377 43.2497L40.7479 47.022C40.478 47.4308 40.5982 47.9816 41.0139 48.2408L46.0024 51.3512C46.4031 51.601 46.93 51.4861 47.19 51.092L49.6616 47.3473C49.6945 47.2975 49.7818 47.1651 50 47.1651C50.2182 47.1651 50.3055 47.2975 50.3384 47.3473L47.8643 43.3246C46.8226 41.6306 44.3635 41.5614 43.2602 43.2157C43.2526 43.2269 43.2451 43.2383 43.2377 43.2497Z" fill="url(#paint17_linear_274_6976)"/>
<path d="M57.2371 57.7727L57.239 57.7756L53.6228 60.165C52.2331 61.0833 52.423 63.1766 53.9531 63.8299L67.5659 69.6419C68.9443 70.2313 70.4761 69.2191 70.4747 67.7199L70.4729 63.9544L57.2477 57.7695L57.2371 57.7727Z" fill="url(#paint18_linear_274_6976)"/>
<path d="M57.2478 57.7695L53.6222 60.1652C52.2331 61.0829 52.4226 63.1768 53.9535 63.8303L60.5665 66.6531C60.71 66.4448 60.8251 66.2958 60.89 66.2531C61.1447 66.0848 61.418 65.755 61.5853 65.4058C61.7537 65.0556 61.8157 64.6829 61.648 64.4293L57.2478 57.7695Z" fill="url(#paint19_linear_274_6976)"/>
<path d="M67.2267 51.176L63.601 53.5716L68.0012 60.2312C68.3369 60.7395 69.4669 60.5858 69.9763 60.2493C70.06 60.194 70.2455 60.1493 70.4712 60.1087L70.4684 52.9185C70.4675 51.2536 68.6155 50.2581 67.2267 51.176Z" fill="url(#paint20_linear_274_6976)"/>
<path d="M50 0C42.4843 0 36.3706 6.11373 36.3706 13.6294C36.3706 16.1431 37.0549 18.5 38.2471 20.5235L41.9471 16.9941C41.5137 15.9588 41.2726 14.8216 41.2726 13.6294C41.2726 8.81569 45.1882 4.90196 50 4.90196C54.8118 4.90196 58.7275 8.81569 58.7275 13.6294C58.7275 14.8216 58.4863 15.9588 58.0529 16.9941C57.2902 18.8098 55.9333 20.3137 54.2275 21.2608C52.9745 21.9588 51.5333 22.3549 50 22.3549C48.4667 22.3549 47.0255 21.9588 45.7726 21.2608C45.0431 22.1804 44.6078 23.3431 44.6078 24.6078C44.6078 25.1804 44.698 25.7333 44.8647 26.251C46.451 26.9 48.1843 27.2569 50 27.2569C51.8157 27.2569 53.549 26.9 55.1353 26.251C57.9176 25.1177 60.2431 23.0882 61.7529 20.5235C62.9451 18.5 63.6294 16.1431 63.6294 13.6294C63.6294 6.11373 57.5157 0 50 0Z" fill="url(#paint21_linear_274_6976)"/>
<path d="M50 2.58398C43.909 2.58398 38.9543 7.53869 38.9543 13.6297C38.9543 15.4487 39.3975 17.1657 40.18 18.6803L41.9471 16.9946C41.5137 15.9593 41.2726 14.822 41.2726 13.6299C41.2726 8.81614 45.1882 4.90242 50 4.90242C54.8118 4.90242 58.7275 8.81614 58.7275 13.6299C58.7275 14.822 58.4863 15.9593 58.0529 16.9946C57.2902 18.8103 55.9333 20.3142 54.2275 21.2612C52.9745 21.9593 51.5333 22.3554 50 22.3554C48.4831 22.3554 47.0571 21.9665 45.8135 21.2824C45.6963 21.6773 45.63 22.094 45.63 22.5269C45.63 22.9908 45.7031 23.4391 45.8382 23.8587C47.1237 24.3846 48.5286 24.6738 50 24.6738C51.4714 24.6738 52.8763 24.3846 54.1618 23.8587C56.4167 22.9403 58.3014 21.2956 59.5249 19.2169C60.491 17.5769 61.0457 15.6669 61.0457 13.6297C61.0457 7.53869 56.091 2.58398 50 2.58398Z" fill="url(#paint22_linear_274_6976)"/>
<path d="M55.1961 20.6348C54.8878 20.8638 54.5649 21.0736 54.2275 21.2608C52.9745 21.9589 51.5333 22.355 50 22.355C48.4667 22.355 47.0255 21.9589 45.7726 21.2608C45.0431 22.1805 44.6078 23.3432 44.6078 24.6079C44.6078 25.1805 44.698 25.7334 44.8647 26.251C46.451 26.9001 48.1843 27.2569 50 27.2569C51.8157 27.2569 53.549 26.9001 55.1353 26.251C55.1557 26.2426 55.1757 26.2332 55.1961 26.2248V20.6348Z" fill="url(#paint23_linear_274_6976)"/>
<path d="M41.9471 16.9943C41.5137 15.959 41.2726 14.8218 41.2726 13.6296C41.2726 11.6239 41.9539 9.77608 43.0951 8.30078H37.4563C36.758 9.93862 36.3706 11.7396 36.3706 13.6296C36.3706 16.1433 37.0549 18.5002 38.2471 20.5237L41.9471 16.9943Z" fill="url(#paint24_linear_274_6976)"/>
</g>
<defs>
<linearGradient id="paint0_linear_274_6976" x1="12.8302" y1="32.4644" x2="89.0249" y2="108.659" gradientUnits="userSpaceOnUse">
<stop stop-color="#A2E62E"/>
<stop offset="0.1231" stop-color="#97DE30"/>
<stop offset="0.3395" stop-color="#79CB36"/>
<stop offset="0.6234" stop-color="#4AAB3F"/>
<stop offset="0.9609" stop-color="#09804C"/>
<stop offset="1" stop-color="#017B4E"/>
</linearGradient>
<linearGradient id="paint1_linear_274_6976" x1="66.3682" y1="32.391" x2="67.6753" y2="18.1426" gradientUnits="userSpaceOnUse">
<stop stop-color="#017B4E" stop-opacity="0"/>
<stop offset="0.5194" stop-color="#017449" stop-opacity="0.519"/>
<stop offset="1" stop-color="#026841"/>
</linearGradient>
<linearGradient id="paint2_linear_274_6976" x1="62.1184" y1="96.0745" x2="17.49" y2="51.4461" gradientUnits="userSpaceOnUse">
<stop stop-color="#017B4E" stop-opacity="0"/>
<stop offset="0.4693" stop-color="#01764A" stop-opacity="0.469"/>
<stop offset="1" stop-color="#026841"/>
</linearGradient>
<linearGradient id="paint3_linear_274_6976" x1="82.6412" y1="100.391" x2="48.0035" y2="65.7529" gradientUnits="userSpaceOnUse">
<stop stop-color="#017B4E" stop-opacity="0"/>
<stop offset="0.4693" stop-color="#01764A" stop-opacity="0.469"/>
<stop offset="1" stop-color="#026841"/>
</linearGradient>
<linearGradient id="paint4_linear_274_6976" x1="85.311" y1="81.1808" x2="32.6783" y2="28.548" gradientUnits="userSpaceOnUse">
<stop stop-color="#017B4E" stop-opacity="0"/>
<stop offset="0.4693" stop-color="#01764A" stop-opacity="0.469"/>
<stop offset="1" stop-color="#026841"/>
</linearGradient>
<linearGradient id="paint5_linear_274_6976" x1="50" y1="87.6463" x2="50" y2="98.0402" gradientUnits="userSpaceOnUse">
<stop stop-color="#017B4E" stop-opacity="0"/>
<stop offset="0.4693" stop-color="#01764A" stop-opacity="0.469"/>
<stop offset="1" stop-color="#026841"/>
</linearGradient>
<linearGradient id="paint6_linear_274_6976" x1="52.3237" y1="70.0764" x2="71.9502" y2="89.7026" gradientUnits="userSpaceOnUse">
<stop stop-color="#FEE97D"/>
<stop offset="1" stop-color="#FAC600"/>
</linearGradient>
<linearGradient id="paint7_linear_274_6976" x1="71.0779" y1="72.7362" x2="75.1498" y2="76.8081" gradientUnits="userSpaceOnUse">
<stop stop-color="#FAC600" stop-opacity="0"/>
<stop offset="0.6899" stop-color="#D68C3D" stop-opacity="0.69"/>
<stop offset="1" stop-color="#C5715A"/>
</linearGradient>
<linearGradient id="paint8_linear_274_6976" x1="59.4959" y1="80.8832" x2="59.4959" y2="93.2003" gradientUnits="userSpaceOnUse">
<stop stop-color="#FAC600" stop-opacity="0"/>
<stop offset="0.6899" stop-color="#D68C3D" stop-opacity="0.69"/>
<stop offset="1" stop-color="#C5715A"/>
</linearGradient>
<linearGradient id="paint9_linear_274_6976" x1="54.6412" y1="87.9718" x2="59.6826" y2="87.9718" gradientUnits="userSpaceOnUse">
<stop stop-color="#FAC600" stop-opacity="0"/>
<stop offset="0.6899" stop-color="#D68C3D" stop-opacity="0.69"/>
<stop offset="1" stop-color="#C5715A"/>
</linearGradient>
<linearGradient id="paint10_linear_274_6976" x1="54.6412" y1="73.9188" x2="59.6826" y2="73.9188" gradientUnits="userSpaceOnUse">
<stop stop-color="#FAC600" stop-opacity="0"/>
<stop offset="0.6899" stop-color="#D68C3D" stop-opacity="0.69"/>
<stop offset="1" stop-color="#C5715A"/>
</linearGradient>
<linearGradient id="paint11_linear_274_6976" x1="25.3751" y1="59.3575" x2="46.8886" y2="80.8711" gradientUnits="userSpaceOnUse">
<stop stop-color="#FEE97D"/>
<stop offset="1" stop-color="#FAC600"/>
</linearGradient>
<linearGradient id="paint12_linear_274_6976" x1="30.753" y1="78.9491" x2="30.753" y2="84.6563" gradientUnits="userSpaceOnUse">
<stop stop-color="#FAC600" stop-opacity="0"/>
<stop offset="0.6899" stop-color="#D68C3D" stop-opacity="0.69"/>
<stop offset="1" stop-color="#C5715A"/>
</linearGradient>
<linearGradient id="paint13_linear_274_6976" x1="36.4547" y1="80.6259" x2="27.721" y2="80.6259" gradientUnits="userSpaceOnUse">
<stop stop-color="#FAC600" stop-opacity="0"/>
<stop offset="0.6899" stop-color="#D68C3D" stop-opacity="0.69"/>
<stop offset="1" stop-color="#C5715A"/>
</linearGradient>
<linearGradient id="paint14_linear_274_6976" x1="28.8224" y1="59.2087" x2="26.0447" y2="63.413" gradientUnits="userSpaceOnUse">
<stop stop-color="#FAC600" stop-opacity="0"/>
<stop offset="0.6899" stop-color="#D68C3D" stop-opacity="0.69"/>
<stop offset="1" stop-color="#C5715A"/>
</linearGradient>
<linearGradient id="paint15_linear_274_6976" x1="40.5429" y1="66.9523" x2="37.7652" y2="71.1566" gradientUnits="userSpaceOnUse">
<stop stop-color="#FAC600" stop-opacity="0"/>
<stop offset="0.6899" stop-color="#D68C3D" stop-opacity="0.69"/>
<stop offset="1" stop-color="#C5715A"/>
</linearGradient>
<linearGradient id="paint16_linear_274_6976" x1="45.6408" y1="41.4792" x2="74.8347" y2="70.673" gradientUnits="userSpaceOnUse">
<stop stop-color="#FEE97D"/>
<stop offset="1" stop-color="#FAC600"/>
</linearGradient>
<linearGradient id="paint17_linear_274_6976" x1="40.2035" y1="52.15" x2="50.2947" y2="42.0589" gradientUnits="userSpaceOnUse">
<stop stop-color="#FAC600" stop-opacity="0"/>
<stop offset="0.6899" stop-color="#D68C3D" stop-opacity="0.69"/>
<stop offset="1" stop-color="#C5715A"/>
</linearGradient>
<linearGradient id="paint18_linear_274_6976" x1="62.2822" y1="62.847" x2="60.5159" y2="67.7923" gradientUnits="userSpaceOnUse">
<stop stop-color="#FAC600" stop-opacity="0"/>
<stop offset="0.6899" stop-color="#D68C3D" stop-opacity="0.69"/>
<stop offset="1" stop-color="#C5715A"/>
</linearGradient>
<linearGradient id="paint19_linear_274_6976" x1="56.8043" y1="62.916" x2="53.6671" y2="58.2101" gradientUnits="userSpaceOnUse">
<stop stop-color="#FAC600" stop-opacity="0"/>
<stop offset="0.6899" stop-color="#D68C3D" stop-opacity="0.69"/>
<stop offset="1" stop-color="#C5715A"/>
</linearGradient>
<linearGradient id="paint20_linear_274_6976" x1="68.2836" y1="54.8102" x2="65.5058" y2="50.6057" gradientUnits="userSpaceOnUse">
<stop stop-color="#FAC600" stop-opacity="0"/>
<stop offset="0.6899" stop-color="#D68C3D" stop-opacity="0.69"/>
<stop offset="1" stop-color="#C5715A"/>
</linearGradient>
<linearGradient id="paint21_linear_274_6976" x1="36.3706" y1="13.6284" x2="63.6294" y2="13.6284" gradientUnits="userSpaceOnUse">
<stop stop-color="#A0D4FF"/>
<stop offset="1" stop-color="#0593FC"/>
</linearGradient>
<linearGradient id="paint22_linear_274_6976" x1="61.5739" y1="24.8318" x2="39.631" y2="2.88889" gradientUnits="userSpaceOnUse">
<stop stop-color="#A0D4FF"/>
<stop offset="1" stop-color="#0593FC"/>
</linearGradient>
<linearGradient id="paint23_linear_274_6976" x1="52.7451" y1="23.9457" x2="44.158" y2="23.9457" gradientUnits="userSpaceOnUse">
<stop stop-color="#2740B0" stop-opacity="0"/>
<stop offset="0.27" stop-color="#253CA8" stop-opacity="0.27"/>
<stop offset="0.697" stop-color="#1E3391" stop-opacity="0.697"/>
<stop offset="1" stop-color="#192A7D"/>
</linearGradient>
<linearGradient id="paint24_linear_274_6976" x1="39.2178" y1="11.6878" x2="42.6165" y2="18.0929" gradientUnits="userSpaceOnUse">
<stop stop-color="#2740B0" stop-opacity="0"/>
<stop offset="0.27" stop-color="#253CA8" stop-opacity="0.27"/>
<stop offset="0.697" stop-color="#1E3391" stop-opacity="0.697"/>
<stop offset="1" stop-color="#192A7D"/>
</linearGradient>
<clipPath id="clip0_274_6976">
<rect width="100" height="100" fill="white"/>
</clipPath>
</defs>
</svg>
