<svg width="110" height="110" viewBox="0 0 110 110" fill="none" xmlns="http://www.w3.org/2000/svg">
<circle cx="55" cy="55" r="55" fill="white"/>
<path d="M50.0332 46.4551C51.1982 46.4551 52.1426 45.5107 52.1426 44.3457C52.1426 43.1807 51.1982 42.2363 50.0332 42.2363C48.8682 42.2363 47.9238 43.1807 47.9238 44.3457C47.9238 45.5107 48.8682 46.4551 50.0332 46.4551Z" fill="#DF6421"/>
<path d="M39.4778 57.375C37.884 56.2031 34.3956 56.5148 33.2012 54.1275C31.5189 54.9712 29.1465 51.8264 30.1037 50.3775C29.0256 49.44 28.3914 46.7517 30.1229 45.8344C29.0017 44.205 28.5325 40.4156 31.7509 38.8031C34.9693 37.1906 37.7186 39.8461 38.3528 41.7187C40.1246 40.883 41.8979 43.0012 42.0001 44.4272C43.7317 44.5289 44.8248 48.3117 43.1425 49.1536C44.3368 51.5409 41.9964 54.1458 41.9786 56.1239C41.9824 56.4168 41.9049 56.705 41.7546 56.9565C41.6043 57.2079 41.3871 57.4127 41.1273 57.548C40.8633 57.6747 40.5693 57.7257 40.278 57.6951C39.9868 57.6646 39.7097 57.5538 39.4778 57.375Z" fill="#9AE554"/>
<path d="M41.166 55.7932L37.1558 47.7794C37.2962 46.8998 37.5958 46.0531 38.0399 45.281C38.1019 45.1929 38.146 45.0934 38.1695 44.9883C38.1931 44.8832 38.1958 44.7745 38.1774 44.6683C38.1589 44.5622 38.1198 44.4607 38.0621 44.3697C38.0045 44.2787 37.9294 44.1999 37.8414 44.1379C37.7533 44.0759 37.6538 44.0318 37.5487 44.0083C37.4436 43.9847 37.3349 43.982 37.2287 44.0004C37.1226 44.0189 37.0211 44.058 36.9301 44.1157C36.8391 44.1733 36.7603 44.2483 36.6983 44.3364C36.4443 44.7349 36.2331 45.1591 36.0683 45.6021L34.7652 43.0042C34.6678 42.8096 34.4972 42.6616 34.2907 42.5929C34.0843 42.5241 33.859 42.5401 33.6643 42.6375C33.4697 42.7348 33.3217 42.9055 33.2529 43.1119C33.1841 43.3184 33.2002 43.5437 33.2975 43.7383L34.5983 46.3385C34.1452 46.2046 33.6791 46.1191 33.208 46.0835H33.1827C32.9651 46.0802 32.7552 46.1636 32.5991 46.3151C32.4429 46.4667 32.3534 46.674 32.3502 46.8916C32.347 47.1092 32.4303 47.3191 32.5818 47.4752C32.7334 47.6313 32.9408 47.7209 33.1583 47.7241C34.0429 47.8322 34.9005 48.1003 35.6891 48.5153L37.1502 51.4352C36.1035 51.0824 35.0396 50.7827 33.9627 50.5371C33.8564 50.5116 33.7462 50.5076 33.6384 50.5253C33.5306 50.5431 33.4274 50.5822 33.3349 50.6403C33.2424 50.6985 33.1625 50.7745 33.0998 50.864C33.0371 50.9534 32.9929 51.0545 32.9697 51.1613C32.9466 51.2681 32.9451 51.3784 32.9652 51.4858C32.9853 51.5932 33.0267 51.6955 33.0869 51.7866C33.147 51.8778 33.2248 51.9561 33.3157 52.0168C33.4065 52.0775 33.5085 52.1194 33.6158 52.1402C34.543 52.3413 37.2585 53.0636 38.2864 53.7105L39.6969 56.5291C39.7943 56.7237 39.965 56.8716 40.1715 56.9403C40.3779 57.009 40.6032 56.9928 40.7978 56.8954C40.9923 56.798 41.1402 56.6273 41.2089 56.4209C41.2776 56.2144 41.2615 55.9891 41.1641 55.7946L41.166 55.7932Z" fill="#7BC348"/>
<path d="M43.5363 61.3559C47.3393 61.3559 50.4223 58.2729 50.4223 54.4699C50.4223 50.6669 47.3393 47.584 43.5363 47.584C39.7333 47.584 36.6504 50.6669 36.6504 54.4699C36.6504 58.2729 39.7333 61.3559 43.5363 61.3559Z" fill="#DF6421"/>
<path d="M47.2447 53.6497H45.5169L46.7389 52.4277C46.8884 52.273 46.9711 52.0658 46.9693 51.8507C46.9674 51.6356 46.8812 51.4298 46.7291 51.2777C46.5771 51.1256 46.3714 51.0393 46.1563 51.0374C45.9412 51.0355 45.734 51.1181 45.5792 51.2675L44.3567 52.4895V50.7617C44.3567 50.5442 44.2703 50.3355 44.1165 50.1817C43.9626 50.0278 43.754 49.9414 43.5364 49.9414C43.3188 49.9414 43.1102 50.0278 42.9564 50.1817C42.8025 50.3355 42.7161 50.5442 42.7161 50.7617V52.4891L41.4945 51.2675C41.3407 51.1137 41.132 51.0272 40.9145 51.0272C40.6969 51.0272 40.4882 51.1137 40.3344 51.2675C40.1805 51.4213 40.0941 51.63 40.0941 51.8476C40.0941 52.0652 40.1805 52.2738 40.3344 52.4277L41.5564 53.6497H39.8281C39.6106 53.6497 39.4019 53.7361 39.2481 53.89C39.0942 54.0438 39.0078 54.2524 39.0078 54.47C39.0078 54.6876 39.0942 54.8962 39.2481 55.0501C39.4019 55.2039 39.6106 55.2903 39.8281 55.2903H41.5564L40.4581 56.3905C40.382 56.4666 40.3216 56.557 40.2804 56.6565C40.2392 56.756 40.2179 56.8626 40.2179 56.9703C40.2179 57.078 40.2392 57.1846 40.2804 57.2841C40.3216 57.3836 40.382 57.474 40.4581 57.5502C40.5343 57.6263 40.6247 57.6867 40.7242 57.7279C40.8236 57.7691 40.9303 57.7903 41.038 57.7903C41.1457 57.7903 41.2523 57.7691 41.3518 57.7279C41.4513 57.6867 41.5417 57.6263 41.6178 57.5502L42.7161 56.4523V57.4367C42.7161 57.6543 42.8025 57.8629 42.9564 58.0168C43.1102 58.1706 43.3188 58.257 43.5364 58.257C43.754 58.257 43.9626 58.1706 44.1165 58.0168C44.2703 57.8629 44.3567 57.6543 44.3567 57.4367V56.4523L45.4555 57.5506C45.6093 57.7044 45.818 57.7908 46.0355 57.7907C46.253 57.7907 46.4616 57.7042 46.6154 57.5504C46.7692 57.3965 46.8555 57.1879 46.8555 56.9704C46.8555 56.7529 46.769 56.5443 46.6152 56.3905L45.5173 55.2922H47.2447C47.4622 55.2922 47.6709 55.2058 47.8247 55.0519C47.9786 54.8981 48.065 54.6894 48.065 54.4719C48.065 54.2543 47.9786 54.0457 47.8247 53.8918C47.6709 53.738 47.4622 53.6516 47.2447 53.6516V53.6497Z" fill="#BA400F"/>
<path d="M49.5611 55.9608C49.8423 54.0858 48.0198 51.2611 49.5142 49.1798C48.0475 48.1275 49.6548 44.7084 51.3119 44.8743C51.6245 43.5389 53.6252 41.7998 55.1781 42.8587C56.0608 41.1787 59.0688 39.0862 61.8738 41.099C64.6788 43.1118 63.6616 46.6303 62.3528 48.0056C63.8528 49.1367 62.8483 51.5892 61.6834 52.3134C62.3711 53.8293 59.6477 56.4483 58.1809 55.3959C56.688 57.4767 53.4302 56.6545 51.7422 57.5231C51.4953 57.6573 51.2161 57.7204 50.9355 57.7052C50.6549 57.6901 50.3841 57.5973 50.1531 57.4373C49.9275 57.2701 49.7526 57.0435 49.6481 56.7828C49.5436 56.5221 49.5134 56.2376 49.5611 55.9608Z" fill="#9AE554"/>
<path d="M59.3923 47.74C58.9632 47.7024 58.5313 47.7096 58.1037 47.7616L59.6853 45.5585C59.8091 45.3816 59.8583 45.1631 59.822 44.9502C59.7858 44.7374 59.6671 44.5474 59.4917 44.4215C59.3164 44.2956 59.0984 44.2439 58.8852 44.2777C58.6719 44.3114 58.4806 44.4279 58.3526 44.6018L56.7696 46.8082C56.6816 46.3859 56.5503 45.9739 56.3778 45.5786C56.3305 45.4818 56.2646 45.3953 56.1838 45.324C56.1031 45.2526 56.009 45.1979 55.9072 45.1629C55.7014 45.0922 55.4759 45.1062 55.2804 45.2018C55.0849 45.2973 54.9354 45.4666 54.8647 45.6724C54.794 45.8782 54.808 46.1036 54.9036 46.2991C55.2038 47.0895 55.3585 47.9277 55.3601 48.7732L53.5873 51.2444C53.3482 49.7219 52.9437 48.2383 52.9371 48.2149C52.875 48.0098 52.735 47.8372 52.5472 47.734C52.3594 47.6308 52.1387 47.6052 51.9322 47.6627C51.7258 47.7201 51.55 47.856 51.4425 48.0414C51.335 48.2268 51.3043 48.4469 51.357 48.6546C51.6626 49.7538 52.1862 52.2222 52.1112 53.3013L45.1925 62.9435C45.1296 63.031 45.0847 63.1301 45.0601 63.235C45.0356 63.3399 45.032 63.4486 45.0494 63.5549C45.0669 63.6612 45.1052 63.7631 45.162 63.8546C45.2188 63.9461 45.2931 64.0256 45.3807 64.0884C45.4682 64.1512 45.5672 64.1962 45.6722 64.2207C45.7771 64.2453 45.8858 64.2489 45.9921 64.2314C46.0984 64.2139 46.2002 64.1757 46.2918 64.1189C46.3833 64.062 46.4628 63.9877 46.5256 63.9002L53.4448 54.2552C54.4461 53.8333 56.9107 53.5464 58.0882 53.4818C58.3055 53.4698 58.5091 53.372 58.6542 53.2099C58.7993 53.0477 58.8741 52.8346 58.8621 52.6174C58.8502 52.4001 58.7523 52.1965 58.5902 52.0514C58.4281 51.9063 58.215 51.8315 57.9978 51.8435C57.9729 51.8435 56.4382 51.9372 54.92 52.1993L56.6932 49.7275C57.4947 49.4586 58.338 49.3364 59.1828 49.3666C59.3985 49.3944 59.6164 49.3353 59.7885 49.2025C59.9607 49.0696 60.073 48.8738 60.1008 48.6581C60.1286 48.4424 60.0696 48.2245 59.9367 48.0523C59.8038 47.8802 59.608 47.7678 59.3923 47.74Z" fill="#7BC348"/>
<path d="M69.0806 51.8473C73.1273 49.0718 78.9318 44.1129 77.9746 41.6613C77.0174 39.2098 75.0299 39.5707 74.1309 41.7124C73.2318 43.8541 72.0435 49.1674 69.0806 51.8473Z" fill="#7BC348"/>
<path d="M67.9155 52.594C71.4715 49.1206 75.708 48.9425 80.0866 50.8189C84.4652 52.6953 83.2418 48.109 80.3112 47.3314C77.959 46.7051 73.4927 45.9378 67.9155 52.594Z" fill="#9AE554"/>
<path d="M68.8696 53.3914C71.6671 49.2823 71.1017 45.0799 68.488 41.097C65.8742 37.114 70.6039 37.5167 71.8827 40.2659C72.9088 42.4737 74.4467 46.7351 68.8696 53.3914Z" fill="#9AE554"/>
<path d="M62.0685 70.1977C64.8212 67.6979 67.4127 65.0263 69.8277 62.1989C76.8337 53.8379 74.0802 52.11 71.0352 49.5586C67.9902 47.0072 65.8059 44.5983 58.7995 52.9589C55.8326 56.583 53.1463 60.4279 50.7637 64.4602L62.0685 70.1977Z" fill="#DF6421"/>
<path d="M78.0312 56.9688C77.3319 65.2628 72.7855 76.5002 56 76.5002C39.2145 76.5002 34.6681 65.2628 33.9688 56.9688H78.0312Z" fill="#EAEAF0"/>
<path d="M70.9186 68.8263C70.7613 68.8265 70.6073 68.7814 70.475 68.6965C70.3426 68.6116 70.2373 68.4905 70.1718 68.3476C70.1063 68.2046 70.0832 68.0458 70.1053 67.8901C70.1274 67.7344 70.1938 67.5884 70.2966 67.4693C71.1295 66.4974 71.8362 65.424 72.3998 64.2748C72.4964 64.0798 72.6664 63.9311 72.8726 63.8615C73.0787 63.7919 73.3041 63.807 73.4991 63.9035C73.6941 64.0001 73.8427 64.1701 73.9123 64.3762C73.982 64.5824 73.9669 64.8077 73.8703 65.0027C73.2453 66.2763 72.4615 67.4656 71.5378 68.5423C71.4611 68.6314 71.3661 68.7029 71.2592 68.7519C71.1524 68.8009 71.0362 68.8263 70.9186 68.8263Z" fill="#C9C9CE"/>
<path d="M42.875 80.9537C42.875 77.9852 44.8283 75.3287 45.9298 74.8398H66.0702C67.1717 75.3287 69.125 77.9852 69.125 80.9537H42.875Z" fill="#C9C9CE"/>
<path d="M52.9033 31.2656C54.0683 31.2656 55.0127 30.3212 55.0127 29.1562C55.0127 27.9913 54.0683 27.0469 52.9033 27.0469C51.7383 27.0469 50.7939 27.9913 50.7939 29.1562C50.7939 30.3212 51.7383 31.2656 52.9033 31.2656Z" fill="#DF6421"/>
<path d="M43.5981 36.1309C44.7631 36.1309 45.7075 35.1865 45.7075 34.0215C45.7075 32.8565 44.7631 31.9121 43.5981 31.9121C42.4332 31.9121 41.4888 32.8565 41.4888 34.0215C41.4888 35.1865 42.4332 36.1309 43.5981 36.1309Z" fill="#DF6421"/>
<path d="M64.8779 35.2383C66.0429 35.2383 66.9873 34.2939 66.9873 33.1289C66.9873 31.9639 66.0429 31.0195 64.8779 31.0195C63.713 31.0195 62.7686 31.9639 62.7686 33.1289C62.7686 34.2939 63.713 35.2383 64.8779 35.2383Z" fill="#DF6421"/>
</svg>
