<svg width="100" height="100" viewBox="0 0 100 100" fill="none" xmlns="http://www.w3.org/2000/svg">
<g clip-path="url(#clip0_274_7430)">
<path d="M71.4201 0C74.3042 0 76.6424 2.33804 76.6424 5.22235V85.6686C76.6424 89.6275 75.0385 93.2098 72.4444 95.802C69.8522 98.3961 66.2679 100 62.3111 100H14.5587C11.4148 100 8.86597 97.4514 8.86597 94.3073V5.22235C8.86597 2.33804 11.204 0 14.0883 0L71.4201 0Z" fill="url(#paint0_linear_274_7430)"/>
<path d="M76.6424 85.6695V60.7852H8.86499V94.3081C8.86499 97.4522 11.4138 100.001 14.5577 100.001H62.3111C66.2679 100.001 69.8523 98.3969 72.4444 95.8028C75.0385 93.2106 76.6424 89.6283 76.6424 85.6695Z" fill="url(#paint1_linear_274_7430)"/>
<path d="M47.0266 82.6953V85.8477C47.0266 93.6634 53.3625 99.9992 61.1782 99.9992H62.3113C62.9529 99.9992 63.5833 99.9528 64.2025 99.8712L47.0266 82.6953Z" fill="url(#paint2_linear_274_7430)"/>
<path d="M47.9806 85.6695C47.9806 93.584 54.3967 100 62.3112 100H14.3306C6.41608 100 0 93.584 0 85.6695C0 82.6591 2.44039 80.2188 5.45078 80.2188H42.53C45.5402 80.2188 47.9806 82.6591 47.9806 85.6695Z" fill="url(#paint3_linear_274_7430)"/>
<path d="M98.2199 99.9987H54.4607C53.4777 99.9987 52.6807 99.2018 52.6807 98.2187V61.7722C52.6807 60.7892 53.4775 59.9922 54.4607 59.9922H98.2201C99.203 59.9922 100 60.7891 100 61.7722V98.2187C99.9999 99.2018 99.203 99.9987 98.2199 99.9987Z" fill="url(#paint4_linear_274_7430)"/>
<path d="M99.9998 61.7718V98.2187C99.9998 99.2012 99.2027 99.9983 98.2202 99.9983H92.4119L63.7449 71.3312V59.9922H98.2202C99.2027 59.9922 99.9998 60.7893 99.9998 61.7718Z" fill="url(#paint5_linear_274_7430)"/>
<path d="M98.22 59.9922H85.7871C86.7701 59.9922 87.5671 60.7891 87.5671 61.7722V98.2187C87.5671 99.2016 86.7702 99.9987 85.7871 99.9987H98.22C99.203 99.9987 100 99.2018 100 98.2187V61.772C100 60.7891 99.2032 59.9922 98.22 59.9922Z" fill="url(#paint6_linear_274_7430)"/>
<path d="M52.6807 90.3496V98.219C52.6807 99.202 53.4775 99.999 54.4607 99.999H98.2201C99.203 99.999 100 99.2022 100 98.219V90.3496H52.6807Z" fill="url(#paint7_linear_274_7430)"/>
<path d="M65.5717 71.6369L65.6066 71.6581C66.4066 72.1438 67.4125 72.1358 68.2047 71.6369C69.0141 71.1481 70.0278 71.1481 70.8372 71.6369C71.6466 72.1258 72.6604 72.1258 73.4698 71.6369H73.47C73.8451 71.4197 74.2602 71.415 74.6782 71.4934C75.1551 71.5828 75.5978 71.2254 75.5978 70.7403V60.3548C75.5978 60.0089 75.3174 59.7285 74.9715 59.7285H64.0694C63.7235 59.7285 63.4431 60.0089 63.4431 60.3548V70.7256C63.4431 71.2077 63.8817 71.5687 64.3557 71.4801C64.7782 71.4009 65.197 71.4095 65.5717 71.6369Z" fill="url(#paint8_linear_274_7430)"/>
<path d="M71.1934 20.722C71.1934 21.9502 70.1977 22.9459 68.9695 22.9459H38.1824C36.9542 22.9459 35.9585 21.9502 35.9585 20.722C35.9585 19.4937 36.9542 18.498 38.1824 18.498H68.9695C70.1977 18.4982 71.1934 19.4939 71.1934 20.722Z" fill="#A2AEE6"/>
<path d="M27.3456 27.2252H22.3615C20.1498 27.2252 18.3503 25.4258 18.3503 23.214V18.2299C18.3503 16.0182 20.1498 14.2188 22.3615 14.2188H27.3456C29.5574 14.2188 31.3568 16.0182 31.3568 18.2299V23.214C31.3568 25.4258 29.5574 27.2252 27.3456 27.2252ZM22.3613 17.1599C21.7713 17.1599 21.2913 17.6399 21.2913 18.2299V23.214C21.2913 23.804 21.7713 24.284 22.3613 24.284H27.3454C27.9354 24.284 28.4154 23.804 28.4154 23.214V18.2299C28.4154 17.6399 27.9354 17.1599 27.3454 17.1599H22.3613Z" fill="url(#paint9_linear_274_7430)"/>
<path d="M24.9679 24.266C24.3406 24.266 23.7134 24.0266 23.2348 23.5482L17.8916 18.2051C16.9346 17.2478 16.9346 15.696 17.8916 14.7388C18.8489 13.7817 20.4006 13.7817 21.3579 14.7388L24.9679 18.3488L32.4504 10.8662C33.4077 9.90917 34.9595 9.90917 35.9167 10.8662C36.8738 11.8235 36.8738 13.3753 35.9167 14.3325L26.701 23.5482C26.2224 24.0268 25.5952 24.266 24.9679 24.266Z" fill="url(#paint10_linear_274_7430)"/>
<path d="M24.9517 62.9355H17.5479C17.3413 62.9355 17.1738 62.7681 17.1738 62.5614V60.3683C17.1738 60.1616 17.3413 59.9941 17.5479 59.9941H24.9517C25.1583 59.9941 25.3258 60.1616 25.3258 60.3683V62.5614C25.3256 62.7681 25.1581 62.9355 24.9517 62.9355Z" fill="#A2AEE6"/>
<path d="M34.3634 68.6211H17.5479C17.3413 68.6211 17.1738 68.4536 17.1738 68.2469V66.0538C17.1738 65.8471 17.3413 65.6797 17.5479 65.6797H34.3634C34.5701 65.6797 34.7376 65.8471 34.7376 66.0538V68.2469C34.7374 68.4536 34.5699 68.6211 34.3634 68.6211Z" fill="#A2AEE6"/>
<path d="M29.2654 74.3086H17.5479C17.3413 74.3086 17.1738 74.1411 17.1738 73.9344V71.7413C17.1738 71.5346 17.3413 71.3672 17.5479 71.3672H29.2654C29.4721 71.3672 29.6395 71.5346 29.6395 71.7413V73.9344C29.6393 74.1411 29.4719 74.3086 29.2654 74.3086Z" fill="#A2AEE6"/>
<path d="M71.1934 43.3685C71.1934 44.5967 70.1977 45.5924 68.9695 45.5924H38.1824C36.9542 45.5924 35.9585 44.5967 35.9585 43.3685C35.9585 42.1402 36.9542 41.1445 38.1824 41.1445H68.9695C70.1977 41.1445 71.1934 42.1402 71.1934 43.3685Z" fill="#A2AEE6"/>
<path d="M27.3456 49.8717H22.3615C20.1498 49.8717 18.3503 48.0723 18.3503 45.8605V40.8764C18.3503 38.6646 20.1498 36.8652 22.3615 36.8652H27.3456C29.5574 36.8652 31.3568 38.6646 31.3568 40.8764V45.8605C31.3568 48.0723 29.5574 49.8717 27.3456 49.8717ZM22.3613 39.8064C21.7713 39.8064 21.2913 40.2864 21.2913 40.8764V45.8605C21.2913 46.4505 21.7713 46.9305 22.3613 46.9305H27.3454C27.9354 46.9305 28.4154 46.4505 28.4154 45.8605V40.8764C28.4154 40.2864 27.9354 39.8064 27.3454 39.8064H22.3613Z" fill="url(#paint11_linear_274_7430)"/>
<path d="M24.9679 46.9125C24.3406 46.9125 23.7134 46.6731 23.2348 46.1947L17.8916 40.8515C16.9346 39.8943 16.9346 38.3425 17.8916 37.3853C18.8489 36.4282 20.4006 36.4282 21.3579 37.3853L24.9679 40.9953L32.4504 33.5127C33.4077 32.5557 34.9595 32.5557 35.9167 33.5127C36.8738 34.47 36.8738 36.0217 35.9167 36.979L26.701 46.1947C26.2224 46.6733 25.5952 46.9125 24.9679 46.9125Z" fill="url(#paint12_linear_274_7430)"/>
</g>
<defs>
<linearGradient id="paint0_linear_274_7430" x1="21.5232" y1="28.6312" x2="97.7101" y2="104.818" gradientUnits="userSpaceOnUse">
<stop stop-color="#EAF6FF"/>
<stop offset="0.2575" stop-color="#DCE8FA"/>
<stop offset="0.7423" stop-color="#B8C4ED"/>
<stop offset="1" stop-color="#A2AEE6"/>
</linearGradient>
<linearGradient id="paint1_linear_274_7430" x1="42.7538" y1="69.1512" x2="42.7538" y2="99.361" gradientUnits="userSpaceOnUse">
<stop stop-color="#7BACDF" stop-opacity="0"/>
<stop offset="1" stop-color="#7BACDF"/>
</linearGradient>
<linearGradient id="paint2_linear_274_7430" x1="67.8613" y1="108.037" x2="47.8801" y2="88.0559" gradientUnits="userSpaceOnUse">
<stop stop-color="#8795DE" stop-opacity="0"/>
<stop offset="0.4678" stop-color="#7D8DDC" stop-opacity="0.468"/>
<stop offset="1" stop-color="#6C7FD8"/>
</linearGradient>
<linearGradient id="paint3_linear_274_7430" x1="31.1557" y1="81.5688" x2="31.1557" y2="101.388" gradientUnits="userSpaceOnUse">
<stop stop-color="#EAF6FF"/>
<stop offset="0.2575" stop-color="#DCE8FA"/>
<stop offset="0.7423" stop-color="#B8C4ED"/>
<stop offset="1" stop-color="#A2AEE6"/>
</linearGradient>
<linearGradient id="paint4_linear_274_7430" x1="60.6293" y1="64.2845" x2="98.4079" y2="102.063" gradientUnits="userSpaceOnUse">
<stop stop-color="#FEE45A"/>
<stop offset="1" stop-color="#FE860A"/>
</linearGradient>
<linearGradient id="paint5_linear_274_7430" x1="96.7941" y1="80.8436" x2="48.0831" y2="46.2357" gradientUnits="userSpaceOnUse">
<stop stop-color="#FE860A" stop-opacity="0"/>
<stop offset="1" stop-color="#FE7701"/>
</linearGradient>
<linearGradient id="paint6_linear_274_7430" x1="101.573" y1="70.3069" x2="71.7683" y2="101.74" gradientUnits="userSpaceOnUse">
<stop stop-color="#FE860A" stop-opacity="0"/>
<stop offset="1" stop-color="#FE7701"/>
</linearGradient>
<linearGradient id="paint7_linear_274_7430" x1="76.3403" y1="93.3186" x2="76.3403" y2="101.873" gradientUnits="userSpaceOnUse">
<stop stop-color="#FE860A" stop-opacity="0"/>
<stop offset="1" stop-color="#FE7701"/>
</linearGradient>
<linearGradient id="paint8_linear_274_7430" x1="65.0006" y1="61.0493" x2="78.4592" y2="74.5079" gradientUnits="userSpaceOnUse">
<stop stop-color="#EAF6FF"/>
<stop offset="0.2575" stop-color="#DCE8FA"/>
<stop offset="0.7423" stop-color="#B8C4ED"/>
<stop offset="1" stop-color="#A2AEE6"/>
</linearGradient>
<linearGradient id="paint9_linear_274_7430" x1="24.8535" y1="14.2187" x2="24.8535" y2="27.2252" gradientUnits="userSpaceOnUse">
<stop stop-color="#537983"/>
<stop offset="1" stop-color="#3E5959"/>
</linearGradient>
<linearGradient id="paint10_linear_274_7430" x1="27.0267" y1="14.6582" x2="31.9973" y2="19.6288" gradientUnits="userSpaceOnUse">
<stop stop-color="#A2E62E"/>
<stop offset="1" stop-color="#02905D"/>
</linearGradient>
<linearGradient id="paint11_linear_274_7430" x1="24.8535" y1="36.8652" x2="24.8535" y2="49.8717" gradientUnits="userSpaceOnUse">
<stop stop-color="#537983"/>
<stop offset="1" stop-color="#3E5959"/>
</linearGradient>
<linearGradient id="paint12_linear_274_7430" x1="27.0267" y1="37.3047" x2="31.9973" y2="42.2755" gradientUnits="userSpaceOnUse">
<stop stop-color="#A2E62E"/>
<stop offset="1" stop-color="#02905D"/>
</linearGradient>
<clipPath id="clip0_274_7430">
<rect width="100" height="100" fill="white"/>
</clipPath>
</defs>
</svg>
