<svg width="282" height="282" viewBox="0 0 282 282" fill="none" xmlns="http://www.w3.org/2000/svg">
<circle cx="141" cy="141" r="141" fill="#5DCCCC"/>
<path d="M90.6797 174.547H73.2188V170.68H79.5078V167.281H84.4688V170.68H90.6797V174.547ZM74.3125 182.125C74.3125 180.862 74.638 179.742 75.2891 178.766C75.9531 177.776 76.8711 177.008 78.043 176.461C79.2148 175.914 80.5365 175.641 82.0078 175.641C83.4922 175.641 84.8203 175.914 85.9922 176.461C87.1771 177.008 88.1016 177.776 88.7656 178.766C89.4427 179.742 89.7812 180.862 89.7812 182.125C89.7812 183.336 89.4427 184.417 88.7656 185.367C88.1016 186.318 87.1771 187.066 85.9922 187.613C84.8203 188.147 83.4922 188.414 82.0078 188.414C80.5365 188.414 79.2148 188.147 78.043 187.613C76.8711 187.066 75.9531 186.318 75.2891 185.367C74.638 184.417 74.3125 183.336 74.3125 182.125ZM78.7656 182.086C78.7656 182.919 79.0586 183.57 79.6445 184.039C80.2305 184.508 81.0182 184.742 82.0078 184.742C82.9974 184.742 83.7852 184.514 84.3711 184.059C84.9701 183.59 85.276 182.945 85.2891 182.125C85.276 181.24 84.9766 180.556 84.3906 180.074C83.8177 179.592 83.043 179.352 82.0664 179.352C81.0508 179.352 80.2435 179.586 79.6445 180.055C79.0586 180.51 78.7656 181.188 78.7656 182.086ZM79.3906 190.914H103.961V202.594H99V194.898H79.3906V190.914ZM91.7734 167.633H96.5V176.461H99.2344V167.086H103.961V189.312H99.2344V180.523H96.5V189.117H91.7734V167.633ZM137.75 187.125H132.75V167.086H137.75V187.125ZM107.867 182.594C109.781 182.021 111.376 181.174 112.652 180.055C113.928 178.935 114.872 177.665 115.484 176.246C116.109 174.827 116.422 173.349 116.422 171.812V168.375H121.617V171.812C121.604 173.284 121.897 174.69 122.496 176.031C123.108 177.372 124.039 178.57 125.289 179.625C126.539 180.667 128.089 181.474 129.938 182.047L127.516 185.836C125.523 185.25 123.818 184.371 122.398 183.199C120.979 182.014 119.859 180.608 119.039 178.98C118.206 180.764 117.053 182.301 115.582 183.59C114.124 184.879 112.359 185.849 110.289 186.5L107.867 182.594ZM113.922 188.766H137.75V202.203H113.922V188.766ZM132.867 198.219V192.711H118.844V198.219H132.867ZM170.602 180.68H175.641V184.781H170.602V202.516H165.602V167.047H170.602V180.68ZM142.164 192.555C146.396 190.432 149.651 187.919 151.93 185.016C154.208 182.112 155.582 178.688 156.051 174.742H144.195V170.68H161.109C161.083 176.344 159.807 181.344 157.281 185.68C154.768 190.016 150.667 193.583 144.977 196.383L142.164 192.555ZM206.852 202.594H201.852V167.047H206.852V202.594ZM177.32 192.125C179.195 191.305 180.79 190.152 182.105 188.668C183.421 187.184 184.404 185.53 185.055 183.707C185.719 181.884 186.057 180.042 186.07 178.18V176.812H178.492V172.828H186.031V167.828H190.992V172.828H198.414V176.812H191.031V178.18C191.031 179.951 191.363 181.715 192.027 183.473C192.691 185.23 193.688 186.826 195.016 188.258C196.344 189.69 197.958 190.797 199.859 191.578L197.164 195.406C195.198 194.599 193.486 193.401 192.027 191.812C190.582 190.224 189.443 188.375 188.609 186.266C187.789 188.505 186.643 190.471 185.172 192.164C183.714 193.844 181.982 195.107 179.977 195.953L177.32 192.125Z" fill="#025F5F"/>
<path d="M106.887 101.821C105.005 101.821 103.26 101.549 101.651 101.005C100.064 100.461 98.67 99.6448 97.4687 98.5568C96.29 97.4461 95.372 96.0861 94.7147 94.4768C94.0573 92.8448 93.7287 90.9408 93.7287 88.7648C93.7287 86.5888 94.0573 84.6621 94.7147 82.9848C95.3947 81.3075 96.3353 79.9021 97.5367 78.7688C98.738 77.6355 100.143 76.7855 101.753 76.2188C103.362 75.6521 105.073 75.3688 106.887 75.3688C108.428 75.3688 109.754 75.5275 110.865 75.8448C111.998 76.1621 113.109 76.6381 114.197 77.2728L114.129 83.2228H112.293L110.525 76.4228L112.973 77.2388V78.3948C112.089 77.7601 111.227 77.3068 110.389 77.0348C109.573 76.7628 108.666 76.6268 107.669 76.6268C105.991 76.6268 104.484 77.0688 103.147 77.9528C101.809 78.8141 100.744 80.1288 99.9507 81.8968C99.18 83.6648 98.7947 85.8975 98.7947 88.5948C98.7947 91.2921 99.18 93.5248 99.9507 95.2928C100.744 97.0608 101.809 98.3755 103.147 99.2368C104.484 100.098 106.003 100.529 107.703 100.529C108.7 100.529 109.629 100.393 110.491 100.121C111.352 99.8261 112.247 99.3388 113.177 98.6588V99.8828L110.797 100.665L112.531 93.9668H114.401L114.469 99.8488C113.381 100.483 112.225 100.971 111.001 101.311C109.777 101.651 108.405 101.821 106.887 101.821ZM129.166 101.821C127.602 101.821 126.106 101.537 124.678 100.971C123.272 100.381 122.026 99.5315 120.938 98.4208C119.85 97.3101 118.988 95.9388 118.354 94.3068C117.742 92.6521 117.436 90.7481 117.436 88.5948C117.436 86.4415 117.742 84.5488 118.354 82.9168C118.988 81.2621 119.85 79.8795 120.938 78.7688C122.026 77.6355 123.272 76.7855 124.678 76.2188C126.106 75.6521 127.602 75.3688 129.166 75.3688C130.752 75.3688 132.237 75.6521 133.62 76.2188C135.025 76.7855 136.272 77.6355 137.36 78.7688C138.47 79.8795 139.332 81.2621 139.944 82.9168C140.578 84.5488 140.896 86.4415 140.896 88.5948C140.896 90.7255 140.578 92.6181 139.944 94.2728C139.332 95.9048 138.47 97.2875 137.36 98.4208C136.272 99.5315 135.025 100.381 133.62 100.971C132.237 101.537 130.752 101.821 129.166 101.821ZM129.166 100.563C130.299 100.563 131.274 100.257 132.09 99.6448C132.928 99.0328 133.62 98.1941 134.164 97.1288C134.708 96.0408 135.116 94.7715 135.388 93.3208C135.66 91.8475 135.796 90.2721 135.796 88.5948C135.796 86.8948 135.66 85.3195 135.388 83.8688C135.116 82.4181 134.708 81.1488 134.164 80.0608C133.62 78.9728 132.928 78.1341 132.09 77.5448C131.274 76.9328 130.299 76.6268 129.166 76.6268C128.032 76.6268 127.046 76.9328 126.208 77.5448C125.369 78.1341 124.678 78.9728 124.134 80.0608C123.59 81.1488 123.182 82.4181 122.91 83.8688C122.638 85.3195 122.502 86.8948 122.502 88.5948C122.502 90.2721 122.638 91.8475 122.91 93.3208C123.182 94.7715 123.59 96.0408 124.134 97.1288C124.678 98.1941 125.369 99.0328 126.208 99.6448C127.046 100.257 128.032 100.563 129.166 100.563ZM143.531 101.175V100.053L148.733 99.5768H149.719L154.921 100.053V101.175H143.531ZM146.727 101.175C146.772 99.2481 146.795 97.3101 146.795 95.3608C146.795 93.3888 146.795 91.4055 146.795 89.4108V87.7788C146.795 85.8068 146.795 83.8461 146.795 81.8968C146.795 79.9248 146.772 77.9528 146.727 75.9808H151.691C151.623 77.9075 151.578 79.8795 151.555 81.8968C151.555 83.8915 151.555 86.0221 151.555 88.2888V89.2068C151.555 91.2695 151.555 93.2868 151.555 95.2588C151.578 97.2308 151.623 99.2028 151.691 101.175H146.727ZM163.557 101.617C162.152 101.617 161.075 101.39 160.327 100.937C159.579 100.461 159.114 99.6221 158.933 98.4208L157.709 93.3548C157.505 92.4255 157.256 91.6661 156.961 91.0768C156.666 90.4648 156.247 90.0228 155.703 89.7508C155.182 89.4561 154.456 89.3088 153.527 89.3088H149.277V88.1188H154.037C155.306 88.1188 156.349 87.8695 157.165 87.3708C157.981 86.8495 158.582 86.1695 158.967 85.3308C159.375 84.4695 159.579 83.5175 159.579 82.4748C159.579 80.7975 159.114 79.5055 158.185 78.5988C157.278 77.6921 155.896 77.2388 154.037 77.2388H149.243V75.9808H155.159C158.06 75.9808 160.282 76.5475 161.823 77.6808C163.364 78.7915 164.135 80.3555 164.135 82.3728C164.135 83.4608 163.84 84.4695 163.251 85.3988C162.684 86.3281 161.744 87.1101 160.429 87.7448C159.137 88.3568 157.414 88.7308 155.261 88.8668V88.4928C157.074 88.5608 158.468 88.8101 159.443 89.2408C160.44 89.6488 161.177 90.2495 161.653 91.0428C162.152 91.8361 162.526 92.8335 162.775 94.0348L164.305 100.767L161.959 99.7128L167.229 100.053V101.175C166.64 101.311 166.073 101.413 165.529 101.481C165.008 101.571 164.35 101.617 163.557 101.617ZM143.531 77.1028V75.9808H149.243V77.5788H148.733L143.531 77.1028ZM169.064 101.175V100.053L174.266 99.5768H174.776V101.175H169.064ZM172.26 101.175C172.306 99.2481 172.328 97.3101 172.328 95.3608C172.328 93.3888 172.328 91.4055 172.328 89.4108V87.7788C172.328 85.8068 172.328 83.8461 172.328 81.8968C172.328 79.9248 172.306 77.9528 172.26 75.9808H177.258C177.236 77.9075 177.213 79.8681 177.19 81.8628C177.19 83.8575 177.19 85.9088 177.19 88.0168V88.9688C177.19 91.1448 177.19 93.2301 177.19 95.2248C177.213 97.2195 177.236 99.2028 177.258 101.175H172.26ZM174.776 101.175V99.9168H187.764L185.35 101.039L186.982 94.4088H188.75L188.716 101.175H174.776ZM174.776 88.9688V87.7448H183.14V88.9688H174.776ZM182.766 92.3688L182.256 88.5948V87.8808L182.766 84.1748H184.296V92.3688H182.766ZM169.064 77.1028V75.9808H174.776V77.5788H174.266L169.064 77.1028ZM186.302 82.5428L184.67 76.0828L187.084 77.2728H174.776V75.9808H188.036L188.104 82.5428H186.302ZM84.1047 142.311L75.2307 116.981H80.3647L87.3687 138.265H86.8247L86.9607 137.789L93.6247 116.981H95.4607L86.7227 142.311H84.1047ZM73.2587 118.103V116.981H84.5807V118.035L79.3447 118.579H78.2907L73.2587 118.103ZM89.4767 118.035V116.981H97.8067V118.001L94.2027 118.579H93.6587L89.4767 118.035ZM94.2486 142.175V141.053L97.6486 140.611H98.2606L101.967 141.053V142.175H94.2486ZM96.6286 142.175L105.061 116.845H108.053L116.655 142.175H111.759L104.585 119.871H105.265L105.163 120.347L98.2946 142.175H96.6286ZM100.369 133.981L100.641 132.825H111.419L111.657 133.981H100.369ZM107.815 142.175V141.053L112.405 140.577H114.105L118.831 141.053V142.175H107.815ZM120.538 142.175L120.572 141.053L125.74 140.577H126.25V142.175H120.538ZM123.734 142.175C123.779 140.248 123.802 138.333 123.802 136.429C123.802 134.525 123.802 132.745 123.802 131.091V128.779C123.802 126.807 123.802 124.835 123.802 122.863C123.802 120.891 123.779 118.93 123.734 116.981H128.732C128.709 118.907 128.686 120.857 128.664 122.829C128.664 124.778 128.664 126.693 128.664 128.575V130.717C128.664 132.507 128.664 134.377 128.664 136.327C128.686 138.253 128.709 140.203 128.732 142.175H123.734ZM126.25 142.175V140.917H138.592L136.178 142.005L137.912 134.899H139.646L139.612 142.175H126.25ZM120.538 118.103V116.981H132.132V118.103L126.862 118.579H125.74L120.538 118.103ZM153.17 142.821C151.289 142.821 149.623 142.481 148.172 141.801C146.744 141.121 145.622 140.021 144.806 138.503C144.013 136.961 143.616 134.899 143.616 132.315V128.541C143.616 126.637 143.605 124.721 143.582 122.795C143.582 120.845 143.548 118.907 143.48 116.981H148.512C148.489 118.907 148.467 120.834 148.444 122.761C148.444 124.665 148.444 126.591 148.444 128.541V131.805C148.444 133.89 148.682 135.556 149.158 136.803C149.634 138.049 150.325 138.956 151.232 139.523C152.139 140.067 153.249 140.339 154.564 140.339C156.649 140.339 158.236 139.659 159.324 138.299C160.435 136.939 160.967 134.695 160.922 131.567L160.854 116.981H162.452L162.35 131.839C162.327 135.579 161.523 138.344 159.936 140.135C158.372 141.925 156.117 142.821 153.17 142.821ZM140.488 118.103V116.981H151.878V118.103L146.608 118.579H145.69L140.488 118.103ZM156.876 118.103V116.981H165.886V118.103L162.112 118.613H161.126L156.876 118.103ZM167.819 142.175V141.053L173.021 140.577H173.531V142.175H167.819ZM171.015 142.175C171.06 140.248 171.083 138.31 171.083 136.361C171.083 134.389 171.083 132.405 171.083 130.411V128.779C171.083 126.807 171.083 124.846 171.083 122.897C171.083 120.925 171.06 118.953 171.015 116.981H176.013C175.99 118.907 175.968 120.868 175.945 122.863C175.945 124.857 175.945 126.909 175.945 129.017V129.969C175.945 132.145 175.945 134.23 175.945 136.225C175.968 138.219 175.99 140.203 176.013 142.175H171.015ZM173.531 142.175V140.917H186.519L184.105 142.039L185.737 135.409H187.505L187.471 142.175H173.531ZM173.531 129.969V128.745H181.895V129.969H173.531ZM181.521 133.369L181.011 129.595V128.881L181.521 125.175H183.051V133.369H181.521ZM167.819 118.103V116.981H173.531V118.579H173.021L167.819 118.103ZM185.057 123.543L183.425 117.083L185.839 118.273H173.531V116.981H186.791L186.859 123.543H185.057ZM198.352 142.821C196.969 142.821 195.586 142.639 194.204 142.277C192.821 141.914 191.654 141.415 190.702 140.781L190.906 135.205H192.708L194.408 141.631L192.334 140.747L191.96 139.455C193.07 140.248 194.056 140.781 194.918 141.053C195.779 141.302 196.776 141.427 197.91 141.427C199.632 141.427 200.981 141.041 201.956 140.271C202.93 139.477 203.418 138.367 203.418 136.939C203.418 136.145 203.293 135.465 203.044 134.899C202.794 134.332 202.364 133.822 201.752 133.369C201.162 132.915 200.358 132.473 199.338 132.043L197.774 131.363C195.598 130.388 193.932 129.289 192.776 128.065C191.642 126.841 191.076 125.254 191.076 123.305C191.076 121.809 191.45 120.551 192.198 119.531C192.968 118.488 194.011 117.706 195.326 117.185C196.663 116.641 198.182 116.369 199.882 116.369C201.219 116.369 202.443 116.539 203.554 116.879C204.664 117.196 205.662 117.661 206.546 118.273L206.308 123.577H204.506L202.84 117.457L205.084 118.409L205.356 119.769C204.404 118.998 203.576 118.465 202.874 118.171C202.194 117.876 201.378 117.729 200.426 117.729C198.907 117.729 197.672 118.091 196.72 118.817C195.768 119.542 195.292 120.573 195.292 121.911C195.292 123.135 195.632 124.109 196.312 124.835C196.992 125.56 197.955 126.195 199.202 126.739L200.902 127.487C202.602 128.235 203.95 128.983 204.948 129.731C205.968 130.479 206.693 131.306 207.124 132.213C207.577 133.119 207.804 134.196 207.804 135.443C207.804 136.916 207.43 138.208 206.682 139.319C205.934 140.407 204.857 141.268 203.452 141.903C202.046 142.515 200.346 142.821 198.352 142.821Z" fill="white"/>
</svg>
