<svg width="110" height="110" viewBox="0 0 110 110" fill="none" xmlns="http://www.w3.org/2000/svg">
<circle cx="55" cy="55" r="55" fill="white"/>
<path d="M34 46H80V84H34V46Z" fill="#C18E59"/>
<path d="M76 78V46H34V80H74C74.5304 80 75.0391 79.7893 75.4142 79.4142C75.7893 79.0391 76 78.5304 76 78Z" fill="#CE9B6E"/>
<path d="M68 80H62C62 77.8783 62.8429 75.8434 64.3431 74.3431C65.8434 72.8429 67.8783 72 70 72H76C76 74.1217 75.1571 76.1566 73.6569 77.6569C72.1566 79.1571 70.1217 80 68 80Z" fill="#6BC13B"/>
<path d="M62 80H58V75C58 72.6131 58.9482 70.3239 60.636 68.636C62.3239 66.9482 64.6131 66 67 66H68V72.252C66.2824 72.6955 64.7609 73.6973 63.6748 75.0998C62.5887 76.5023 61.9995 78.2261 62 80Z" fill="#4D8C28"/>
<path d="M70.293 74.293L71.707 75.707C69.8237 77.5857 67.567 79.0482 65.083 80H62C62.0018 79.679 62.0228 79.3584 62.063 79.04L63.663 78.393C66.1597 77.5561 68.4289 76.1528 70.293 74.293Z" fill="#559B2D"/>
<path d="M60.012 80H58V79.947L58.005 79.895C58.2688 77.1411 59.2353 74.5011 60.812 72.228C61.556 71.1824 62.3858 70.2006 63.293 69.293L64.707 70.707C63.8787 71.5359 63.1207 72.4324 62.441 73.387C61.0859 75.3508 60.2503 77.6259 60.012 80Z" fill="#376818"/>
<path d="M68 80H62C62 77.8783 62.8429 75.8434 64.3431 74.3431C65.8434 72.8429 67.8783 72 70 72H76C76 74.1217 75.1571 76.1566 73.6569 77.6569C72.1566 79.1571 70.1217 80 68 80Z" fill="#6BC13B"/>
<path d="M62 80H58V75C58 72.6131 58.9482 70.3239 60.636 68.636C62.3239 66.9482 64.6131 66 67 66H68V72.252C66.2824 72.6955 64.7609 73.6973 63.6748 75.0998C62.5887 76.5023 61.9995 78.2261 62 80Z" fill="#4D8C28"/>
<path d="M70.293 74.293L71.707 75.707C69.8237 77.5857 67.567 79.0482 65.083 80H62C62.0018 79.679 62.0228 79.3584 62.063 79.04L63.663 78.393C66.1597 77.5561 68.4289 76.1528 70.293 74.293Z" fill="#559B2D"/>
<path d="M60.012 80H58V79.947L58.005 79.895C58.2688 77.1411 59.2353 74.5011 60.812 72.228C61.556 71.1824 62.3858 70.2006 63.293 69.293L64.707 70.707C63.8787 71.5359 63.1207 72.4324 62.441 73.387C61.0859 75.3508 60.2503 77.6259 60.012 80Z" fill="#376818"/>
<path d="M30 24H36C38.8891 24 41.7499 24.569 44.419 25.6747C47.0882 26.7803 49.5135 28.4008 51.5563 30.4437C53.5992 32.4865 55.2197 34.9118 56.3253 37.581C57.431 40.2501 58 43.1109 58 46H52C46.1652 46 40.5695 43.6821 36.4437 39.5563C32.3179 35.4305 30 29.8348 30 24Z" fill="#4D8C28"/>
<path d="M36.8189 27.4268L35.1809 28.5728C39.8794 35.2692 46.0859 40.7677 53.2999 44.6248L55.8499 45.9998H57.9999C57.9999 45.6204 57.9902 45.2441 57.9709 44.8708L54.2409 42.8618C47.3048 39.1523 41.3372 33.8653 36.8189 27.4268Z" fill="#376818"/>
<path d="M68 30V36C68 37.3132 67.7413 38.6136 67.2388 39.8268C66.7362 41.0401 65.9997 42.1425 65.0711 43.0711C64.1425 43.9997 63.0401 44.7362 61.8268 45.2388C60.6136 45.7413 59.3132 46 58 46V40C58 37.3478 59.0536 34.8043 60.9289 32.9289C62.8043 31.0536 65.3478 30 68 30Z" fill="#6BC13B"/>
<path d="M51 46V60H63V46" fill="#F0AE42"/>
<path d="M59 54V46H51V56H57C57.5304 56 58.0391 55.7893 58.4142 55.4142C58.7893 55.0391 59 54.5304 59 54Z" fill="#F9D266"/>
<path d="M38 74H50V80H38V74Z" fill="#FAD85D"/>
<path d="M38 74H47V77H38V74Z" fill="#FCE797"/>
</svg>
