<svg width="110" height="110" viewBox="0 0 110 110" fill="none" xmlns="http://www.w3.org/2000/svg">
<circle cx="55" cy="55" r="55" fill="white"/>
<path d="M45 24H65V28H45V24Z" fill="#CE2238"/>
<path d="M47 26H65V28H47V26Z" fill="#F84269"/>
<path d="M42 31H68V50H42V31Z" fill="#8CD4FE"/>
<path d="M43.5 31H68V50H43.5V31Z" fill="#7DC3FA"/>
<path d="M42 36.247C42.6068 36.4832 43.265 36.5557 43.9086 36.4573C44.5522 36.3588 45.1586 36.0928 45.667 35.686C46.3304 36.2131 47.1527 36.5001 48 36.5001C48.8473 36.5001 49.6696 36.2131 50.333 35.686C50.9966 36.213 51.8191 36.4999 52.6665 36.4999C53.5139 36.4999 54.3364 36.213 55 35.686C55.6636 36.213 56.4861 36.4999 57.3335 36.4999C58.1809 36.4999 59.0034 36.213 59.667 35.686C60.3304 36.2131 61.1527 36.5001 62 36.5001C62.8473 36.5001 63.6696 36.2131 64.333 35.686C64.8414 36.0928 65.4478 36.3588 66.0914 36.4573C66.735 36.5557 67.3932 36.4832 68 36.247V31H42V36.247Z" fill="#7DC3FA"/>
<path d="M43.5 36.485C44.2878 36.4492 45.045 36.1697 45.667 35.685C46.3304 36.2121 47.1527 36.4991 48 36.4991C48.8473 36.4991 49.6696 36.2121 50.333 35.685C50.9966 36.212 51.8191 36.4989 52.6665 36.4989C53.5139 36.4989 54.3364 36.212 55 35.685C55.6636 36.212 56.4861 36.4989 57.3335 36.4989C58.1809 36.4989 59.0034 36.212 59.667 35.685C60.3304 36.2121 61.1527 36.4991 62 36.4991C62.8473 36.4991 63.6696 36.2121 64.333 35.685C64.8413 36.092 65.4477 36.3582 66.0913 36.4568C66.7349 36.5554 67.3932 36.4831 68 36.247V31H43.5V36.485Z" fill="#72B4F7"/>
<path d="M54.25 50H55.75V69.75H54.25V50Z" fill="#7F7F83"/>
<path d="M55 69.8032L33.032 61.4342L33.566 60.0322L55 68.1972L76.434 60.0322L76.968 61.4342L55 69.8032Z" fill="#7F7F83"/>
<path d="M40 28H70V31H40V28Z" fill="#8CD4FE"/>
<path d="M42 29.5H70V31H42V29.5Z" fill="#7DC3FA"/>
<path d="M45 38H51V50H45V38Z" fill="#F6FAFF"/>
<path d="M51 37.25H45C44.8011 37.25 44.6103 37.329 44.4697 37.4697C44.329 37.6103 44.25 37.8011 44.25 38V50H45.75V38.75H50.25V50H51.75V38C51.75 37.8011 51.671 37.6103 51.5303 37.4697C51.3897 37.329 51.1989 37.25 51 37.25Z" fill="#F84269"/>
<path d="M54 38H65V46H54V38Z" fill="#F6FAFF"/>
<path d="M65 46.75H54C53.8011 46.75 53.6103 46.671 53.4697 46.5303C53.329 46.3897 53.25 46.1989 53.25 46V38C53.25 37.8011 53.329 37.6103 53.4697 37.4697C53.6103 37.329 53.8011 37.25 54 37.25H65C65.1989 37.25 65.3897 37.329 65.5303 37.4697C65.671 37.6103 65.75 37.8011 65.75 38V46C65.75 46.1989 65.671 46.3897 65.5303 46.5303C65.3897 46.671 65.1989 46.75 65 46.75ZM54.75 45.25H64.25V38.75H54.75V45.25Z" fill="#F84269"/>
<path d="M70 50.75H40C39.8011 50.75 39.6103 50.671 39.4697 50.5303C39.329 50.3897 39.25 50.1989 39.25 50C39.25 49.8011 39.329 49.6103 39.4697 49.4697C39.6103 49.329 39.8011 49.25 40 49.25H70C70.1989 49.25 70.3897 49.329 70.5303 49.4697C70.671 49.6103 70.75 49.8011 70.75 50C70.75 50.1989 70.671 50.3897 70.5303 50.5303C70.3897 50.671 70.1989 50.75 70 50.75Z" fill="#89898C"/>
<path d="M41 31H45.667V32.667C45.667 32.9735 45.6066 33.2769 45.4893 33.56C45.372 33.8431 45.2001 34.1004 44.9833 34.317C44.7666 34.5337 44.5093 34.7055 44.2261 34.8227C43.9429 34.9399 43.6395 35.0001 43.333 35C42.7143 35 42.1208 34.7542 41.6833 34.3167C41.2458 33.8792 41 33.2857 41 32.667V31Z" fill="#F6FAFF"/>
<path d="M45.667 31H50.334V32.667C50.334 32.9735 50.2736 33.2769 50.1563 33.56C50.039 33.8431 49.8671 34.1004 49.6503 34.317C49.4336 34.5337 49.1763 34.7055 48.8931 34.8227C48.6099 34.9399 48.3065 35.0001 48 35C47.3812 35 46.7878 34.7542 46.3503 34.3167C45.9128 33.8792 45.667 33.2857 45.667 32.667V31Z" fill="#F84269"/>
<path d="M50.333 31H55V32.667C55 33.2857 54.7542 33.8792 54.3167 34.3167C53.8792 34.7542 53.2858 35 52.667 35C52.0483 35 51.4549 34.7542 51.0173 34.3167C50.5798 33.8792 50.334 33.2857 50.334 32.667L50.333 31Z" fill="#F6FAFF"/>
<path d="M55 31H59.667V32.667C59.667 32.9735 59.6066 33.2769 59.4893 33.56C59.372 33.8431 59.2001 34.1004 58.9833 34.317C58.7666 34.5337 58.5093 34.7055 58.2261 34.8227C57.9429 34.9399 57.6395 35.0001 57.333 35C56.7143 35 56.1208 34.7542 55.6833 34.3167C55.2458 33.8792 55 33.2857 55 32.667V31Z" fill="#F84269"/>
<path d="M59.667 31H64.334V32.667C64.334 32.9735 64.2736 33.2769 64.1563 33.56C64.039 33.8431 63.8671 34.1004 63.6503 34.317C63.4336 34.5337 63.1763 34.7055 62.8931 34.8227C62.6099 34.9399 62.3065 35.0001 62 35C61.3812 35 60.7878 34.7542 60.3503 34.3167C59.9128 33.8792 59.667 33.2857 59.667 32.667V31Z" fill="#F6FAFF"/>
<path d="M64.333 31H69V32.667C69 33.2857 68.7542 33.8792 68.3167 34.3167C67.8792 34.7542 67.2858 35 66.667 35C66.0483 35 65.4548 34.7542 65.0173 34.3167C64.5798 33.8792 64.334 33.2857 64.334 32.667L64.333 31Z" fill="#F84269"/>
<path d="M34 78C37.3137 78 40 76.6569 40 75C40 73.3431 37.3137 72 34 72C30.6863 72 28 73.3431 28 75C28 76.6569 30.6863 78 34 78Z" fill="#A4D32A"/>
<path d="M30 76.0002C30.0206 76.3095 30.1104 76.6102 30.2629 76.8801C30.4154 77.1499 30.6267 77.382 30.881 77.5592C31.8934 77.8582 32.9443 78.0068 34 78.0002C37.314 78.0002 40 76.6572 40 75.0002C39.9794 74.6909 39.8896 74.3902 39.7371 74.1204C39.5846 73.8505 39.3733 73.6184 39.119 73.4412C38.1066 73.1422 37.0557 72.9936 36 73.0002C32.686 73.0002 30 74.3432 30 76.0002Z" fill="#A5E131"/>
<path d="M34 53C31.8783 53 29.8434 53.8429 28.3431 55.3431C26.8429 56.8434 26 58.8783 26 61C26 67 34 75 34 75C34 75 42 67 42 61C42 58.8783 41.1571 56.8434 39.6569 55.3431C38.1566 53.8429 36.1217 53 34 53Z" fill="#CE2238"/>
<path d="M28 61C28 65.683 32.861 71.568 35 73.933C37.139 71.568 42 65.683 42 61C42.0003 59.7056 41.6861 58.4305 41.0844 57.2845C40.4828 56.1385 39.6116 55.1558 38.546 54.421C37.7258 54.1434 36.8659 54.0012 36 54C31.582 54 28 56.582 28 61Z" fill="#F84269"/>
<path d="M34 64C35.6569 64 37 62.6569 37 61C37 59.3431 35.6569 58 34 58C32.3431 58 31 59.3431 31 61C31 62.6569 32.3431 64 34 64Z" fill="#F6FAFF"/>
<path d="M55 86C58.3137 86 61 84.6569 61 83C61 81.3431 58.3137 80 55 80C51.6863 80 49 81.3431 49 83C49 84.6569 51.6863 86 55 86Z" fill="#A4D32A"/>
<path d="M51 84.0002C51.0206 84.3095 51.1104 84.6102 51.2629 84.8801C51.4154 85.1499 51.6267 85.382 51.881 85.5592C52.8934 85.8582 53.9443 86.0068 55 86.0002C58.314 86.0002 61 84.6572 61 83.0002C60.9794 82.6909 60.8896 82.3902 60.7371 82.1204C60.5846 81.8505 60.3733 81.6184 60.119 81.4412C59.1066 81.1422 58.0557 80.9936 57 81.0002C53.686 81.0002 51 82.3432 51 84.0002Z" fill="#A5E131"/>
<path d="M55 61C52.8783 61 50.8434 61.8429 49.3431 63.3431C47.8429 64.8434 47 66.8783 47 69C47 75 55 83 55 83C55 83 63 75 63 69C63 66.8783 62.1571 64.8434 60.6569 63.3431C59.1566 61.8429 57.1217 61 55 61Z" fill="#CE2238"/>
<path d="M49 69C49 73.683 53.861 79.568 56 81.933C58.139 79.568 63 73.683 63 69C63.0003 67.7056 62.6861 66.4305 62.0844 65.2845C61.4828 64.1385 60.6116 63.1558 59.546 62.421C58.7258 62.1434 57.8659 62.0012 57 62C52.582 62 49 64.582 49 69Z" fill="#F84269"/>
<path d="M55 72C56.6569 72 58 70.6569 58 69C58 67.3431 56.6569 66 55 66C53.3431 66 52 67.3431 52 69C52 70.6569 53.3431 72 55 72Z" fill="#F6FAFF"/>
<path d="M76 78C79.3137 78 82 76.6569 82 75C82 73.3431 79.3137 72 76 72C72.6863 72 70 73.3431 70 75C70 76.6569 72.6863 78 76 78Z" fill="#A4D32A"/>
<path d="M72 76.0002C72.0206 76.3095 72.1104 76.6102 72.2629 76.8801C72.4154 77.1499 72.6267 77.382 72.881 77.5592C73.8934 77.8582 74.9443 78.0068 76 78.0002C79.314 78.0002 82 76.6572 82 75.0002C81.9794 74.6909 81.8896 74.3902 81.7371 74.1204C81.5846 73.8505 81.3733 73.6184 81.119 73.4412C80.1066 73.1422 79.0557 72.9936 78 73.0002C74.686 73.0002 72 74.3432 72 76.0002Z" fill="#A5E131"/>
<path d="M76 53C73.8783 53 71.8434 53.8429 70.3431 55.3431C68.8429 56.8434 68 58.8783 68 61C68 67 76 75 76 75C76 75 84 67 84 61C84 58.8783 83.1571 56.8434 81.6569 55.3431C80.1566 53.8429 78.1217 53 76 53Z" fill="#CE2238"/>
<path d="M70 61C70 65.683 74.861 71.568 77 73.933C79.139 71.568 84 65.683 84 61C84.0003 59.7056 83.6861 58.4305 83.0844 57.2845C82.4828 56.1385 81.6116 55.1558 80.546 54.421C79.7258 54.1434 78.8659 54.0012 78 54C73.582 54 70 56.582 70 61Z" fill="#F84269"/>
<path d="M76 64C77.6569 64 79 62.6569 79 61C79 59.3431 77.6569 58 76 58C74.3431 58 73 59.3431 73 61C73 62.6569 74.3431 64 76 64Z" fill="#F6FAFF"/>
</svg>
