<svg width="220" height="220" viewBox="0 0 220 220" fill="none" xmlns="http://www.w3.org/2000/svg">
<circle cx="110" cy="110" r="110" fill="#4671CA"/>
<path d="M75.3255 115.209H145.775C147.756 115.21 149.674 114.516 151.196 113.247C152.717 111.978 153.745 110.215 154.1 108.266L161.288 68.6992H59.8125L67.0003 108.266C67.3549 110.215 68.3827 111.978 69.9042 113.247C71.4257 114.516 73.3444 115.21 75.3255 115.209Z" fill="#C8EBFF"/>
<path d="M154.099 108.266L161.287 68.6992H68.2686L75.4564 108.266C75.811 110.215 76.8387 111.978 78.3602 113.247C79.8817 114.516 81.8004 115.21 83.7815 115.209H145.774C147.755 115.21 149.674 114.516 151.196 113.247C152.717 111.978 153.745 110.215 154.099 108.266Z" fill="#A9E1FE"/>
<path d="M55.5845 59.1848V65.527C55.5845 66.368 55.9186 67.1746 56.5133 67.7693C57.108 68.364 57.9145 68.698 58.7556 68.698H93.6376L96.6966 74.8161C97.0477 75.5187 97.5875 76.1095 98.2555 76.5225C98.9235 76.9355 99.6933 77.1543 100.479 77.1543H120.621C121.407 77.1543 122.177 76.9355 122.845 76.5225C123.513 76.1095 124.052 75.5187 124.404 74.8161L127.463 68.698H162.345C163.186 68.698 163.992 68.364 164.587 67.7693C165.182 67.1746 165.516 66.368 165.516 65.527V59.1848C165.516 58.3437 165.182 57.5372 164.587 56.9425C163.992 56.3478 163.186 56.0137 162.345 56.0137H58.7556C57.9145 56.0137 57.108 56.3478 56.5133 56.9425C55.9186 57.5372 55.5845 58.3437 55.5845 59.1848Z" fill="#FF82AA"/>
<path d="M65.0974 60.2422C64.2563 60.2422 63.4498 60.5763 62.8551 61.171C62.2604 61.7657 61.9263 62.5723 61.9263 63.4133V68.6984H93.6372L96.6963 74.8165C97.0473 75.5191 97.5871 76.1099 98.2551 76.5229C98.9231 76.9359 99.693 77.1547 100.478 77.1547H120.621C121.406 77.1547 122.176 76.9359 122.844 76.5229C123.512 76.1099 124.052 75.5191 124.403 74.8165L127.462 68.6984H162.344C163.185 68.6984 163.992 68.3643 164.587 67.7696C165.181 67.175 165.515 66.3684 165.515 65.5273V60.2422H65.0974Z" fill="#FF6E96"/>
<path d="M119.006 70.2844H102.094C101.673 70.2844 101.27 70.1173 100.973 69.82C100.675 69.5226 100.508 69.1193 100.508 68.6988C100.508 68.2783 100.675 67.875 100.973 67.5777C101.27 67.2803 101.673 67.1133 102.094 67.1133H119.006C119.427 67.1133 119.83 67.2803 120.128 67.5777C120.425 67.875 120.592 68.2783 120.592 68.6988C120.592 69.1193 120.425 69.5226 120.128 69.82C119.83 70.1173 119.427 70.2844 119.006 70.2844Z" fill="#F9588A"/>
<path d="M93.6372 102.523C93.6372 100.188 95.5302 98.2949 97.8653 98.2949H123.234C125.569 98.2949 127.462 100.188 127.462 102.523V102.523C127.462 104.858 125.569 106.751 123.234 106.751H97.8653C95.5302 106.751 93.6372 104.858 93.6372 102.523V102.523Z" fill="#F5FAFF"/>
<path d="M154.311 187.087H66.7889C64.8232 187.087 62.9188 186.402 61.4034 185.15C59.8879 183.898 58.8559 182.157 58.4849 180.227L49.2422 132.121H171.858L162.607 180.227C162.236 182.156 161.205 183.895 159.691 185.147C158.178 186.399 156.275 187.085 154.311 187.087Z" fill="#C8EBFF"/>
<path d="M162.606 180.227L171.858 132.121H57.6982L66.9494 180.227C67.3201 182.156 68.3509 183.895 69.8646 185.147C71.3784 186.399 73.2807 187.085 75.245 187.087H154.311C156.275 187.085 158.178 186.399 159.691 185.147C161.205 183.895 162.236 182.156 162.606 180.227Z" fill="#A9E1FE"/>
<path d="M171.858 115.209H49.2423C48.1209 115.209 47.0455 115.654 46.2525 116.447C45.4596 117.24 45.0142 118.316 45.0142 119.437V127.893C45.0142 129.015 45.4596 130.09 46.2525 130.883C47.0455 131.676 48.1209 132.121 49.2423 132.121H89.4095L91.885 137.073C92.4118 138.126 93.2215 139.012 94.2233 139.631C95.2251 140.25 96.3794 140.578 97.5571 140.578H123.543C124.721 140.578 125.875 140.25 126.877 139.631C127.879 139.012 128.688 138.126 129.215 137.073L131.691 132.121H171.858C172.979 132.121 174.055 131.676 174.848 130.883C175.641 130.09 176.086 129.015 176.086 127.893V119.437C176.086 118.316 175.641 117.24 174.848 116.447C174.055 115.654 172.979 115.209 171.858 115.209Z" fill="#FFE191"/>
<path d="M91.8846 137.071C92.4114 138.124 93.2211 139.01 94.2229 139.629C95.2247 140.248 96.379 140.576 97.5567 140.576H123.543C124.72 140.576 125.875 140.248 126.877 139.629C127.878 139.01 128.688 138.124 129.215 137.071L131.69 132.12H171.858C172.979 132.12 174.054 131.674 174.847 130.882C175.64 130.089 176.086 129.013 176.086 127.892V119.436H55.5841C54.4627 119.436 53.3873 119.881 52.5943 120.674C51.8014 121.467 51.356 122.542 51.356 123.664V132.12H89.4091L91.8846 137.071Z" fill="#FFD07D"/>
<path d="M123.234 133.706H97.8653C97.4448 133.706 97.0415 133.539 96.7442 133.242C96.4468 132.945 96.2798 132.541 96.2798 132.121C96.2798 131.7 96.4468 131.297 96.7442 131C97.0415 130.702 97.4448 130.535 97.8653 130.535H123.234C123.655 130.535 124.058 130.702 124.355 131C124.653 131.297 124.82 131.7 124.82 132.121C124.82 132.541 124.653 132.945 124.355 133.242C124.058 133.539 123.655 133.706 123.234 133.706Z" fill="#FCC265"/>
<path d="M89.4092 172.288C89.4092 168.785 92.2487 165.945 95.7514 165.945H125.348C128.851 165.945 131.69 168.785 131.69 172.288V172.288C131.69 175.79 128.851 178.63 125.348 178.63H95.7514C92.2487 178.63 89.4092 175.79 89.4092 172.288V172.288Z" fill="#F5FAFF"/>
</svg>
