<svg width="110" height="110" viewBox="0 0 110 110" fill="none" xmlns="http://www.w3.org/2000/svg">
<circle cx="55" cy="55" r="55" fill="white"/>
<path d="M27.6562 78.4375C29.8141 78.4375 31.5625 80.1859 31.5625 82.3438C31.5625 84.5016 29.8141 86.25 27.6562 86.25C25.4984 86.25 23.75 84.5016 23.75 82.3438C23.75 80.1859 25.4984 78.4375 27.6562 78.4375Z" fill="#65E4FD"/>
<path d="M84.2969 28.4375C85.8078 28.4375 87.0312 29.6625 87.0312 31.1719C87.0312 32.6813 85.8078 33.9062 84.2969 33.9062C82.7859 33.9062 81.5625 32.6813 81.5625 31.1719C81.5625 29.6625 82.7859 28.4375 84.2969 28.4375Z" fill="#65E4FD"/>
<path d="M84.6875 55H76.875C76.875 42.9188 67.0813 33.125 55 33.125V25.3125C71.3953 25.3125 84.6875 38.6047 84.6875 55Z" fill="#E33657"/>
<path d="M55 76.875V84.6875C38.6047 84.6875 25.3125 71.3953 25.3125 55H33.125C33.125 67.0813 42.9188 76.875 55 76.875Z" fill="#E33657"/>
<path d="M76.875 55H84.6875C84.6875 71.3953 71.3953 84.6875 55 84.6875V76.875C67.0813 76.875 76.875 67.0813 76.875 55Z" fill="#FD5959"/>
<path d="M55 25.3125V33.125C42.9188 33.125 33.125 42.9188 33.125 55H25.3125C25.3125 38.6047 38.6047 25.3125 55 25.3125Z" fill="#FD5959"/>
<path d="M55 62.8125V65.1562H52.6562L51.7578 63.8672L52.6562 62.8125H55Z" fill="#FD5959"/>
<path d="M52.6562 67.1094C52.6562 68.1875 51.7812 69.0625 50.7031 69.0625C49.625 69.0625 48.75 68.1875 48.75 67.1094V58.9062L50.7031 57.9297L52.6562 58.9062V67.1094Z" fill="#4E5F7F"/>
<path d="M63.5938 44.0625L64.5703 53.0078L63.5938 62.8125L52.6562 58.9062L51.7578 53.4375L52.6562 47.9688L63.5938 44.0625Z" fill="#FDDD41"/>
<path d="M46.4062 56.5625H42.5V50.3125H46.4062L47.5 53.4375L46.4062 56.5625Z" fill="#FDDD41"/>
<path d="M52.6562 51.0938V55.7812L49.5312 56.5625L46.4062 55.7812V51.0938L49.5312 50.3125L52.6562 51.0938Z" fill="#FD8140"/>
<path d="M52.6562 47.9688V51.0938H46.4062V50.3125V47.9688H52.6562Z" fill="#FCBC40"/>
<path d="M52.6562 55.7812V58.9062H48.75H46.4062V56.5625V55.7812H52.6562Z" fill="#FCBC40"/>
<path d="M67.5 43.6719V63.2031C67.5 64.2812 66.625 65.1562 65.5469 65.1562C64.4688 65.1562 63.5938 64.2812 63.5938 63.2031C63.5938 61.2233 63.5938 45.8656 63.5938 43.6719C63.5938 42.5919 64.4688 41.7188 65.5469 41.7188C66.625 41.7188 67.5 42.5938 67.5 43.6719Z" fill="#FCBC40"/>
<path d="M55 38.5938C54.5684 38.5938 54.2188 38.2439 54.2188 37.8125V20.625C54.2188 20.1936 54.5684 19.8438 55 19.8438C55.4316 19.8438 55.7812 20.1936 55.7812 20.625V37.8125C55.7812 38.2439 55.4316 38.5938 55 38.5938Z" fill="#3D4665"/>
<path d="M55 90.1562C54.5684 90.1562 54.2188 89.8066 54.2188 89.375V72.1875C54.2188 71.7559 54.5684 71.4062 55 71.4062C55.4316 71.4062 55.7812 71.7559 55.7812 72.1875V89.375C55.7812 89.8066 55.4316 90.1562 55 90.1562Z" fill="#3D4665"/>
<path d="M89.375 55.7812H72.1875C71.7559 55.7812 71.4062 55.4316 71.4062 55C71.4062 54.5684 71.7559 54.2188 72.1875 54.2188H89.375C89.8066 54.2188 90.1562 54.5684 90.1562 55C90.1562 55.4316 89.8066 55.7812 89.375 55.7812Z" fill="#3D4665"/>
<path d="M37.8125 55.7812H20.625C20.1936 55.7812 19.8438 55.4316 19.8438 55C19.8438 54.5684 20.1936 54.2188 20.625 54.2188H37.8125C38.2439 54.2188 38.5938 54.5684 38.5938 55C38.5938 55.4316 38.2439 55.7812 37.8125 55.7812Z" fill="#3D4665"/>
<path d="M59.6875 58.125C59.2559 58.125 58.9062 57.7753 58.9062 57.3438V49.5312C58.9062 49.0998 59.2559 48.75 59.6875 48.75C60.1191 48.75 60.4688 49.0998 60.4688 49.5312V57.3438C60.4688 57.7753 60.1191 58.125 59.6875 58.125Z" fill="#FCBC40"/>
</svg>
