<svg width="110" height="110" viewBox="0 0 110 110" fill="none" xmlns="http://www.w3.org/2000/svg">
<circle cx="55" cy="55" r="55" fill="white"/>
<path d="M48.4741 32.8664C47.6086 30.6571 45.4402 29.1758 43.0667 29.1758C40.6931 29.1758 38.5247 30.6573 37.6593 32.8664C34.3158 33.2717 31.848 36.1926 32.0051 39.554C29.3226 40.917 28.8721 44.5153 31.0594 46.513C30.9542 47.2518 30.9732 47.9081 31.0784 48.6061C31.3031 48.5544 31.4208 48.5309 31.66 48.5029C32.9711 45.1048 37.7313 45.0845 39.0502 48.5029C39.9201 48.6048 40.6264 48.9034 41.3172 49.4376C41.7568 48.4005 42.4486 47.6979 43.3598 47.2461C43.1873 43.8465 45.618 40.9904 48.9757 40.5972C49.7406 38.6148 51.4459 37.2113 53.7059 36.9458C52.7586 34.5736 50.7168 33.1385 48.4741 32.8664Z" fill="#2DAD42"/>
<path d="M34.4184 39.5538C34.2781 36.5555 36.2358 33.87 39.0925 33.0626C39.6994 32.891 40.2031 32.4781 40.5351 31.9418C41.3682 30.5959 42.7295 29.6385 44.2735 29.3054C41.4422 28.6947 38.6642 30.3017 37.6595 32.8662C34.3161 33.2715 31.8482 36.1924 32.0054 39.5538C29.3228 40.9168 28.8724 44.5151 31.0597 46.5128C30.9544 47.2516 30.9734 47.9079 31.0786 48.6059C31.3033 48.5542 31.4211 48.5308 31.6602 48.5027C32.0104 47.595 32.6283 46.9034 33.4144 46.4565C31.2949 44.4455 31.7588 40.9052 34.4184 39.5538Z" fill="#2B9337"/>
<path d="M64.338 59.7287C64.3405 59.6788 64.3417 59.6285 64.3422 59.5781C63.2704 60.6702 61.8378 61.5275 60.2372 61.716C58.1361 63.718 53.5399 64.0496 50.5569 62.9169C50.6956 63.2156 50.8929 63.8437 51.1349 64.0615C50.8051 66.3042 52.4052 68.3205 54.5892 68.5777C56.1774 70.0907 59.8413 70.0882 61.4265 68.5777L64.2241 66.889C64.794 66.0632 65.027 65.0589 64.8809 64.0616C66.4188 62.6779 65.4498 60.2811 64.338 59.7287Z" fill="#2DAD42"/>
<path d="M74.5234 63.1741C74.0775 62.7557 73.3811 62.7628 72.9439 63.1905L71.6507 64.4559C71.4023 64.6989 70.984 64.5267 70.9786 64.1794L70.8878 58.2912C70.5836 58.1081 70.3112 57.9059 70.0804 57.686C69.1526 57.5768 68.2945 57.2428 67.5591 56.7422C67.5363 58.0586 67.5158 60.2398 67.4982 62.6827C67.498 62.6828 67.4979 62.6829 67.4977 62.683C67.4445 64.1273 67.3879 65.6252 67.272 67.6734C67.25 68.0613 66.8319 68.2944 66.4902 68.1095C65.4398 67.5411 63.8464 66.7242 62.5908 65.9346C61.9569 65.5361 61.1243 65.6872 60.6704 66.2828C60.2261 66.8659 60.3486 67.7026 60.9451 68.1289C62.6121 69.3203 64.8786 70.6457 66.6877 71.9895C66.8636 72.1201 66.9585 72.3334 66.9417 72.552C66.7136 75.5331 66.2762 80.7693 65.4166 83.9193C67.1528 83.9193 72.6458 83.9193 74.5881 83.9193C71.977 78.8029 71.7034 72.657 71.5596 69.1963C71.5482 68.9218 71.6538 68.6556 71.8501 68.4634L75.2944 65.0931C75.6343 64.7604 75.6287 64.2114 75.2818 63.8858L74.5234 63.1741Z" fill="#93603E"/>
<path d="M67.5594 56.7422C67.5367 58.0586 67.5162 60.2398 67.4986 62.6827C67.4984 62.6828 67.4982 62.6829 67.498 62.683C67.4448 64.1273 67.3882 65.6252 67.2723 67.6734C67.252 68.0312 66.895 68.2563 66.5715 68.1444L66.8752 68.275C67.763 68.6568 68.7567 68.0257 68.7887 67.0598L69.1066 57.4819C68.5502 57.3132 68.0296 57.0622 67.5594 56.7422Z" fill="#845535"/>
<path d="M67.4277 83.0215C68.2842 79.8827 68.7239 74.645 68.9528 71.6542C68.9695 71.4356 68.8747 71.2224 68.6987 71.0917C66.8898 69.7479 64.6233 68.4225 62.9563 67.2312C62.5086 66.9112 62.3279 66.3602 62.4535 65.8587C61.8409 65.5602 61.0924 65.7292 60.6707 66.2825C60.2263 66.8656 60.3489 67.7024 60.9454 68.1287C62.6124 69.32 64.8789 70.6454 66.6879 71.9892C66.8638 72.1199 66.9587 72.3331 66.942 72.5517C66.714 75.5308 66.277 80.7669 65.4169 83.919C67.1518 83.919 72.6472 83.919 74.5883 83.919C74.4373 83.6231 74.295 83.3235 74.1592 83.0213C72.8752 83.0215 69.0604 83.0215 67.4277 83.0215Z" fill="#845535"/>
<path d="M70.1851 34.0151C68.5904 29.9611 62.8296 29.9715 61.239 34.0151C59.3597 34.2458 57.5986 35.5153 56.8652 37.5298C58.2034 38.224 59.1148 39.294 59.6178 40.5981C62.5155 40.9374 64.9242 43.1889 65.2271 46.3913C65.4707 46.1956 65.6439 46.0653 65.9648 45.9061C65.8223 43.0988 67.8192 40.7441 70.5993 40.4187C71.2186 38.8135 72.6005 37.6272 74.5127 37.4025C73.7208 35.4194 72.0319 34.2416 70.1851 34.0151Z" fill="#3BBC56"/>
<path d="M63.1848 35.8791C64.1998 33.2989 67.2882 32.0221 69.8796 33.3819C67.8532 29.8699 62.6991 30.3028 61.239 34.0147C59.3597 34.2454 57.5986 35.5149 56.8652 37.5294C57.6521 37.9375 58.3261 38.4869 58.8749 39.2315C59.5829 37.4238 61.2578 36.1157 63.1848 35.8791Z" fill="#2DAD42"/>
<path d="M50.9635 63.0593C50.0229 62.7532 49.0697 62.2741 48.3566 61.5949C48.3006 61.5883 48.2455 61.5787 48.19 61.5709L45.4901 64.2126C45.2904 64.408 44.9541 64.2665 44.9541 63.9872V60.1995C44.4598 59.8162 44.0171 59.3586 43.682 58.918C43.4878 60.3018 42.6813 61.5605 41.4591 62.3203C41.404 63.8164 41.3452 65.3701 41.2206 67.5334C41.2047 67.8095 40.8859 67.9568 40.6664 67.7886C39.2538 66.7064 38.1679 65.2623 37.4398 64.1025C36.6611 64.3236 35.833 64.4084 35.0308 64.3768C35.9235 65.9252 37.8171 69.2483 40.4849 71.4821C40.7618 71.7139 40.9151 72.0611 40.8911 72.4215C40.677 75.6386 40.2263 80.8098 39.3779 83.9188C41.1141 83.9188 46.6071 83.9188 48.5494 83.9188C45.9317 78.7895 45.6633 72.2909 45.5197 68.8093C45.5091 68.5502 45.6088 68.2992 45.7942 68.1178L50.9635 63.0593Z" fill="#93603E"/>
<path d="M43.0783 60.6523C42.6742 61.347 42.1156 61.9125 41.4592 62.3206C41.4041 63.8168 41.3453 65.3704 41.2207 67.5337C41.2049 67.8099 40.886 67.9571 40.6665 67.7889L41.0303 68.0609C41.679 68.5461 42.6072 68.1172 42.6582 67.3087L43.0783 60.6523Z" fill="#845535"/>
<path d="M42.5688 71.4822C41.3727 70.4806 37.9376 67.0346 36.6788 64.2734C36.1285 64.3666 35.5723 64.3984 35.0308 64.3769C35.9235 65.9253 37.8171 69.2484 40.4849 71.4822C40.7618 71.714 40.9151 72.0613 40.8911 72.4216C40.6771 75.6388 40.2263 80.8099 39.3779 83.9188H41.462C42.3106 80.8091 42.7613 75.6364 42.9751 72.4216C42.999 72.0613 42.8458 71.714 42.5688 71.4822Z" fill="#845535"/>
<path d="M84.0696 45.8696C84.2077 43.0157 82.1052 40.6739 79.4161 40.3628C77.8602 36.3161 72.1137 36.3118 70.5562 40.3628C67.8376 40.6771 65.7581 43.0551 65.9027 45.8696C65.6784 45.981 65.4702 46.1186 65.2768 46.2739H64.5996L65.9269 55.8973L66.2682 55.8972C67.1797 57.0632 68.5345 57.866 70.0806 58.048C72.3596 60.2191 77.617 60.2155 79.8918 58.048C83.0231 57.6794 85.3202 54.7911 84.8489 51.5674C86.67 49.9287 86.2713 46.9638 84.0696 45.8696Z" fill="#2DAD42"/>
<path d="M73.673 58.047C70.5416 57.6785 68.2445 54.7901 68.7158 51.5664C66.8946 49.9278 67.2933 46.9628 69.4951 45.8687C69.3571 43.0148 71.4595 40.6729 74.1486 40.3619C74.6177 39.142 75.5755 38.1646 76.7823 37.6702C74.3327 36.6669 71.5141 37.8701 70.5562 40.3619C67.8376 40.6762 65.7581 43.0542 65.9027 45.8687C65.6784 45.9801 65.4702 46.1177 65.2768 46.2729H64.5996L65.9269 55.8964L66.2682 55.8963C67.1797 57.0623 68.5345 57.865 70.0806 58.047C71.5345 59.432 74.3141 59.9875 76.7824 59.5039C75.4846 59.2496 74.3878 58.7282 73.673 58.047Z" fill="#2B9337"/>
<path d="M50.6929 77.0098C49.469 77.0098 48.4768 78.0021 48.4768 79.226C48.4768 82.1483 48.4768 80.9824 48.4768 83.9193H52.9093C52.9093 83.031 52.9093 80.1517 52.9093 79.226C52.9093 78.0021 51.9171 77.0098 50.6929 77.0098Z" fill="#8DD83D"/>
<path d="M55.1253 79.3848C53.9014 79.3848 52.9092 80.3772 52.9092 81.601V83.9195H57.3416V81.601C57.3416 80.3771 56.3492 79.3848 55.1253 79.3848Z" fill="#3BBC56"/>
<path d="M52.0801 77.4988C50.635 76.3367 48.4768 77.368 48.4768 79.2258C48.4768 81.2046 48.4768 81.627 48.4768 83.919H51.251C51.251 79.0305 51.007 78.3618 52.0801 77.4988Z" fill="#7FBF36"/>
<path d="M56.5125 79.8737C55.0696 78.7133 52.9092 79.7393 52.9092 81.6007V83.9191H55.6834V81.6007C55.6834 80.9022 56.0074 80.28 56.5125 79.8737Z" fill="#2DAD42"/>
<path d="M76.0223 84.8235H38.0197C37.5199 84.8235 37.1147 84.4184 37.1147 83.9186C37.1147 83.4188 37.5199 83.0137 38.0197 83.0137H76.0223C76.5221 83.0137 76.9272 83.4188 76.9272 83.9186C76.9272 84.4184 76.5221 84.8235 76.0223 84.8235Z" fill="#E2926F"/>
<path d="M65.2963 47.2107C65.464 43.7553 62.9175 40.919 59.6613 40.5424C57.7772 35.6421 50.8186 35.6369 48.9326 40.5424C45.6345 40.9237 43.1221 43.8096 43.2975 47.2107C42.3994 47.657 41.6852 48.4155 41.2922 49.3431C42.4165 50.21 43.0939 51.5788 43.0203 53.0951C44.8791 54.0187 45.2143 56.521 43.6779 57.9033C43.7451 58.3619 43.7464 58.8234 43.682 59.2809C44.7858 60.7326 46.452 61.7337 48.3565 61.9578C51.1164 64.5868 57.4826 64.5825 60.2371 61.9578C64.03 61.5115 66.8103 58.013 66.2399 54.1104C68.4453 52.126 67.9626 48.5356 65.2963 47.2107Z" fill="#8DD83D"/>
<path d="M51.4854 61.9567C47.6936 61.5105 44.912 58.0129 45.4826 54.1093C43.2773 52.1249 43.7601 48.5345 46.4263 47.2097C46.2585 43.7616 48.7984 40.9187 52.0614 40.5414C52.7064 38.8637 54.1148 37.565 55.8613 37.0716C52.9808 36.2577 49.9907 37.7894 48.9326 40.5414C45.6347 40.9227 43.1219 43.8086 43.2975 47.2097C42.3994 47.656 41.6852 48.4145 41.2922 49.3421C42.4196 50.2114 43.0935 51.581 43.0203 53.0941C44.8791 54.0177 45.2143 56.5202 43.6779 57.9023C43.7453 58.3629 43.7461 58.8243 43.682 59.2799C44.7858 60.7316 46.452 61.7327 48.3566 61.9568C50.1398 63.6555 53.2993 64.1724 55.8613 63.8212C54.0244 63.5693 52.461 62.8862 51.4854 61.9567Z" fill="#7FBF36"/>
<path d="M43.0823 53.0579C43.1845 50.7129 41.4664 48.6799 39.1364 48.3916C37.7852 44.9698 32.9221 44.9775 31.5738 48.3916C29.2421 48.68 27.5236 50.7167 27.6277 53.058C25.7475 54.0226 25.454 56.5337 26.9679 57.9254C26.5897 60.6251 28.4966 63.1007 31.1882 63.4285C33.138 65.2641 37.5733 65.2635 39.5216 63.4285C42.2052 63.1016 44.1201 60.6348 43.7422 57.9254C45.2582 56.5317 44.9591 54.0204 43.0823 53.0579Z" fill="#3BBC56"/>
<path d="M33.6016 63.429C30.9141 63.1016 29.0024 60.6299 29.3813 57.9259C27.865 56.5319 28.1643 54.0212 30.0411 53.0585C29.937 50.7168 31.6557 48.6805 33.9871 48.3921C34.4433 47.2371 35.4087 46.3678 36.562 46.0047C34.4942 45.3539 32.3334 46.4693 31.574 48.3921C29.2423 48.6805 27.5239 50.7172 27.6279 53.0585C25.7478 54.0231 25.4542 56.5342 26.9682 57.9259C26.5899 60.6255 28.4969 63.1011 31.1884 63.429C32.4852 64.6499 34.7606 64.9878 36.562 64.7163C35.3536 64.5341 34.2945 64.0814 33.6016 63.429Z" fill="#2DAD42"/>
</svg>
