<svg width="110" height="110" viewBox="0 0 110 110" fill="none" xmlns="http://www.w3.org/2000/svg">
<circle cx="55" cy="55" r="55" fill="white"/>
<g clip-path="url(#clip0_274_7515)">
<path d="M57.2411 33.998L59.0012 54.9995L57.2411 70.9014C49.5694 70.9014 43.3281 64.6601 43.3281 56.9884C43.3281 53.8308 45.4837 49.217 49.7337 43.2749C52.7916 39.0002 55.8002 35.6138 55.9269 35.4718L57.2411 33.998Z" fill="#ACE233"/>
<path d="M71.1539 56.9884C71.1539 64.6601 64.9126 70.9014 57.241 70.9014V33.998L58.5552 35.4718C58.6819 35.6138 61.6905 39.0002 64.7484 43.2749C68.9984 49.217 71.1539 53.8308 71.1539 56.9884Z" fill="#00DA80"/>
<path d="M57.241 27.2402V30.7604C43.876 30.7604 33.0021 41.6343 33.0021 54.9993H29.4819C29.4819 47.5846 32.3697 40.6134 37.6124 35.3707C42.8551 30.128 49.8263 27.2402 57.241 27.2402Z" fill="#00DA80"/>
<path d="M55.481 47.9258H57.2411L58.5072 59.4612L57.2411 82.7581H55.481V60.6783L49.689 55.9119L51.9255 53.1932L55.481 56.1196V47.9258Z" fill="#00DA80"/>
<path d="M85 54.9993C85 62.414 82.1123 69.3851 76.8695 74.6279C71.6268 79.8706 64.6557 82.7583 57.241 82.7583V47.926H59.0011V56.1703L62.5705 53.2955L64.7789 56.0377L59.0011 60.6903V79.1748C71.547 78.2689 81.4798 67.7717 81.4798 54.9993C81.4798 41.6343 70.606 30.7604 57.241 30.7604V27.2402C64.6557 27.2402 71.6268 30.128 76.8695 35.3707C82.1124 40.6134 85 47.5846 85 54.9993Z" fill="#00A78E"/>
<path d="M28.5202 69.6022H25V65.6833L28.5202 64.3926V69.6022Z" fill="#54696E"/>
<path d="M37.4853 69.6022H33.9651V64.3926L37.4853 65.6833V69.6022Z" fill="#54696E"/>
<path d="M31.2426 53.2383C27.8004 53.2383 25 56.0387 25 59.4809V65.6827H37.4852V59.4809C37.4852 56.0387 34.6847 53.2383 31.2426 53.2383Z" fill="#B1D5F1"/>
</g>
<defs>
<clipPath id="clip0_274_7515">
<rect width="60" height="60" fill="white" transform="translate(25 25)"/>
</clipPath>
</defs>
</svg>
