<svg width="110" height="110" viewBox="0 0 110 110" fill="none" xmlns="http://www.w3.org/2000/svg">
<circle cx="55" cy="55" r="55" fill="white"/>
<g clip-path="url(#clip0_270_4674)">
<path d="M39.7788 43.9827L52.3901 53.3897V44.2307C52.3901 37.7044 48.5376 32.0787 42.9831 29.501L39.7788 43.9827Z" fill="#00AA95"/>
<path d="M28.501 43.983C31.0786 49.5374 36.7042 53.39 43.2306 53.39H52.3896L41.3805 42.3809L28.501 43.983Z" fill="#00CC76"/>
<path d="M42.9829 29.5012C40.9082 28.5384 38.5966 28 36.159 28H27L34.1399 38.3442L42.9829 43.9829V29.5012Z" fill="#00CC76"/>
<path d="M27 28V37.159C27 39.5967 27.5384 41.9083 28.5012 43.9829H42.9829L27 28Z" fill="#9CDD05"/>
<path d="M72.2216 43.9827L59.6104 53.3897V44.2307C59.6104 37.7044 63.4628 32.0787 69.0173 29.501L72.2216 43.9827Z" fill="#00CC76"/>
<path d="M83.499 43.983C80.9214 49.5374 75.2957 53.39 68.7694 53.39H59.6104L70.6195 42.3809L83.499 43.983Z" fill="#00AA95"/>
<path d="M69.0171 29.5012C71.0917 28.5384 73.4033 28 75.8409 28H84.9999L77.86 38.3442L69.0171 43.9829V29.5012Z" fill="#9CDD05"/>
<path d="M84.9999 28V37.159C84.9999 39.5967 84.4615 41.9083 83.4987 43.9829H69.0171L84.9999 28Z" fill="#00CC76"/>
<path d="M72.2216 70.0173L59.6104 60.6104V69.7694C59.6104 76.2957 63.4628 81.9214 69.0173 84.499L72.2216 70.0173Z" fill="#00AA95"/>
<path d="M83.499 70.0173C80.9214 64.4629 75.2957 60.6104 68.7694 60.6104H59.6104L70.6195 71.6195L83.499 70.0173Z" fill="#00CC76"/>
<path d="M69.0171 84.4992C71.0917 85.462 73.4033 86.0004 75.8409 86.0004H84.9999L77.86 75.6563L69.0171 70.0176V84.4992Z" fill="#00CC76"/>
<path d="M84.9999 86.0004V76.8414C84.9999 74.4037 84.4615 72.0921 83.4987 70.0176H69.0171L84.9999 86.0004Z" fill="#9CDD05"/>
<path d="M39.7788 70.0173L52.3901 60.6104V69.7694C52.3901 76.2957 48.5376 81.9214 42.9831 84.499L39.7788 70.0173Z" fill="#00CC76"/>
<path d="M28.501 70.0173C31.0786 64.4629 36.7042 60.6104 43.2306 60.6104H52.3896L41.3805 71.6195L28.501 70.0173Z" fill="#00AA95"/>
<path d="M42.9829 84.4992C40.9082 85.462 38.5966 86.0004 36.159 86.0004H27L34.1399 75.6563L42.9829 70.0176V84.4992Z" fill="#9CDD05"/>
<path d="M27 86.0004V76.8414C27 74.4037 27.5384 72.0921 28.5012 70.0176H42.9829L27 86.0004Z" fill="#00CC76"/>
</g>
<defs>
<clipPath id="clip0_270_4674">
<rect width="58" height="58" fill="white" transform="translate(27 28)"/>
</clipPath>
</defs>
</svg>
