<svg width="220" height="220" viewBox="0 0 220 220" fill="none" xmlns="http://www.w3.org/2000/svg">
<path d="M27.6985 149.531V96.3329C27.6985 90.2069 31.2563 84.5135 36.7619 81.8275L44.7416 77.9346C46.1605 77.2428 47.0774 75.7754 47.0774 74.1972V66.1289H86.8665V74.1972C86.8665 75.7754 87.783 77.2428 89.2018 77.9346L97.182 81.8275C102.688 84.5135 106.245 90.2069 106.245 96.3329V149.531H209.384C213.199 138.637 215.273 126.924 215.273 114.727C215.273 56.5855 168.141 9.45312 110 9.45312C51.859 9.45312 4.72656 56.5855 4.72656 114.727C4.72656 126.924 6.80109 138.637 10.6163 149.531H27.6985Z" fill="#FFE5C2"/>
<path d="M106.246 149.102V219.934C107.492 219.978 108.743 220 110 220C156.103 220 195.279 190.362 209.527 149.102H106.246Z" fill="#67B0EE"/>
<path d="M27.6984 149.102H10.4727C14.4249 160.546 20.2949 171.096 27.6984 180.368V149.102Z" fill="#67B0EE"/>
<path d="M179.6 167.57H106.246V185.831H179.6C184.621 185.831 188.73 181.722 188.73 176.701C188.73 171.679 184.621 167.57 179.6 167.57Z" fill="#4090D1"/>
<path d="M172.337 55.3841L165.635 52.1147C164.558 51.5896 163.876 50.4969 163.876 49.2993V29.2188H129.736V49.2998C129.736 50.4973 129.053 51.59 127.977 52.1151L121.275 55.3846C116.493 57.7169 113.46 62.5715 113.46 67.8919V167.849C113.46 174.066 118.5 179.107 124.718 179.107H168.894C175.112 179.107 180.152 174.067 180.152 167.849V67.8915C180.152 62.5715 177.119 57.7169 172.337 55.3841Z" fill="white"/>
<path d="M172.337 55.3841L165.635 52.1147C164.558 51.5896 163.876 50.4969 163.876 49.2993V29.2188H150.872V49.2998C150.872 50.4973 151.555 51.59 152.631 52.1151L159.333 55.3846C164.115 57.7169 167.148 62.5715 167.148 67.8915V179.107H168.894C175.111 179.107 180.152 174.066 180.152 167.848V67.8915C180.152 62.5715 177.118 57.7169 172.337 55.3841Z" fill="#FAF7F7"/>
<path d="M129.736 29.2188H163.876V42.5232H129.736V29.2188Z" fill="#B5ADB6"/>
<path d="M150.872 29.2188H163.876V42.5232H150.872V29.2188Z" fill="#A79BA7"/>
<path d="M163.876 13.0221V4.39227C163.876 1.96668 161.909 0 159.483 0H134.128C131.702 0 129.736 1.96668 129.736 4.39227V13.0217L163.876 13.0221Z" fill="#685E68"/>
<path d="M159.483 0H155.022V13.0221H163.876V4.39227C163.876 1.96668 161.909 0 159.483 0Z" fill="#554E56"/>
<path d="M166.258 29.6478H127.354C126.258 29.6478 125.369 28.7592 125.369 27.6631V14.5765C125.369 13.4804 126.258 12.5918 127.354 12.5918H166.258C167.354 12.5918 168.242 13.4804 168.242 14.5765V27.6631C168.243 28.7592 167.354 29.6478 166.258 29.6478Z" fill="#7A6D79"/>
<path d="M166.258 12.5918H155.022V16.9106C155.022 20.3133 152.263 23.0719 148.861 23.0719H125.369V27.6635C125.369 28.7596 126.258 29.6482 127.354 29.6482H166.258C167.354 29.6482 168.242 28.7596 168.242 27.6635V14.577C168.243 13.4804 167.354 12.5918 166.258 12.5918Z" fill="#685E68"/>
<path d="M52.3057 35.8359C53.0413 28.3925 59.3379 22.5586 66.9718 22.5586C74.6056 22.5586 80.9022 28.3925 81.6383 35.8359H88.1055C87.3527 24.8342 78.1617 16.1133 66.9722 16.1133C55.7827 16.1133 46.5917 24.8342 45.8389 35.8359H52.3057Z" fill="#554E56"/>
<path d="M97.3705 81.4417L89.3904 77.5491C88.1091 76.9239 87.2961 75.6233 87.2961 74.1976V65.6992H46.6476V74.1972C46.6476 75.6229 45.8347 76.9235 44.5534 77.5487L36.5732 81.4413C30.8798 84.2183 27.2683 89.9985 27.2683 96.3329V179.832C45.906 203.482 74.4682 218.943 106.675 219.942V96.3334C106.675 89.9989 103.063 84.2188 97.3705 81.4417Z" fill="#DFF6FD"/>
<path d="M97.3706 81.4417L89.3905 77.5491C88.1091 76.9239 87.2962 75.6233 87.2962 74.1976V65.6992H74.207V80.7C74.207 82.1257 75.02 83.4264 76.3013 84.0516L84.2815 87.9441C89.9748 90.7212 93.5864 96.5014 93.5864 102.836V218.722C97.8695 219.392 102.238 219.804 106.676 219.942V96.3334C106.676 89.9989 103.064 84.2188 97.3706 81.4417Z" fill="#C8EFFE"/>
<path d="M46.6477 55.2852H87.2961V66.1296H46.6477V55.2852Z" fill="#B5ADB6"/>
<path d="M46.6477 55.2852H87.2961V66.1296H46.6477V55.2852Z" fill="#B5ADB6"/>
<path d="M74.207 55.2852H87.2966V66.1296H74.207V55.2852Z" fill="#A79BA7"/>
<path d="M90.1321 55.7141H43.8118C42.5064 55.7141 41.4485 54.6562 41.4485 53.3509V37.7695C41.4485 36.4641 42.5064 35.4062 43.8118 35.4062H90.1321C91.4375 35.4062 92.4954 36.4641 92.4954 37.7695V53.3509C92.4954 54.6562 91.4375 55.7141 90.1321 55.7141Z" fill="#7A6D79"/>
<path d="M90.1325 35.4062H77.7734V41.5856C77.7734 45.1971 74.8455 48.125 71.234 48.125H41.4485V53.3509C41.4485 54.6562 42.5064 55.7141 43.8118 55.7141H90.1321C91.4375 55.7141 92.4954 54.6562 92.4954 53.3509V37.7695C92.4958 36.4641 91.4375 35.4062 90.1325 35.4062Z" fill="#685E68"/>
<path d="M65.3482 93.0979L57.1927 107.224C52.846 114.752 58.2794 124.163 66.9724 124.163C75.6654 124.163 81.0988 114.752 76.7521 107.224L68.5966 93.0979C67.8743 91.8476 66.07 91.8476 65.3482 93.0979Z" fill="#67B0EE"/>
<path d="M76.7519 107.224L68.5964 93.0979C67.8746 91.8476 66.0699 91.8476 65.3484 93.0979L62.1296 98.6736L67.0663 107.224C70.5292 113.222 67.7848 120.414 62.1296 123.091C63.5725 123.774 65.2053 124.163 66.9726 124.163C75.6652 124.163 81.0982 114.752 76.7519 107.224Z" fill="#4090D1"/>
<path d="M152.205 69.2675C149.223 66.2858 144.389 66.2858 141.407 69.2675C138.426 72.2491 138.426 77.083 141.407 80.0646L146.283 84.9407C146.572 85.2295 147.04 85.2295 147.328 84.9407L152.205 80.0646C155.186 77.083 155.186 72.2491 152.205 69.2675Z" fill="#FD8087"/>
<path d="M152.204 69.2674C149.848 66.9106 146.334 66.4168 143.492 67.7858C144.245 68.1489 144.951 68.6426 145.576 69.2674C148.558 72.249 148.558 77.083 145.576 80.0646L143.492 82.149L146.283 84.9407C146.572 85.229 147.04 85.229 147.328 84.9407L152.204 80.0646C155.186 77.0834 155.186 72.249 152.204 69.2674Z" fill="#FE646F"/>
<path d="M164.765 92.6252C167.747 89.6436 167.747 84.8096 164.765 81.828C161.783 78.8464 156.95 78.8464 153.968 81.828L149.092 86.7041C148.803 86.9928 148.803 87.4603 149.092 87.7491L153.968 92.6252C156.95 95.6068 161.783 95.6068 164.765 92.6252Z" fill="#FE99A0"/>
<path d="M164.765 81.828C162.406 79.4686 158.886 78.9761 156.042 80.3511C156.792 80.7138 157.494 81.2058 158.116 81.828C161.098 84.8096 161.098 89.6436 158.116 92.6252C157.494 93.2473 156.791 93.7393 156.042 94.102C158.886 95.477 162.405 94.985 164.765 92.6252C167.747 89.6436 167.747 84.8096 164.765 81.828Z" fill="#FD8087"/>
<path d="M141.407 105.187C144.389 108.168 149.223 108.168 152.205 105.187C155.186 102.205 155.186 97.3711 152.205 94.3895L147.328 89.5134C147.04 89.2247 146.572 89.2247 146.283 89.5134L141.407 94.3895C138.426 97.3711 138.426 102.205 141.407 105.187Z" fill="#FD8087"/>
<path d="M152.204 94.3892L147.328 89.5131C147.04 89.2248 146.572 89.2248 146.283 89.5131L143.492 92.3048L145.576 94.3892C148.558 97.3708 148.558 102.205 145.576 105.186C144.951 105.811 144.245 106.305 143.492 106.668C146.334 108.037 149.848 107.543 152.204 105.186C155.186 102.205 155.186 97.3708 152.204 94.3892Z" fill="#FE646F"/>
<path d="M128.847 81.828C125.865 84.8096 125.865 89.6436 128.847 92.6252C131.829 95.6068 136.663 95.6068 139.644 92.6252L144.52 87.7491C144.809 87.4603 144.809 86.9928 144.52 86.7041L139.644 81.828C136.663 78.8464 131.829 78.8464 128.847 81.828Z" fill="#FE99A0"/>
<path d="M144.52 86.704L139.644 81.8279C137.274 79.4573 133.732 78.9718 130.882 80.3704C131.616 80.7309 132.305 81.2165 132.916 81.8279L134.605 83.517C136.654 85.5658 136.654 88.8872 134.605 90.936L132.916 92.6251C132.305 93.2361 131.616 93.7221 130.882 94.0826C133.732 95.4817 137.274 94.9957 139.644 92.6251L144.52 87.749C144.809 87.4603 144.809 86.9928 144.52 86.704Z" fill="#FD8087"/>
</svg>
