<svg width="110" height="110" viewBox="0 0 110 110" fill="none" xmlns="http://www.w3.org/2000/svg">
<circle cx="55" cy="55" r="55" fill="white"/>
<path d="M48.8136 66.0657L39.584 66.0493L43.5537 59.1733L45.681 60.4011C45.9035 60.5295 46.1601 60.5863 46.416 60.5636C46.6719 60.541 46.9146 60.4401 47.1111 60.2747C47.3076 60.1092 47.4483 59.8873 47.5142 59.639C47.58 59.3907 47.5678 59.1281 47.4792 58.887L44.1494 49.8341C44.0485 49.5596 43.8546 49.3293 43.6014 49.183C43.3481 49.0368 43.0517 48.9841 42.7635 49.0339L33.2587 50.6767C33.0056 50.7204 32.7721 50.8411 32.5901 51.0222C32.408 51.2034 32.2861 51.4362 32.2411 51.6891C32.196 51.942 32.2299 52.2026 32.3382 52.4355C32.4465 52.6684 32.6239 52.8623 32.8463 52.9908L34.9715 54.2183L29.9219 62.9654C29.1625 64.2808 28.7623 65.7729 28.7617 67.2918C28.7611 68.8107 29.16 70.3031 29.9183 71.6191C30.6767 72.9352 31.7678 74.0286 33.0823 74.7898C34.3967 75.5509 35.8882 75.9529 37.4071 75.9555L48.8054 75.9756H48.8099C49.4727 75.9752 50.1082 75.7117 50.5767 75.243C51.0453 74.7743 51.3085 74.1387 51.3086 73.476V68.5658C51.3077 67.9039 51.0447 67.2693 50.5772 66.8007C50.1096 66.3322 49.4755 66.0679 48.8136 66.0657Z" fill="#2ECC71"/>
<path d="M80.0701 63.0118L74.3651 53.1688C74.0323 52.5965 73.4864 52.1794 72.8468 52.0086C72.2072 51.8378 71.526 51.9273 70.9522 52.2574L66.7 54.7126C66.4154 54.8769 66.166 55.0958 65.9661 55.3566C65.7661 55.6174 65.6195 55.9151 65.5347 56.2326C65.4499 56.5501 65.4286 56.8812 65.4719 57.207C65.5151 57.5328 65.6222 57.8468 65.787 58.1312L70.4063 66.101L62.4247 66.0872V63.6497C62.4247 63.3928 62.3456 63.1421 62.1981 62.9318C62.0505 62.7214 61.8418 62.5617 61.6002 62.4742C61.3587 62.3868 61.096 62.3759 60.8481 62.4431C60.6001 62.5102 60.3788 62.6521 60.2144 62.8495L54.0392 70.2596C53.852 70.4843 53.7495 70.7674 53.7495 71.0598C53.7495 71.3522 53.852 71.6354 54.0392 71.8601L60.2144 79.2703C60.3789 79.4676 60.6001 79.6094 60.8481 79.6765C61.096 79.7435 61.3586 79.7326 61.6001 79.6452C61.8416 79.5577 62.0503 79.398 62.1978 79.1877C62.3454 78.9775 62.4245 78.7269 62.4246 78.47V75.9974L72.563 76.0149H72.58C74.1016 76.0241 75.5981 75.6279 76.9157 74.867C78.2334 74.1061 79.3245 73.008 80.0771 71.6856C80.8465 70.3695 81.2514 68.8722 81.2502 67.3477C81.249 65.8232 80.8417 64.3266 80.0702 63.0117L80.0701 63.0118Z" fill="#2ECC71"/>
<path d="M42.6946 45.8423L46.9478 48.2967C47.5222 48.6272 48.2042 48.7165 48.8443 48.5449C49.4844 48.3733 50.0303 47.9549 50.3623 47.3814L54.9495 39.436L58.9563 46.3501L56.8679 47.5549C56.6455 47.6834 56.468 47.8772 56.3597 48.1101C56.2513 48.343 56.2173 48.6036 56.2624 48.8565C56.3074 49.1094 56.4292 49.3423 56.6113 49.5235C56.7934 49.7046 57.0268 49.8253 57.2799 49.8691L66.7849 51.5117C67.073 51.5617 67.3696 51.509 67.6229 51.3628C67.8762 51.2165 68.0701 50.986 68.1709 50.7115L71.5 41.6591C71.5888 41.418 71.601 41.1554 71.5352 40.9071C71.4693 40.6588 71.3285 40.4368 71.132 40.2713C70.9355 40.1058 70.6927 40.005 70.4368 39.9824C70.1809 39.9598 69.9243 40.0166 69.7018 40.1451L67.5391 41.3945L62.4399 32.5977C61.6852 31.2783 60.5934 30.1831 59.2763 29.4244C57.9592 28.6656 56.4641 28.2705 54.9441 28.2794H54.94C53.4194 28.2719 51.9241 28.6689 50.6075 29.4298C49.2909 30.1907 48.2004 31.2881 47.4478 32.6095L41.7792 42.4271C41.615 42.7115 41.5085 43.0254 41.4657 43.351C41.4229 43.6765 41.4446 44.0073 41.5296 44.3244C41.6146 44.6416 41.7613 44.9389 41.9612 45.1993C42.1611 45.4598 42.4104 45.6783 42.6948 45.8425L42.6946 45.8423Z" fill="#2ECC71"/>
<path opacity="0.25" d="M48.8134 66.0652L39.5839 66.0488L36.6619 71.1095C35.3779 73.3334 34.8572 75.8866 38.9788 75.9577L48.8047 75.975H48.8092C49.4721 75.9748 50.1077 75.7114 50.5763 75.2427C51.045 74.7739 51.3084 74.1383 51.3085 73.4755V68.5653C51.3076 67.9034 51.0446 67.2688 50.577 66.8003C50.1094 66.3317 49.4754 66.0675 48.8134 66.0652Z" fill="#105E30"/>
<path opacity="0.25" d="M79.1932 61.4993L74.365 53.1688C74.0322 52.5965 73.4863 52.1794 72.8467 52.0086C72.2071 51.8378 71.5259 51.9273 70.9521 52.2574L66.6999 54.7126C66.4153 54.8769 66.1659 55.0958 65.9659 55.3566C65.766 55.6174 65.6194 55.9151 65.5346 56.2326C65.4498 56.5501 65.4284 56.8812 65.4717 57.207C65.515 57.5328 65.6221 57.8468 65.7869 58.1312L70.4062 66.101H76.2501C78.8581 66.1011 81.3671 65.2493 79.1932 61.4993Z" fill="#105E30"/>
<path opacity="0.25" d="M46.6141 34.0525L41.7792 42.4263C41.615 42.7107 41.5085 43.0246 41.4657 43.3502C41.4229 43.6757 41.4446 44.0065 41.5296 44.3236C41.6146 44.6408 41.7613 44.9381 41.9612 45.1985C42.1611 45.459 42.4104 45.6775 42.6948 45.8417L46.948 48.296C47.5223 48.6265 48.2044 48.7158 48.8444 48.5442C49.4845 48.3726 50.0304 47.9542 50.3625 47.3807L54.9496 39.4354L52.0276 34.3744C50.7323 32.1307 48.7583 30.3935 46.6141 34.0525Z" fill="#105E30"/>
</svg>
