<svg width="100" height="100" viewBox="0 0 100 100" fill="none" xmlns="http://www.w3.org/2000/svg">
<g clip-path="url(#clip0_274_7563)">
<path d="M85.1175 13.5798L34.5969 64.1004C33.5816 65.1157 33.5816 66.7616 34.5969 67.7769C35.6122 68.7922 37.2581 68.7922 38.2734 67.7769L88.7942 17.2563C89.8095 16.241 89.8095 14.5949 88.7942 13.5798C87.7789 12.5645 86.1328 12.5645 85.1175 13.5798Z" fill="url(#paint0_linear_274_7563)"/>
<path d="M85.1175 13.5798L34.5969 64.1004C33.5816 65.1157 33.5816 66.7616 34.5969 67.7769C35.6122 68.7922 37.2581 68.7922 38.2734 67.7769L88.7942 17.2563C89.8095 16.241 89.8095 14.5949 88.7942 13.5798C87.7789 12.5645 86.1328 12.5645 85.1175 13.5798Z" fill="url(#paint1_linear_274_7563)"/>
<path d="M89.8922 53.1222C87.485 53.9514 84.9983 54.4847 82.4891 54.7226C85.7118 53.0175 88.795 50.7659 91.5806 47.9804C93.2644 46.2967 94.7528 44.5045 96.0436 42.6383C96.6987 41.6912 95.7089 40.4667 94.6436 40.9037C91.2506 42.2961 87.7628 43.1026 84.3516 43.3071C88.1628 41.831 91.8761 39.4508 95.1204 36.2065C96.2806 35.0463 97.33 33.8263 98.2673 32.5632C98.951 31.6416 97.9934 30.4151 96.9259 30.8359C95.7299 31.3073 94.5236 31.6894 93.3185 31.9816C101.892 22.5247 100.691 6.94316 98.0606 4.31277C95.4302 1.68237 79.8481 0.481785 70.3914 9.05512C70.6836 7.85002 71.0657 6.64375 71.5371 5.44767C71.9579 4.38022 70.7312 3.42257 69.8099 4.1063C68.5467 5.04355 67.3267 6.09316 66.1665 7.25316C62.9222 10.4975 60.542 14.2106 59.0659 18.022C59.2704 14.6108 60.0769 11.123 61.4693 7.73002C61.9063 6.66473 60.6818 5.67492 59.7348 6.33002C57.8687 7.6208 56.0763 9.10924 54.3928 10.793C51.6071 13.5786 49.3557 16.6618 47.6506 19.8845C47.8885 17.3753 48.4218 14.8886 49.251 12.4816C49.6379 11.3588 48.4161 10.3706 47.4055 10.9943C45.1653 12.3765 43.0589 14.0608 41.145 16.0483C29.1699 28.4837 29.3073 48.389 41.4451 60.6657C53.9126 73.2759 74.2426 73.3196 86.7648 60.7975C88.562 59.0002 90.0997 57.0418 91.3787 54.969C92.0026 53.9575 91.0155 52.7353 89.8922 53.1222Z" fill="url(#paint2_linear_274_7563)"/>
<path d="M86.7648 60.7968C88.562 58.9996 90.0997 57.0411 91.3787 54.9684C92.0026 53.9572 91.0156 52.7349 89.8922 53.1219C87.485 53.9513 84.9983 54.4845 82.4891 54.7223C85.7118 53.0172 88.795 50.7656 91.5807 47.9801C93.2644 46.2964 94.7528 44.5043 96.0436 42.638C96.6987 41.6909 95.7089 40.4664 94.6436 40.9035C91.2507 42.2958 87.7628 43.1023 84.3516 43.3068C88.163 41.8307 91.8762 39.4505 95.1205 36.2062C96.2807 35.046 97.3301 33.826 98.2673 32.5629C98.951 31.6415 97.9934 30.4149 96.9259 30.8356C95.7299 31.307 94.5236 31.6892 93.3185 31.9813C101.892 22.5245 100.691 6.94289 98.0607 4.3125L41.5775 60.7954C54.0559 73.2737 74.2863 73.2752 86.7648 60.7968Z" fill="url(#paint3_linear_274_7563)"/>
<path d="M44.5438 57.8288H89.3863C90.1079 56.9037 90.7732 55.9494 91.3787 54.968C92.0026 53.9569 91.0155 52.7345 89.8922 53.1216C87.485 53.951 84.9983 54.4841 82.4891 54.722C85.7118 53.0169 88.795 50.7653 91.5806 47.9798C93.2644 46.2961 94.7528 44.5039 96.0436 42.6376C96.6987 41.6906 95.7089 40.4661 94.6436 40.9031C91.2506 42.2955 87.7628 43.102 84.3516 43.3065C88.163 41.8304 91.8761 39.4502 95.1204 36.2059C95.8881 35.4382 96.6024 34.6424 97.2728 33.8271V30.7565C97.1597 30.7655 97.0438 30.7886 96.9259 30.8351C95.7299 31.3065 94.5236 31.6886 93.3185 31.9808C94.9867 30.1408 96.2834 28.0684 97.2728 25.9049V5.09961H76.4675C74.3042 6.08922 72.2318 7.38588 70.3916 9.05392C70.6838 7.84883 71.0659 6.64255 71.5373 5.44647C71.5838 5.32863 71.6071 5.21275 71.6159 5.09961H68.5453C67.73 5.76981 66.9342 6.48432 66.1665 7.25196C62.9222 10.4963 60.542 14.2094 59.0659 18.0208C59.2704 14.6096 60.0769 11.1218 61.4693 7.72883C61.9063 6.66353 60.6818 5.67373 59.7348 6.32882C57.8687 7.61961 56.0763 9.10804 54.3926 10.7918C51.6069 13.5775 49.3555 16.6606 47.6504 19.8833C47.8883 17.3741 48.4216 14.8875 49.2508 12.4802C49.6377 11.3575 48.4161 10.3694 47.4053 10.9929C46.4236 11.5988 45.4693 12.2661 44.5436 12.9882L44.5438 57.8288Z" fill="url(#paint4_linear_274_7563)"/>
<path d="M35.1816 24.7812C29.7649 36.5489 31.8696 50.9809 41.4451 60.666C51.1894 70.5216 65.7363 72.7011 77.6049 67.2046L35.1816 24.7812Z" fill="url(#paint5_linear_274_7563)"/>
<path d="M94.6434 40.9038C91.2504 42.2962 87.7626 43.1026 84.3514 43.3072C88.1628 41.8311 91.8759 39.4509 95.1202 36.2066C96.2804 35.0464 97.3298 33.8264 98.2671 32.5632C98.9508 31.6419 97.9932 30.4152 96.9257 30.836C95.7297 31.3073 94.5234 31.6895 93.3183 31.9817C101.892 22.5248 100.691 6.94323 98.0604 4.31284C95.43 1.68245 79.8481 0.481662 70.3914 9.055C70.6836 7.8499 71.0657 6.64362 71.5371 5.44755C71.9579 4.38009 70.7312 3.42225 69.8098 4.10617C68.5467 5.04343 67.3267 6.09304 66.1665 7.25304C62.9222 10.4973 60.542 14.2105 59.0659 18.0219C59.2704 14.6107 60.0769 11.1228 61.4693 7.7299C61.9063 6.6646 60.6818 5.6748 59.7348 6.3299C59.4402 6.53362 59.1481 6.74421 58.8573 6.95774V43.5158H95.4153C95.6291 43.225 95.8395 42.933 96.0432 42.6383C96.6983 41.6913 95.7087 40.4666 94.6434 40.9038Z" fill="url(#paint6_linear_274_7563)"/>
<path d="M98.0602 4.31264C95.6742 1.92676 82.6322 0.717348 73.171 6.91166V29.2019H95.4612C101.656 19.7407 100.446 6.69872 98.0602 4.31264Z" fill="url(#paint7_linear_274_7563)"/>
<path d="M98.0602 4.31391C96.8022 3.05587 92.5808 2.12568 87.4847 2.4347V14.8894H99.9394C100.248 9.79332 99.3183 5.57195 98.0602 4.31391Z" fill="url(#paint8_linear_274_7563)"/>
<path d="M80.8218 65.4801L58.8575 43.5156L41.5775 60.7956C52.2257 71.4437 68.5177 73.0048 80.8218 65.4801Z" fill="url(#paint9_linear_274_7563)"/>
<path d="M14.8826 41.0505L65.4032 91.5713C66.4185 92.5866 66.4185 94.2325 65.4032 95.2478C64.3879 96.2631 62.742 96.2631 61.7267 95.2478L11.2059 44.7272C10.1906 43.7119 10.1906 42.0658 11.2059 41.0507C12.2212 40.0352 13.8673 40.0352 14.8826 41.0505Z" fill="url(#paint10_linear_274_7563)"/>
<path d="M14.8826 41.0505L65.4032 91.5713C66.4185 92.5866 66.4185 94.2325 65.4032 95.2478C64.3879 96.2631 62.742 96.2631 61.7267 95.2478L11.2059 44.7272C10.1906 43.7119 10.1906 42.0658 11.2059 41.0507C12.2212 40.0352 13.8673 40.0352 14.8826 41.0505Z" fill="url(#paint11_linear_274_7563)"/>
<path d="M10.1079 80.593C12.5151 81.4222 15.0018 81.9555 17.511 82.1934C14.2882 80.4883 11.2051 78.2367 8.41943 75.4512C6.7357 73.7675 5.24727 71.9753 3.95648 70.109C3.30139 69.162 4.29119 67.9375 5.35648 68.3745C8.74943 69.7669 12.2373 70.5734 15.6484 70.7779C11.8373 69.3018 8.12394 66.9216 4.87962 63.6773C3.71943 62.5171 2.67001 61.2971 1.73276 60.0339C1.04903 59.1126 2.00668 57.8859 3.07413 58.3067C4.27021 58.7781 5.47649 59.1602 6.68158 59.4524C-1.89175 49.9955 -0.690966 34.4139 1.93943 31.7835C4.56982 29.1531 20.1514 27.9524 29.6082 36.5257C29.3161 35.3206 28.9339 34.1143 28.4626 32.9182C28.0418 31.8508 29.2684 30.8932 30.1898 31.5769C31.453 32.5141 32.6731 33.5637 33.8331 34.7237C37.0775 37.9681 39.4577 41.6812 40.9337 45.4926C40.7292 42.0814 39.9228 38.5935 38.5304 35.2006C38.0933 34.1353 39.3179 33.1455 40.2649 33.8006C42.131 35.0914 43.9233 36.5798 45.6069 38.2633C48.3926 41.049 50.6439 44.1322 52.349 47.3549C52.1112 44.8457 51.5779 42.359 50.7486 39.952C50.3618 38.8292 51.5835 37.841 52.5941 38.4647C54.8343 39.8469 56.9408 41.5312 58.8547 43.5186C70.8298 55.9541 70.6924 75.8594 58.5545 88.1361C46.0871 100.746 25.7571 100.79 13.2349 88.2679C11.4377 86.4706 9.90001 84.5122 8.62099 82.4394C7.99747 81.4283 8.98452 80.2059 10.1079 80.593Z" fill="url(#paint12_linear_274_7563)"/>
<path d="M13.2353 88.2675C11.4381 86.4703 9.90041 84.5118 8.62139 82.4391C7.99747 81.4279 8.98452 80.2056 10.1079 80.5926C12.5151 81.422 15.0018 81.9552 17.511 82.193C14.2882 80.4879 11.2051 78.2363 8.41943 75.4509C6.7357 73.7671 5.24727 71.975 3.95648 70.1087C3.30139 69.1616 4.29119 67.9371 5.35648 68.3742C8.74943 69.7665 12.2373 70.573 15.6484 70.7775C11.8373 69.3014 8.12394 66.9212 4.87962 63.6769C3.71943 62.5167 2.67001 61.2967 1.73276 60.0336C1.04903 59.1122 2.00668 57.8856 3.07413 58.3063C4.27021 58.7777 5.47649 59.1599 6.68158 59.452C-1.89175 49.9952 -0.690966 34.4136 1.93943 31.7832L58.4222 88.266C45.9441 100.744 25.7137 100.746 13.2353 88.2675Z" fill="url(#paint13_linear_274_7563)"/>
<path d="M55.4563 85.2995H10.6138C9.8922 84.3744 9.2269 83.4201 8.62141 82.4387C7.99749 81.4276 8.98455 80.2052 10.1079 80.5923C12.5151 81.4217 15.0018 81.9548 17.511 82.1927C14.2883 80.4876 11.2051 78.236 8.41945 75.4505C6.73573 73.7668 5.24729 71.9746 3.95651 70.1084C3.30141 69.1613 4.29122 67.9368 5.35651 68.3738C8.74945 69.7662 12.2373 70.5727 15.6485 70.7772C11.8373 69.3011 8.12396 66.9209 4.87965 63.6766C4.112 62.9089 3.39769 62.1131 2.72729 61.2978V58.2272C2.84043 58.2362 2.95631 58.2593 3.07416 58.3058C4.27024 58.7772 5.47651 59.1593 6.68161 59.4515C5.01337 57.6115 3.71671 55.5391 2.72729 53.3756V32.5703H23.5326C25.6959 33.5599 27.7683 34.8566 29.6085 36.5246C29.3163 35.3195 28.9342 34.1133 28.4628 32.9172C28.4163 32.7993 28.393 32.6834 28.3842 32.5703H31.4547C32.27 33.2405 33.0659 33.955 33.8336 34.7227C37.0779 37.967 39.4581 41.6801 40.9342 45.4915C40.7297 42.0803 39.9232 38.5925 38.5308 35.1995C38.0938 34.1342 39.3183 33.1444 40.2653 33.7995C42.1314 35.0903 43.9238 36.5787 45.6075 38.2625C48.3932 41.0482 50.6446 44.1313 52.3497 47.354C52.1118 44.8448 51.5785 42.3582 50.7493 39.9509C50.3624 38.8282 51.584 37.8399 52.5947 38.4636C53.5765 39.0695 54.5308 39.7368 55.4565 40.4587L55.4563 85.2995Z" fill="url(#paint14_linear_274_7563)"/>
<path d="M64.8185 52.252C70.2351 64.0196 68.1304 78.4516 58.555 88.1367C48.8106 97.9923 34.2638 100.172 22.3951 94.6753L64.8185 52.252Z" fill="url(#paint15_linear_274_7563)"/>
<path d="M5.35673 68.3745C8.74967 69.7669 12.2375 70.5733 15.6487 70.7779C11.8375 69.3018 8.12418 66.9216 4.87987 63.6773C3.71967 62.5171 2.67026 61.2971 1.733 60.0339C1.04928 59.1126 2.00692 57.8859 3.07438 58.3067C4.27045 58.7781 5.47673 59.1602 6.68183 59.4524C-1.89151 49.9955 -0.690722 34.4139 1.93967 31.7835C4.57006 29.1531 20.1516 27.9524 29.6085 36.5257C29.3163 35.3206 28.9342 34.1143 28.4628 32.9182C28.042 31.8508 29.2687 30.893 30.1901 31.5769C31.4532 32.5141 32.6732 33.5637 33.8334 34.7237C37.0777 37.9681 39.4579 41.6812 40.934 45.4926C40.7295 42.0814 39.923 38.5935 38.5307 35.2006C38.0936 34.1353 39.3181 33.1455 40.2652 33.8006C40.5597 34.0043 40.8518 34.2149 41.1426 34.4284V70.9865H4.58457C4.37085 70.6957 4.16045 70.4037 3.95673 70.109C3.30183 69.1622 4.29143 67.9375 5.35673 68.3745Z" fill="url(#paint16_linear_274_7563)"/>
<path d="M1.93984 31.7835C4.32592 29.3974 17.3679 28.188 26.8291 34.3825V56.6727H4.53886C-1.65545 47.2115 -0.446043 34.1696 1.93984 31.7835Z" fill="url(#paint17_linear_274_7563)"/>
<path d="M1.93977 31.7846C3.1978 30.5266 7.41918 29.5964 12.5153 29.9054V42.3601H0.0605495C-0.24847 37.2638 0.681726 33.0427 1.93977 31.7846Z" fill="url(#paint18_linear_274_7563)"/>
</g>
<defs>
<linearGradient id="paint0_linear_274_7563" x1="60.2068" y1="38.8102" x2="67.1968" y2="47.5474" gradientUnits="userSpaceOnUse">
<stop stop-color="#8BC727"/>
<stop offset="1" stop-color="#017B4E"/>
</linearGradient>
<linearGradient id="paint1_linear_274_7563" x1="36.4377" y1="65.9257" x2="42.9422" y2="59.4212" gradientUnits="userSpaceOnUse">
<stop stop-color="#47A920" stop-opacity="0"/>
<stop offset="0.2448" stop-color="#469A2A" stop-opacity="0.207"/>
<stop offset="0.4461" stop-color="#448B35" stop-opacity="0.377"/>
<stop offset="0.952" stop-color="#3F5D55" stop-opacity="0.946"/>
<stop offset="1" stop-color="#3E5959"/>
</linearGradient>
<linearGradient id="paint2_linear_274_7563" x1="66.6741" y1="2.31659" x2="64.9266" y2="76.1432" gradientUnits="userSpaceOnUse">
<stop stop-color="#BBEC6C"/>
<stop offset="1" stop-color="#81B823"/>
</linearGradient>
<linearGradient id="paint3_linear_274_7563" x1="87.2964" y1="36.9976" x2="30.9436" y2="39.1819" gradientUnits="userSpaceOnUse">
<stop stop-color="#47A920" stop-opacity="0"/>
<stop offset="0.242" stop-color="#459A2A" stop-opacity="0.242"/>
<stop offset="0.7001" stop-color="#417545" stop-opacity="0.7"/>
<stop offset="1" stop-color="#3E5959"/>
</linearGradient>
<linearGradient id="paint4_linear_274_7563" x1="65.1743" y1="37.189" x2="26.477" y2="75.8863" gradientUnits="userSpaceOnUse">
<stop stop-color="#47A920" stop-opacity="0"/>
<stop offset="0.242" stop-color="#459A2A" stop-opacity="0.242"/>
<stop offset="0.7001" stop-color="#417545" stop-opacity="0.7"/>
<stop offset="1" stop-color="#3E5959"/>
</linearGradient>
<linearGradient id="paint5_linear_274_7563" x1="52.5286" y1="49.8473" x2="38.7611" y2="63.6148" gradientUnits="userSpaceOnUse">
<stop stop-color="#47A920" stop-opacity="0"/>
<stop offset="0.242" stop-color="#459A2A" stop-opacity="0.242"/>
<stop offset="0.7001" stop-color="#417545" stop-opacity="0.7"/>
<stop offset="1" stop-color="#3E5959"/>
</linearGradient>
<linearGradient id="paint6_linear_274_7563" x1="78.571" y1="23.7917" x2="37.5744" y2="64.7882" gradientUnits="userSpaceOnUse">
<stop stop-color="#47A920" stop-opacity="0"/>
<stop offset="0.242" stop-color="#459A2A" stop-opacity="0.242"/>
<stop offset="0.7001" stop-color="#417545" stop-opacity="0.7"/>
<stop offset="1" stop-color="#3E5959"/>
</linearGradient>
<linearGradient id="paint7_linear_274_7563" x1="87.2111" y1="15.1514" x2="53.5404" y2="48.822" gradientUnits="userSpaceOnUse">
<stop stop-color="#47A920" stop-opacity="0"/>
<stop offset="0.242" stop-color="#459A2A" stop-opacity="0.242"/>
<stop offset="0.7001" stop-color="#417545" stop-opacity="0.7"/>
<stop offset="1" stop-color="#3E5959"/>
</linearGradient>
<linearGradient id="paint8_linear_274_7563" x1="94.5894" y1="7.77433" x2="79.6928" y2="22.671" gradientUnits="userSpaceOnUse">
<stop stop-color="#47A920" stop-opacity="0"/>
<stop offset="0.242" stop-color="#459A2A" stop-opacity="0.242"/>
<stop offset="0.7001" stop-color="#417545" stop-opacity="0.7"/>
<stop offset="1" stop-color="#3E5959"/>
</linearGradient>
<linearGradient id="paint9_linear_274_7563" x1="79.0401" y1="55.2046" x2="65.0191" y2="56.5695" gradientUnits="userSpaceOnUse">
<stop stop-color="#47A920" stop-opacity="0"/>
<stop offset="0.2448" stop-color="#469A2A" stop-opacity="0.207"/>
<stop offset="0.4461" stop-color="#448B35" stop-opacity="0.377"/>
<stop offset="0.952" stop-color="#3F5D55" stop-opacity="0.946"/>
<stop offset="1" stop-color="#3E5959"/>
</linearGradient>
<linearGradient id="paint10_linear_274_7563" x1="39.7909" y1="66.2767" x2="32.8009" y2="75.014" gradientUnits="userSpaceOnUse">
<stop stop-color="#8BC727"/>
<stop offset="1" stop-color="#017B4E"/>
</linearGradient>
<linearGradient id="paint11_linear_274_7563" x1="63.5599" y1="93.3922" x2="57.0554" y2="86.8877" gradientUnits="userSpaceOnUse">
<stop stop-color="#47A920" stop-opacity="0"/>
<stop offset="0.2448" stop-color="#469A2A" stop-opacity="0.207"/>
<stop offset="0.4461" stop-color="#448B35" stop-opacity="0.377"/>
<stop offset="0.952" stop-color="#3F5D55" stop-opacity="0.946"/>
<stop offset="1" stop-color="#3E5959"/>
</linearGradient>
<linearGradient id="paint12_linear_274_7563" x1="33.3235" y1="29.783" x2="35.0709" y2="103.609" gradientUnits="userSpaceOnUse">
<stop stop-color="#BBEC6C"/>
<stop offset="1" stop-color="#81B823"/>
</linearGradient>
<linearGradient id="paint13_linear_274_7563" x1="12.7012" y1="64.4639" x2="69.054" y2="66.6483" gradientUnits="userSpaceOnUse">
<stop stop-color="#47A920" stop-opacity="0"/>
<stop offset="0.242" stop-color="#459A2A" stop-opacity="0.242"/>
<stop offset="0.7001" stop-color="#417545" stop-opacity="0.7"/>
<stop offset="1" stop-color="#3E5959"/>
</linearGradient>
<linearGradient id="paint14_linear_274_7563" x1="34.8233" y1="64.6555" x2="73.5206" y2="103.353" gradientUnits="userSpaceOnUse">
<stop stop-color="#47A920" stop-opacity="0"/>
<stop offset="0.242" stop-color="#459A2A" stop-opacity="0.242"/>
<stop offset="0.7001" stop-color="#417545" stop-opacity="0.7"/>
<stop offset="1" stop-color="#3E5959"/>
</linearGradient>
<linearGradient id="paint15_linear_274_7563" x1="47.469" y1="77.3137" x2="61.2365" y2="91.0812" gradientUnits="userSpaceOnUse">
<stop stop-color="#47A920" stop-opacity="0"/>
<stop offset="0.242" stop-color="#459A2A" stop-opacity="0.242"/>
<stop offset="0.7001" stop-color="#417545" stop-opacity="0.7"/>
<stop offset="1" stop-color="#3E5959"/>
</linearGradient>
<linearGradient id="paint16_linear_274_7563" x1="21.4266" y1="51.2582" x2="62.4232" y2="92.2548" gradientUnits="userSpaceOnUse">
<stop stop-color="#47A920" stop-opacity="0"/>
<stop offset="0.242" stop-color="#459A2A" stop-opacity="0.242"/>
<stop offset="0.7001" stop-color="#417545" stop-opacity="0.7"/>
<stop offset="1" stop-color="#3E5959"/>
</linearGradient>
<linearGradient id="paint17_linear_274_7563" x1="12.7865" y1="42.6179" x2="46.4572" y2="76.2885" gradientUnits="userSpaceOnUse">
<stop stop-color="#47A920" stop-opacity="0"/>
<stop offset="0.242" stop-color="#459A2A" stop-opacity="0.242"/>
<stop offset="0.7001" stop-color="#417545" stop-opacity="0.7"/>
<stop offset="1" stop-color="#3E5959"/>
</linearGradient>
<linearGradient id="paint18_linear_274_7563" x1="5.40828" y1="35.2408" x2="20.3048" y2="50.1373" gradientUnits="userSpaceOnUse">
<stop stop-color="#47A920" stop-opacity="0"/>
<stop offset="0.242" stop-color="#459A2A" stop-opacity="0.242"/>
<stop offset="0.7001" stop-color="#417545" stop-opacity="0.7"/>
<stop offset="1" stop-color="#3E5959"/>
</linearGradient>
<clipPath id="clip0_274_7563">
<rect width="100" height="100" fill="white"/>
</clipPath>
</defs>
</svg>
