<svg width="110" height="110" viewBox="0 0 110 110" fill="none" xmlns="http://www.w3.org/2000/svg">
<circle cx="55" cy="55" r="55" fill="white"/>
<g clip-path="url(#clip0_274_7536)">
<path d="M79.1209 37.0605H74.4271C73.9418 37.0605 73.5483 37.454 73.5483 37.9393C73.5483 38.4247 73.9418 38.8181 74.4271 38.8181H79.1209C79.6062 38.8181 79.9997 38.4247 79.9997 37.9393C79.9997 37.454 79.6062 37.0605 79.1209 37.0605Z" fill="#8AA5BC"/>
<path d="M74.4271 32.4705H79.1209C79.6062 32.4705 79.9997 32.077 79.9997 31.5917C79.9997 31.1064 79.6062 30.7129 79.1209 30.7129H74.4271C73.9418 30.7129 73.5483 31.1064 73.5483 31.5917C73.5483 32.077 73.9418 32.4705 74.4271 32.4705Z" fill="#8AA5BC"/>
<path d="M75.3061 29.9452V39.5837C75.3061 40.0688 74.9124 40.4625 74.4274 40.4625H68.3309C63.7191 40.3816 60.204 35.4803 60.0563 35.2718C59.8407 34.966 59.8419 34.5582 60.0598 34.2536C60.211 34.0415 63.7824 29.1144 68.3298 29.0664H74.4274C74.9124 29.0664 75.3061 29.4601 75.3061 29.9452Z" fill="#C6ED66"/>
<path d="M75.3061 29.9452V39.5837C75.3061 40.0688 74.9124 40.4625 74.4273 40.4625H68.5664V29.0664H74.4273C74.9124 29.0664 75.3061 29.4601 75.3061 29.9452Z" fill="#38CE63"/>
<path d="M65.1615 33.8867H30.3886C28.5956 33.8867 27.1033 35.345 27.062 37.1375C27.0411 38.0407 27.3774 38.8938 28.0087 39.5398C28.64 40.1858 29.4853 40.5417 30.3886 40.5417H47.559C48.4247 40.5417 49.1289 41.2459 49.1289 42.1115V48.973C49.1289 49.4583 49.5223 49.8517 50.0077 49.8517C50.493 49.8517 50.8864 49.4583 50.8864 48.973V42.1115C50.8864 40.2768 49.3938 38.7841 47.559 38.7841H30.3886C29.9624 38.7841 29.5636 38.6162 29.2657 38.3114C28.9679 38.0066 28.8092 37.6041 28.819 37.1781C28.8386 36.3323 29.5427 35.6443 30.3886 35.6443H65.1615C65.6468 35.6443 66.0403 35.2508 66.0403 34.7655C66.0403 34.2802 65.6468 33.8867 65.1615 33.8867Z" fill="#38CE63"/>
<path d="M79.9919 52.8196V77.756C79.9919 78.2411 79.5982 78.6348 79.1131 78.6348H23.2225C22.7374 78.6348 22.3438 78.2411 22.3438 77.756V69.4521C22.3438 68.8475 22.4234 68.2616 22.5722 67.7039C23.3444 64.8027 25.9948 62.6573 29.1373 62.6573H35.3907V52.7435C35.3907 52.3416 35.4423 51.9514 35.5384 51.5788C36.0574 49.5717 37.883 48.0859 40.0495 48.0859H75.2582C77.4399 48.0859 79.2807 49.5682 79.8267 51.5788C79.9345 51.9748 79.9919 52.3908 79.9919 52.8196Z" fill="#0A72FB"/>
<path d="M79.992 52.8196V77.756C79.992 78.2411 79.5983 78.6348 79.1132 78.6348H75.5981C76.0832 78.6348 76.4769 78.2411 76.4769 77.756V52.8196C76.4769 52.3908 76.4195 51.9748 76.3117 51.5788C75.7656 49.5682 73.9249 48.0859 71.7432 48.0859H75.2583C77.44 48.0859 79.2808 49.5682 79.8268 51.5788C79.9346 51.9748 79.992 52.3908 79.992 52.8196Z" fill="#21619A"/>
<path d="M42.1895 62.6562H45.1773V78.6337H42.1895V62.6562Z" fill="#21619A"/>
<path d="M79.1113 76.877H20.8788C20.3935 76.877 20 77.2703 20 77.7557C20 78.2412 20.3935 78.6345 20.8788 78.6345H79.1113C79.5966 78.6345 79.99 78.2412 79.99 77.7557C79.99 77.2703 79.5966 76.877 79.1113 76.877Z" fill="#D7F4FF"/>
<path d="M39.8455 51.5781V62.6566H35.3906V52.7428C35.3906 52.3409 35.4422 51.9507 35.5383 51.5781H39.8455Z" fill="#D7F4FF"/>
<path d="M79.9919 52.819V62.6566H74.5024V51.5781H79.8267C79.9345 51.9742 79.9919 52.3901 79.9919 52.819Z" fill="#D7F4FF"/>
<path d="M42.1895 51.5781H50.5733V62.6569H42.1895V51.5781Z" fill="#D7F4FF"/>
<path d="M52.9854 51.5781H61.3692V62.6569H52.9854V51.5781Z" fill="#D7F4FF"/>
<path d="M63.7061 51.5781H72.0899V62.6569H63.7061V51.5781Z" fill="#D7F4FF"/>
<path d="M37.6228 77.6981C37.6228 80.5524 35.3004 82.8747 32.4461 82.8747C31.9165 82.8747 31.4045 82.795 30.9229 82.6462C28.8092 81.9936 27.2695 80.0228 27.2695 77.6981C27.2695 75.3734 28.8092 73.4026 30.9229 72.75C31.4045 72.6012 31.9165 72.5215 32.4461 72.5215C35.3004 72.5215 37.6228 74.8438 37.6228 77.6981Z" fill="#B3C8DD"/>
<path d="M37.6227 77.6981C37.6227 80.5524 35.3004 82.8747 32.4461 82.8747C31.9165 82.8747 31.4044 82.795 30.9229 82.6462C33.0366 81.9936 34.5762 80.0228 34.5762 77.6981C34.5762 75.3734 33.0366 73.4026 30.9229 72.75C31.4044 72.6012 31.9165 72.5215 32.4461 72.5215C35.3004 72.5215 37.6227 74.8438 37.6227 77.6981Z" fill="#8AA5BC"/>
<path d="M74.8689 77.7547C74.8689 80.609 72.5465 82.9314 69.6922 82.9314C69.1626 82.9314 68.6506 82.8517 68.169 82.7029C66.0553 82.0502 64.5156 80.0794 64.5156 77.7547C64.5156 75.4301 66.0553 73.4592 68.169 72.8066C68.6506 72.6578 69.1626 72.5781 69.6922 72.5781C72.5465 72.5781 74.8689 74.9005 74.8689 77.7547Z" fill="#B3C8DD"/>
<path d="M74.8688 77.7547C74.8688 80.609 72.5465 82.9314 69.6922 82.9314C69.1626 82.9314 68.6505 82.8517 68.1689 82.7029C70.2827 82.0502 71.8223 80.0794 71.8223 77.7547C71.8223 75.4301 70.2827 73.4592 68.1689 72.8066C68.6505 72.6578 69.1626 72.5781 69.6922 72.5781C72.5465 72.5781 74.8688 74.9005 74.8688 77.7547Z" fill="#8AA5BC"/>
<path d="M28.7835 68.289C28.7835 70.5504 26.9439 72.39 24.6825 72.39H22.3438V69.4513C22.3438 68.8467 22.4234 68.2609 22.5722 67.7031H28.1976C28.521 67.7031 28.7835 67.9656 28.7835 68.289Z" fill="#F9F05A"/>
<path d="M79.9919 67.7031V72.39H76.4147C75.1235 72.39 74.0713 71.3389 74.0713 70.0465C74.0713 68.7541 75.1235 67.7031 76.4147 67.7031H79.9919Z" fill="#FF6B64"/>
<path d="M76.4766 67.7031H79.9917V72.39H76.4766V67.7031Z" fill="#EC4B8E"/>
<path d="M79.9919 52.819V62.6566H76.4767V52.819C76.4767 52.3901 76.4193 51.9742 76.3115 51.5781H79.8267C79.9345 51.9742 79.9919 52.3901 79.9919 52.819Z" fill="#BBDAEA"/>
</g>
<defs>
<clipPath id="clip0_274_7536">
<rect width="60" height="60" fill="white" transform="translate(20 26)"/>
</clipPath>
</defs>
</svg>
