<svg width="220" height="241" viewBox="0 0 220 241" fill="none" xmlns="http://www.w3.org/2000/svg">
<g clip-path="url(#clip0_287_2875)">
<path d="M220 131.055C220 191.775 170.751 241 109.999 241C109.217 241 108.437 240.992 107.658 240.976C104.731 240.915 101.832 240.739 98.9657 240.454C98.7669 240.435 98.5692 240.414 98.3716 240.392C97.0648 240.256 95.764 240.097 94.4715 239.913C93.3495 239.755 92.2333 239.578 91.1219 239.387C88.6624 238.963 86.23 238.456 83.8296 237.871C83.7267 237.845 83.6237 237.822 83.5207 237.794C83.3657 237.757 83.2094 237.719 83.0544 237.678C82.4152 237.519 81.7784 237.352 81.144 237.18C79.4183 236.711 77.7092 236.202 76.0166 235.654C75.9894 235.646 75.9633 235.638 75.9361 235.627C75.9089 235.619 75.8828 235.611 75.8556 235.601C57.4528 229.6 41.1816 218.88 28.4754 204.871C28.2588 204.631 28.0422 204.392 27.828 204.15C27.0279 203.253 26.242 202.342 25.4702 201.417C25.3389 201.259 25.2087 201.102 25.0797 200.943C24.5967 200.36 24.1209 199.77 23.651 199.175C23.3871 198.84 23.1231 198.504 22.8639 198.166C21.7868 196.77 20.7417 195.348 19.7309 193.9C18.7035 192.429 17.7105 190.933 16.7565 189.41C16.1067 188.375 15.4734 187.327 14.8568 186.269C5.41031 170.044 0 151.182 0 131.055C0 88.2926 24.4251 51.2322 60.0934 33.0527C60.51 32.8398 60.9278 32.6304 61.348 32.4222C62.0712 32.0637 62.8003 31.7147 63.5318 31.3752C63.8987 31.2025 64.2668 31.0333 64.6373 30.8665C64.7178 30.8287 64.7995 30.7932 64.8811 30.7565C64.9663 30.7174 65.0516 30.6784 65.138 30.6417C65.5191 30.4702 65.9026 30.3022 66.2861 30.1354C79.6846 24.3291 94.4656 21.1113 109.998 21.1113C122.006 21.1113 133.565 23.0337 144.383 26.5899C144.86 26.746 145.336 26.9058 145.811 27.069C146.417 27.2784 147.021 27.4914 147.622 27.7102H147.624C148.427 28.0036 149.226 28.3041 150.019 28.6152C150.434 28.7761 150.85 28.9417 151.263 29.1085C151.918 29.3735 152.572 29.6456 153.22 29.9236C153.712 30.133 154.2 30.3472 154.687 30.5637C154.726 30.5802 154.766 30.598 154.805 30.6157C155.27 30.8227 155.732 31.0333 156.192 31.2463C157.323 31.7703 158.444 32.3122 159.553 32.8729C160.278 33.2408 161.001 33.6158 161.718 33.9991C162.105 34.2062 162.492 34.4144 162.875 34.6261C165.19 35.8955 167.455 37.2477 169.664 38.6768C170.241 39.0495 170.814 39.428 171.383 39.8113C171.565 39.9344 171.749 40.0574 171.93 40.1816C173.119 40.992 174.292 41.826 175.446 42.6825C202.477 62.7134 219.994 94.8395 219.994 131.054L220 131.055Z" fill="#6BAC0F"/>
<path d="M164.955 122.223C165.389 121.772 165.818 121.329 166.245 120.898C166.357 120.786 166.47 120.673 166.581 120.563C166.994 120.151 167.405 119.751 167.811 119.368C170.649 116.696 173.367 114.792 176.126 114.772C177.967 114.759 179.827 115.584 181.755 117.584C182.888 118.758 183.561 120.017 183.851 121.337C183.991 121.968 184.042 122.613 184.013 123.268C183.967 124.32 183.717 125.4 183.296 126.499C182.824 127.734 182.135 128.993 181.277 130.256C180.508 131.392 179.602 132.532 178.596 133.664C178.188 134.125 177.763 134.584 177.324 135.041C175.558 136.879 173.643 138.352 171.735 139.415C167.303 141.886 162.911 142.157 160.522 139.682C157.107 136.143 159.091 128.327 164.954 122.225L164.955 122.223Z" fill="#F7CBBC"/>
<path d="M55.9792 128.749L82.136 144.648L103.911 105.32L77.7542 89.4219L55.9792 128.749Z" fill="#EDC1B2"/>
<path d="M168.874 128.547L169.553 132.019C171.935 133.685 174.817 134.329 177.603 133.552C178.15 133.4 178.672 133.197 179.167 132.951C180.355 131.614 181.424 130.268 182.333 128.927C181.235 130.021 179.894 130.836 178.357 131.265C174.984 132.208 171.469 131.063 168.874 128.548V128.547Z" fill="#EDC1B2"/>
<path d="M154.812 68.2924C154.971 68.1848 155.13 68.0771 155.289 67.9694C155.434 67.8701 155.578 67.7743 155.72 67.6784C156.065 67.4489 156.404 67.2206 156.744 67.0041C162.86 63.0232 168.129 60.882 172.222 67.2655C173.953 69.9628 173.902 72.6152 172.653 75.1587C172.126 76.2293 171.39 77.2822 170.481 78.309C168.913 80.0836 166.841 81.7859 164.49 83.3901C163.143 84.3093 161.763 85.0676 160.395 85.658C154.716 88.1281 149.237 87.7744 147.081 84.4182C144.41 80.2504 147.869 73.0304 154.814 68.2936L154.812 68.2924Z" fill="#F7CBBC"/>
<path d="M157.964 73.2414L158.394 75.4371C161.5 79.2476 166.17 80.7441 169.765 78.7638C170.014 78.6277 170.254 78.4751 170.48 78.3083C171.388 77.2814 172.125 76.2297 172.652 75.1579C171.995 76.1576 171.132 76.9857 170.076 77.5665C166.185 79.7102 161.028 77.7747 157.964 73.2402V73.2414Z" fill="#EDC1B2"/>
<path d="M156.148 27.9552C159.84 25.4697 164.745 26.0245 167.735 29.2671C167.771 29.3074 167.806 29.3452 167.842 29.3855C169.518 31.2014 170.31 33.5497 170.218 35.8814C170.14 37.934 169.374 39.9735 167.92 41.6262L154.949 56.3867C152.111 49.6695 149.273 42.9594 146.436 36.2422C146.242 35.7868 146.05 35.3289 145.857 34.8735C149.287 32.5678 152.717 30.2621 156.148 27.9564V27.9552Z" fill="#FCD8C7"/>
<path opacity="0.43" d="M145.857 34.8719C146.051 35.3274 146.243 35.7852 146.436 36.2407C149.705 34.045 152.971 31.847 156.24 29.6513C159.933 27.1657 164.838 27.7206 167.827 30.9632C167.863 31.0035 167.898 31.0413 167.934 31.0815C169.2 32.4562 169.965 34.1361 170.218 35.881C170.311 33.5493 169.519 31.201 167.842 29.3851C167.806 29.3449 167.771 29.307 167.735 29.2668C164.747 26.0253 159.842 25.4693 156.148 27.9548C152.717 30.2605 149.287 32.5662 145.857 34.8719Z" fill="white"/>
<path d="M61.8274 52.6094L64.9533 68.5802C65.0717 69.1835 65.6552 69.5763 66.2588 69.458L67.1844 69.277L85.8749 164.76C87.6255 173.702 96.3274 179.553 105.274 177.804L160.272 167.049C169.219 165.299 175.073 156.602 173.323 147.659L155.159 54.8655L156.363 54.63C156.814 54.5425 157.106 54.1083 157.017 53.6576L155.362 45.199C155.274 44.7506 154.84 44.4561 154.389 44.5448L153.185 44.7802L152.395 40.7461L153.599 40.5107C154.05 40.4232 154.342 39.989 154.254 39.5383L152.598 31.0809C152.51 30.6325 152.076 30.3379 151.625 30.4266L150.421 30.6621L147.034 13.3533C145.283 4.41086 136.581 -1.44036 127.634 0.30933L72.6362 11.0642C63.6892 12.8138 57.835 21.5114 59.5856 30.4538L63.6312 51.1236L62.7056 51.3046C62.102 51.4229 61.709 52.0061 61.8274 52.6094ZM64.6633 29.6328C63.4572 23.4693 67.491 17.4749 73.6553 16.2706L128.653 5.5158C134.817 4.3103 140.815 8.34321 142.021 14.5056L167.827 146.341C167.966 147.048 168.036 147.748 168.04 148.44C168.04 148.475 168.042 148.507 168.04 148.539C168.04 148.609 168.04 148.677 168.037 148.748C168.038 148.768 168.037 148.787 168.037 148.808C168.037 148.873 168.032 148.939 168.031 149.004C168.029 149.042 168.027 149.08 168.025 149.114C168.021 149.178 168.017 149.24 168.013 149.302C168.013 149.328 168.011 149.352 168.007 149.378C168.007 149.421 168.001 149.466 167.998 149.508C167.986 149.638 167.974 149.766 167.958 149.895C167.902 150.36 167.817 150.817 167.707 151.264C167.676 151.381 167.644 151.502 167.611 151.62C167.24 152.916 166.645 154.133 165.86 155.215C165.671 155.473 165.473 155.724 165.264 155.965V155.967C165.175 156.07 165.083 156.172 164.99 156.273C164.944 156.324 164.897 156.374 164.849 156.423C164.755 156.521 164.658 156.619 164.559 156.713C164.509 156.762 164.46 156.809 164.41 156.856H164.408C164.313 156.945 164.219 157.031 164.121 157.115C162.664 158.389 160.865 159.306 158.833 159.703L103.835 170.458C101.804 170.856 99.7907 170.684 97.9608 170.053C97.8389 170.011 97.7182 169.967 97.5975 169.921H97.5951C97.5324 169.896 97.4684 169.872 97.4033 169.845C97.2767 169.796 97.1501 169.741 97.0258 169.687C96.9642 169.66 96.9003 169.63 96.8388 169.601C96.7157 169.544 96.5926 169.483 96.4707 169.421V169.418C96.1854 169.274 95.9084 169.117 95.6362 168.949C94.5011 168.242 93.4915 167.339 92.6594 166.277C92.5848 166.18 92.5091 166.081 92.4369 165.984C92.1658 165.611 91.9149 165.221 91.6877 164.812C91.6237 164.698 91.5646 164.585 91.5042 164.469C91.4853 164.431 91.4628 164.391 91.4462 164.352C91.432 164.329 91.4213 164.308 91.4119 164.284C91.3847 164.226 91.3574 164.172 91.3302 164.114C91.3148 164.082 91.2982 164.048 91.2829 164.013C91.2568 163.953 91.2296 163.894 91.2036 163.833C91.1953 163.814 91.187 163.797 91.1811 163.778C91.1527 163.714 91.1266 163.651 91.0994 163.586C91.0864 163.557 91.0757 163.526 91.0627 163.494C90.8059 162.85 90.607 162.175 90.4685 161.47L64.6633 29.6328Z" fill="black"/>
<path d="M64.6634 29.6329L90.4698 161.469C90.6083 162.175 90.8071 162.85 91.064 163.493C91.077 163.525 91.0877 163.555 91.1007 163.585C91.1267 163.65 91.1539 163.712 91.1823 163.777C91.1883 163.797 91.1965 163.813 91.2048 163.832C91.2309 163.893 91.2581 163.952 91.2841 164.012C91.3007 164.046 91.3161 164.081 91.3315 164.113C91.3587 164.171 91.3859 164.225 91.4131 164.283C91.4226 164.307 91.4333 164.328 91.4475 164.35C91.464 164.389 91.4865 164.428 91.5055 164.468C91.5658 164.583 91.625 164.698 91.6889 164.811C91.9162 165.22 92.1671 165.61 92.4382 165.983C92.5104 166.08 92.5861 166.179 92.6607 166.276C93.4928 167.338 94.5024 168.24 95.6375 168.948C95.9097 169.116 96.1879 169.273 96.4719 169.417V169.42C96.5938 169.482 96.7169 169.542 96.84 169.599C96.9016 169.629 96.9655 169.659 97.027 169.686C97.1513 169.74 97.2792 169.795 97.4046 169.844C97.4709 169.872 97.5336 169.896 97.5964 169.921H97.5987C97.7195 169.967 97.8402 170.011 97.9621 170.053C99.792 170.683 101.804 170.856 103.836 170.458L158.834 159.704C160.865 159.306 162.666 158.389 164.123 157.115C164.22 157.031 164.316 156.945 164.409 156.856H164.412C164.46 156.809 164.51 156.761 164.561 156.713C164.659 156.619 164.756 156.521 164.851 156.423C164.897 156.375 164.945 156.324 164.991 156.273C165.084 156.173 165.176 156.072 165.265 155.968V155.965C165.473 155.724 165.671 155.474 165.86 155.215C166.645 154.133 167.24 152.917 167.611 151.62C167.644 151.502 167.676 151.381 167.707 151.264C167.817 150.817 167.902 150.36 167.958 149.895C167.974 149.766 167.986 149.638 167.998 149.508C168.001 149.466 168.006 149.421 168.007 149.378C168.012 149.352 168.013 149.328 168.013 149.302C168.017 149.239 168.022 149.177 168.025 149.114C168.027 149.079 168.03 149.041 168.031 149.004C168.031 148.939 168.036 148.873 168.037 148.808C168.037 148.787 168.038 148.768 168.037 148.748C168.039 148.678 168.04 148.609 168.04 148.539C168.04 148.506 168.04 148.474 168.04 148.44C168.036 147.748 167.966 147.046 167.827 146.341L142.021 14.5056C140.815 8.34207 134.818 4.31034 128.653 5.51584L73.6553 16.2707C67.4911 17.4762 63.4573 23.4705 64.6634 29.6329Z" fill="white"/>
<path d="M122.493 78.7026L138.443 75.583L135.322 59.6406L119.371 62.7603L122.493 78.7026ZM122.472 64.8447L133.236 62.7401L135.342 73.4985L124.578 75.6031L122.472 64.8447Z" fill="black"/>
<path d="M131.412 65.4546L125.187 66.6719L126.405 72.8937L132.63 71.6764L131.412 65.4546Z" fill="black"/>
<path d="M87.886 68.9185L91.0072 84.8608L106.958 81.7412L103.836 65.7988L87.886 68.9185ZM90.9871 71.0041L101.751 68.8995L103.857 79.6579L93.0927 81.7625L90.9871 71.0041Z" fill="black"/>
<path d="M99.9252 71.6108L93.7002 72.8281L94.9181 79.05L101.143 77.8327L99.9252 71.6108Z" fill="black"/>
<path d="M141.484 91.1133L125.533 94.2329L128.655 110.175L144.605 107.056L141.484 91.1133ZM141.504 104.971L130.74 107.076L128.634 96.3174L139.398 94.2128L141.504 104.971Z" fill="black"/>
<path d="M137.571 96.9233L131.346 98.1406L132.564 104.362L138.789 103.145L137.571 96.9233Z" fill="black"/>
<path d="M137.379 84.1796L140.025 83.6621L139.507 81.0173L136.861 81.5348L137.379 84.1796Z" fill="black"/>
<path d="M134.679 84.4471L137.325 83.9297L136.808 81.2849L134.162 81.8024L134.679 84.4471Z" fill="black"/>
<path d="M134.228 82.1405L136.874 81.623L136.356 78.9783L133.71 79.4957L134.228 82.1405Z" fill="black"/>
<path d="M132.083 85.2167L134.729 84.6992L134.211 82.0544L131.565 82.5719L132.083 85.2167Z" fill="black"/>
<path d="M138.357 89.1776L141.003 88.6602L140.485 86.0154L137.839 86.5328L138.357 89.1776Z" fill="black"/>
<path d="M130.415 90.7323L133.061 90.2148L132.543 87.5701L129.897 88.0875L130.415 90.7323Z" fill="black"/>
<path d="M127.25 88.6034L129.896 88.0859L129.379 85.4412L126.733 85.9586L127.25 88.6034Z" fill="black"/>
<path d="M125.123 91.7674L127.769 91.25L127.251 88.6052L124.605 89.1227L125.123 91.7674Z" fill="black"/>
<path d="M122.476 92.2831L125.122 91.7656L124.605 89.1209L121.959 89.6383L122.476 92.2831Z" fill="black"/>
<path d="M121.958 89.6385L124.604 89.1211L124.087 86.4763L121.44 86.9938L121.958 89.6385Z" fill="black"/>
<path d="M121.441 86.994L124.087 86.4766L123.57 83.8318L120.923 84.3492L121.441 86.994Z" fill="black"/>
<path d="M120.997 84.7264L123.643 84.209L123.126 81.5642L120.479 82.0817L120.997 84.7264Z" fill="black"/>
<path d="M118.35 85.246L120.996 84.7285L120.478 82.0837L117.832 82.6012L118.35 85.246Z" fill="black"/>
<path d="M129.379 85.4432L132.025 84.9258L131.508 82.281L128.862 82.7984L129.379 85.4432Z" fill="black"/>
<path d="M128.935 83.1737L131.581 82.6562L131.064 80.0115L128.418 80.5289L128.935 83.1737Z" fill="black"/>
<path d="M126.289 83.6932L128.936 83.1758L128.418 80.531L125.772 81.0485L126.289 83.6932Z" fill="black"/>
<path d="M135.707 89.6952L138.353 89.1777L137.835 86.533L135.189 87.0504L135.707 89.6952Z" fill="black"/>
<path d="M132.544 87.5682L135.19 87.0508L134.672 84.406L132.026 84.9234L132.544 87.5682Z" fill="black"/>
<path d="M137.834 86.535L140.481 86.0176L139.963 83.3728L137.317 83.8902L137.834 86.535Z" fill="black"/>
<path d="M133.061 90.2147L135.707 89.6973L135.189 87.0525L132.543 87.5699L133.061 90.2147Z" fill="black"/>
<path d="M120.36 95.4842L123.006 94.9668L122.489 92.322L119.843 92.8395L120.36 95.4842Z" fill="black"/>
<path d="M117.709 96.0038L120.355 95.4863L119.838 92.8416L117.192 93.359L117.709 96.0038Z" fill="black"/>
<path d="M117.208 93.4432L119.854 92.9258L119.336 90.281L116.69 90.7985L117.208 93.4432Z" fill="black"/>
<path d="M119.287 90.0311L121.933 89.5137L121.416 86.8689L118.77 87.3863L119.287 90.0311Z" fill="black"/>
<path d="M113.527 88.6717L116.173 88.1543L115.704 85.7615L113.058 86.2789L113.527 88.6717Z" fill="black"/>
<path d="M116.223 88.4061L118.869 87.8887L118.352 85.2439L115.705 85.7613L116.223 88.4061Z" fill="black"/>
<path d="M116.691 90.8007L119.337 90.2832L118.819 87.6384L116.173 88.1559L116.691 90.8007Z" fill="black"/>
<path d="M115.063 96.5194L117.709 96.002L117.192 93.3572L114.546 93.8746L115.063 96.5194Z" fill="black"/>
<path d="M121.388 100.736L124.034 100.219L123.516 97.574L120.87 98.0914L121.388 100.736Z" fill="black"/>
<path d="M113.445 102.289L116.091 101.771L115.573 99.1267L112.927 99.6442L113.445 102.289Z" fill="black"/>
<path d="M110.28 100.16L112.926 99.6426L112.409 96.9978L109.763 97.5152L110.28 100.16Z" fill="black"/>
<path d="M108.152 103.322L110.799 102.805L110.281 100.16L107.635 100.677L108.152 103.322Z" fill="black"/>
<path d="M105.506 103.84L108.153 103.322L107.635 100.677L104.989 101.195L105.506 103.84Z" fill="black"/>
<path d="M104.989 101.195L107.635 100.678L107.118 98.033L104.472 98.5504L104.989 101.195Z" fill="black"/>
<path d="M104.471 98.5507L107.117 98.0332L106.599 95.3884L103.953 95.9059L104.471 98.5507Z" fill="black"/>
<path d="M104.002 96.1581L106.649 95.6406L106.131 92.9959L103.485 93.5133L104.002 96.1581Z" fill="black"/>
<path d="M100.839 94.0311L103.485 93.5137L102.968 90.8689L100.322 91.3863L100.839 94.0311Z" fill="black"/>
<path d="M112.409 96.9979L115.055 96.4805L114.538 93.8357L111.891 94.3531L112.409 96.9979Z" fill="black"/>
<path d="M111.917 94.4784L114.563 93.9609L114.045 91.3162L111.399 91.8336L111.917 94.4784Z" fill="black"/>
<path d="M109.27 94.9979L111.916 94.4805L111.398 91.8357L108.752 92.3531L109.27 94.9979Z" fill="black"/>
<path d="M118.737 101.254L121.383 100.736L120.865 98.0916L118.219 98.609L118.737 101.254Z" fill="black"/>
<path d="M115.573 99.1268L118.219 98.6094L117.701 95.9646L115.055 96.482L115.573 99.1268Z" fill="black"/>
<path d="M120.866 98.0917L123.512 97.5742L122.994 94.9294L120.348 95.4469L120.866 98.0917Z" fill="black"/>
<path d="M116.091 101.771L118.737 101.254L118.219 98.6091L115.573 99.1266L116.091 101.771Z" fill="black"/>
<path d="M112.148 67.0374L111.63 64.3926L108.984 64.91L109.502 67.5548L112.148 67.0374Z" fill="black"/>
<path d="M110.107 70.1858L109.589 67.541L106.943 68.0585L107.461 70.7032L110.107 70.1858Z" fill="black"/>
<path d="M110.624 72.8303L110.106 70.1855L107.46 70.703L107.977 73.3478L110.624 72.8303Z" fill="black"/>
<path d="M118.955 73.9475L118.437 71.3027L115.791 71.8202L116.309 74.465L118.955 73.9475Z" fill="black"/>
<path d="M116.308 74.467L115.791 71.8223L113.145 72.3397L113.662 74.9845L116.308 74.467Z" fill="black"/>
<path d="M119.974 79.5042L119.456 76.8594L116.81 77.3768L117.328 80.0216L119.974 79.5042Z" fill="black"/>
<path d="M120.479 82.0823L119.961 79.4375L117.315 79.9549L117.832 82.5997L120.479 82.0823Z" fill="black"/>
<path d="M117.833 82.5998L117.315 79.9551L114.669 80.4725L115.187 83.1173L117.833 82.5998Z" fill="black"/>
<path d="M115.186 83.1174L114.669 80.4727L112.023 80.9901L112.54 83.6349L115.186 83.1174Z" fill="black"/>
<path d="M112.541 83.635L112.023 80.9902L109.377 81.5077L109.895 84.1525L112.541 83.635Z" fill="black"/>
<path d="M113.058 86.2795L112.54 83.6348L109.894 84.1522L110.412 86.797L113.058 86.2795Z" fill="black"/>
<path d="M110.412 86.7971L109.894 84.1523L107.248 84.6698L107.766 87.3146L110.412 86.7971Z" fill="black"/>
<path d="M110.88 89.1897L110.363 86.5449L107.717 87.0624L108.234 89.7071L110.88 89.1897Z" fill="black"/>
<path d="M111.398 91.8342L110.88 89.1895L108.234 89.7069L108.752 92.3517L111.398 91.8342Z" fill="black"/>
<path d="M102.343 101.715L102.861 104.359L105.507 103.842L104.989 101.197L102.343 101.715Z" fill="black"/>
<path d="M107.635 100.679L108.152 103.324L110.799 102.807L110.281 100.162L107.635 100.679Z" fill="black"/>
<path d="M99.1788 99.5857L99.6965 102.23L102.343 101.713L101.825 99.0683L99.1788 99.5857Z" fill="black"/>
<path d="M98.6212 96.949L99.1389 99.5938L101.785 99.0763L101.267 96.4315L98.6212 96.949Z" fill="black"/>
<path d="M101.18 96.447L101.697 99.0918L104.343 98.5744L103.826 95.9296L101.18 96.447Z" fill="black"/>
<path d="M103.828 95.9314L104.345 98.5762L106.991 98.0587L106.474 95.4139L103.828 95.9314Z" fill="black"/>
<path d="M98.1919 94.5486L98.7096 97.1934L101.356 96.6759L100.838 94.0311L98.1919 94.5486Z" fill="black"/>
<path d="M94.0852 100.588L94.6029 103.232L97.249 102.715L96.7313 100.07L94.0852 100.588Z" fill="black"/>
<path d="M94.5101 89.7771L95.0278 92.4219L97.6739 91.9044L97.1562 89.2597L94.5101 89.7771Z" fill="black"/>
<path d="M95.5467 95.0662L96.0645 97.7109L98.7106 97.1935L98.1929 94.5487L95.5467 95.0662Z" fill="black"/>
<path d="M92.5807 92.9001L93.0984 95.5449L95.7445 95.0275L95.2268 92.3827L92.5807 92.9001Z" fill="black"/>
<path d="M96.5325 100.103L97.0502 102.748L99.6963 102.231L99.1786 99.5858L96.5325 100.103Z" fill="black"/>
<path d="M93.0985 95.5447L93.6162 98.1895L96.2623 97.672L95.7446 95.0272L93.0985 95.5447Z" fill="black"/>
<path d="M92.0631 90.2556L92.5808 92.9004L95.2269 92.3829L94.7092 89.7382L92.0631 90.2556Z" fill="black"/>
<path d="M93.9935 87.1306L94.5112 89.7754L97.1573 89.2579L96.6396 86.6132L93.9935 87.1306Z" fill="black"/>
<path d="M96.6387 86.613L97.1564 89.2578L99.8025 88.7404L99.2848 86.0956L96.6387 86.613Z" fill="black"/>
<path d="M99.2853 86.0955L99.803 88.7402L102.449 88.2228L101.931 85.578L99.2853 86.0955Z" fill="black"/>
<path d="M108.777 92.4768L108.26 89.832L105.614 90.3495L106.131 92.9942L108.777 92.4768Z" fill="black"/>
<path d="M122.403 105.939L125.049 105.422L124.531 102.777L121.885 103.295L122.403 105.939Z" fill="black"/>
<path d="M120.783 111.707L123.429 111.189L122.911 108.545L120.265 109.062L120.783 111.707Z" fill="black"/>
<path d="M117.62 109.58L120.266 109.062L119.748 106.418L117.102 106.935L117.62 109.58Z" fill="black"/>
<path d="M115.492 112.74L118.138 112.223L117.62 109.578L114.974 110.095L115.492 112.74Z" fill="black"/>
<path d="M112.844 113.258L115.491 112.74L114.973 110.095L112.327 110.613L112.844 113.258Z" fill="black"/>
<path d="M112.327 110.615L114.974 110.098L114.456 107.453L111.81 107.97L112.327 110.615Z" fill="black"/>
<path d="M111.809 107.971L114.455 107.453L113.938 104.808L111.292 105.326L111.809 107.971Z" fill="black"/>
<path d="M119.747 106.416L122.394 105.898L121.876 103.254L119.23 103.771L119.747 106.416Z" fill="black"/>
<path d="M119.255 103.898L121.901 103.381L121.383 100.736L118.737 101.254L119.255 103.898Z" fill="black"/>
<path d="M116.608 104.416L119.254 103.898L118.736 101.254L116.09 101.771L116.608 104.416Z" fill="black"/>
<path d="M122.912 108.543L125.558 108.025L125.04 105.381L122.394 105.898L122.912 108.543Z" fill="black"/>
<path d="M123.43 111.189L126.076 110.672L125.558 108.027L122.912 108.545L123.43 111.189Z" fill="black"/>
<path d="M118.736 101.252L118.218 98.6074L115.572 99.1249L116.09 101.77L118.736 101.252Z" fill="black"/>
<path d="M109.681 111.133L110.198 113.777L112.845 113.26L112.327 110.615L109.681 111.133Z" fill="black"/>
<path d="M112.327 110.615L112.845 113.26L115.491 112.742L114.973 110.098L112.327 110.615Z" fill="black"/>
<path d="M114.973 110.097L115.49 112.742L118.136 112.225L117.619 109.58L114.973 110.097Z" fill="black"/>
<path d="M106.478 109.017L106.995 111.662L109.641 111.145L109.124 108.5L106.478 109.017Z" fill="black"/>
<path d="M104.389 112.166L104.907 114.811L107.553 114.293L107.035 111.648L104.389 112.166Z" fill="black"/>
<path d="M101.225 110.039L101.743 112.684L104.389 112.166L103.871 109.521L101.225 110.039Z" fill="black"/>
<path d="M99.0961 113.201L99.6138 115.846L102.26 115.328L101.742 112.683L99.0961 113.201Z" fill="black"/>
<path d="M96.6478 113.679L97.1655 116.324L99.8116 115.807L99.2939 113.162L96.6478 113.679Z" fill="black"/>
<path d="M96.1315 111.035L96.6492 113.68L99.2953 113.162L98.7776 110.517L96.1315 111.035Z" fill="black"/>
<path d="M95.6124 108.39L96.1301 111.035L98.7762 110.518L98.2585 107.873L95.6124 108.39Z" fill="black"/>
<path d="M98.0607 107.912L98.5784 110.557L101.224 110.039L100.707 107.394L98.0607 107.912Z" fill="black"/>
<path d="M94.6018 103.226L95.1195 105.871L97.7656 105.354L97.2479 102.709L94.6018 103.226Z" fill="black"/>
<path d="M97.5431 105.267L98.0608 107.912L100.707 107.395L100.189 104.75L97.5431 105.267Z" fill="black"/>
<path d="M98.5785 110.556L99.0962 113.201L101.742 112.684L101.225 110.039L98.5785 110.556Z" fill="black"/>
<path d="M105.959 106.367L106.477 109.012L109.123 108.494L108.605 105.85L105.959 106.367Z" fill="black"/>
<path d="M102.859 104.357L103.377 107.002L106.023 106.485L105.506 103.84L102.859 104.357Z" fill="black"/>
<path d="M108.52 105.867L109.037 108.512L111.684 107.994L111.166 105.35L108.52 105.867Z" fill="black"/>
<path d="M111.683 107.994L112.201 110.639L114.847 110.121L114.329 107.476L111.683 107.994Z" fill="black"/>
<path d="M111.165 105.349L111.683 107.994L114.329 107.477L113.811 104.832L111.165 105.349Z" fill="black"/>
<path d="M116.114 101.897L115.597 99.252L112.951 99.7694L113.468 102.414L116.114 101.897Z" fill="black"/>
<path d="M108.258 89.8342L107.741 87.1895L105.095 87.7069L105.612 90.3517L108.258 89.8342Z" fill="black"/>
<path d="M105.613 90.3498L105.095 87.7051L102.449 88.2225L102.967 90.8673L105.613 90.3498Z" fill="black"/>
<path d="M109.588 67.5374L109.07 64.8926L106.424 65.41L106.941 68.0548L109.588 67.5374Z" fill="black"/>
<path d="M111.659 78.1213L111.142 75.4766L108.496 75.994L109.013 78.6388L111.659 78.1213Z" fill="black"/>
<path d="M117.919 68.6585L117.401 66.0137L114.755 66.5311L115.273 69.1759L117.919 68.6585Z" fill="black"/>
<path d="M115.79 71.8206L115.273 69.1758L112.626 69.6932L113.144 72.338L115.79 71.8206Z" fill="black"/>
<path d="M114.754 66.5295L114.237 63.8848L111.591 64.4022L112.108 67.047L114.754 66.5295Z" fill="black"/>
<path d="M145.015 79.8987L86.547 91.332L87.0779 94.0441L145.546 82.6108L145.015 79.8987Z" fill="url(#paint0_linear_287_2875)"/>
<path d="M90.5029 60.9629L91.0344 63.6756L82.5537 65.333L84.2132 73.8093L81.4991 74.3393L79.3094 63.1515L90.5029 60.9629Z" fill="black"/>
<path d="M143.283 62.2581L140.569 62.7881L138.91 54.313L130.43 55.9716L129.9 53.2589L141.093 51.0703L143.283 62.2581Z" fill="black"/>
<path d="M141.987 115.01L141.456 112.298L149.936 110.639L148.276 102.164L150.99 101.633L153.18 112.821L141.987 115.01Z" fill="black"/>
<path d="M89.2068 113.717L91.9208 113.186L93.5803 121.662L102.06 120.003L102.591 122.716L91.3977 124.905L89.2068 113.717Z" fill="black"/>
<path d="M110.717 176.71C108.586 177.133 106.452 177.546 104.324 177.961C104.238 177.977 104.151 177.994 104.065 178.01L103.466 178.129C103.449 178.132 103.433 178.136 103.416 178.139C103.41 178.139 103.404 178.142 103.4 178.143C103.4 178.143 103.396 178.143 103.395 178.143C103.336 178.156 103.275 178.168 103.211 178.177L102.97 178.225C102.543 178.304 102.331 178.337 102.004 178.376C100.81 178.499 99.7115 178.479 98.5527 178.317C97.762 178.204 97.0471 177.993 96.2955 177.757C96.2316 177.737 96.1784 177.717 96.1192 177.693C95.4481 177.45 94.7876 177.142 94.1698 176.803C94.0277 176.726 93.849 176.619 93.7614 176.565C93.675 176.516 93.6809 176.52 93.6442 176.495C93.0631 176.127 92.534 175.741 92.0097 175.302C92.0333 175.196 92.0617 175.093 92.0878 174.987C92.1044 174.911 92.1221 174.836 92.1363 174.762C92.1422 174.732 92.1493 174.703 92.1541 174.672C92.1541 174.667 92.1517 174.661 92.1541 174.651C92.1564 174.634 92.16 174.597 92.1612 174.577C92.3399 173.394 92.5091 172.207 92.6595 171.018V171.012C92.7115 170.594 92.7636 170.176 92.8074 169.76C92.8488 169.423 92.8843 169.089 92.9199 168.753V168.751C92.9873 168.101 93.0477 167.454 93.101 166.806C93.1518 166.193 93.1968 165.58 93.2371 164.966C93.243 164.933 93.2418 164.9 93.2454 164.866C93.3306 163.29 93.3755 161.731 93.3661 160.144C93.3637 159.827 93.3566 159.507 93.3495 159.164C93.3448 158.973 93.3353 158.783 93.3258 158.594C93.2312 156.29 93.0205 153.982 92.6796 151.688C92.6737 151.661 92.6737 151.629 92.6654 151.59C91.9706 147.617 90.9219 143.829 89.5016 140.04C89.3785 139.714 89.2163 139.335 89.079 139.002L89.0435 138.909C88.5038 137.688 87.8871 136.606 87.3864 135.306C87.3841 135.295 87.377 135.28 87.3734 135.264C87.3675 135.253 87.3592 135.24 87.3533 135.219V135.216C87.351 135.206 87.3474 135.199 87.3415 135.186C87.3415 135.183 87.3391 135.178 87.3391 135.178C87.3237 135.154 87.3119 135.124 87.2989 135.082C87.061 134.455 86.1271 132.732 85.6004 131.928C85.5767 131.894 85.5495 131.835 85.5092 131.771C85.1009 131.075 84.6783 130.381 84.2463 129.69C84.109 129.47 83.9717 129.251 83.8332 129.032C83.3776 128.314 82.9124 127.602 82.4484 126.895C82.4318 126.87 82.4153 126.835 82.3928 126.806C82.0448 126.277 81.6956 125.747 81.3429 125.219V125.217C81.3429 125.217 81.3394 125.215 81.3394 125.212C80.7452 124.323 80.151 123.435 79.5485 122.554C79.532 122.524 79.5154 122.495 79.4941 122.472C78.6123 121.169 77.7246 119.87 76.831 118.576C76.7008 118.387 76.5718 118.199 76.4416 118.012C75.7633 117.023 75.0792 116.041 74.3974 115.056C74.3714 115.026 74.3572 114.991 74.3383 114.97C73.5062 113.778 72.6788 112.598 71.8444 111.409C71.8385 111.399 71.8314 111.39 71.8278 111.379C71.8207 111.37 71.8136 111.363 71.8065 111.357C71.7639 111.294 71.7225 111.234 71.6775 111.171C71.6704 111.162 71.6621 111.149 71.655 111.139C71.5745 111.021 71.4905 110.904 71.4112 110.788C71.4041 110.778 71.397 110.774 71.3958 110.769C71.2869 110.577 71.1768 110.538 71.0691 110.249C70.7981 108.503 70.6075 103.836 70.6158 102.736C70.6134 102.582 70.6182 102.468 70.6193 102.386C70.6193 102.363 70.6158 102.342 70.6193 102.326V102.321C70.6193 102.321 70.6193 102.31 70.6193 102.307V102.304C70.6193 102.282 70.6193 102.268 70.6217 102.249C70.6193 102.238 70.6217 102.226 70.6217 102.217C70.6241 102.2 70.6217 102.19 70.6217 102.19C70.6572 100.873 70.6975 100.031 70.7531 98.9421C70.7531 98.9279 70.7531 98.9149 70.7555 98.9007C70.7933 98.2134 70.8359 97.4255 70.8892 96.3561C70.8987 96.1538 70.9389 94.6561 70.9815 93.0803V93.0779C70.9815 93.0779 70.9815 93.0779 70.9815 93.0744C71.0076 92.1315 71.0301 91.1614 71.0454 90.4256C71.0537 89.9938 71.0596 89.646 71.062 89.4295C71.062 89.4259 71.0679 89.3206 71.0691 89.2993C71.0691 89.2922 71.0691 89.2118 71.0691 89.1266C71.0715 89.0355 71.0738 88.935 71.075 88.9089C71.075 88.8604 71.075 88.832 71.0774 88.8048C71.0774 88.6924 71.0774 88.5742 71.0833 88.4618C71.081 88.4215 71.0833 88.3801 71.0833 88.3387C71.0833 88.3304 71.0869 88.3234 71.0881 88.3151C71.0881 88.3103 71.0881 88.3044 71.0857 88.2938C71.1484 85.5929 71.2017 82.872 71.1768 80.1889C71.1733 80.0907 71.2123 80.0884 71.223 80.0327C71.2289 79.9771 71.236 79.9866 71.2455 79.9523C71.2549 79.9204 71.262 79.8861 71.2691 79.8517C71.2727 79.8482 71.2715 79.8458 71.2739 79.8423C71.5461 78.8675 71.7343 77.8879 71.8846 76.8977C71.8846 76.8954 71.887 76.8918 71.8846 76.8895V76.8871C71.9651 76.3595 72.0338 75.8318 72.0941 75.3007C72.0965 75.2699 72.0989 75.2403 72.1012 75.1989C72.1273 74.9635 72.1391 74.7316 72.1604 74.5033C72.1604 74.4974 72.1604 74.495 72.1628 74.4891C72.1628 74.4844 72.1604 74.4785 72.1628 74.4726C72.274 73.1085 72.332 71.7623 72.3474 70.4077L72.3451 70.3971C72.3451 70.3971 72.3498 70.3911 72.3486 70.3852V70.3474C72.3545 69.8611 72.3545 69.3773 72.3486 68.8911C72.338 68.0393 72.3095 67.1852 72.2634 66.3192C72.2385 65.8294 72.1936 65.3231 72.1486 64.8073L72.145 64.7895C72.0527 63.8443 71.9284 62.8731 71.7947 61.9645L71.7746 61.8639C71.745 61.6948 71.7118 61.5268 71.6787 61.3576L71.6704 61.3127C71.5082 60.4301 71.2999 59.5298 71.0525 58.6426C71.0454 58.6201 71.0372 58.5964 71.0301 58.5716C71.0218 58.5432 71.0135 58.5136 71.0052 58.4852C70.5933 57.0337 70.0808 55.6105 69.5008 54.3411C69.4949 54.3316 69.4914 54.321 69.4866 54.3115C69.4783 54.2962 69.476 54.2855 69.4677 54.2713L69.4618 54.2666C69.3458 54.0099 69.199 53.7366 69.0451 53.4645C69.0037 53.3911 68.9623 53.319 68.9185 53.2492C68.9126 53.2397 68.9078 53.2314 68.9019 53.222C68.8617 53.151 68.8226 53.08 68.7836 53.0126C68.7836 53.009 68.7812 53.0067 68.7788 53.0043C68.7694 52.9818 68.7563 52.9593 68.7433 52.9381C68.7208 52.9002 68.6983 52.8623 68.6735 52.8257C68.6676 52.8162 68.6616 52.8067 68.6569 52.7985C68.6155 52.7287 68.5729 52.66 68.5303 52.5938C68.5149 52.5701 68.5007 52.5453 68.4853 52.5228C68.4817 52.5193 68.4794 52.5157 68.477 52.511C68.4746 52.5074 68.4723 52.5051 68.4711 52.5003C68.4569 52.4755 68.4427 52.4542 68.4297 52.4317C68.303 52.2294 68.1941 52.065 68.129 51.955C68.103 51.9112 68.0805 51.8769 68.0592 51.8532C68.0592 51.8485 68.0521 51.8438 68.0509 51.8378C68.045 51.8331 68.0438 51.8284 68.0426 51.8225L68.0367 51.8177C67.7929 51.4664 67.5585 51.1458 67.317 50.8394C67.0945 50.5531 66.8649 50.2798 66.6258 50.0042V50.0018C66.6258 50.0018 66.6223 49.9994 66.6211 49.9971C66.5169 49.8811 66.4128 49.7616 66.3051 49.6433C66.2778 49.6161 66.2565 49.5866 66.2293 49.5641C65.8494 49.1619 65.4588 48.7857 65.0469 48.4166C65.0327 48.4035 65.0196 48.3846 64.9995 48.3716C64.7474 48.174 64.5166 47.9185 64.2479 47.7493C63.7792 47.4453 63.3022 47.1803 62.8169 46.9603C62.7151 46.9118 62.6145 46.8692 62.5116 46.8266C60.4757 45.9606 58.305 45.7926 56.036 46.3013L56.0253 46.3037C56.0088 46.3096 55.9023 46.3439 55.8809 46.351C55.8762 46.3605 55.8715 46.3616 55.8656 46.3616C55.8525 46.364 55.8395 46.3581 55.8383 46.3723C55.8064 48.1255 55.7425 49.8811 55.6454 51.6391C55.6454 51.6722 55.6454 51.6982 55.6419 51.7302C55.4418 54.9303 55.1447 58.1149 54.7648 61.2996V61.3044C54.7612 61.3162 54.7612 61.3197 54.7565 61.3328C54.7565 61.3375 54.7565 61.3434 54.7565 61.3481V61.3505C54.7565 61.3505 54.7518 61.3552 54.7518 61.3564L54.7494 61.36V61.3635L54.753 61.3718V61.3742C54.753 61.3872 54.7494 61.4014 54.747 61.4108C54.747 61.4108 54.747 61.4132 54.747 61.4144V61.4227C54.747 61.4227 54.747 61.4227 54.747 61.425V61.4298C54.747 61.4298 54.7447 61.4298 54.747 61.4345C54.747 61.4345 54.7478 61.4369 54.7494 61.4416C54.7494 61.4416 54.7494 61.4451 54.747 61.4475V61.4499V61.4534C54.747 61.4534 54.747 61.4534 54.7447 61.4558C54.7447 61.4558 54.7447 61.4593 54.7423 61.4605V61.4629C54.7423 61.4629 54.7423 61.4653 54.7399 61.4664C54.7399 61.4664 54.7399 61.4688 54.7399 61.47C54.7399 61.4735 54.7399 61.4759 54.7376 61.4783C54.7352 61.4842 54.734 61.4925 54.7328 61.5007C54.7328 61.5067 54.7352 61.5114 54.7328 61.5173C54.7328 61.5232 54.7328 61.5303 54.7328 61.5362C54.7328 61.5469 54.7305 61.5599 54.7281 61.5729C54.7246 61.5978 54.7222 61.6238 54.7175 61.6498C54.7175 61.6545 54.7174 61.6593 54.7151 61.664C54.7151 61.6747 54.7127 61.6841 54.7104 61.6936C54.7104 61.7042 54.708 61.7137 54.7068 61.722C54.7021 61.7586 54.6973 61.7977 54.6914 61.8367C54.6867 61.8746 54.6808 61.9136 54.6748 61.9527C54.6654 62.0307 54.6571 62.1124 54.6453 62.1916C54.6334 62.2863 54.6216 62.3797 54.6086 62.4685C54.6086 62.472 54.6086 62.4756 54.6086 62.4803C54.6086 62.4803 54.6086 62.4811 54.6086 62.4827C54.6086 62.4827 54.6086 62.4886 54.6062 62.4921C54.6062 62.4921 54.6062 62.4929 54.6062 62.4945C54.6062 62.4945 54.6062 62.5004 54.6062 62.5028C54.6062 62.5028 54.6062 62.5036 54.6062 62.5051H54.6038V62.5075V62.511C54.6062 62.5217 54.6015 62.5276 54.6038 62.5335C54.5873 62.6672 54.5802 62.6909 54.5553 62.8707V62.8766C54.5517 62.8955 54.5494 62.9133 54.547 62.9357C54.5446 62.9665 54.5375 63.0008 54.5328 63.0351C54.5281 63.0683 54.5245 63.1026 54.5198 63.1369C54.5139 63.1641 54.5091 63.196 54.5068 63.2244C54.5032 63.2386 54.5009 63.2516 54.4985 63.267C54.4985 63.2776 54.4985 63.2883 54.4961 63.3001C54.4902 63.3273 54.4902 63.3557 54.4855 63.3841C54.4855 63.3912 54.4831 63.3971 54.4819 63.403C54.4819 63.4101 54.4795 63.4172 54.4795 63.4232C54.476 63.4373 54.4748 63.448 54.4736 63.4622C54.4689 63.4953 54.4653 63.5296 54.4606 63.5639C54.4547 63.5947 54.4547 63.6243 54.45 63.6538C54.45 63.6586 54.4464 63.6645 54.444 63.6763C54.4405 63.6858 54.444 63.6988 54.4393 63.7106C54.4369 63.7272 54.4334 63.7378 54.4286 63.7674C54.4286 63.7899 54.4215 63.8396 54.4144 63.8668C54.4109 63.9035 54.4038 63.9472 54.3979 63.9768C54.3955 64.0206 54.3884 64.0715 54.3778 64.1282C54.373 64.1625 54.3671 64.1969 54.3624 64.2323C54.3576 64.2655 54.3517 64.3021 54.3482 64.3412C54.3387 64.4062 54.3304 64.4737 54.3198 64.5328C54.3198 64.5376 54.3198 64.547 54.3174 64.5494C54.3174 64.5541 54.3174 64.5577 54.315 64.5636C54.3115 64.579 54.3091 64.5872 54.3103 64.5979C54.2878 64.7659 54.2535 64.954 54.2393 65.0711V65.077L54.2416 65.0817H54.2357V65.0877V65.0924C54.2357 65.0971 54.2357 65.0983 54.2357 65.0983H54.2334C54.231 65.1208 54.2227 65.1598 54.2132 65.2225L54.2097 65.2332C54.2097 65.2332 54.2073 65.2497 54.2097 65.2604C54.2097 65.2604 54.2049 65.2663 54.2061 65.2722C54.2085 65.2829 54.2061 65.2947 54.2014 65.3065C54.2014 65.3113 54.1967 65.3124 54.1978 65.3172C54.1978 65.3195 54.1978 65.3219 54.1978 65.3231C54.1978 65.3231 54.1978 65.3266 54.1978 65.3278L54.1931 65.3337V65.3385C54.1896 65.3444 54.1907 65.3503 54.1931 65.355C54.1955 65.3598 54.1896 65.3669 54.1907 65.3716C54.1907 65.3763 54.1872 65.3834 54.1884 65.3881L54.1848 65.3988C54.1813 65.4106 54.1848 65.4213 54.1801 65.4331C54.1754 65.439 54.1765 65.4449 54.1777 65.4497C54.1742 65.4615 54.1754 65.4662 54.173 65.4769C54.173 65.4816 54.1754 65.4875 54.1694 65.4887C54.1659 65.5005 54.1647 65.523 54.1635 65.5396C54.1481 65.6354 54.128 65.7537 54.1067 65.8957C54.1032 65.9335 54.0961 65.9797 54.0878 66.0246C54.0783 66.0861 54.0688 66.1488 54.0558 66.2234C54.0168 66.4659 53.9682 66.7818 53.9079 67.1402C53.8806 67.3094 53.8499 67.4904 53.8203 67.6773C53.7741 67.9163 53.7315 68.1753 53.6936 68.4403C53.593 69.0295 53.4936 69.6127 53.3883 70.1936C53.3078 70.6739 53.2261 71.1542 53.1361 71.6369C53.0746 71.961 53.019 72.2946 52.9586 72.6282C52.8698 73.1263 52.7763 73.6243 52.6864 74.1177C52.3845 75.7088 52.0815 77.2799 51.762 78.8627C51.7537 78.903 51.7466 78.9396 51.7383 78.9763C51.73 79.0165 51.7205 79.0544 51.7134 79.0899C51.7111 79.1064 51.7075 79.1183 51.704 79.1277C51.7004 79.1384 51.6909 79.1739 51.6874 79.2094C51.6874 79.2342 51.6803 79.2567 51.6756 79.2886C51.6756 79.2886 51.6744 79.2926 51.672 79.3005C51.285 81.1282 50.905 82.9513 50.4848 84.8121C49.8587 87.584 49.1829 90.4208 48.4916 93.195C48.4822 93.2305 48.4715 93.2601 48.4668 93.2932C47.8016 95.9041 47.1139 98.5032 46.3848 101.094C46.2948 101.423 46.2072 101.731 46.1102 102.066C46.0167 102.402 45.9362 102.663 45.8332 103.045C45.7208 103.423 45.5302 104.068 45.4225 104.441C45.3101 104.813 45.2355 105.075 45.1337 105.4C45.0343 105.731 44.9455 106.027 44.8473 106.338C44.7526 106.661 44.6567 106.956 44.5608 107.277C44.5537 107.294 44.5455 107.312 44.5407 107.34C44.5301 107.37 44.5206 107.404 44.5111 107.44C44.4306 107.696 44.3525 107.941 44.2697 108.197C44.1892 108.46 44.0637 108.862 43.9856 109.09C43.911 109.323 43.9039 109.359 43.8317 109.567C43.7678 109.77 43.685 110.016 43.621 110.232C43.4731 110.677 43.324 111.121 43.176 111.565C43.1038 111.783 43.0316 112.004 42.9547 112.222C42.9499 112.227 42.9511 112.233 42.9476 112.239C42.944 112.251 42.9357 112.264 42.9369 112.269L42.9322 112.275C42.9322 112.275 42.9274 112.279 42.9286 112.285H42.9334L42.9286 112.29C42.9239 112.296 42.9251 112.3 42.9263 112.307C42.9097 112.414 42.8908 112.516 42.8612 112.618C42.8126 112.818 42.7487 113.018 42.6647 113.208C42.6375 113.296 42.5996 113.38 42.5676 113.468C42.4729 113.722 42.364 113.968 42.2836 114.143C42.2232 114.301 42.1664 114.478 42.1131 114.624C42.093 114.677 42.0835 114.724 42.0634 114.759C41.9995 114.935 41.9616 115.048 41.9107 115.183C41.8634 115.306 41.8196 115.442 41.7675 115.572C41.7142 115.703 41.6704 115.829 41.6243 115.961C41.5911 116.044 41.5639 116.124 41.5343 116.201C41.5059 116.28 41.4763 116.356 41.4479 116.432C41.3686 116.644 41.2976 116.838 41.2171 117.046C41.2136 117.058 41.21 117.064 41.2065 117.075C41.2065 117.075 41.2065 117.08 41.2017 117.08C41.1721 117.151 41.1473 117.223 41.1224 117.293C41.1189 117.305 41.1165 117.316 41.107 117.329C41.0266 117.531 40.9496 117.726 40.8762 117.915C40.8727 117.927 40.8739 117.932 40.8703 117.943C40.3602 119.223 39.8512 120.465 39.3068 121.712C39.3032 121.72 39.2997 121.727 39.2997 121.727C39.2937 121.731 39.2902 121.737 39.2855 121.744C39.2831 121.747 39.2807 121.748 39.2819 121.753C39.2795 121.755 39.2795 121.758 39.2772 121.761C39.2748 121.776 39.2724 121.787 39.2618 121.795C39.2618 121.795 39.261 121.796 39.2594 121.8C39.2594 121.8 39.2571 121.804 39.2594 121.806C39.2547 121.81 39.2571 121.823 39.2523 121.826C39.1186 122.123 38.9978 122.397 38.8676 122.681C38.812 122.793 38.7765 122.888 38.7232 123.002C38.67 123.122 38.6475 123.202 38.5812 123.341C38.5575 123.389 38.5197 123.474 38.483 123.569C38.4581 123.628 38.4309 123.693 38.4131 123.752C38.3788 123.846 38.3504 123.923 38.3504 123.967C38.3504 123.967 38.3488 123.97 38.3457 123.978L38.3421 123.99H38.348L38.3445 124.001C38.3445 124.007 38.3445 124.011 38.3445 124.011C38.3386 124.073 38.3232 124.125 38.3066 124.178C38.2912 124.224 38.2735 124.272 38.2545 124.313C38.2498 124.337 38.238 124.36 38.232 124.383C38.2155 124.424 38.2036 124.456 38.1871 124.501C38.1385 124.663 38.0817 124.859 38.0486 125.01C38.0367 125.048 38.0237 125.083 38.0166 125.114C38.0131 125.126 38.0107 125.138 38.0072 125.15C38.0012 125.173 37.9965 125.192 37.9906 125.21C37.9858 125.229 37.9823 125.249 37.9776 125.269C37.9716 125.297 37.9669 125.326 37.9574 125.36C37.929 125.491 37.9089 125.564 37.8793 125.717C37.8485 125.865 37.8059 126.065 37.7728 126.237C37.7456 126.406 37.7113 126.588 37.6852 126.768C37.3763 129.188 37.4295 131.583 37.6734 134.007C37.7243 134.488 37.7823 134.922 37.8391 135.393C37.8391 135.426 37.845 135.463 37.8474 135.49C38.2415 138.752 38.6877 142.005 39.1458 145.254C39.2926 146.316 39.4476 147.386 39.6015 148.447C39.6086 148.485 39.6074 148.508 39.6145 148.538C40.2241 152.885 40.6975 157.207 40.9911 161.583C40.9911 161.61 40.997 161.636 40.9982 161.674C41.1082 163.663 41.2017 165.539 41.2597 167.567C41.2905 168.55 41.2597 169.7 41.1544 170.73C41.0041 172.203 40.7022 173.681 40.3046 175.117C40.2951 175.151 40.2797 175.187 40.2702 175.222C40.1945 175.476 40.1175 175.727 40.03 175.979C39.8631 176.482 39.6713 176.974 39.4748 177.463C39.4038 177.629 39.3364 177.79 39.2642 177.952C39.1931 178.115 39.1198 178.277 39.0464 178.433C38.9683 178.596 38.8949 178.752 38.8167 178.91C38.4972 179.541 38.1575 180.16 37.7917 180.76C37.6935 180.915 37.6059 181.058 37.5053 181.209C36.9999 181.97 36.5442 182.634 35.9204 183.374C34.7191 184.787 32.6418 187.133 31.605 188.32C31.4393 188.51 28.1784 192.176 22.8545 198.161C23.1149 198.498 23.3777 198.835 23.6416 199.17C24.1115 199.765 24.5873 200.354 25.0702 200.939C25.2004 201.097 25.3306 201.254 25.4608 201.412C26.2325 202.337 27.0185 203.248 27.8186 204.146C28.0328 204.387 28.2494 204.626 28.466 204.866C41.171 218.875 57.4433 229.595 75.8462 235.596C75.8734 235.605 75.9006 235.613 75.9267 235.622C75.9539 235.632 75.9799 235.64 76.0072 235.65C77.6985 236.198 79.4089 236.706 81.1346 237.176C81.769 237.347 82.4046 237.513 83.0449 237.674C83.2 237.714 83.355 237.753 83.5113 237.79C83.6143 237.817 83.7172 237.84 83.8202 237.866C86.2218 238.451 88.6529 238.958 91.1125 239.382C92.2227 239.574 93.3389 239.75 94.4621 239.908C95.7546 240.092 97.0554 240.251 98.3621 240.387C100.082 237.131 101.14 235.123 101.25 234.903C101.975 233.434 101.922 233.499 102.23 232.919C102.979 231.477 103.432 230.936 104.254 229.769C104.275 229.743 104.28 229.737 104.303 229.71C104.33 229.678 104.31 229.692 104.323 229.673C105.673 228.112 106.152 227.429 107.973 225.898C110.008 224.187 113.098 221.742 115.426 219.818C115.676 219.61 116.139 219.23 116.509 218.917C117.928 217.737 119.416 216.479 120.866 215.228C120.866 215.228 120.868 215.226 120.871 215.222C120.871 215.222 120.875 215.22 120.876 215.22C120.876 215.218 120.878 215.216 120.88 215.215C121.555 214.634 122.271 214.001 122.975 213.378C123.299 213.095 123.615 212.812 123.922 212.537C123.964 212.499 124.016 212.453 124.062 212.411C124.873 211.677 125.757 210.879 126.548 210.139C129.606 207.252 132.554 204.296 135.263 201.118C136.028 200.224 136.637 199.384 137.321 198.448C137.842 197.729 138.352 196.951 138.85 196.197C138.877 196.164 138.897 196.127 138.922 196.089C141.015 192.801 142.904 189.513 144.871 186.095C145.591 184.852 146.426 183.403 147.186 182.114C147.39 181.768 147.627 181.371 147.835 181.014C147.86 180.982 147.872 180.957 147.904 180.902C147.937 180.845 147.989 180.759 148.036 180.679C150.742 176.209 153.612 171.867 156.791 167.722C156.796 167.715 156.803 167.708 156.807 167.702C141.455 170.692 126.054 173.716 110.707 176.704L110.717 176.71Z" fill="#FCD8C7"/>
<path d="M89.9998 176.986C90.9444 172.638 92.5624 167.874 92.5517 162.356C92.5399 156.287 92.2156 148.084 89.9904 141.772C88.9038 138.691 87.2243 135.275 85.5932 132.587C84.2984 130.454 82.0329 127.705 81.0245 126.017C78.7342 122.183 73.0931 114.158 69.6511 113.64C67.7384 113.353 67.8721 114.209 67.4981 114.168C66.5631 114.064 65.1664 114.258 65.3936 114.114C65.7724 113.878 66.7288 113.736 67.336 113.289C67.781 112.961 68.4663 112.358 68.9374 111.851C69.4073 111.345 69.8227 110.698 69.9162 109.972C69.8073 108.108 69.7766 106.479 69.7411 104.565C69.6961 102.126 69.792 99.3847 69.9044 96.9157C70.1281 92.0157 70.3885 87.2138 70.3849 82.3137C70.0393 82.3965 67.5975 80.8089 68.0544 80.7474C68.5113 80.6859 69.0427 80.8894 69.5588 80.8208C69.7778 80.7912 70.3151 80.7711 70.4808 80.7675C70.6087 80.764 70.4039 80.8894 70.4039 80.8894C71.9296 79.1113 72.1201 72.1338 72.2562 70.6421C72.8338 64.3271 70.7602 57.2491 68.3799 52.3691C70.4808 55.4403 72.6468 63.1902 72.5735 67.6183C72.4882 72.7821 72.5013 76.3833 71.2585 81.0834C71.2561 81.0929 71.2561 81.0597 71.2549 81.0964C71.2525 81.1331 71.2194 81.1863 71.2194 81.2348C71.2348 86.3147 71.075 91.3532 70.8406 96.4319C70.7294 98.8512 70.7104 101.235 70.7223 103.657C70.7329 105.844 70.9128 108.003 71.0786 110.175C71.0715 110.166 71.0786 110.189 71.0786 110.175C74.5383 114.911 77.8181 119.974 81.1251 124.796C84.4321 129.618 88.3191 134.752 90.1774 140.14C94.0218 151.279 94.5793 163.139 92.1919 174.524C94.017 176.234 95.2953 176.955 98.0331 177.858C98.9492 178.16 102.283 178.466 103.575 178.103C94.1129 180.303 85.3411 189.713 79.3769 194.065C79.2242 194.176 89.1547 180.884 90.001 176.987L89.9998 176.986Z" fill="#F7CBBC"/>
<path opacity="0.43" d="M54.7636 61.3458C54.7636 61.3458 54.7245 61.3695 54.7683 61.36C54.8121 61.3505 54.8429 61.2914 54.7802 61.2973C54.7174 61.3032 54.7683 61.3399 54.7624 61.3446L54.7636 61.3458Z" fill="white"/>
<path opacity="0.43" d="M54.7494 61.4207C54.7494 61.4207 54.7459 61.4311 54.7482 61.4323C54.7505 61.4346 54.7726 61.4265 54.7702 61.4218C54.7679 61.4195 54.7517 61.4195 54.7506 61.4207H54.7494Z" fill="white"/>
<path opacity="0.43" d="M54.734 61.4177C54.7719 61.4142 54.766 61.3669 54.7435 61.3692C54.7198 61.3716 54.6961 61.4213 54.734 61.4177Z" fill="white"/>
<path opacity="0.43" d="M54.5565 61.4622C54.5684 61.8101 54.5956 62.1709 54.6051 62.5057C54.6051 62.5199 54.6098 62.4797 54.611 62.4655C54.6429 62.2265 54.6796 61.9579 54.708 61.719C54.7163 61.6468 54.7341 61.5451 54.7364 61.4989C54.7388 61.4528 54.753 61.454 54.7388 61.4374C54.7246 61.4208 54.5553 61.4433 54.5565 61.4622Z" fill="white"/>
<path d="M155.72 67.6771C155.537 66.5863 155.492 65.5098 155.588 64.4805C155.582 63.6867 155.655 62.9142 155.802 62.176C155.842 61.9607 155.889 61.7478 155.947 61.5395C156.529 59.3309 157.807 57.4913 159.705 56.4443C163.978 54.0901 169.774 56.656 172.651 62.1713C173.916 64.5976 174.405 67.1944 174.191 69.5379C174.201 70.7624 174.024 71.9442 173.673 73.0208C173.421 73.7909 173.079 74.5114 172.652 75.1561C171.995 76.1558 171.132 76.9839 170.076 77.5647C166.185 79.7084 161.028 77.7729 157.964 73.2384C157.665 72.7972 157.386 72.3299 157.129 71.8377C156.421 70.4773 155.953 69.0671 155.72 67.6759V67.6771Z" fill="#FCD8C7"/>
<path opacity="0.43" d="M155.588 64.4812C155.622 64.0884 155.678 63.7004 155.753 63.3218C155.794 63.1065 155.841 62.8936 155.899 62.6854C156.48 60.4767 157.758 58.6371 159.658 57.5901C163.931 55.2359 169.727 57.8019 172.602 63.3171C173.666 65.3543 174.181 67.5109 174.191 69.5386C174.405 67.1939 173.916 64.5983 172.651 62.1719C169.774 56.6555 163.979 54.0896 159.705 56.445C157.806 57.4919 156.529 59.3315 155.947 61.5402C155.889 61.7472 155.842 61.9614 155.802 62.1767C155.655 62.9149 155.583 63.6874 155.588 64.4812Z" fill="white"/>
<path d="M159.955 105.808C162.99 108.953 168.664 108.289 173.348 104.507C168.799 107.842 163.499 108.31 160.603 105.309C158.24 102.861 158.097 98.7431 159.865 94.7398C159.865 94.7374 159.866 94.7362 159.868 94.7327C160.205 93.7697 160.652 92.8031 161.207 91.8603C161.905 90.6761 162.77 89.5262 163.795 88.4591C165.062 87.14 166.295 85.9132 167.526 84.9219C166.079 85.9866 164.636 87.4098 163.146 88.9595C161.301 90.8784 159.976 93.0646 159.219 95.2331C159.219 95.2354 159.218 95.2366 159.217 95.2402C157.448 99.2435 157.591 103.362 159.954 105.809L159.955 105.808Z" fill="#EDC1B2"/>
<path d="M160.604 105.309C163.5 108.31 168.8 107.842 173.349 104.507C173.938 104.031 174.512 103.506 175.063 102.933C177.286 100.62 179.026 98.2023 179.833 95.7913C180.702 93.8749 181.026 91.9524 180.575 90.0809C180.246 88.7122 179.501 87.3718 178.257 86.0823C174.231 81.9098 170.868 82.4623 167.529 84.9218C166.298 85.9143 165.066 87.1411 163.798 88.459C162.772 89.5261 161.908 90.676 161.211 91.8602C160.656 92.8042 160.208 93.7696 159.871 94.7325C159.871 94.7349 159.87 94.7361 159.869 94.7396C158.1 98.7442 158.244 102.861 160.606 105.309H160.604Z" fill="#FCD8C7"/>
<path opacity="0.43" d="M161.209 91.8594C161.658 91.2596 162.153 90.6752 162.692 90.1144C164.183 88.5623 165.626 87.1392 167.073 86.0744C170.41 83.6173 173.773 83.066 177.797 87.2373C180.406 89.9394 180.81 92.8567 179.83 95.7894C180.699 93.8729 181.024 91.9505 180.573 90.079C180.244 88.7102 179.499 87.3698 178.255 86.0803C174.228 81.9078 170.866 82.4603 167.527 84.9198C166.296 85.9124 165.064 87.1391 163.796 88.457C162.77 89.5241 161.906 90.674 161.209 91.8582V91.8594Z" fill="white"/>
<path d="M166.576 120.608C166.578 120.592 166.58 120.576 166.581 120.56C166.624 120.176 166.686 119.797 166.768 119.428C166.924 118.731 167.147 118.062 167.433 117.433C168.451 115.19 170.265 113.468 172.614 112.813C177.219 111.527 182.14 114.833 183.601 120.196C183.706 120.577 183.789 120.957 183.851 121.335C183.961 121.985 184.015 122.632 184.013 123.266C184.012 123.997 183.939 124.713 183.802 125.403C183.651 126.157 183.42 126.88 183.119 127.555C182.662 128.579 182.042 129.496 181.278 130.254C180.349 131.18 179.213 131.871 177.911 132.234C175.055 133.033 172.078 132.063 169.88 129.932C168.533 128.627 167.479 126.887 166.923 124.851C166.53 123.412 166.426 121.97 166.576 120.606V120.608Z" fill="#FCD8C7"/>
<path opacity="0.43" d="M166.576 120.608C166.589 120.54 166.604 120.473 166.618 120.406C166.774 119.71 166.997 119.04 167.283 118.412C168.301 116.169 170.114 114.446 172.464 113.791C177.069 112.505 181.989 115.812 183.451 121.174C183.555 121.555 183.638 121.935 183.702 122.313C183.812 122.963 183.866 123.61 183.864 124.244C183.864 124.636 183.843 125.023 183.802 125.403C183.94 124.714 184.012 123.997 184.013 123.266C184.016 122.63 183.961 121.985 183.851 121.335C183.789 120.957 183.705 120.577 183.602 120.196C182.14 114.833 177.219 111.527 172.614 112.813C170.265 113.468 168.451 115.19 167.433 117.433C167.147 118.06 166.924 118.731 166.768 119.428C166.686 119.797 166.624 120.176 166.581 120.56C166.58 120.576 166.578 120.592 166.576 120.608Z" fill="white"/>
</g>
<defs>
<linearGradient id="paint0_linear_287_2875" x1="145.274" y1="81.2438" x2="86.81" y2="92.6881" gradientUnits="userSpaceOnUse">
<stop offset="0.68" stop-color="#FF1927"/>
<stop offset="0.95" stop-color="#FF1927"/>
</linearGradient>
<clipPath id="clip0_287_2875">
<rect width="220" height="241" fill="white"/>
</clipPath>
</defs>
</svg>
