<svg width="282" height="282" viewBox="0 0 282 282" fill="none" xmlns="http://www.w3.org/2000/svg">
<circle cx="141" cy="141" r="141" fill="#6FD393"/>
<path d="M137.25 191.672H132.211V156.047H137.25V191.672ZM109.242 158.859H114.242V167.531H121.898V158.859H126.82V183.352H109.242V158.859ZM121.898 179.328V171.398H114.242V179.328H121.898ZM172.016 182.023H167.055V169.289H161.234V165.266H167.055V156.086H172.016V182.023ZM141.859 174.016C143.747 173.43 145.329 172.57 146.605 171.438C147.882 170.292 148.832 168.996 149.457 167.551C150.082 166.092 150.401 164.576 150.414 163V162.453H143.266V158.469H162.562V162.453H155.492V163.039C155.479 164.458 155.772 165.852 156.371 167.219C156.97 168.573 157.882 169.797 159.105 170.891C160.329 171.971 161.846 172.805 163.656 173.391L161.195 177.336C159.281 176.711 157.634 175.793 156.254 174.582C154.887 173.358 153.806 171.926 153.012 170.285C152.191 172.121 151.059 173.71 149.613 175.051C148.168 176.392 146.43 177.401 144.398 178.078L141.859 174.016ZM148.422 179.758H153.422V186.984H172.875V190.969H148.422V179.758Z" fill="#04722C"/>
<path d="M87.9211 137.311L79.0471 111.981H84.1811L91.1851 133.265H90.6411L90.7771 132.789L97.4411 111.981H99.2771L90.5391 137.311H87.9211ZM77.0751 113.103V111.981H88.3971V113.035L83.1611 113.579H82.1071L77.0751 113.103ZM93.2931 113.035V111.981H101.623V113.001L98.0191 113.579H97.4751L93.2931 113.035ZM103.303 137.175V136.053L108.505 135.577H109.457L114.693 136.053V137.175H103.303ZM106.499 137.175C106.545 135.248 106.567 133.31 106.567 131.361C106.59 129.389 106.601 127.405 106.601 125.411V123.779C106.601 121.807 106.59 119.846 106.567 117.897C106.567 115.925 106.545 113.953 106.499 111.981H111.531C111.486 113.907 111.452 115.868 111.429 117.863C111.429 119.835 111.429 121.807 111.429 123.779V125.377C111.429 127.349 111.429 129.321 111.429 131.293C111.452 133.242 111.486 135.203 111.531 137.175H106.499ZM103.303 113.103V111.981H114.693V113.103L109.457 113.579H108.505L103.303 113.103ZM125.668 137.821C124.285 137.821 122.903 137.639 121.52 137.277C120.137 136.914 118.97 136.415 118.018 135.781L118.222 130.205H120.024L121.724 136.631L119.65 135.747L119.276 134.455C120.387 135.248 121.373 135.781 122.234 136.053C123.095 136.302 124.093 136.427 125.226 136.427C126.949 136.427 128.297 136.041 129.272 135.271C130.247 134.477 130.734 133.367 130.734 131.939C130.734 131.145 130.609 130.465 130.36 129.899C130.111 129.332 129.68 128.822 129.068 128.369C128.479 127.915 127.674 127.473 126.654 127.043L125.09 126.363C122.914 125.388 121.248 124.289 120.092 123.065C118.959 121.841 118.392 120.254 118.392 118.305C118.392 116.809 118.766 115.551 119.514 114.531C120.285 113.488 121.327 112.706 122.642 112.185C123.979 111.641 125.498 111.369 127.198 111.369C128.535 111.369 129.759 111.539 130.87 111.879C131.981 112.196 132.978 112.661 133.862 113.273L133.624 118.577H131.822L130.156 112.457L132.4 113.409L132.672 114.769C131.72 113.998 130.893 113.465 130.19 113.171C129.51 112.876 128.694 112.729 127.742 112.729C126.223 112.729 124.988 113.091 124.036 113.817C123.084 114.542 122.608 115.573 122.608 116.911C122.608 118.135 122.948 119.109 123.628 119.835C124.308 120.56 125.271 121.195 126.518 121.739L128.218 122.487C129.918 123.235 131.267 123.983 132.264 124.731C133.284 125.479 134.009 126.306 134.44 127.213C134.893 128.119 135.12 129.196 135.12 130.443C135.12 131.916 134.746 133.208 133.998 134.319C133.25 135.407 132.173 136.268 130.768 136.903C129.363 137.515 127.663 137.821 125.668 137.821ZM138.034 137.175V136.053L143.236 135.577H144.188L149.424 136.053V137.175H138.034ZM141.23 137.175C141.275 135.248 141.298 133.31 141.298 131.361C141.321 129.389 141.332 127.405 141.332 125.411V123.779C141.332 121.807 141.321 119.846 141.298 117.897C141.298 115.925 141.275 113.953 141.23 111.981H146.262C146.217 113.907 146.183 115.868 146.16 117.863C146.16 119.835 146.16 121.807 146.16 123.779V125.377C146.16 127.349 146.16 129.321 146.16 131.293C146.183 133.242 146.217 135.203 146.262 137.175H141.23ZM138.034 113.103V111.981H149.424V113.103L144.188 113.579H143.236L138.034 113.103ZM163.844 137.821C162.28 137.821 160.784 137.537 159.356 136.971C157.951 136.381 156.704 135.531 155.616 134.421C154.528 133.31 153.667 131.939 153.032 130.307C152.42 128.652 152.114 126.748 152.114 124.595C152.114 122.441 152.42 120.549 153.032 118.917C153.667 117.262 154.528 115.879 155.616 114.769C156.704 113.635 157.951 112.785 159.356 112.219C160.784 111.652 162.28 111.369 163.844 111.369C165.431 111.369 166.916 111.652 168.298 112.219C169.704 112.785 170.95 113.635 172.038 114.769C173.149 115.879 174.01 117.262 174.622 118.917C175.257 120.549 175.574 122.441 175.574 124.595C175.574 126.725 175.257 128.618 174.622 130.273C174.01 131.905 173.149 133.287 172.038 134.421C170.95 135.531 169.704 136.381 168.298 136.971C166.916 137.537 165.431 137.821 163.844 137.821ZM163.844 136.563C164.978 136.563 165.952 136.257 166.768 135.645C167.607 135.033 168.298 134.194 168.842 133.129C169.386 132.041 169.794 130.771 170.066 129.321C170.338 127.847 170.474 126.272 170.474 124.595C170.474 122.895 170.338 121.319 170.066 119.869C169.794 118.418 169.386 117.149 168.842 116.061C168.298 114.973 167.607 114.134 166.768 113.545C165.952 112.933 164.978 112.627 163.844 112.627C162.711 112.627 161.725 112.933 160.886 113.545C160.048 114.134 159.356 114.973 158.812 116.061C158.268 117.149 157.86 118.418 157.588 119.869C157.316 121.319 157.18 122.895 157.18 124.595C157.18 126.272 157.316 127.847 157.588 129.321C157.86 130.771 158.268 132.041 158.812 133.129C159.356 134.194 160.048 135.033 160.886 135.645C161.725 136.257 162.711 136.563 163.844 136.563ZM177.972 137.175V136.053L181.576 135.577H182.494L187.152 136.053V137.175H177.972ZM181.27 137.175V112.933H182.562L182.902 128.301V137.175H181.27ZM193.986 113.103V111.981H203.2V113.103L199.63 113.579H198.712L193.986 113.103ZM197.386 137.311L182.188 115.211L182.086 115.109L180.93 113.375L178.108 113.103V111.981H185.656L199.188 131.735L198.542 131.973L198.44 121.875V111.981H199.834V137.311H197.386Z" fill="white"/>
</svg>
