<svg width="40" height="39" viewBox="0 0 40 39" fill="none" xmlns="http://www.w3.org/2000/svg">
<rect width="40" height="39" rx="19.5" fill="#C6FFF0"/>
<g clip-path="url(#clip0_88_1064)">
<path d="M20 7.60001C13.704 7.60001 8.6 12.704 8.6 19C8.6 25.2961 13.704 30.4 20 30.4C26.296 30.4 31.4 25.2961 31.4 19C31.3946 12.7062 26.2938 7.60536 20 7.60001ZM20.6743 24.1324C20.6371 24.2214 20.5827 24.3022 20.5142 24.3701C20.4454 24.4375 20.3648 24.4918 20.2765 24.5302C20.0991 24.6015 19.9009 24.6015 19.7235 24.5302C19.5441 24.4545 19.4014 24.3118 19.3257 24.1324C19.2902 24.0429 19.2721 23.9474 19.2723 23.8511C19.2673 23.8043 19.2673 23.7571 19.2723 23.7104C19.2824 23.6643 19.2953 23.619 19.3111 23.5746C19.3309 23.531 19.3536 23.4889 19.3791 23.4484C19.4334 23.3682 19.5025 23.299 19.5828 23.2447C19.6227 23.2182 19.6649 23.1955 19.7089 23.1768L19.8448 23.138C20.0826 23.0911 20.3281 23.1656 20.4997 23.3369C20.5341 23.3708 20.565 23.4082 20.5918 23.4484C20.6176 23.4879 20.6388 23.5302 20.6549 23.5746C20.6745 23.6181 20.6891 23.6636 20.6986 23.7104C20.7036 23.7571 20.7036 23.8043 20.6986 23.8511C20.7082 23.9455 20.7 24.041 20.6743 24.1324ZM21.4941 19.8198C21.3389 19.9751 21.1982 20.1158 21.0866 20.2467C20.8398 20.6237 20.7145 21.0673 20.7277 21.5177C20.7414 21.9187 20.4299 22.2561 20.0291 22.2745H20C19.6092 22.2748 19.288 21.9664 19.2723 21.5759C19.2496 20.7584 19.5062 19.9576 20 19.3056C20.131 19.1504 20.3008 18.9806 20.4851 18.7963C21.043 18.2335 21.7367 17.535 21.7367 16.7443C21.7367 15.1143 20.5918 14.8718 19.9078 14.8718C19.5294 14.8718 18.3021 15.0076 18.3021 16.7443C18.3021 17.1461 17.9763 17.4719 17.5745 17.4719C17.1726 17.4719 16.8468 17.1461 16.8468 16.7443C16.8468 14.1198 18.7872 13.4164 19.9078 13.4164C21.6364 13.3299 23.1078 14.6611 23.1943 16.3897C23.2003 16.5078 23.1995 16.6262 23.192 16.7443C23.1726 18.1317 22.1636 19.1504 21.4941 19.8198Z" fill="#09B285"/>
</g>
<defs>
<clipPath id="clip0_88_1064">
<rect width="24" height="24" fill="white" transform="translate(8 7)"/>
</clipPath>
</defs>
</svg>
