<svg width="40" height="39" viewBox="0 0 40 39" fill="none" xmlns="http://www.w3.org/2000/svg">
<rect width="40" height="39" rx="19.5" fill="#F5E2FB"/>
<g clip-path="url(#clip0_88_1052)">
<path d="M20.4111 8.14655L11.1481 13.064C10.8912 13.2004 10.7306 13.4674 10.7306 13.7584V26.1021C10.7306 26.6007 11.0108 27.0569 11.4553 27.2824L20.5388 31.8896C20.8287 32.0366 21.1712 32.0366 21.461 31.8896L30.5446 27.2824C30.9892 27.0569 31.2693 26.6006 31.2693 26.1021V13.7584C31.2693 13.4674 31.1087 13.2004 30.8517 13.064L21.5888 8.14655C21.2206 7.95119 20.7794 7.95119 20.4111 8.14655Z" fill="#FFCE94"/>
<path d="M21 32C21.1581 32 21.3162 31.9633 21.4611 31.8898L30.5447 27.2826C30.9892 27.0571 31.2694 26.6008 31.2694 26.1023V13.7584C31.2694 13.6299 31.2366 13.5069 31.1795 13.3969L21 18.8186V32Z" fill="#FCB043"/>
<path d="M21 18.8186L10.8206 13.3969C10.7634 13.5068 10.7306 13.6298 10.7306 13.7583V26.1021C10.7306 26.6007 11.0108 27.0569 11.4553 27.2824L20.5388 31.8896C20.6838 31.9631 20.8418 31.9998 20.9999 31.9998L21 18.8186Z" fill="#E2791B"/>
<path d="M24.6292 9.76056L14.3272 15.2469V17.0024C14.3272 17.1709 14.4201 17.3257 14.5687 17.4049L16.3591 18.3592C16.5012 18.4349 16.6727 18.332 16.6727 18.171V16.5325L26.9907 11.0142L24.6292 9.76056Z" fill="#27B841"/>
<path d="M22.484 28.497L25.2324 27.1826C25.5843 27.0144 25.8047 26.6552 25.7954 26.2653L25.7952 26.2531C25.7875 25.9314 25.446 25.7284 25.1598 25.8755L22.4841 27.2496V28.497H22.484Z" fill="#403A46"/>
<path d="M22.484 30.4136L23.9933 29.7125C24.3506 29.5464 24.5757 29.1844 24.5664 28.7904C24.5587 28.4676 24.2153 28.2647 23.9288 28.4138L22.484 29.1661V30.4136Z" fill="#403A46"/>
<path d="M14.3271 15.2646V17.0024C14.3271 17.1709 14.42 17.3257 14.5687 17.405L16.359 18.3592C16.5011 18.4349 16.6726 18.332 16.6726 18.171V16.5325L16.69 16.5232C16.0836 16.2002 15.0987 15.6755 14.3271 15.2646Z" fill="#0F6519"/>
</g>
<defs>
<clipPath id="clip0_88_1052">
<rect width="24" height="24" fill="white" transform="translate(9 8)"/>
</clipPath>
</defs>
</svg>
