<svg width="32" height="32" viewBox="0 0 32 32" fill="none" xmlns="http://www.w3.org/2000/svg">
<path d="M25.7704 11.0091C26.1506 11.1975 26.5702 10.8414 26.4414 10.4371C25.5999 7.79471 22.9607 1.4544 16.9412 1.13365C10.083 0.768276 8.01837 5.07728 8.68644 7.41153L9.48869 8.99859C9.85437 10.1658 11.029 12.231 14.7566 12.1188C19.5597 11.9741 21.7248 9.00378 25.7704 11.0091Z" fill="#6BCB44"/>
<path d="M17.6269 3.88084C21.2122 3.88228 23.7987 5.90509 25.5783 8.19428C24.2359 5.23909 21.6021 1.38196 16.9412 1.13365C10.083 0.768276 8.01837 5.07728 8.68644 7.41153L9.16556 8.35934C9.97287 6.13878 12.5103 3.87878 17.6269 3.88084Z" fill="#4DC321"/>
<path d="M28.8344 16.562L27.0588 16.4633C25.8651 16.1963 23.4892 16.181 21.7227 19.4653C19.4465 23.6972 20.9362 27.0575 17.1769 29.5583C16.8236 29.7934 16.9222 30.3348 17.3367 30.4255C20.0459 31.0178 26.8564 31.9024 30.1439 26.8497C33.8893 21.0931 31.1899 17.1506 28.8344 16.562Z" fill="#6BCB44"/>
<path d="M20.0097 30.5846C23.7691 27.923 22.2793 24.3468 24.5555 19.843C25.8067 17.3673 27.3634 16.6535 28.5894 16.5485L27.0588 16.4633C25.865 16.1964 23.4892 16.1811 21.7226 19.4654C19.4464 23.6973 20.9362 27.0575 17.1768 29.5584C16.8235 29.7935 16.9221 30.3349 17.3367 30.4255C17.9743 30.565 18.8392 30.7205 19.8318 30.8111C19.8664 30.7242 19.9246 30.6449 20.0097 30.5846Z" fill="#4DC321"/>
<path d="M5.03963 12.7176C5.01275 12.2941 4.4945 12.1088 4.20875 12.4225C2.34119 14.4725 -1.83013 19.9283 0.901875 25.3016C4.01456 31.4237 8.77856 31.0572 10.4661 29.3115L11.4394 27.8232C12.2674 26.9228 13.4686 24.873 11.5076 21.701C8.98069 17.6138 5.32581 17.2238 5.03963 12.7176Z" fill="#6BCB44"/>
<path d="M3.54169 25.3016C1.43219 21.1526 3.4385 16.9549 5.32206 14.3135C5.17569 13.8418 5.07769 13.3163 5.03969 12.7176C5.01281 12.2941 4.49456 12.1088 4.20881 12.4225C2.34125 14.4725 -1.83006 19.9283 0.901936 25.3016C3.28219 29.9831 6.62794 30.8703 8.82537 30.2481C7.04306 29.7835 5.0885 28.344 3.54169 25.3016Z" fill="#4DC321"/>
<path d="M6.49706 9.99986C6.37475 10.0977 6.3115 10.2411 6.30963 10.3866L6.63625 10.7949C6.82319 11.0286 7.17219 11.0454 7.381 10.8311C8.64919 9.52974 12.8877 5.67043 17.6183 6.76661C17.7206 6.7903 17.8054 6.75436 17.8599 6.69236C15.9179 5.80999 12.2104 5.42924 6.49706 9.99986Z" fill="#C3EBB0"/>
<path d="M6.58106 10.0078C12.2115 5.50347 15.8632 5.8839 17.7734 6.75459C17.9418 6.68322 17.9962 6.42553 17.803 6.30909C16.1013 5.28334 12.2911 4.2744 6.04988 9.26734C5.83575 9.43859 5.80188 9.75184 5.97313 9.96597L6.40938 10.5113C6.36613 10.33 6.42613 10.1318 6.58106 10.0078Z" fill="#97DC7C"/>
<path d="M28.5454 13.3507C28.5042 13.0796 28.2498 12.8936 27.9788 12.9349L27.4344 13.0179C27.3177 13.1402 27.2644 13.3189 27.3144 13.4963C27.8073 15.2453 29.0303 20.8456 25.7156 24.3943C25.6294 24.4866 25.6303 24.6003 25.6796 24.6865L25.6989 24.7176C27.4181 23.5292 29.6455 20.5734 28.5454 13.3507Z" fill="#C3EBB0"/>
<path d="M25.78 24.3943C29.0947 20.8456 27.8717 15.2453 27.3787 13.4963C27.3272 13.3137 27.3847 13.129 27.5089 13.0065L26.9294 13.0948C26.6336 13.1398 26.4444 13.4336 26.5257 13.7217C27.0186 15.4706 28.2416 21.071 24.9269 24.6197C24.7321 24.8282 24.981 25.1463 25.2308 25.0083C25.3941 24.9182 25.5666 24.8117 25.744 24.6865C25.6947 24.6003 25.6938 24.4867 25.78 24.3943Z" fill="#97DC7C"/>
<path d="M14.0802 28.7323C12.3191 28.2847 6.85756 26.5436 5.44156 21.8987C5.39831 21.7567 5.26944 21.7046 5.15487 21.7267C5.22475 21.7401 5.2895 21.782 5.32669 21.8567C5.57144 23.9756 7.14681 27.2951 13.8212 29.9028C13.9601 29.957 14.1082 29.9442 14.2314 29.8811L14.4212 29.3954C14.5301 29.1166 14.3703 28.806 14.0802 28.7323Z" fill="#C3EBB0"/>
<path d="M13.8261 29.8138C7.22431 27.2345 5.66612 23.9511 5.424 21.8552C5.3135 21.6332 4.95812 21.6986 4.95306 21.9676C4.91556 23.9541 5.94694 27.7584 13.3915 30.667C13.6469 30.7667 13.9351 30.6395 14.0349 30.3841L14.2758 29.7676C14.1463 29.8511 13.9804 29.8741 13.8261 29.8138Z" fill="#97DC7C"/>
</svg>
