<svg width="40" height="39" viewBox="0 0 40 39" fill="none" xmlns="http://www.w3.org/2000/svg">
<rect width="40" height="39" rx="19.5" fill="#C6EEFF"/>
<path d="M23.7333 23.6667V22.7333H20.9333V19.9333H23.7333V21.8H25.6V23.6667H24.6667V25.5333H22.8V27.4H20.9333V24.6H22.8V23.6667C22.8 23.5333 23.7333 23.5333 23.7333 23.6667ZM28.1333 27.2667H24.4V25.4H26.2667V23.5333H28.1333V27.2667ZM11.6 10.7333H18.9333V18.0667H11.6V10.7333ZM20.8 10.7333H28.1333V18.0667H20.8V10.7333ZM11.6 19.8H18.9333V27.1333H11.6V19.8ZM25.4667 19.8H28.2667V21.6667H25.4667V19.8ZM14.2667 13.4V15.2667H16.1333V13.4H14.2667ZM14.2667 22.7333V24.6H16.1333V22.7333H14.2667ZM23.7333 13.4V15.2667H25.6V13.4H23.7333Z" fill="#2776C1"/>
</svg>
