<svg width="40" height="39" viewBox="0 0 40 39" fill="none" xmlns="http://www.w3.org/2000/svg">
<rect width="40" height="39" rx="19.5" fill="#FFECAE"/>
<path fill-rule="evenodd" clip-rule="evenodd" d="M23.2815 26.4171C24.9372 24.205 26.7936 22.0628 27.7259 19.4195C29.9481 13.1215 26.6298 7 20 7C13.3717 7 10.0534 13.1187 12.2715 19.4141C13.2038 22.0601 15.0602 24.2037 16.7173 26.4171L18.5628 28.5607C19.4855 29.6325 20.598 29.5353 21.4361 28.5607L21.8196 28.1145L23.2815 26.4171ZM20 21.7384C16.5944 21.7384 13.8344 18.9706 13.8344 15.5553C13.8344 12.1414 16.5944 9.3722 20 9.3722C23.4043 9.3722 26.1657 12.1414 26.1657 15.5553C26.1657 18.9706 23.4043 21.7384 20 21.7384Z" fill="#F67D27"/>
<path fill-rule="evenodd" clip-rule="evenodd" d="M21.436 28.5607C20.5979 29.5353 19.4855 29.6325 18.5627 28.5607L17.6905 27.5477C15.2172 27.7955 13.4099 28.3663 13.4099 29.215C13.4099 30.1075 16.3488 31 19.9728 31C23.5969 31 26.5343 30.2006 26.5343 29.215C26.5343 28.4539 24.7789 27.8037 22.3083 27.5477L21.8196 28.1144L21.436 28.5607Z" fill="#22A458"/>
<path fill-rule="evenodd" clip-rule="evenodd" d="M20 21.7384C23.4043 21.7384 26.1657 18.9706 26.1657 15.5553C26.1657 12.1414 23.4043 9.37219 20 9.37219C16.5944 9.37219 13.8344 12.1414 13.8344 15.5553C13.8344 18.9706 16.5944 21.7384 20 21.7384Z" fill="#F67D27"/>
<path d="M20.8826 14.3547C20.7635 14.3547 20.6453 14.3036 20.5633 14.2046C20.4173 14.0281 20.4417 13.7665 20.6178 13.6202C20.7875 13.4793 20.7899 13.3977 20.6371 12.9487C20.4746 12.4712 20.2291 11.7498 21.0041 11.0587C21.175 10.9063 21.437 10.9216 21.5891 11.0927C21.7413 11.2639 21.7262 11.5262 21.5552 11.6786C21.2057 11.9903 21.2617 12.2111 21.4216 12.6809C21.5642 13.1001 21.7798 13.7335 21.147 14.2591C21.0695 14.3234 20.9758 14.3547 20.8826 14.3547Z" fill="white"/>
<path d="M18.5175 14.8528C18.381 14.8528 18.2474 14.7853 18.1683 14.6617C18.0448 14.4687 18.1008 14.212 18.2936 14.0883C18.5132 13.9474 18.5278 13.9215 18.3296 13.472C18.1354 13.0314 17.7738 12.2114 18.8026 11.5043C18.9913 11.3745 19.2493 11.4227 19.3787 11.6116C19.5082 11.8006 19.4603 12.0589 19.2716 12.1886C18.8098 12.5061 18.8912 12.6907 19.0878 13.1368C19.2593 13.5256 19.5784 14.2495 18.7407 14.7871C18.6715 14.8316 18.5941 14.8528 18.5175 14.8528Z" fill="white"/>
<path d="M22.5908 19.1622C22.3661 19.1622 21.9748 19.1613 21.9699 18.9353C21.965 18.7061 22.3532 18.3372 22.582 18.3323C23.57 18.3109 24.2502 17.7665 24.2843 17.4012C24.3049 17.1838 24.2416 16.9595 24.1234 16.8293C24.0329 16.7297 23.9521 16.7297 23.9256 16.7297H23.3172C23.0884 16.7297 22.9028 16.5439 22.9028 16.3147C22.9028 16.0855 23.0884 15.8997 23.3172 15.8997H23.9256C24.231 15.8997 24.519 16.0315 24.7364 16.2707C25.0127 16.5748 25.1521 17.0265 25.1094 17.479C25.0252 18.3788 23.8994 19.134 22.5999 19.1621C22.5969 19.1621 22.5938 19.1622 22.5908 19.1622Z" fill="#EFEBE9"/>
<path fill-rule="evenodd" clip-rule="evenodd" d="M21.4084 20C21.8725 19.7463 22.2759 19.2919 22.591 18.7472C23.0224 18.0032 23.2878 17.0928 23.3188 16.3006C23.3204 16.2509 23.3219 16.2026 23.3219 16.1543C23.3281 15.8898 23.2009 15.7046 22.92 15.7046H16.3492C16.1583 15.7046 16 15.8618 16 16.0532V16.1543C16 17.5472 16.7729 19.379 17.9119 20H21.4084V20Z" fill="#EFEBE9"/>
</svg>
