<svg width="32" height="32" viewBox="0 0 32 32" fill="none" xmlns="http://www.w3.org/2000/svg">
<g clip-path="url(#clip0_94_1751)">
<path d="M0 7.11248V24.8937C0 27.6562 2.2375 29.8937 5 29.8937H27C29.7625 29.8937 32 27.6562 32 24.8937V11.1437C32 8.38123 29.7625 6.14373 27 6.14373H17.8062C17.1437 6.14373 16.5063 5.88123 16.0375 5.41248L13.5063 2.88748C13.0438 2.42498 12.4125 2.16248 11.7563 2.15623L5.03125 2.11248C2.25625 2.09373 0 4.33748 0 7.11248Z" fill="#1E88E5"/>
<path d="M22.525 26.9312H9.475C8.29375 26.9312 7.45625 25.7812 7.81875 24.6625L9.10625 20.65C9.5875 19.15 11.2187 18.3437 12.7062 18.8812C13.5812 19.2 14.6812 19.4375 16 19.4375C17.3187 19.4375 18.4187 19.2 19.2937 18.8812C20.775 18.3437 22.4125 19.1437 22.8875 20.65L24.175 24.6625C24.5375 25.7812 23.7 26.9312 22.525 26.9312Z" fill="#90CAF9"/>
<path d="M16 17.8187C18.4024 17.8187 20.35 15.8712 20.35 13.4687C20.35 11.0663 18.4024 9.11871 16 9.11871C13.5976 9.11871 11.65 11.0663 11.65 13.4687C11.65 15.8712 13.5976 17.8187 16 17.8187Z" fill="#E3F2FD"/>
</g>
<defs>
<clipPath id="clip0_94_1751">
<rect width="32" height="32" fill="white"/>
</clipPath>
</defs>
</svg>
