<svg width="40" height="39" viewBox="0 0 40 39" fill="none" xmlns="http://www.w3.org/2000/svg">
<rect width="40" height="39" rx="19.5" fill="#FFE79A"/>
<g clip-path="url(#clip0_94_1661)">
<path d="M13.7305 29.5994V21.0378H9.90491C9.65167 21.0378 9.44641 21.2454 9.44641 21.5016V30.5171C10.7054 30.3287 12.1582 30.0403 13.7305 29.5994Z" fill="#ACD6FC"/>
<path d="M10.8951 21.5016C10.8951 21.2454 11.1004 21.0378 11.3536 21.0378H9.90491C9.65167 21.0378 9.44641 21.2454 9.44641 21.5016V30.5171C9.90472 30.4487 10.389 30.3666 10.8951 30.2688V21.5016Z" fill="#8AC2FF"/>
<path d="M17.9663 28.0862V16.4367H14.1409C13.8876 16.4367 13.6822 16.6443 13.6822 16.9003V29.5994C15.0377 29.2193 16.4819 28.7256 17.9663 28.0862Z" fill="#8AC2FF"/>
<path d="M15.1311 16.9003C15.1311 16.6443 15.3364 16.4367 15.5896 16.4367H14.1409C13.8876 16.4367 13.6822 16.6443 13.6822 16.9003V29.5994C14.155 29.4668 14.6387 29.32 15.1311 29.1585V16.9003Z" fill="#54A0FF"/>
<path d="M22.2022 25.8479V11.8356H18.3766C18.1234 11.8356 17.9181 12.0431 17.9181 12.2993V28.0862C19.3236 27.4807 20.7652 26.744 22.2022 25.8479Z" fill="#54A0FF"/>
<path d="M19.3668 12.2993C19.3668 12.0431 19.5721 11.8356 19.8253 11.8356H18.3766C18.1234 11.8356 17.9181 12.0431 17.9181 12.2993V28.0862C18.3973 27.8797 18.8809 27.6576 19.3668 27.4195V12.2993Z" fill="#338DEF"/>
<path d="M26.438 22.6282V7.698C26.438 7.44202 26.2327 7.23438 25.9795 7.23438H22.6124C22.3592 7.23438 22.1539 7.44202 22.1539 7.698V25.8479C23.6006 24.9458 25.0426 23.8823 26.438 22.6282Z" fill="#338DEF"/>
<path d="M23.6026 7.698C23.6026 7.44202 23.8079 7.23438 24.0613 7.23438H22.6124C22.3592 7.23438 22.1539 7.44202 22.1539 7.698V25.8479C22.6378 25.5462 23.1214 25.2257 23.6026 24.8868V7.698Z" fill="#2388E2"/>
<path d="M32.8381 17.7783H28.0568C27.914 17.7783 27.8411 17.9501 27.9404 18.0528L29.2392 19.3964C29.2974 19.4568 29.3001 19.5521 29.2452 19.6154C22.71 27.157 14.3055 29.5364 9.19446 30.2769C9.08276 30.293 9 30.389 9 30.5019C9 30.6307 9.10675 30.7343 9.23547 30.7297C22.2032 30.2674 30.2446 22.8653 31.2584 21.8812C31.3201 21.8213 31.4177 21.8204 31.4811 21.879L32.7279 23.0358C32.8315 23.1321 33 23.0585 33 22.9172V17.9402C33 17.8508 32.9274 17.7783 32.8381 17.7783Z" fill="#FECA57"/>
<path d="M11.1075 30.5019C11.1075 30.389 11.1903 30.2932 11.302 30.2769C16.413 29.5364 24.8175 27.157 31.3527 19.6154C31.4077 19.5521 31.4049 19.4568 31.3467 19.3966L30.0481 18.0528C29.9487 17.9501 30.0216 17.7783 30.1646 17.7783H28.0568C27.914 17.7783 27.8412 17.9501 27.9404 18.0528L29.2392 19.3966C29.2974 19.4568 29.3001 19.5521 29.2452 19.6154C22.71 27.157 14.3055 29.5364 9.19446 30.2769C9.08276 30.293 9 30.389 9 30.5019C9 30.6307 9.10675 30.7343 9.23547 30.7297C9.88147 30.7066 10.5146 30.6658 11.1359 30.61C11.1185 30.5777 11.1075 30.5413 11.1075 30.5019Z" fill="#F4B537"/>
</g>
<defs>
<clipPath id="clip0_94_1661">
<rect width="24" height="24" fill="white" transform="translate(9 7)"/>
</clipPath>
</defs>
</svg>
