<svg width="40" height="39" viewBox="0 0 40 39" fill="none" xmlns="http://www.w3.org/2000/svg">
<rect width="40" height="39" rx="19.5" fill="#C6EEFF"/>
<g clip-path="url(#clip0_88_1040)">
<path d="M24.5548 22.5396L22.5452 24.5484L28.574 30.5746C29.1007 31.1011 29.9768 31.1811 30.5836 30.5746C31.1385 30.0199 31.1385 29.1206 30.5836 28.5658L24.5548 22.5396Z" fill="black"/>
<path d="M18.5271 12.8408C20.0447 12.8409 21.4718 13.4318 22.5453 14.5049C24.7614 16.7201 24.7614 20.3244 22.5453 22.5396C21.4717 23.6127 20.0443 24.2038 18.526 24.2038C17.0078 24.2038 15.5804 23.6127 14.5068 22.5396C12.2907 20.3244 12.2907 16.7201 14.5068 14.5049C15.5802 13.4319 17.008 12.8409 18.5271 12.8408ZM18.526 10C16.3443 10.0003 14.1618 10.8322 12.4973 12.4961C9.16761 15.8242 9.16761 21.2202 12.4973 24.5483C14.1623 26.2125 16.3438 27.0444 18.526 27.0444C20.7078 27.0444 22.8902 26.2121 24.5548 24.5483C27.8845 21.2202 27.8845 15.8242 24.5548 12.4961C22.8898 10.8319 20.7083 9.99987 18.526 10Z" fill="#0072D6"/>
</g>
<defs>
<clipPath id="clip0_88_1040">
<rect width="21" height="21" fill="white" transform="translate(10 10)"/>
</clipPath>
</defs>
</svg>
