<svg width="24" height="24" viewBox="0 0 24 24" fill="none" xmlns="http://www.w3.org/2000/svg">
<path d="M12.8839 12L19.817 5.06698C20.0611 4.82288 20.0611 4.42713 19.817 4.18307C19.5729 3.93901 19.1771 3.93898 18.9331 4.18307L12 11.1161L5.06698 4.18307C4.82288 3.93898 4.42713 3.93898 4.18307 4.18307C3.93901 4.42716 3.93898 4.82291 4.18307 5.06698L11.1161 12L4.18307 18.9331C3.93898 19.1772 3.93898 19.5729 4.18307 19.817C4.3051 19.939 4.46507 20 4.62504 20C4.78501 20 4.94494 19.939 5.06701 19.817L12 12.8839L18.933 19.817C19.0551 19.939 19.215 20 19.375 20C19.535 20 19.6949 19.939 19.817 19.817C20.0611 19.5729 20.0611 19.1771 19.817 18.9331L12.8839 12Z" fill="#111111"/>
</svg>
