<svg width="80" height="80" viewBox="0 0 80 80" fill="none" xmlns="http://www.w3.org/2000/svg">
<g clip-path="url(#clip0_234_3697)">
<path d="M71.5639 48.4358C71.5639 65.8681 57.4323 79.9997 40 79.9997C30.2498 79.9997 22.1598 75.1084 16.3698 68.1619C11.808 62.6887 8.43604 56.118 8.43604 48.4358C8.43604 39.1749 12.4244 30.8455 18.7771 25.0716C24.3824 19.977 31.8285 17.2432 40 17.2432C45.9662 17.2432 51.5458 18.5272 56.3047 21.4036C65.4502 26.9318 71.5639 36.9698 71.5639 48.4358Z" fill="url(#paint0_linear_234_3697)"/>
<path d="M57.1162 28.2692C59.1284 26.257 58.7402 22.8776 56.3049 21.4052C51.5462 18.5281 45.9666 16.8721 40 16.8721C31.8944 16.8721 24.5035 19.9285 18.914 24.9503C18.559 25.2694 18.3573 25.7252 18.3573 26.2024C18.3573 27.7025 20.1709 28.4537 21.2315 27.393C23.2842 25.3403 26.6122 25.3403 28.6649 27.393C31.3968 30.1249 35.1021 31.6597 38.9656 31.6597H42.2146C45.0343 31.6597 47.3203 33.9456 47.3203 36.7654V37.0641C47.3203 38.4181 46.7824 39.7168 45.8249 40.6743C43.831 42.6682 43.831 45.9009 45.8249 47.8948C48.6503 50.7202 53.2312 50.7202 56.0564 47.8948L60.175 43.7762C61.8938 42.0575 61.8938 39.271 60.175 37.5522L57.116 34.4932C55.3975 32.7745 55.3975 29.988 57.1162 28.2692Z" fill="url(#paint1_linear_234_3697)"/>
<path d="M32.2569 59.1376C29.4227 59.1376 28.0034 55.7111 30.0075 53.707C31.4174 52.2971 31.4174 50.0111 30.0075 48.6013C28.5976 47.1914 26.3116 47.1914 24.9017 48.6013L23.757 49.746C22.6205 50.8825 20.7778 50.8825 19.6412 49.746C18.1058 48.2107 17.2432 46.1282 17.2432 43.9567C17.2432 41.6256 15.3535 39.7358 13.0224 39.7358C10.964 39.7358 9.19633 41.2188 8.86033 43.2497C8.59665 44.8433 8.45249 46.477 8.43727 48.1416C8.27665 65.7203 22.3642 79.9691 39.9435 80C41.1508 80.0022 42.3422 79.9363 43.5145 79.8063C45.0186 79.6394 45.6699 77.8171 44.5998 76.747C43.8978 76.045 43.8978 74.9068 44.5998 74.2049C46.897 71.9076 46.897 68.1831 44.5998 65.886L41.8078 63.094C39.2748 60.5606 35.8392 59.1376 32.2569 59.1376Z" fill="url(#paint2_linear_234_3697)"/>
<path d="M57.4695 51.3094C55.8634 52.9155 55.8634 55.5198 57.4695 57.1259L58.5972 58.2536C59.3931 59.0495 59.3931 60.3398 58.5972 61.1356C57.3134 62.4194 58.2226 64.6145 60.0383 64.6145C63.2682 64.6145 65.8866 61.9962 65.8866 58.7662C65.8866 56.4034 65.2012 54.0914 63.9136 52.1104L63.8262 51.9761C62.4011 49.7836 59.3186 49.4603 57.4695 51.3094Z" fill="url(#paint3_linear_234_3697)"/>
<path d="M9.1156 54.9961C12.1139 69.2799 24.7178 79.9729 39.9435 79.9997C41.1509 80.0019 42.3423 79.936 43.5145 79.806C45.0187 79.6391 45.67 77.8168 44.5998 76.7467C43.8979 76.0447 43.8979 74.9065 44.5998 74.2044C46.8971 71.9072 46.8971 68.1826 44.5998 65.8855L41.8078 63.0935C39.2748 60.5605 35.8392 59.1374 32.2571 59.1374C29.9719 59.1374 28.6078 56.9098 29.2154 54.9963H9.1156V54.9961Z" fill="url(#paint4_linear_234_3697)"/>
<path d="M38.7701 24.1766H41.828V18.6776C41.828 15.9011 42.9091 13.2909 44.8724 11.3279L46.8233 9.37704L44.6611 7.21484L42.7102 9.16575C40.1694 11.7065 38.7701 15.0845 38.7701 18.6777V24.1766Z" fill="url(#paint5_linear_234_3697)"/>
<path d="M53.2369 2.65873C53.14 1.66014 52.3546 0.874733 51.356 0.777792C48.626 0.512537 45.6931 1.50658 43.4804 3.71928C41.2675 5.93199 40.2737 8.86485 40.5389 11.5949C40.6358 12.5935 41.4213 13.3789 42.4198 13.4758C45.1499 13.7411 48.0826 12.747 50.2955 10.5342C52.5082 8.32148 53.5022 5.38877 53.2369 2.65873Z" fill="url(#paint6_linear_234_3697)"/>
<path d="M41.1412 12.8739C41.4746 13.2072 41.9205 13.4277 42.4198 13.4762C45.1499 13.7415 48.0826 12.7474 50.2954 10.5346C52.5081 8.32186 53.5022 5.389 53.2371 2.65896C53.1886 2.15967 52.9681 1.71355 52.6347 1.38037L41.1412 12.8739Z" fill="url(#paint7_linear_234_3697)"/>
<path d="M49.7351 11.0545C49.9262 10.8892 50.1135 10.7163 50.2953 10.5343C52.508 8.32164 53.502 5.38877 53.2369 2.65873C53.14 1.66015 52.3546 0.874733 51.356 0.777792C48.6259 0.512537 45.6931 1.50658 43.4804 3.71928C43.2984 3.90124 43.1255 4.08838 42.9602 4.2796V11.0545H49.7351Z" fill="url(#paint8_linear_234_3697)"/>
<path d="M47.0212 6.99341H52.6184C53.1678 5.58165 53.3762 4.09223 53.2371 2.65866C53.1401 1.66008 52.3547 0.874665 51.3561 0.777724C49.9226 0.63843 48.4332 0.847057 47.0214 1.39639V6.99341H47.0212Z" fill="url(#paint9_linear_234_3697)"/>
<path d="M35.1456 26.5882H44.8537C45.6694 26.5882 45.9908 25.5311 45.3131 25.0772L43.3776 23.7802C42.4918 23.1867 41.9603 22.1906 41.9603 21.1244C41.9603 16.5162 40.166 12.184 36.9075 8.92579L34.4057 6.42383L31.6328 9.19685L34.1346 11.6988C36.6524 14.2163 38.0389 17.5638 38.0389 21.1244C38.0389 22.1906 37.5073 23.1867 36.6217 23.7802L34.6861 25.0772C34.0085 25.5311 34.3299 26.5882 35.1456 26.5882Z" fill="url(#paint10_linear_234_3697)"/>
<path d="M38.039 21.1242C38.039 22.1904 37.5074 23.1865 36.6218 23.78L34.6862 25.077C34.0086 25.5311 34.33 26.588 35.1457 26.588H44.8537C45.6694 26.588 45.9909 25.5309 45.3132 25.077L43.3777 23.78C42.4919 23.1865 41.9604 22.1904 41.9604 21.1242C41.9604 20.668 41.9421 20.2147 41.9072 19.7646H37.97C38.0153 20.2136 38.039 20.6671 38.039 21.1242Z" fill="url(#paint11_linear_234_3697)"/>
<path d="M27.031 0.0481304C25.8854 0.159346 24.9845 1.06037 24.8732 2.20593C24.569 5.3377 25.7092 8.70209 28.2476 11.2404C30.7859 13.7788 34.1503 14.919 37.2821 14.6149C38.4277 14.5037 39.3285 13.6026 39.4399 12.4571C39.7441 9.32531 38.6038 5.96091 36.0655 3.42256C33.5271 0.884209 30.1629 -0.256183 27.031 0.0481304Z" fill="url(#paint12_linear_234_3697)"/>
<path d="M38.7489 13.9239C39.1313 13.5416 39.3843 13.0299 39.4399 12.457C39.744 9.32527 38.6038 5.96088 36.0654 3.42252C33.5271 0.884169 30.1627 -0.256066 27.0309 0.0480906C26.458 0.103777 25.9465 0.356797 25.5641 0.739071L38.7489 13.9239Z" fill="url(#paint13_linear_234_3697)"/>
<path d="M36.6622 4.06519C36.4724 3.8459 36.2741 3.63115 36.0655 3.42252C33.5271 0.884169 30.1627 -0.256066 27.031 0.0480907C25.8854 0.159306 24.9844 1.06033 24.8732 2.20589C24.569 5.33766 25.7092 8.70205 28.2476 11.2404C28.4562 11.449 28.671 11.6473 28.8903 11.8371H36.6622V4.06519Z" fill="url(#paint14_linear_234_3697)"/>
<path d="M32.0038 7.17852V0.757655C30.3842 0.127537 28.6758 -0.111678 27.0313 0.0480079C25.8857 0.159224 24.9847 1.06024 24.8734 2.20581C24.7138 3.85036 24.953 5.55891 25.5831 7.17852H32.0038Z" fill="url(#paint15_linear_234_3697)"/>
</g>
<defs>
<linearGradient id="paint0_linear_234_3697" x1="18.0376" y1="25.9451" x2="57.6815" y2="65.589" gradientUnits="userSpaceOnUse">
<stop stop-color="#A0D4FF"/>
<stop offset="1" stop-color="#0593FC"/>
</linearGradient>
<linearGradient id="paint1_linear_234_3697" x1="32.9653" y1="19.6983" x2="74.3702" y2="61.1031" gradientUnits="userSpaceOnUse">
<stop stop-color="#A2E62E"/>
<stop offset="0.1231" stop-color="#97DE30"/>
<stop offset="0.3395" stop-color="#79CB36"/>
<stop offset="0.6234" stop-color="#4AAB3F"/>
<stop offset="0.9609" stop-color="#09804C"/>
<stop offset="1" stop-color="#017B4E"/>
</linearGradient>
<linearGradient id="paint2_linear_234_3697" x1="13.5046" y1="49.3586" x2="39.8351" y2="75.6889" gradientUnits="userSpaceOnUse">
<stop stop-color="#A2E62E"/>
<stop offset="0.1231" stop-color="#97DE30"/>
<stop offset="0.3395" stop-color="#79CB36"/>
<stop offset="0.6234" stop-color="#4AAB3F"/>
<stop offset="0.9609" stop-color="#09804C"/>
<stop offset="1" stop-color="#017B4E"/>
</linearGradient>
<linearGradient id="paint3_linear_234_3697" x1="56.8726" y1="53.5965" x2="63.7427" y2="60.4664" gradientUnits="userSpaceOnUse">
<stop stop-color="#A2E62E"/>
<stop offset="0.1231" stop-color="#97DE30"/>
<stop offset="0.3395" stop-color="#79CB36"/>
<stop offset="0.6234" stop-color="#4AAB3F"/>
<stop offset="0.9609" stop-color="#09804C"/>
<stop offset="1" stop-color="#017B4E"/>
</linearGradient>
<linearGradient id="paint4_linear_234_3697" x1="27.7192" y1="62.3404" x2="27.7192" y2="77.0304" gradientUnits="userSpaceOnUse">
<stop stop-color="#017B4E" stop-opacity="0"/>
<stop offset="0.4693" stop-color="#01764A" stop-opacity="0.469"/>
<stop offset="1" stop-color="#026841"/>
</linearGradient>
<linearGradient id="paint5_linear_234_3697" x1="36.8083" y1="10.7885" x2="41.3102" y2="15.2903" gradientUnits="userSpaceOnUse">
<stop stop-color="#A2E62E"/>
<stop offset="0.1231" stop-color="#97DE30"/>
<stop offset="0.3395" stop-color="#79CB36"/>
<stop offset="0.6234" stop-color="#4AAB3F"/>
<stop offset="0.9609" stop-color="#09804C"/>
<stop offset="1" stop-color="#017B4E"/>
</linearGradient>
<linearGradient id="paint6_linear_234_3697" x1="37.3413" y1="-2.42001" x2="48.4658" y2="8.70469" gradientUnits="userSpaceOnUse">
<stop stop-color="#A2E62E"/>
<stop offset="0.1231" stop-color="#97DE30"/>
<stop offset="0.3395" stop-color="#79CB36"/>
<stop offset="0.6234" stop-color="#4AAB3F"/>
<stop offset="0.9609" stop-color="#09804C"/>
<stop offset="1" stop-color="#017B4E"/>
</linearGradient>
<linearGradient id="paint7_linear_234_3697" x1="49.7921" y1="8.21143" x2="44.6156" y2="6.48594" gradientUnits="userSpaceOnUse">
<stop stop-color="#017B4E" stop-opacity="0"/>
<stop offset="1" stop-color="#026841"/>
</linearGradient>
<linearGradient id="paint8_linear_234_3697" x1="47.4459" y1="6.49722" x2="41.4502" y2="12.4929" gradientUnits="userSpaceOnUse">
<stop stop-color="#017B4E" stop-opacity="0"/>
<stop offset="1" stop-color="#026841"/>
</linearGradient>
<linearGradient id="paint9_linear_234_3697" x1="53.1318" y1="0.811046" x2="45.2475" y2="8.6954" gradientUnits="userSpaceOnUse">
<stop stop-color="#017B4E" stop-opacity="0"/>
<stop offset="0.4829" stop-color="#01754A" stop-opacity="0.483"/>
<stop offset="1" stop-color="#026841"/>
</linearGradient>
<linearGradient id="paint10_linear_234_3697" x1="35.1224" y1="16.7041" x2="44.0636" y2="16.312" gradientUnits="userSpaceOnUse">
<stop stop-color="#A2E62E"/>
<stop offset="0.1231" stop-color="#97DE30"/>
<stop offset="0.3395" stop-color="#79CB36"/>
<stop offset="0.6234" stop-color="#4AAB3F"/>
<stop offset="0.9609" stop-color="#09804C"/>
<stop offset="1" stop-color="#017B4E"/>
</linearGradient>
<linearGradient id="paint11_linear_234_3697" x1="39.9998" y1="22.1176" x2="39.9998" y2="26.2486" gradientUnits="userSpaceOnUse">
<stop stop-color="#017B4E" stop-opacity="0"/>
<stop offset="0.4693" stop-color="#01764A" stop-opacity="0.469"/>
<stop offset="1" stop-color="#026841"/>
</linearGradient>
<linearGradient id="paint12_linear_234_3697" x1="28.0562" y1="3.23103" x2="41.4495" y2="16.6243" gradientUnits="userSpaceOnUse">
<stop stop-color="#A2E62E"/>
<stop offset="0.1231" stop-color="#97DE30"/>
<stop offset="0.3395" stop-color="#79CB36"/>
<stop offset="0.6234" stop-color="#4AAB3F"/>
<stop offset="0.9609" stop-color="#09804C"/>
<stop offset="1" stop-color="#017B4E"/>
</linearGradient>
<linearGradient id="paint13_linear_234_3697" x1="35.1359" y1="4.4092" x2="28.712" y2="10.8331" gradientUnits="userSpaceOnUse">
<stop stop-color="#017B4E" stop-opacity="0"/>
<stop offset="1" stop-color="#026841"/>
</linearGradient>
<linearGradient id="paint14_linear_234_3697" x1="33.8663" y1="9.01724" x2="40.7443" y2="15.8952" gradientUnits="userSpaceOnUse">
<stop stop-color="#017B4E" stop-opacity="0"/>
<stop offset="1" stop-color="#026841"/>
</linearGradient>
<linearGradient id="paint15_linear_234_3697" x1="28.5432" y1="3.69402" x2="37.5878" y2="12.7386" gradientUnits="userSpaceOnUse">
<stop stop-color="#017B4E" stop-opacity="0"/>
<stop offset="0.4829" stop-color="#01754A" stop-opacity="0.483"/>
<stop offset="1" stop-color="#026841"/>
</linearGradient>
<clipPath id="clip0_234_3697">
<rect width="80" height="80" fill="white"/>
</clipPath>
</defs>
</svg>
