<svg width="26" height="26" viewBox="0 0 26 26" fill="none" xmlns="http://www.w3.org/2000/svg">
<g clip-path="url(#clip0_142_551)">
<path d="M23.1105 0.781982H2.88437C1.29492 0.781982 0 2.0769 0 3.67144V17.225C0 18.8195 1.29492 20.1093 2.88437 20.1093H9.40469L12.0301 24.6593C12.3398 25.1925 13.0203 25.3753 13.5535 25.0656C13.7211 24.9691 13.8633 24.8269 13.9598 24.6593L16.5852 20.1093H23.1055C24.7 20.1093 25.9949 18.8144 25.9949 17.225V3.67144C26 2.0769 24.7051 0.781982 23.1105 0.781982ZM6.5 12.1214C5.55547 12.1214 4.78867 11.3546 4.78867 10.4101C4.78867 9.46558 5.55547 8.69878 6.5 8.69878C7.44453 8.69878 8.21133 9.46558 8.21133 10.4101C8.21133 11.3546 7.44453 12.1214 6.5 12.1214ZM13 12.1214C12.0555 12.1214 11.2887 11.3546 11.2887 10.4101C11.2887 9.46558 12.0555 8.69878 13 8.69878C13.9445 8.69878 14.7113 9.46558 14.7113 10.4101C14.7113 11.3546 13.9445 12.1214 13 12.1214ZM19.5 12.1214C18.5555 12.1214 17.7887 11.3546 17.7887 10.4101C17.7887 9.46558 18.5555 8.69878 19.5 8.69878C20.4445 8.69878 21.2113 9.46558 21.2113 10.4101C21.2113 11.3546 20.4445 12.1214 19.5 12.1214Z" fill="#4DA62C"/>
</g>
<defs>
<clipPath id="clip0_142_551">
<rect width="26" height="26" fill="white"/>
</clipPath>
</defs>
</svg>
