<svg width="24" height="24" viewBox="0 0 24 24" fill="none" xmlns="http://www.w3.org/2000/svg">
<path d="M17.8044 1.5H6.19556C4.92041 1.5 3.88257 2.53711 3.88257 3.81226V21H2.625C2.21045 21 1.875 21.3354 1.875 21.75C1.875 22.1646 2.21045 22.5 2.625 22.5H21.375C21.7896 22.5 22.125 22.1646 22.125 21.75C22.125 21.3354 21.7896 21 21.375 21H20.1174V3.81226C20.1174 2.53711 19.0796 1.5 17.8044 1.5ZM14.1094 21H9.89062V19.4062C9.89062 18.2432 10.8369 17.2969 12 17.2969C13.1631 17.2969 14.1094 18.2432 14.1094 19.4062V21ZM15.6094 21V19.4062C15.6094 17.4163 13.99 15.7969 12 15.7969C10.01 15.7969 8.39062 17.4163 8.39062 19.4062V21H5.38257V3.81226C5.38257 3.36475 5.74731 3 6.19556 3H17.8044C18.2527 3 18.6174 3.36475 18.6174 3.81226V21H15.6094Z" fill="#72839E"/>
<path d="M9.87378 6.95947H8.02734C7.61279 6.95947 7.27734 7.29492 7.27734 7.70947C7.27734 8.12402 7.61279 8.45947 8.02734 8.45947H9.87378C10.2883 8.45947 10.6238 8.12402 10.6238 7.70947C10.6238 7.29492 10.2883 6.95947 9.87378 6.95947Z" fill="#72839E"/>
<path d="M15.9727 6.95947H14.1262C13.7117 6.95947 13.3762 7.29492 13.3762 7.70947C13.3762 8.12402 13.7117 8.45947 14.1262 8.45947H15.9727C16.3872 8.45947 16.7227 8.12402 16.7227 7.70947C16.7227 7.29492 16.3872 6.95947 15.9727 6.95947Z" fill="#72839E"/>
<path d="M9.87378 11.1167H8.02734C7.61279 11.1167 7.27734 11.4521 7.27734 11.8667C7.27734 12.2812 7.61279 12.6167 8.02734 12.6167H9.87378C10.2883 12.6167 10.6238 12.2812 10.6238 11.8667C10.6238 11.4521 10.2883 11.1167 9.87378 11.1167Z" fill="#72839E"/>
<path d="M15.9727 11.1167H14.1262C13.7117 11.1167 13.3762 11.4521 13.3762 11.8667C13.3762 12.2812 13.7117 12.6167 14.1262 12.6167H15.9727C16.3872 12.6167 16.7227 12.2812 16.7227 11.8667C16.7227 11.4521 16.3872 11.1167 15.9727 11.1167Z" fill="#72839E"/>
</svg>
