<svg width="24" height="24" viewBox="0 0 24 24" fill="none" xmlns="http://www.w3.org/2000/svg">
<path d="M21.4195 15.3228C19.9344 13.2098 19.1815 10.783 19.1815 8.10995C19.1815 4.15005 15.9599 0.928467 12 0.928467C8.04013 0.928467 4.81851 4.15005 4.81851 8.10995C4.81851 10.783 4.06555 13.2098 2.58051 15.3228C2.19444 15.872 2.09896 16.5252 2.31159 17.162C2.52416 17.7987 2.99291 18.2635 3.63154 18.4707C4.90326 18.8832 6.2834 19.1954 7.72893 19.4025C8.04384 21.4768 9.83915 23.0715 12 23.0715C14.1609 23.0715 15.9562 21.4768 16.2711 19.4025C17.7166 19.1954 19.0967 18.8832 20.3684 18.4707H20.3685C21.007 18.2636 21.4758 17.7988 21.6884 17.1621C21.9011 16.5252 21.8055 15.872 21.4195 15.3228ZM12 21.5715C10.7347 21.5715 9.66159 20.7339 9.30552 19.5842C10.1888 19.6616 11.0897 19.7016 12 19.7016C12.9103 19.7016 13.8112 19.6616 14.6945 19.5842C14.3384 20.7339 13.2652 21.5715 12 21.5715ZM20.2657 16.6869C20.2052 16.8681 20.0874 16.9849 19.9056 17.0439C17.5707 17.8013 14.837 18.2016 12 18.2016C9.16302 18.2016 6.42923 17.8012 4.09438 17.0439C3.91265 16.9849 3.79485 16.8681 3.73438 16.6869C3.67387 16.5056 3.69782 16.3416 3.80769 16.1852C5.47373 13.8147 6.31846 11.0978 6.31846 8.1099C6.31846 4.97711 8.86715 2.42842 11.9999 2.42842C15.1327 2.42842 17.6814 4.97715 17.6814 8.1099C17.6814 11.0978 18.5262 13.8147 20.1922 16.1853C20.3022 16.3417 20.3262 16.5057 20.2657 16.6869Z" fill="#72839E"/>
</svg>
