<svg width="24" height="24" viewBox="0 0 24 24" fill="none" xmlns="http://www.w3.org/2000/svg">
<path fill-rule="evenodd" clip-rule="evenodd" d="M2.25 4.5C2.25 3.25736 3.25736 2.25 4.5 2.25H19.5C20.7427 2.25 21.75 3.25737 21.75 4.5V19.5C21.75 20.7427 20.7427 21.75 19.5 21.75H4.5C3.25737 21.75 2.25 20.7427 2.25 19.5V4.5ZM4.5 3.75C4.08579 3.75 3.75 4.08579 3.75 4.5V19.5C3.75 19.9142 4.08578 20.25 4.5 20.25H19.5C19.9142 20.25 20.25 19.9142 20.25 19.5V4.5C20.25 4.08578 19.9142 3.75 19.5 3.75H4.5Z" fill="#72839E"/>
<path fill-rule="evenodd" clip-rule="evenodd" d="M17.4685 11.9144C17.792 12.1731 17.8444 12.6451 17.5857 12.9685L13.5857 17.9685C13.3269 18.292 12.855 18.3444 12.5315 18.0857L10.0315 16.0857C9.70806 15.8269 9.65562 15.355 9.91438 15.0315C10.1731 14.7081 10.6451 14.6556 10.9685 14.9144L12.8829 16.4459L16.4144 12.0315C16.6731 11.7081 17.1451 11.6556 17.4685 11.9144Z" fill="#72839E"/>
<path fill-rule="evenodd" clip-rule="evenodd" d="M6.25 7.5C6.25 7.08579 6.58579 6.75 7 6.75H17C17.4142 6.75 17.75 7.08579 17.75 7.5C17.75 7.91421 17.4142 8.25 17 8.25H7C6.58579 8.25 6.25 7.91421 6.25 7.5Z" fill="#72839E"/>
<path fill-rule="evenodd" clip-rule="evenodd" d="M6.25 11.5C6.25 11.0858 6.58579 10.75 7 10.75H11C11.4142 10.75 11.75 11.0858 11.75 11.5C11.75 11.9142 11.4142 12.25 11 12.25H7C6.58579 12.25 6.25 11.9142 6.25 11.5Z" fill="#72839E"/>
</svg>
