<svg width="24" height="24" viewBox="0 0 24 24" fill="none" xmlns="http://www.w3.org/2000/svg">
<path d="M21.3437 21.6875H1.65625C1.29374 21.6875 1 21.9814 1 22.3437C1 22.7061 1.29374 23 1.65625 23H21.3437C21.7062 23 22 22.7061 22 22.3437C22 21.9814 21.7062 21.6875 21.3437 21.6875Z" fill="#72839E"/>
<path d="M4.16853 20.4877C4.21946 20.4877 4.27064 20.4818 4.32144 20.4696L10.5454 18.9789C10.5596 18.9754 10.5721 18.969 10.5859 18.9648C10.6093 18.9576 10.6326 18.9505 10.6553 18.9405C10.6751 18.9319 10.6932 18.9212 10.7117 18.9109C10.7302 18.9005 10.7487 18.8907 10.7663 18.8785C10.7868 18.8643 10.805 18.848 10.8235 18.8317C10.8343 18.8223 10.8463 18.8151 10.8565 18.8048L21.8077 7.85361C22.064 7.59728 22.064 7.18174 21.8077 6.92554L17.0746 2.19215C16.8185 1.93595 16.4027 1.93595 16.1466 2.19215L5.1953 13.1435C5.18506 13.1537 5.17771 13.1658 5.16826 13.1766C5.15199 13.1951 5.13571 13.2133 5.12154 13.2337C5.1092 13.2513 5.09949 13.2698 5.08912 13.2881C5.07875 13.3068 5.06799 13.3249 5.05932 13.3446C5.04935 13.3674 5.04226 13.3908 5.03504 13.4143C5.03084 13.4279 5.02441 13.4404 5.021 13.4544L3.53026 19.6783C3.47711 19.9002 3.54313 20.1339 3.70443 20.2952C3.82886 20.4197 3.99646 20.4873 4.1684 20.4873L4.16853 20.4877ZM16.6106 3.58432L20.4157 7.38938L10.3925 17.4125L6.58746 13.6075L16.6106 3.58432ZM6.0244 14.9007L9.09945 17.9757L5.05591 18.9442L6.0244 14.9007Z" fill="#72839E"/>
</svg>
