<svg width="34" height="34" viewBox="0 0 34 34" fill="none" xmlns="http://www.w3.org/2000/svg">
<g clip-path="url(#clip0_135_507)">
<path d="M17.0001 0.849976C8.0807 0.849976 0.850098 8.08058 0.850098 17C0.850098 25.9194 8.0807 33.15 17.0001 33.15C25.9195 33.15 33.1501 25.9194 33.1501 17C33.1425 8.08372 25.9164 0.857555 17.0001 0.849976ZM17.9554 24.2709C17.9027 24.397 17.8256 24.5114 17.7286 24.6077C17.6311 24.7031 17.5169 24.78 17.3918 24.8344C17.1404 24.9354 16.8598 24.9354 16.6084 24.8344C16.3543 24.7272 16.1521 24.525 16.0448 24.2709C15.9945 24.1441 15.9688 24.0088 15.9692 23.8723C15.9621 23.8061 15.9621 23.7393 15.9692 23.673C15.9835 23.6078 16.0018 23.5435 16.0242 23.4806C16.0522 23.4189 16.0843 23.3592 16.1204 23.3019C16.1974 23.1882 16.2954 23.0902 16.4091 23.0133C16.4655 22.9757 16.5253 22.9435 16.5878 22.9171L16.7802 22.8621C17.1171 22.7956 17.4649 22.9013 17.7079 23.1439C17.7568 23.1919 17.8005 23.2449 17.8385 23.3019C17.8751 23.3578 17.9051 23.4178 17.9279 23.4806C17.9556 23.5422 17.9764 23.6068 17.9897 23.673C17.9968 23.7393 17.9968 23.8061 17.9897 23.8723C18.0034 24.0062 17.9917 24.1414 17.9554 24.2709ZM19.1168 18.1614C18.8969 18.3813 18.6976 18.5806 18.5395 18.7662C18.1898 19.3002 18.0123 19.9286 18.0309 20.5667C18.0504 21.1348 17.6091 21.6128 17.0413 21.6388H17.0001C16.4465 21.6393 15.9914 21.2024 15.9692 20.6492C15.937 19.4911 16.3006 18.3565 17.0001 17.4329C17.1857 17.213 17.4262 16.9725 17.6873 16.7113C18.4777 15.9141 19.4604 14.9245 19.4604 13.8043C19.4604 11.4952 17.8385 11.1516 16.8695 11.1516C16.3335 11.1516 14.5948 11.344 14.5948 13.8043C14.5948 14.3737 14.1333 14.8352 13.5639 14.8352C12.9946 14.8352 12.5331 14.3737 12.5331 13.8043C12.5331 10.0864 15.282 9.08991 16.8695 9.08991C19.3183 8.96736 21.4029 10.8532 21.5254 13.302C21.5338 13.4694 21.5327 13.6371 21.5221 13.8043C21.4946 15.7698 20.0652 17.213 19.1168 18.1614Z" fill="#4DA62C"/>
</g>
<defs>
<clipPath id="clip0_135_507">
<rect width="34" height="34" fill="white"/>
</clipPath>
</defs>
</svg>
