<svg width="34" height="34" viewBox="0 0 34 34" fill="none" xmlns="http://www.w3.org/2000/svg">
<g clip-path="url(#clip0_135_507)">
<path d="M17 0.849976C8.08058 0.849976 0.849976 8.08058 0.849976 17C0.849976 25.9194 8.08058 33.15 17 33.15C25.9194 33.15 33.15 25.9194 33.15 17C33.1424 8.08372 25.9162 0.857555 17 0.849976ZM17.9552 24.2709C17.9025 24.397 17.8255 24.5114 17.7284 24.6077C17.6309 24.7031 17.5168 24.78 17.3917 24.8344C17.1403 24.9354 16.8596 24.9354 16.6083 24.8344C16.3542 24.7272 16.152 24.525 16.0447 24.2709C15.9944 24.1441 15.9687 24.0088 15.9691 23.8723C15.962 23.8061 15.962 23.7393 15.9691 23.673C15.9833 23.6078 16.0017 23.5435 16.0241 23.4806C16.052 23.4189 16.0842 23.3592 16.1203 23.3019C16.1973 23.1882 16.2953 23.0902 16.409 23.0133C16.4654 22.9757 16.5252 22.9435 16.5876 22.9171L16.7801 22.8621C17.1169 22.7956 17.4648 22.9013 17.7078 23.1439C17.7567 23.1919 17.8004 23.2449 17.8384 23.3019C17.875 23.3578 17.905 23.4178 17.9277 23.4806C17.9555 23.5422 17.9763 23.6068 17.9896 23.673C17.9967 23.7393 17.9967 23.8061 17.9896 23.8723C18.0033 24.0062 17.9916 24.1414 17.9552 24.2709ZM19.1167 18.1614C18.8967 18.3813 18.6974 18.5806 18.5394 18.7662C18.1897 19.3002 18.0122 19.9286 18.0308 20.5667C18.0502 21.1348 17.609 21.6128 17.0412 21.6388H17C16.4464 21.6393 15.9913 21.2024 15.9691 20.6492C15.9369 19.4911 16.3005 18.3565 17 17.4329C17.1855 17.213 17.4261 16.9725 17.6872 16.7113C18.4775 15.9141 19.4603 14.9245 19.4603 13.8043C19.4603 11.4952 17.8384 11.1516 16.8694 11.1516C16.3334 11.1516 14.5947 11.344 14.5947 13.8043C14.5947 14.3737 14.1331 14.8352 13.5638 14.8352C12.9945 14.8352 12.533 14.3737 12.533 13.8043C12.533 10.0864 15.2819 9.08991 16.8694 9.08991C19.3182 8.96736 21.4027 10.8532 21.5253 13.302C21.5337 13.4694 21.5326 13.6371 21.522 13.8043C21.4945 15.7698 20.065 17.213 19.1167 18.1614Z" fill="#4DA62C"/>
</g>
<defs>
<clipPath id="clip0_135_507">
<rect width="34" height="34" fill="white"/>
</clipPath>
</defs>
</svg>
