<svg width="24" height="24" viewBox="0 0 24 24" fill="none" xmlns="http://www.w3.org/2000/svg">
<path fill-rule="evenodd" clip-rule="evenodd" d="M11.7559 5.24408C11.4305 4.91864 10.9028 4.91864 10.5774 5.24407L4.74408 11.0774C4.41867 11.4028 4.41867 11.9305 4.74408 12.2559L10.5774 18.0893C10.9028 18.4147 11.4305 18.4147 11.7559 18.0893C12.0814 17.7638 12.0814 17.2362 11.7559 16.9108L6.51183 11.6667L11.7559 6.42259C12.0814 6.09715 12.0814 5.56952 11.7559 5.24408Z" fill="#9E9E9E"/>
<path fill-rule="evenodd" clip-rule="evenodd" d="M17.7559 5.24408C17.4305 4.91864 16.9028 4.91864 16.5774 5.24407L10.7441 11.0774C10.4187 11.4028 10.4187 11.9305 10.7441 12.2559L16.5774 18.0893C16.9028 18.4147 17.4305 18.4147 17.7559 18.0893C18.0814 17.7638 18.0814 17.2362 17.7559 16.9108L12.5118 11.6667L17.7559 6.42259C18.0814 6.09715 18.0814 5.56952 17.7559 5.24408Z" fill="#9E9E9E"/>
</svg>
