<svg width="32" height="32" viewBox="0 0 32 32" fill="none" xmlns="http://www.w3.org/2000/svg">
<g clip-path="url(#clip0_85_209)">
<path d="M32 16C32 12.9333 31.8667 10.1333 31.3333 8.53333C30.8 6.66667 30.1333 4.93333 28.5333 3.33333C26.5333 1.46667 24.8 0.933333 22.1333 0.4C20.2667 0.133333 18 0 16.6667 0C16.2667 0 15.8667 0 15.4667 0C14 0 11.8667 0.133333 9.86667 0.4C7.2 0.933333 5.33333 1.6 3.46667 3.33333C1.73333 4.93333 1.2 6.66667 0.666667 8.53333C0.133333 10.1333 0 12.9333 0 16C0 19.0667 0.133333 21.8667 0.666667 23.4667C1.2 25.3333 1.86667 27.0667 3.46667 28.6667C5.46667 30.5333 7.2 31.0667 9.86667 31.6C12 32 14.6667 32 16 32C17.3333 32 20 32 22.2667 31.6C24.8 31.0667 26.6667 30.5333 28.6667 28.6667C30.2667 27.2 30.9333 25.4667 31.4667 23.4667C31.8667 21.8667 32 19.0667 32 16Z" fill="#3C64D3"/>
<path d="M19.7333 20.6667V19.7333H16.9333V16.9333H19.7333V18.8H21.6V20.6667H20.6666V22.5333H18.8V24.4H16.9333V21.6H18.8V20.6667C18.8 20.5333 19.7333 20.5333 19.7333 20.6667ZM24.1333 24.2667H20.4V22.4H22.2666V20.5333H24.1333V24.2667ZM7.59998 7.73334H14.9333V15.0667H7.59998V7.73334ZM16.8 7.73334H24.1333V15.0667H16.8V7.73334ZM7.59998 16.8H14.9333V24.1333H7.59998V16.8ZM21.4666 16.8H24.2666V18.6667H21.4666V16.8ZM10.2666 10.4V12.2667H12.1333V10.4H10.2666ZM10.2666 19.7333V21.6H12.1333V19.7333H10.2666ZM19.7333 10.4V12.2667H21.6V10.4H19.7333Z" fill="white"/>
</g>
<defs>
<clipPath id="clip0_85_209">
<rect width="32" height="32" fill="white"/>
</clipPath>
</defs>
</svg>
