<svg width="28" height="28" viewBox="0 0 28 28" fill="none" xmlns="http://www.w3.org/2000/svg">
<path fill-rule="evenodd" clip-rule="evenodd" d="M23.8476 21.2873C25.3573 19.2509 26.25 16.7297 26.25 14C26.25 7.23446 20.7654 1.75 14 1.75C7.23446 1.75 1.75 7.23446 1.75 14C1.75 20.7654 7.23446 26.25 14 26.25C17.5495 26.25 20.7464 24.7404 22.9838 22.328C23.2902 21.9975 23.5787 21.6501 23.8476 21.2873ZM23.1684 20.125C24.3411 18.3731 25.0249 16.2664 25.0249 14C25.0249 7.91107 20.0889 2.97497 13.9999 2.97497C7.91107 2.97497 2.97497 7.91107 2.97497 14C2.97497 16.2665 3.65882 18.3731 4.83157 20.125C6.31108 17.9147 8.56867 16.2692 11.2125 15.5805C9.93597 14.6959 9.09997 13.2206 9.09997 11.5499C9.09997 8.84376 11.2938 6.6499 14 6.6499C16.7062 6.6499 18.9 8.84376 18.9 11.5499C18.9 13.2205 18.0639 14.6959 16.7875 15.5803C19.4312 16.2692 21.6889 17.9146 23.1684 20.125ZM22.3794 21.1652C20.6602 18.3382 17.5507 16.4499 14.0001 16.4499C10.4494 16.4499 7.33982 18.3382 5.62064 21.1654C7.6427 23.5278 10.6464 25.025 14 25.025C17.3536 25.025 20.3573 23.5277 22.3794 21.1652ZM14 15.225C16.0297 15.225 17.6751 13.5797 17.6751 11.5499C17.6751 9.52023 16.0298 7.87487 14 7.87487C11.9702 7.87487 10.3249 9.52036 10.3249 11.5501C10.3249 13.5797 11.9703 15.225 14 15.225Z" fill="#222222"/>
</svg>
