<svg width="28" height="28" viewBox="0 0 28 28" fill="none" xmlns="http://www.w3.org/2000/svg">
<path d="M24.6665 6.00921C24.5616 5.33672 23.985 4.83486 23.3198 4.83486C23.3165 4.83486 23.31 4.83486 23.3067 4.83486C19.1716 4.87835 15.184 6.38394 12.0155 9.0806C11.9172 7.89621 11.5863 6.74193 11.0391 5.68468C10.292 4.24266 9.16814 3.0382 7.79524 2.20176C7.2415 1.86384 6.55013 1.95752 6.11762 2.42927C4.05991 4.66757 2.95242 7.59175 3.00157 10.6631C3.04744 13.6208 4.16149 16.4044 6.14711 18.5423C5.96034 19.2717 5.81945 20.0145 5.72443 20.7706C5.68511 21.0818 5.89809 21.3662 6.20609 21.4096C6.22903 21.413 6.25524 21.413 6.27817 21.413C6.55341 21.413 6.7926 21.2056 6.82864 20.9178C6.93022 20.1316 7.08094 19.3621 7.28409 18.616C7.30703 18.5658 7.32014 18.5156 7.32669 18.462C9.33525 11.2721 15.8295 6.05271 23.3264 5.97241C23.3264 5.97241 23.3264 5.97241 23.3296 5.97241C23.4476 5.97241 23.559 6.06944 23.5787 6.18654C23.9915 8.8464 24.0046 11.5431 23.618 14.2063C23.6114 14.2263 23.6049 14.2464 23.6016 14.2665C22.8316 17.6423 20.6821 20.5264 17.6971 22.1758C15.066 23.6346 12.0024 24.016 9.12882 23.2766C10.0987 22.6241 11.0293 21.9082 11.9172 21.1286C14.26 19.071 16.2292 16.6386 17.7692 13.9052C17.9232 13.6342 17.8315 13.2862 17.5628 13.1289C17.2974 12.9717 16.9566 13.0654 16.8026 13.3397C14.5549 17.3044 11.3405 20.6167 7.52001 22.952C7.50362 22.9587 7.49052 22.9688 7.47414 22.9788C6.24868 23.7249 4.96426 24.3673 3.6274 24.9026C3.34234 25.0163 3.19816 25.3476 3.31285 25.6387C3.39804 25.8628 3.60774 26 3.83055 26C3.89936 26 3.96817 25.9866 4.0337 25.9599C5.35745 25.4312 6.62877 24.8022 7.84767 24.0762C9.20418 24.5446 10.6131 24.7788 12.0188 24.7788C14.1617 24.7788 16.2948 24.2401 18.2148 23.1728C21.4456 21.3862 23.7851 18.2747 24.6468 14.6312C24.6665 14.5843 24.6829 14.5342 24.6894 14.4806C25.1121 11.6702 25.1023 8.81963 24.6665 6.00921ZM8.59474 12.955C8.58818 12.346 8.56197 11.7806 8.5161 11.2386C8.41452 10.081 8.2212 8.86313 7.92631 7.5081C7.86078 7.2003 7.5626 7.00959 7.26116 7.0765C6.95971 7.14342 6.77294 7.44788 6.83847 7.75569C7.12354 9.06053 7.31031 10.2315 7.40533 11.339C7.49707 12.3996 7.5069 13.5672 7.43154 15.0026C7.07767 15.7319 6.76967 16.4847 6.51409 17.2609C3.15885 13.1724 3.27353 7.17353 6.92367 3.20549C6.99575 3.12519 7.12026 3.11515 7.22184 3.17537C9.61048 4.62742 11.0161 7.25717 10.9277 10.081C10.0495 10.9609 9.26972 11.9245 8.59474 12.955Z" fill="#222222"/>
</svg>
