<svg width="28" height="28" viewBox="0 0 28 28" fill="none" xmlns="http://www.w3.org/2000/svg">
<path d="M11.0833 20.4167C10.7612 20.4167 10.5 20.6779 10.5 21C10.5 21.3221 10.7612 21.5834 11.0833 21.5834H16.9167C17.2388 21.5834 17.5 21.3221 17.5 21C17.5 20.6779 17.2388 20.4167 16.9167 20.4167H11.0833Z" fill="#222222"/>
<path fill-rule="evenodd" clip-rule="evenodd" d="M16.5303 3.00434C15.0468 1.83315 12.9533 1.83315 11.4698 3.00434L3.88649 8.99118C2.90564 9.76555 2.33337 10.9464 2.33337 12.1961V21.5833C2.33337 23.8385 4.16154 25.6667 6.41671 25.6667H21.5834C23.8385 25.6667 25.6667 23.8385 25.6667 21.5833V12.1961C25.6667 10.9464 25.0945 9.76555 24.1136 8.99118L16.5303 3.00434ZM12.1928 3.92003C13.2524 3.08346 14.7476 3.08346 15.8073 3.92003L23.3907 9.90688C24.0912 10.46 24.5 11.3035 24.5 12.1961V21.5833C24.5 23.1942 23.1942 24.5 21.5834 24.5H6.41671C4.80588 24.5 3.50004 23.1942 3.50004 21.5833V12.1961C3.50004 11.3035 3.90879 10.46 4.60941 9.90688L12.1928 3.92003Z" fill="#222222"/>
</svg>
