<svg width="28" height="28" viewBox="0 0 28 28" fill="none" xmlns="http://www.w3.org/2000/svg">
<path d="M23 4.055H21.38V2.6C21.38 2.2685 21.1115 2 20.78 2C20.4485 2 20.18 2.2685 20.18 2.6V4.055H7.82V2.6C7.82 2.2685 7.5515 2 7.22 2C6.8885 2 6.62 2.2685 6.62 2.6V4.055H5C3.34588 4.055 2 5.41944 2 7.07375V22.67C2.003 24.3215 3.34456 25.658 4.99625 25.655H23C24.6517 25.6601 25.9948 24.3253 26 22.6737V7.07375C26 5.41944 24.6541 4.055 23 4.055ZM24.8 22.67C24.7978 23.6581 23.9947 24.4573 23.0066 24.455H5C4.01187 24.4608 3.206 23.6647 3.2 22.6766V7.07375C3.2 6.08113 4.00738 5.255 5 5.255H6.62V7.36063C6.62 7.69194 6.8885 7.96063 7.22 7.96063C7.5515 7.96063 7.82 7.69194 7.82 7.36063V5.255H20.18V7.36063C20.18 7.69194 20.4485 7.96063 20.78 7.96063C21.1115 7.96063 21.38 7.69194 21.38 7.36063V5.255H23C23.9926 5.255 24.8 6.08113 24.8 7.07375V22.67Z" fill="#222222"/>
<path d="M20.4483 15.455H7.55166C7.22016 15.455 6.95166 15.7235 6.95166 16.055C6.95166 16.3863 7.22016 16.655 7.55166 16.655H20.4483C20.7798 16.655 21.0483 16.3863 21.0483 16.055C21.0483 15.7235 20.7798 15.455 20.4483 15.455Z" fill="#222222"/>
<path d="M20.4483 19.775H7.55166C7.22016 19.775 6.95166 20.0435 6.95166 20.375C6.95166 20.7063 7.22016 20.975 7.55166 20.975H20.4483C20.7798 20.975 21.0483 20.7063 21.0483 20.375C21.0483 20.0435 20.7798 19.775 20.4483 19.775Z" fill="#222222"/>
<path d="M7.55166 12.395H14.5373C14.8688 12.395 15.1373 12.1263 15.1373 11.795C15.1373 11.4635 14.8688 11.195 14.5373 11.195H7.55166C7.22016 11.195 6.95166 11.4635 6.95166 11.795C6.95166 12.1263 7.22016 12.395 7.55166 12.395Z" fill="#222222"/>
</svg>
