<svg width="20" height="20" viewBox="0 0 20 20" fill="none" xmlns="http://www.w3.org/2000/svg">
<path d="M10.25 9.5C12.3211 9.5 14 7.82107 14 5.75C14 3.67893 12.3211 2 10.25 2C8.17893 2 6.5 3.67893 6.5 5.75C6.5 7.82107 8.17893 9.5 10.25 9.5Z" fill="#4CAF50"/>
<path d="M10.25 10.125C8.59296 10.1268 7.00432 10.7859 5.83262 11.9576C4.66092 13.1293 4.00184 13.718 4 15.375V16.625C4.00054 17.1221 4.19826 17.5987 4.54977 17.9502C4.90129 18.3017 5.37789 18.4995 5.875 18.5H14.625C15.1221 18.4995 15.5987 18.3017 15.9502 17.9502C16.3017 17.5987 16.4995 17.1221 16.5 16.625V15.375C16.4982 13.718 15.8391 13.1293 14.6674 11.9576C13.4957 10.7859 11.907 10.1268 10.25 10.125Z" fill="#4CAF50"/>
</svg>
