<svg width="20" height="20" viewBox="0 0 20 20" fill="none" xmlns="http://www.w3.org/2000/svg">
<path d="M18.2294 6.22396L17.5027 3.55471C17.2 2.44296 16.1843 1.66663 15.032 1.66663H12.7224H7.27768H4.96768C3.81576 1.66663 2.80018 2.44296 2.49743 3.55463L1.77068 6.22396C1.53384 7.09388 1.71693 8.01029 2.2736 8.73863C2.8771 9.52796 3.85568 9.99996 4.89084 9.99996C5.90909 9.99996 6.80743 9.54488 7.39793 8.84954C8.04793 9.55229 8.96943 9.99996 9.99984 9.99996C11.0305 9.99996 11.9521 9.55229 12.6021 8.84954C13.1927 9.54488 14.091 9.99996 15.1093 9.99996C16.1445 9.99996 17.1227 9.52879 17.7261 8.73854C18.2828 8.01104 18.4663 7.09388 18.2294 6.22396Z" fill="#4CAF50"/>
<path d="M16.6645 10.8333C16.2044 10.8333 15.8312 11.206 15.8312 11.6666V15.3246C15.8312 16.0643 15.2294 16.6666 14.4896 16.6666H13.3312V14.1666C13.3312 12.3282 11.8359 10.8333 9.99786 10.8333C8.15986 10.8333 6.66452 12.3282 6.66452 14.1666V16.6666H5.50644C4.76627 16.6666 4.16444 16.0643 4.16444 15.3246V11.6666C4.16444 11.206 3.79127 10.8333 3.33111 10.8333C2.87094 10.8333 2.49777 11.206 2.49777 11.6666V15.3246C2.49786 16.984 3.84752 18.3333 5.50644 18.3333H14.4896C16.1485 18.3333 17.4979 16.984 17.4979 15.3246V11.6666C17.4979 11.206 17.1247 10.8333 16.6645 10.8333Z" fill="#4CAF50"/>
</svg>
