<svg width="20" height="20" viewBox="0 0 20 20" fill="none" xmlns="http://www.w3.org/2000/svg">
<g clip-path="url(#clip0_243_2133)">
<path d="M6.42855 7.14286C8.40099 7.14286 9.99997 5.54387 9.99997 3.57143C9.99997 1.59898 8.40099 0 6.42855 0C4.4561 0 2.85712 1.59898 2.85712 3.57143C2.85712 5.54387 4.4561 7.14286 6.42855 7.14286Z" fill="#4CAF50"/>
<path d="M0.714286 15.7143H10.13C10.2421 15.8393 10.365 15.9478 10.5 16.0414V19.2857C10.5 19.68 10.82 20 11.2143 20H18.3571C18.7514 20 19.0714 19.68 19.0714 19.2857V16.0421C19.2614 15.91 19.4393 15.7578 19.5821 15.5643C19.9879 15.015 20.1057 14.325 19.905 13.6721L18.93 10.5043C18.8379 10.2043 18.5607 9.99996 18.2471 9.99996H12.785C12.4529 8.37211 11.0107 7.14282 9.28571 7.14282H8.57143C8.43071 7.14282 8.29214 7.18497 8.175 7.26282L6.42857 8.42711L4.68214 7.26282C4.565 7.18497 4.42643 7.14282 4.28571 7.14282H3.57143C1.60214 7.14282 0 8.74497 0 10.7143V15C0 15.3943 0.32 15.7143 0.714286 15.7143ZM17.6429 18.5714H11.9286V16.4057C12.3843 16.3571 12.7957 16.1685 13.1193 15.8778C13.4964 16.2164 13.99 16.4285 14.5357 16.4285H15.0371C15.5829 16.4285 16.0757 16.2164 16.4529 15.8778C16.7764 16.1685 17.1879 16.3571 17.6436 16.4057L17.6429 18.5714ZM11.0321 14.0921L11.8521 11.4285H17.72L18.5393 14.0921C18.6057 14.3071 18.5671 14.5342 18.4336 14.7157C18.2993 14.8957 18.0936 15 17.8686 15C17.4814 15 17.1671 14.685 17.1671 14.2857C17.1671 13.8914 16.8471 13.5778 16.4529 13.5778C16.0586 13.5778 15.7386 13.9043 15.7386 14.2985C15.7386 14.6857 15.4236 15 15.0371 15H14.5357C14.1486 15 13.8343 14.685 13.8343 14.2857C13.8343 13.8914 13.5143 13.5778 13.12 13.5778C12.7257 13.5778 12.4057 13.9043 12.4057 14.2985C12.4057 14.6857 12.0907 15 11.7043 15C11.4793 15 11.2736 14.8957 11.1393 14.715C11.005 14.5343 10.9664 14.3071 11.0321 14.0921Z" fill="#4CAF50"/>
</g>
<defs>
<clipPath id="clip0_243_2133">
<rect width="20" height="20" fill="white"/>
</clipPath>
</defs>
</svg>
