<svg width="12" height="12" viewBox="0 0 12 12" fill="none" xmlns="http://www.w3.org/2000/svg">
<g clip-path="url(#clip0_96_630)">
<path d="M11.6385 9.28244C11.1109 8.17932 10.2116 7.45989 8.91662 7.13615C8.72477 7.08818 8.52093 7.13615 8.36506 7.26804L7.2979 8.14335C7.09406 8.31121 6.7943 8.3352 6.56648 8.19131C5.43937 7.49586 4.5161 6.57259 3.82066 5.44549C3.67677 5.21767 3.70075 4.9179 3.86862 4.71407L4.74392 3.64691C4.87582 3.49103 4.92378 3.2872 4.87582 3.09535C4.54008 1.78838 3.82066 0.889096 2.71753 0.361514C2.53767 0.277581 2.33383 0.277581 2.15398 0.373505C1.60241 0.673267 1.06284 1.009 0.55924 1.38071C0.367392 1.52459 0.271468 1.7644 0.307439 2.00421C0.667154 4.15051 1.83023 6.40473 3.71274 8.28723C5.59525 10.1697 7.84946 11.3208 9.99576 11.6925C10.2356 11.7285 10.4754 11.6326 10.6193 11.4407C10.991 10.9371 11.3267 10.4096 11.6265 9.846C11.7224 9.66614 11.7224 9.4623 11.6385 9.28244Z" fill="#C1C9D2"/>
</g>
<defs>
<clipPath id="clip0_96_630">
<rect width="12" height="12" fill="white"/>
</clipPath>
</defs>
</svg>
