<svg width="64" height="64" viewBox="0 0 64 64" fill="none" xmlns="http://www.w3.org/2000/svg">
<path d="M6 19.66V54C6 55.0609 6.42143 56.0783 7.17157 56.8284C7.92172 57.5786 8.93913 58 10 58H42C43.0609 58 44.0783 57.5786 44.8284 56.8284C45.5786 56.0783 46 55.0609 46 54V10C46 8.93914 45.5786 7.92172 44.8284 7.17157C44.0783 6.42143 43.0609 6 42 6H19.66C19.1322 5.99958 18.6095 6.10363 18.1221 6.30616C17.6346 6.50868 17.1921 6.80566 16.82 7.18L7.18 16.82C6.80566 17.1921 6.50867 17.6346 6.30615 18.1221C6.10363 18.6095 5.99958 19.1322 6 19.66Z" fill="#D9EBEF"/>
<path d="M6 19.66V20H16C17.0609 20 18.0783 19.5786 18.8284 18.8284C19.5786 18.0783 20 17.0609 20 16V6H19.66C19.1322 5.99958 18.6095 6.10363 18.1221 6.30616C17.6346 6.50868 17.1921 6.80566 16.82 7.18L7.18 16.82C6.80566 17.1921 6.50867 17.6346 6.30615 18.1221C6.10363 18.6095 5.99958 19.1322 6 19.66Z" fill="#7DA1A9"/>
<path d="M14 29.5H24C24.3978 29.5 24.7794 29.342 25.0607 29.0607C25.342 28.7794 25.5 28.3978 25.5 28C25.5 27.6022 25.342 27.2206 25.0607 26.9393C24.7794 26.658 24.3978 26.5 24 26.5H14C13.6022 26.5 13.2206 26.658 12.9393 26.9393C12.658 27.2206 12.5 27.6022 12.5 28C12.5 28.3978 12.658 28.7794 12.9393 29.0607C13.2206 29.342 13.6022 29.5 14 29.5Z" fill="#0B4F6C"/>
<path d="M14 37.5H22C22.3978 37.5 22.7794 37.342 23.0607 37.0607C23.342 36.7794 23.5 36.3978 23.5 36C23.5 35.6022 23.342 35.2206 23.0607 34.9393C22.7794 34.658 22.3978 34.5 22 34.5H14C13.6022 34.5 13.2206 34.658 12.9393 34.9393C12.658 35.2206 12.5 35.6022 12.5 36C12.5 36.3978 12.658 36.7794 12.9393 37.0607C13.2206 37.342 13.6022 37.5 14 37.5Z" fill="#0B4F6C"/>
<path d="M14 45.5H24C24.3978 45.5 24.7794 45.342 25.0607 45.0607C25.342 44.7794 25.5 44.3978 25.5 44C25.5 43.6022 25.342 43.2206 25.0607 42.9393C24.7794 42.658 24.3978 42.5 24 42.5H14C13.6022 42.5 13.2206 42.658 12.9393 42.9393C12.658 43.2206 12.5 43.6022 12.5 44C12.5 44.3978 12.658 44.7794 12.9393 45.0607C13.2206 45.342 13.6022 45.5 14 45.5Z" fill="#0B4F6C"/>
<path d="M44 52C36.268 52 30 45.732 30 38C30 30.268 36.268 24 44 24C51.732 24 58 30.268 58 38C58 45.732 51.732 52 44 52Z" fill="#20BF55"/>
<path d="M42.6658 42.6202C42.4656 42.6227 42.2668 42.585 42.0813 42.5094C41.8958 42.4339 41.7274 42.3219 41.5858 42.1802L37.9058 38.4402C37.6249 38.1589 37.4672 37.7777 37.4672 37.3802C37.4672 36.9827 37.6249 36.6014 37.9058 36.3202C38.0437 36.1787 38.2086 36.0662 38.3906 35.9894C38.5727 35.9126 38.7683 35.873 38.9658 35.873C39.1634 35.873 39.359 35.9126 39.5411 35.9894C39.7231 36.0662 39.888 36.1787 40.0258 36.3202L42.6658 39.0002L47.9058 33.8202C48.0437 33.6787 48.2086 33.5662 48.3906 33.4894C48.5727 33.4126 48.7683 33.373 48.9658 33.373C49.1634 33.373 49.359 33.4126 49.5411 33.4894C49.7231 33.5662 49.888 33.6787 50.0258 33.8202C50.1667 33.9684 50.2758 34.1438 50.3464 34.3357C50.417 34.5276 50.4476 34.7319 50.4364 34.9361C50.4252 35.1403 50.3723 35.34 50.2811 35.523C50.1898 35.7059 50.0621 35.8683 49.9058 36.0002L43.7258 42.1802C43.5874 42.3204 43.4223 42.4316 43.2402 42.5071C43.0582 42.5827 42.8629 42.6211 42.6658 42.6202Z" fill="#F2F1F1"/>
</svg>
