<svg width="32" height="32" viewBox="0 0 32 32" fill="none" xmlns="http://www.w3.org/2000/svg">
<g clip-path="url(#clip0_231_3520)">
<path d="M16 31.5C24.5604 31.5 31.5 24.5604 31.5 16C31.5 7.43959 24.5604 0.5 16 0.5C7.43959 0.5 0.5 7.43959 0.5 16C0.5 24.5604 7.43959 31.5 16 31.5Z" fill="#E6ECFF"/>
<path d="M24.9831 14.0514L23.965 9.97662C23.8401 9.476 23.3901 9.125 22.8737 9.125H9.12738C8.611 9.125 8.161 9.476 8.035 9.97662L7.01687 14.0514C7.00562 14.0953 7 14.1414 7 14.1875C7 15.7378 8.19813 17 9.67188 17C10.528 17 11.2919 16.5736 11.7812 15.9121C12.2706 16.5736 13.0345 17 13.8906 17C14.7467 17 15.5106 16.5736 16 15.9121C16.4894 16.5736 17.2521 17 18.1094 17C18.9666 17 19.7294 16.5736 20.2188 15.9121C20.7081 16.5736 21.4709 17 22.3281 17C23.8019 17 25 15.7378 25 14.1875C25 14.1414 24.9944 14.0953 24.9831 14.0514Z" fill="#4294FF"/>
<path d="M22.3281 18.1249C21.562 18.1249 20.8341 17.8909 20.2188 17.4634C18.988 18.3195 17.2307 18.3195 16 17.4634C14.7693 18.3195 13.012 18.3195 11.7812 17.4634C11.1659 17.8909 10.438 18.1249 9.67188 18.1249C9.1195 18.1249 8.59863 17.9955 8.125 17.775V23.7499C8.125 24.3709 8.629 24.8749 9.25 24.8749H13.75V20.3749H18.25V24.8749H22.75C23.371 24.8749 23.875 24.3709 23.875 23.7499V17.775C23.4014 17.9955 22.8805 18.1249 22.3281 18.1249Z" fill="#4294FF"/>
</g>
<defs>
<clipPath id="clip0_231_3520">
<rect width="32" height="32" fill="white"/>
</clipPath>
</defs>
</svg>
