<svg width="32" height="32" viewBox="0 0 32 32" fill="none" xmlns="http://www.w3.org/2000/svg">
<g clip-path="url(#clip0_231_3473)">
<path d="M16 31.5C24.5604 31.5 31.5 24.5604 31.5 16C31.5 7.43959 24.5604 0.5 16 0.5C7.43959 0.5 0.5 7.43959 0.5 16C0.5 24.5604 7.43959 31.5 16 31.5Z" fill="#E6ECFF"/>
<path fill-rule="evenodd" clip-rule="evenodd" d="M22.4143 19.8145C22.4143 18.7872 22.0053 17.802 21.2773 17.0755C20.5493 16.3491 19.5619 15.941 18.5324 15.941H12.6834C11.6538 15.941 10.6664 16.3491 9.93838 17.0755C9.21037 17.802 8.80139 18.7872 8.80139 19.8145V24.2541C8.80139 25.0563 9.45314 25.7067 10.2571 25.7067H20.9586C21.7626 25.7067 22.4143 25.0563 22.4143 24.2541V19.8145ZM15.6542 7.3374C13.6242 7.3374 11.9761 8.98194 11.9761 11.0075C11.9761 13.0331 13.6242 14.6777 15.6542 14.6777C17.6842 14.6777 19.3324 13.0331 19.3324 11.0075C19.3324 8.98194 17.6842 7.3374 15.6542 7.3374Z" fill="#4294FF"/>
</g>
<defs>
<clipPath id="clip0_231_3473">
<rect width="32" height="32" fill="white"/>
</clipPath>
</defs>
</svg>
