<svg width="80" height="107" viewBox="0 0 80 107" fill="none" xmlns="http://www.w3.org/2000/svg">
<path d="M75.3683 100.907V97.9911H62.4807V94.6245H75.3683V91.601H62.4807V88.2129H78.9922V100.907H75.3683ZM61.4729 102.065H80.0001V105.453H61.4729V102.065Z" fill="black"/>
<path d="M54.1625 94.3888V98.0556H50.8173V87.87H54.1625V91.0436H55.685V87.7842H59.073V98.656H55.685V94.3888H54.1625ZM49.5736 87.9986V97.6911H41.1677V87.9986H44.4271V90.0143H46.3142V87.9986H49.5736ZM44.4271 94.882H46.3142V92.7591H44.4271V94.882ZM50.6457 98.6775C55.4705 98.6775 59.2446 99.6639 59.2446 102.494C59.2446 105.325 55.4705 106.311 50.6457 106.311C45.8424 106.311 42.0469 105.325 42.0469 102.494C42.0469 99.6639 45.8424 98.6775 50.6457 98.6775ZM50.6457 103.502C53.2404 103.502 55.3847 103.266 55.3847 102.494C55.3847 101.744 53.2404 101.487 50.6457 101.487C48.0511 101.487 45.9067 101.744 45.9067 102.494C45.9067 103.266 48.0511 103.502 50.6457 103.502Z" fill="black"/>
<path d="M29.3757 94.646C27.2528 97.4551 24.0792 99.1705 20.5839 99.1705V95.7396C24.2293 95.7396 27.6174 92.5659 28.2821 87.7197L31.9704 88.2987C31.7988 89.5424 31.4772 90.7218 31.0054 91.794L38.7465 96.2971L36.8809 99.2563L29.3757 94.646ZM31.3271 98.0126V102.065H38.7465V105.453H20.2194V102.065H27.6388V98.0126H31.3271Z" fill="black"/>
<path d="M16.7902 91.8584H18.9346V95.3752H16.7902V101.401H13.1663V87.7842H16.7902V91.8584ZM12.3085 98.5488C11.3436 98.9562 9.56378 99.1921 7.84831 99.1921H0V87.9986H11.2578V90.8292H3.58106V92.2444H10.8933V94.9249H3.58106V96.3616H8.08419C9.73533 96.3616 11.3436 96.1257 12.3085 95.7611V98.5488ZM4.31014 100.35V102.902H17.0476V106.097H0.62186V100.35H4.31014Z" fill="black"/>
<g clip-path="url(#clip0_231_3443)">
<path fill-rule="evenodd" clip-rule="evenodd" d="M30.7456 11.3715C36.7866 10.8723 42.9583 11.5692 48.9022 13.6398C68.5095 20.4615 79.3184 39.9416 76.0751 59.9275C66.4054 62.5912 57.9654 63.3049 50.7115 61.8876L50.9092 61.3381C52.1254 57.9675 52.8927 54.4929 53.1272 50.9749C54.2262 34.4668 43.7155 21.2857 30.7456 11.3715Z" fill="#0A5398"/>
<path fill-rule="evenodd" clip-rule="evenodd" d="M6.94339 0C44.0707 18.0695 56.0724 39.7508 48.537 60.6247C36.6057 56.4901 27.2309 47.8725 20.9285 34.8724C25.3312 56.9424 45.9102 74.1341 79.2347 61.5662C42.5194 92.6559 -19.9011 54.9522 6.94339 0Z" fill="#7AC016"/>
</g>
<defs>
<clipPath id="clip0_231_3443">
<rect width="78.8114" height="72.7905" fill="white" transform="translate(0.426514)"/>
</clipPath>
</defs>
</svg>
