<svg width="32" height="32" viewBox="0 0 32 32" fill="none" xmlns="http://www.w3.org/2000/svg">
<path fill-rule="evenodd" clip-rule="evenodd" d="M12.5839 6.7594C14.8362 6.57504 17.1372 6.8324 19.3533 7.59704C26.6636 10.1162 30.6935 17.3098 29.4843 24.6902C25.8791 25.6738 22.7324 25.9374 20.0278 25.414L20.1015 25.2111C20.555 23.9664 20.8411 22.6833 20.9285 21.3842C21.3382 15.288 17.4195 10.4205 12.5839 6.7594Z" fill="#0A5398"/>
<path fill-rule="evenodd" clip-rule="evenodd" d="M3.70966 2.56006C17.552 9.23276 22.0267 17.2393 19.2172 24.9476C14.7688 23.4208 11.2736 20.2385 8.92382 15.4378C10.5653 23.5878 18.2378 29.9363 30.6624 25.2953C16.9737 36.7761 -6.29892 22.8528 3.70966 2.56006Z" fill="#7AC016"/>
</svg>
