<svg width="130" height="97" viewBox="0 0 130 97" fill="none" xmlns="http://www.w3.org/2000/svg">
<g clip-path="url(#clip0_317_2077)">
<path fill-rule="evenodd" clip-rule="evenodd" d="M56.603 10.6834C62.2784 10.2144 68.0766 10.8691 73.6607 12.8144C92.0813 19.2232 102.236 37.5242 99.1889 56.3005C90.1045 58.8029 82.1753 59.4734 75.3605 58.1419L75.5462 57.6257C76.6888 54.4591 77.4096 51.1949 77.63 47.8897C78.6624 32.3808 68.788 19.9976 56.603 10.6834Z" fill="#2B53C0"/>
<path fill-rule="evenodd" clip-rule="evenodd" d="M34.2418 0C69.122 16.9758 80.3972 37.3448 73.318 56.9552C62.1088 53.0709 53.3014 44.9749 47.3805 32.7617C51.5167 53.4959 70.8501 69.6469 102.158 57.8397C67.6646 87.0476 9.02209 51.6261 34.2418 0Z" fill="#7AC016"/>
</g>
<path d="M125.941 91.5868V89.0314H114.649V86.0814H125.941V83.4321H114.649V80.4634H129.117V91.5868H125.941ZM113.766 92.6014H130V95.5701H113.766V92.6014Z" fill="black"/>
<path d="M107.36 85.8747V89.0877H104.429V80.1627H107.36V82.9435H108.694V80.0875H111.663V89.6138H108.694V85.8747H107.36ZM103.339 80.2754V88.7683H95.9736V80.2754H98.8296V82.0416H100.483V80.2754H103.339ZM98.8296 86.3068H100.483V84.4467H98.8296V86.3068ZM104.279 89.6326C108.506 89.6326 111.813 90.4969 111.813 92.9771C111.813 95.4573 108.506 96.3216 104.279 96.3216C100.07 96.3216 96.744 95.4573 96.744 92.9771C96.744 90.4969 100.07 89.6326 104.279 89.6326ZM104.279 93.8602C106.552 93.8602 108.431 93.6535 108.431 92.9771C108.431 92.3195 106.552 92.094 104.279 92.094C102.005 92.094 100.126 92.3195 100.126 92.9771C100.126 93.6535 102.005 93.8602 104.279 93.8602Z" fill="black"/>
<path d="M85.6408 86.1003C83.7806 88.5617 80.9998 90.0648 77.9371 90.0648V87.0585C81.1313 87.0585 84.1001 84.2777 84.6825 80.0312L87.9143 80.5386C87.764 81.6284 87.4822 82.6618 87.0688 83.6013L93.8518 87.547L92.2171 90.14L85.6408 86.1003ZM87.3506 89.0502V92.6014H93.8518V95.5702H77.6177V92.6014H84.1188V89.0502H87.3506Z" fill="black"/>
<path d="M74.6135 83.6575H76.4925V86.739H74.6135V92.0189H71.4381V80.0875H74.6135V83.6575ZM70.6865 89.5199C69.841 89.8769 68.2815 90.0835 66.7783 90.0835H59.9014V80.2754H69.7659V82.7556H63.0392V83.9957H69.4464V86.3444H63.0392V87.6033H66.985C68.4318 87.6033 69.841 87.3966 70.6865 87.0772V89.5199ZM63.6781 91.0982V93.3341H74.839V96.1338H60.4463V91.0982H63.6781Z" fill="black"/>
<path d="M48.5489 80.0875H51.7243V96.1338H48.5489V80.0875ZM43.983 80.5197C43.983 82.9059 43.7576 85.048 43.363 86.9081L48.1167 93.522L45.5426 95.3634L42.2356 90.5721C40.8828 93.6535 38.8159 95.3634 36.3545 95.3822V92.1128C38.9287 91.8122 40.7324 87.1148 40.7512 80.4069L43.983 80.5197Z" fill="black"/>
<path d="M23.7483 87.716C22.5082 89.1816 20.6293 90.2338 18.4121 90.2902V87.5281C20.479 87.3402 21.813 85.8371 22.1512 84.1085H18.6V81.4591H22.1324V79.8057H25.3642V81.4591H28.8966V83.6199H30.5501V80.0875H33.7255V92.0188H30.5501V86.5511H28.4457V84.1085H25.3642C25.3079 84.5218 25.2327 84.9164 25.1012 85.311L29.404 87.8288L27.8444 90.1963L23.7483 87.716ZM22.6022 93.3341H33.951V96.1337H19.3704V91.1357H22.6022V93.3341Z" fill="black"/>
<path d="M15.5765 80.0875V91.9625H12.4011V80.0875H15.5765ZM5.27985 80.1063C8.41769 80.1063 10.5597 82.0228 10.5597 84.9164C10.5597 87.8288 8.41769 89.7265 5.27985 89.7265C2.142 89.7265 0 87.8288 0 84.9164C0 82.0228 2.142 80.1063 5.27985 80.1063ZM5.27985 82.7556C4.05853 82.7556 3.15663 83.526 3.15663 84.9164C3.15663 86.3068 4.05853 87.0772 5.27985 87.0772C6.50116 87.0772 7.40306 86.3068 7.40306 84.9164C7.40306 83.526 6.50116 82.7556 5.27985 82.7556ZM4.641 90.5157V93.2777H15.802V96.1338H1.40921V90.5157H4.641Z" fill="black"/>
<defs>
<clipPath id="clip0_317_2077">
<rect width="74.0413" height="68.3847" fill="white" transform="translate(28.1191)"/>
</clipPath>
</defs>
</svg>
