<svg width="32" height="32" viewBox="0 0 32 32" fill="none" xmlns="http://www.w3.org/2000/svg">
<path d="M4.08176 30.4166C4 30.4777 4 30.5665 4 30.5999C4 30.6332 4.01635 30.7165 4.10356 30.7665L6.21835 31.9716C6.30556 32.0216 6.40912 32.0049 6.47453 31.9272C7.26485 30.9942 9.9792 27.8731 11.658 26.8846C11.7288 26.8401 11.816 26.8346 11.8923 26.8679C12.3447 27.0512 12.8407 27.2733 13.3694 27.5288C16.5852 29.1004 21.9703 26.3237 25.1316 21.4588C27.9986 17.0437 28.6799 12.712 27.339 7.39728C26.5215 4.14848 26.576 1.46613 26.7122 0C25.7584 0.988526 23.4964 2.57128 18.2204 3.99298C10.2299 6.14219 3.68932 13.9449 5.01379 19.7427C5.70056 22.7416 6.62714 23.4525 7.34661 23.8746C9.19978 22.3751 20.1771 13.2951 22.1665 7.59166C22.2047 7.48059 22.3082 7.40839 22.4227 7.40839C22.4499 7.40839 22.4717 7.40839 22.499 7.4195C22.6353 7.46392 22.7225 7.60832 22.6843 7.75271C22.6625 7.85822 20.1062 18.2988 9.19433 26.5236L4.08176 30.4166Z" fill="#3BB743"/>
</svg>
