<svg width="32" height="32" viewBox="0 0 32 32" fill="none" xmlns="http://www.w3.org/2000/svg">
<g clip-path="url(#clip0_151_1121)">
<path d="M16 31.4667C24.542 31.4667 31.4667 24.542 31.4667 16C31.4667 7.45799 24.542 0.533325 16 0.533325C7.45799 0.533325 0.533325 7.45799 0.533325 16C0.533325 24.542 7.45799 31.4667 16 31.4667Z" fill="#64DAF9"/>
<path d="M19.2 0.864008V1.58934C19.2 1.8856 19.0906 2.17142 18.8928 2.39192C18.6949 2.61242 18.4226 2.75205 18.128 2.78401L15.7387 3.05067C15.5704 3.06957 15.4001 3.05278 15.2388 3.00138C15.0774 2.94999 14.9288 2.86516 14.8024 2.75243C14.6761 2.6397 14.575 2.50159 14.5056 2.34713C14.4363 2.19267 14.4003 2.02532 14.4 1.85601V0.613341C14.9317 0.559825 15.4657 0.533124 16 0.533341C17.0753 0.5318 18.1478 0.642624 19.2 0.864008Z" fill="#49B749"/>
<path d="M12.0374 5.21068L8.16536 9.08802C7.83404 9.41464 7.38794 9.59844 6.9227 9.60002H5.68003C5.45736 9.59913 5.23866 9.65888 5.04736 9.77284C4.85607 9.8868 4.6994 10.0507 4.59417 10.2469C4.48893 10.4431 4.43908 10.6643 4.44998 10.8867C4.46088 11.1091 4.53211 11.3244 4.65603 11.5093L5.04536 12.0907C5.18923 12.3046 5.24827 12.5645 5.21097 12.8196C5.17367 13.0747 5.04271 13.3068 4.84361 13.4706C4.64452 13.6344 4.39155 13.7182 4.13404 13.7056C3.87653 13.6931 3.63292 13.5851 3.4507 13.4027L1.28003 11.232C2.0385 8.89798 3.34068 6.77756 5.07929 5.04544C6.8179 3.31333 8.94318 2.01909 11.28 1.26935L12.32 3.10401C12.5118 3.43718 12.5881 3.82441 12.537 4.20542C12.4859 4.58644 12.3102 4.93987 12.0374 5.21068Z" fill="#49B749"/>
<path d="M14.4 16.864V18.8587C14.4006 19.0835 14.3514 19.3057 14.256 19.5094L10.928 26.6347C10.8345 26.8363 10.6749 27 10.4756 27.0986C10.2764 27.1972 10.0495 27.2249 9.83241 27.177C9.61533 27.1291 9.42111 27.0085 9.28187 26.8352C9.14263 26.6619 9.06672 26.4463 9.06668 26.224V21.968C9.06683 21.767 9.02733 21.5679 8.95046 21.3821C8.87359 21.1963 8.76085 21.0275 8.61868 20.8854L7.38135 19.648C7.23919 19.5059 7.12645 19.3371 7.04957 19.1513C6.9727 18.9655 6.93321 18.7664 6.93335 18.5654V15.84C6.93448 15.5336 7.02692 15.2345 7.19886 14.9808C7.37081 14.7272 7.61445 14.5305 7.89868 14.416L8.99735 13.9787C9.18765 13.9016 9.39157 13.8637 9.59686 13.8674C9.80216 13.871 10.0046 13.9162 10.192 14L13.488 15.4667C13.759 15.5863 13.9894 15.7821 14.1512 16.0301C14.3131 16.2781 14.3996 16.5678 14.4 16.864Z" fill="#49B749"/>
<path d="M28.736 12.4374C29.1209 13.0165 29.3284 13.6954 29.3332 14.3907C29.3379 15.0861 29.1396 15.7677 28.7627 16.352L23.7707 24.0587C23.6494 24.2459 23.4709 24.389 23.2617 24.4665C23.0525 24.544 22.8238 24.5519 22.6098 24.489C22.3958 24.426 22.2078 24.2956 22.0739 24.1171C21.94 23.9387 21.8673 23.7218 21.8667 23.4987V17.0667C21.8667 16.6423 21.6981 16.2354 21.3981 15.9353C21.098 15.6353 20.6911 15.4667 20.2667 15.4667C19.418 15.4667 18.6041 15.1295 18.004 14.5294C17.4039 13.9293 17.0667 13.1154 17.0667 12.2667C17.0667 11.418 17.4039 10.6041 18.004 10.0039C18.6041 9.40382 19.418 9.06668 20.2667 9.06668H22.7147C22.8635 9.0663 23.0088 9.02193 23.1323 8.93918C23.2559 8.85642 23.3523 8.73896 23.4093 8.60158C23.4663 8.46419 23.4814 8.31302 23.4527 8.16708C23.424 8.02113 23.3528 7.88693 23.248 7.78135L21.024 5.55735C20.8032 5.3377 20.6574 5.05384 20.6076 4.74635C20.5578 4.43886 20.6065 4.12349 20.7467 3.84535L21.8294 1.67468C25.5692 3.19584 28.5664 6.11841 30.1814 9.81868L28.864 11.136C28.6959 11.3049 28.5913 11.5267 28.568 11.7639C28.5446 12.001 28.604 12.239 28.736 12.4374Z" fill="#49B749"/>
</g>
<defs>
<clipPath id="clip0_151_1121">
<rect width="32" height="32" fill="white"/>
</clipPath>
</defs>
</svg>
