<svg width="32" height="32" viewBox="0 0 32 32" fill="none" xmlns="http://www.w3.org/2000/svg">
<g clip-path="url(#clip0_151_1129)">
<path d="M28.4437 0.962524H3.55C1.59375 0.962524 0 2.55627 0 4.51877V21.2C0 23.1625 1.59375 24.75 3.55 24.75H11.575L14.8062 30.35C15.1875 31.0063 16.025 31.2313 16.6812 30.85C16.8875 30.7313 17.0625 30.5563 17.1812 30.35L20.4125 24.75H28.4375C30.4 24.75 31.9937 23.1563 31.9937 21.2V4.51877C32 2.55627 30.4062 0.962524 28.4437 0.962524ZM8 14.9188C6.8375 14.9188 5.89375 13.975 5.89375 12.8125C5.89375 11.65 6.8375 10.7063 8 10.7063C9.1625 10.7063 10.1062 11.65 10.1062 12.8125C10.1062 13.975 9.1625 14.9188 8 14.9188ZM16 14.9188C14.8375 14.9188 13.8937 13.975 13.8937 12.8125C13.8937 11.65 14.8375 10.7063 16 10.7063C17.1625 10.7063 18.1062 11.65 18.1062 12.8125C18.1062 13.975 17.1625 14.9188 16 14.9188ZM24 14.9188C22.8375 14.9188 21.8937 13.975 21.8937 12.8125C21.8937 11.65 22.8375 10.7063 24 10.7063C25.1625 10.7063 26.1062 11.65 26.1062 12.8125C26.1062 13.975 25.1625 14.9188 24 14.9188Z" fill="#4DA62C"/>
</g>
<defs>
<clipPath id="clip0_151_1129">
<rect width="32" height="32" fill="white"/>
</clipPath>
</defs>
</svg>
