<svg width="32" height="32" viewBox="0 0 32 32" fill="none" xmlns="http://www.w3.org/2000/svg">
<g clip-path="url(#clip0_147_1110)">
<path d="M29.7931 12.1379H28.0894C27.8737 11.4652 27.6021 10.8116 27.2772 10.1843L28.4839 8.97765C28.6888 8.77272 28.8514 8.52943 28.9623 8.26167C29.0732 7.99391 29.1303 7.70693 29.1303 7.4171C29.1303 7.12728 29.0732 6.84029 28.9623 6.57253C28.8514 6.30477 28.6888 6.06148 28.4839 5.85655L26.1434 3.51614C25.9385 3.3112 25.6952 3.14863 25.4275 3.03771C25.1597 2.9268 24.8727 2.86971 24.5829 2.86971C24.2931 2.86971 24.0061 2.9268 23.7383 3.03771C23.4706 3.14863 23.2273 3.3112 23.0223 3.51614L21.8157 4.72276C21.1884 4.39791 20.5348 4.12625 19.8621 3.91062V2.2069C19.8621 1.62159 19.6296 1.06026 19.2157 0.646385C18.8018 0.232512 18.2405 0 17.6552 0H14.3448C13.7595 0 13.1982 0.232512 12.7843 0.646385C12.3704 1.06026 12.1379 1.62159 12.1379 2.2069V3.91062C11.4652 4.12625 10.8116 4.39791 10.1843 4.72276L8.97765 3.51614C8.77272 3.3112 8.52943 3.14863 8.26167 3.03771C7.99391 2.9268 7.70693 2.86971 7.4171 2.86971C7.12728 2.86971 6.84029 2.9268 6.57253 3.03771C6.30477 3.14863 6.06148 3.3112 5.85655 3.51614L3.51614 5.85655C3.3112 6.06148 3.14863 6.30477 3.03771 6.57253C2.9268 6.84029 2.86971 7.12728 2.86971 7.4171C2.86971 7.70693 2.9268 7.99391 3.03771 8.26167C3.14863 8.52943 3.3112 8.77272 3.51614 8.97765L4.72276 10.1843C4.39791 10.8116 4.12625 11.4652 3.91062 12.1379H2.2069C1.62159 12.1379 1.06026 12.3704 0.646385 12.7843C0.232512 13.1982 0 13.7595 0 14.3448V17.6552C0 18.2405 0.232512 18.8018 0.646385 19.2157C1.06026 19.6296 1.62159 19.8621 2.2069 19.8621H3.91062C4.12625 20.5348 4.39791 21.1884 4.72276 21.8157L3.51614 23.0223C3.3112 23.2273 3.14863 23.4706 3.03771 23.7383C2.9268 24.0061 2.86971 24.2931 2.86971 24.5829C2.86971 24.8727 2.9268 25.1597 3.03771 25.4275C3.14863 25.6952 3.3112 25.9385 3.51614 26.1434L5.85655 28.4839C6.06148 28.6888 6.30477 28.8514 6.57253 28.9623C6.84029 29.0732 7.12728 29.1303 7.4171 29.1303C7.70693 29.1303 7.99391 29.0732 8.26167 28.9623C8.52943 28.8514 8.77272 28.6888 8.97765 28.4839L10.1843 27.2772C10.8116 27.6021 11.4652 27.8737 12.1379 28.0894V29.7931C12.1379 30.3784 12.3704 30.9397 12.7843 31.3536C13.1982 31.7675 13.7595 32 14.3448 32H17.6552C18.2405 32 18.8018 31.7675 19.2157 31.3536C19.6296 30.9397 19.8621 30.3784 19.8621 29.7931V28.0894C20.5348 27.8737 21.1884 27.6021 21.8157 27.2772L23.0223 28.4839C23.2273 28.6888 23.4706 28.8514 23.7383 28.9623C24.0061 29.0732 24.2931 29.1303 24.5829 29.1303C24.8727 29.1303 25.1597 29.0732 25.4275 28.9623C25.6952 28.8514 25.9385 28.6888 26.1434 28.4839L28.4839 26.1434C28.6888 25.9385 28.8514 25.6952 28.9623 25.4275C29.0732 25.1597 29.1303 24.8727 29.1303 24.5829C29.1303 24.2931 29.0732 24.0061 28.9623 23.7383C28.8514 23.4706 28.6888 23.2273 28.4839 23.0223L27.2772 21.8157C27.6021 21.1884 27.8737 20.5348 28.0894 19.8621H29.7931C30.3784 19.8621 30.9397 19.6296 31.3536 19.2157C31.7675 18.8018 32 18.2405 32 17.6552V14.3448C32 13.7595 31.7675 13.1982 31.3536 12.7843C30.9397 12.3704 30.3784 12.1379 29.7931 12.1379ZM16 22.6207C14.6906 22.6207 13.4105 22.2324 12.3217 21.5049C11.233 20.7774 10.3844 19.7434 9.88328 18.5336C9.38218 17.3239 9.25106 15.9927 9.50653 14.7084C9.76199 13.4241 10.3925 12.2444 11.3185 11.3185C12.2444 10.3925 13.4241 9.76199 14.7084 9.50653C15.9927 9.25106 17.3239 9.38218 18.5336 9.88328C19.7434 10.3844 20.7774 11.233 21.5049 12.3217C22.2324 13.4105 22.6207 14.6906 22.6207 16C22.6207 17.7559 21.9232 19.4399 20.6815 20.6815C19.4399 21.9232 17.7559 22.6207 16 22.6207Z" fill="#3392E6"/>
</g>
<defs>
<clipPath id="clip0_147_1110">
<rect width="32" height="32" fill="white"/>
</clipPath>
</defs>
</svg>
