<svg width="24" height="24" viewBox="0 0 24 24" fill="none" xmlns="http://www.w3.org/2000/svg">
<path fill-rule="evenodd" clip-rule="evenodd" d="M14.2 2.91333H12.62V5.28666C12.6209 5.39109 12.601 5.49465 12.5614 5.59131C12.5219 5.68796 12.4635 5.77577 12.3896 5.84962C12.3158 5.92346 12.228 5.98186 12.1313 6.02142C12.0347 6.06097 11.9311 6.08089 11.8267 6.08H5.50667C5.29626 6.08 5.09447 5.99641 4.94569 5.84763C4.79692 5.69886 4.71333 5.49707 4.71333 5.28666V2.91333H3.13333C2.30042 2.9221 1.50451 3.25868 0.91802 3.85016C0.331533 4.44164 0.00170746 5.24038 0 6.07333V19.5067C0.00170746 20.3396 0.331533 21.1384 0.91802 21.7298C1.50451 22.3213 2.30042 22.6579 3.13333 22.6667H14.2C15.0329 22.6579 15.8288 22.3213 16.4153 21.7298C17.0018 21.1384 17.3316 20.3396 17.3333 19.5067V6.07333C17.3334 5.23985 17.0041 4.4401 16.4172 3.84825C15.8304 3.25639 15.0335 2.92036 14.2 2.91333ZM14.2 17.9267H3.13333V16.3467H14.2V17.9267ZM14.2 14.7667H3.13333V13.1867H14.2V14.7667Z" fill="#2AC46F"/>
<path fill-rule="evenodd" clip-rule="evenodd" d="M11.0402 2.12664V4.49331H6.29349V2.12664C6.2926 2.02221 6.31251 1.91865 6.35206 1.822C6.39162 1.72534 6.45002 1.63753 6.52387 1.56369C6.59771 1.48984 6.68552 1.43144 6.78217 1.39189C6.87883 1.35233 6.98239 1.33242 7.08682 1.33331H10.2468C10.3515 1.3315 10.4555 1.35079 10.5525 1.39002C10.6496 1.42925 10.7378 1.48762 10.8118 1.56165C10.8858 1.63568 10.9442 1.72385 10.9834 1.82092C11.0227 1.91799 11.042 2.02196 11.0402 2.12664Z" fill="#072A30"/>
<path d="M3.14014 9.23328H7.09347V10.8133H3.14014V9.23328Z" fill="#072A30"/>
</svg>
