<svg width="48" height="48" viewBox="0 0 48 48" fill="none" xmlns="http://www.w3.org/2000/svg">
<path d="M33.6 24.72C34.5028 24.5342 35.314 24.0429 35.8969 23.3289C36.4798 22.6149 36.7987 21.7217 36.8 20.8V18.4C36.8 18.1879 36.7158 17.9844 36.5657 17.8343C36.4157 17.6843 36.2122 17.6 36 17.6H32.8V14.4H38.4C38.824 14.4013 39.2302 14.5703 39.53 14.8701C39.8298 15.1698 39.9988 15.5761 40 16V20.8C40.0006 22.6333 39.3012 24.3977 38.0449 25.7328C36.7886 27.0679 35.07 27.8731 33.24 27.984L32.8 28V24.8L33.6 24.72Z" fill="#F49F08"/>
<path d="M14.4 24.72C13.4972 24.5342 12.686 24.0429 12.1032 23.3289C11.5203 22.6149 11.2013 21.7217 11.2 20.8V18.4C11.2 18.1879 11.2843 17.9844 11.4343 17.8343C11.5843 17.6843 11.7878 17.6 12 17.6H15.2V14.4H9.6C9.17604 14.4013 8.76981 14.5703 8.47003 14.8701C8.17024 15.1698 8.00127 15.5761 8 16V20.8C7.9995 22.6333 8.69881 24.3977 9.95514 25.7328C11.2115 27.0679 12.9301 27.8731 14.76 27.984L15.2 28V24.8L14.4 24.72Z" fill="#F49F08"/>
<path d="M29.6 38.4V39.2H18.4V38.4C18.4 38.4 20.312 37.12 20.728 33.424H27.272C27.688 37.12 29.6 38.4 29.6 38.4Z" fill="#F49F08"/>
<path d="M16 12H32C32.4244 12 32.8313 12.1686 33.1314 12.4686C33.4315 12.7687 33.6 13.1757 33.6 13.6V25.6C33.6 27.7217 32.7572 29.7566 31.2569 31.2569C29.7566 32.7571 27.7218 33.6 25.6 33.6H22.4C20.2783 33.6 18.2435 32.7571 16.7432 31.2569C15.2429 29.7566 14.4 27.7217 14.4 25.6V13.6C14.4 13.1757 14.5686 12.7687 14.8687 12.4686C15.1687 12.1686 15.5757 12 16 12Z" fill="#F7BD06"/>
<path d="M17.6 38.4H30.4C30.8243 38.4 31.2313 38.5686 31.5314 38.8687C31.8314 39.1687 32 39.5757 32 40V42.4H16V40C16 39.5757 16.1686 39.1687 16.4686 38.8687C16.7687 38.5686 17.1757 38.4 17.6 38.4Z" fill="#F7BD06"/>
<path d="M24.32 1.0088L25.36 3.2192L27.6912 3.5736C27.7589 3.5864 27.8218 3.6174 27.8732 3.66326C27.9246 3.70913 27.9626 3.76812 27.9829 3.83392C28.0033 3.89972 28.0054 3.96982 27.989 4.03672C27.9725 4.10361 27.9382 4.16476 27.8896 4.2136L26.2048 5.932L26.6048 8.3624C26.6185 8.42907 26.6131 8.49826 26.5892 8.56198C26.5653 8.6257 26.5238 8.68135 26.4696 8.72251C26.4154 8.76367 26.3507 8.78865 26.2828 8.79458C26.215 8.80051 26.1469 8.78713 26.0864 8.756L24 7.6088L21.9152 8.756C21.8547 8.78713 21.7866 8.80051 21.7188 8.79458C21.651 8.78865 21.5862 8.76367 21.532 8.72251C21.4778 8.68135 21.4364 8.6257 21.4124 8.56198C21.3885 8.49826 21.3831 8.42907 21.3968 8.3624L21.7968 5.932L20.108 4.2112C20.0594 4.16236 20.0251 4.10121 20.0086 4.03432C19.9922 3.96742 19.9943 3.89732 20.0147 3.83152C20.0351 3.76572 20.073 3.70673 20.1244 3.66086C20.1758 3.615 20.2387 3.584 20.3064 3.5712L22.64 3.2192L23.68 1.0088C23.7073 0.9467 23.7521 0.893888 23.809 0.85681C23.8658 0.819731 23.9322 0.799988 24 0.799988C24.0679 0.799988 24.1342 0.819731 24.1911 0.85681C24.2479 0.893888 24.2927 0.9467 24.32 1.0088Z" fill="#F7BD06"/>
<path d="M24.384 17.0504L25.6352 19.7032L28.4352 20.1288C28.5161 20.144 28.5913 20.181 28.6528 20.2357C28.7143 20.2904 28.7598 20.3607 28.7845 20.4392C28.8091 20.5178 28.8119 20.6015 28.7927 20.6815C28.7735 20.7615 28.7329 20.8348 28.6752 20.8936L26.6464 22.96L27.1264 25.876C27.1431 25.9561 27.1367 26.0392 27.1081 26.1159C27.0794 26.1925 27.0297 26.2594 26.9645 26.3089C26.8994 26.3584 26.8215 26.3884 26.74 26.3955C26.6585 26.4025 26.5767 26.3863 26.504 26.3488L24 24.9704L21.4984 26.3472C21.4257 26.3847 21.3439 26.4009 21.2624 26.3939C21.1809 26.3868 21.103 26.3568 21.0379 26.3073C20.9728 26.2578 20.923 26.1909 20.8943 26.1143C20.8657 26.0376 20.8593 25.9545 20.876 25.8744L21.356 22.9584L19.332 20.8936C19.2744 20.8348 19.2337 20.7615 19.2145 20.6815C19.1953 20.6015 19.1981 20.5178 19.2228 20.4392C19.2474 20.3607 19.2929 20.2904 19.3544 20.2357C19.4159 20.181 19.4911 20.144 19.572 20.1288L22.372 19.7032L23.6232 17.0504C23.657 16.9781 23.7108 16.9169 23.7782 16.874C23.8456 16.8312 23.9238 16.8084 24.0036 16.8084C24.0835 16.8084 24.1616 16.8312 24.229 16.874C24.2964 16.9169 24.3502 16.9781 24.384 17.0504Z" fill="#F49F08"/>
<path d="M13.856 2.56642L14.6904 4.33522L16.5552 4.61922C16.6091 4.62927 16.6593 4.65381 16.7004 4.69023C16.7415 4.72665 16.7719 4.77356 16.7883 4.82593C16.8048 4.8783 16.8066 4.93417 16.7938 4.98753C16.7809 5.04089 16.7537 5.08973 16.7152 5.12882L15.36 6.50562L15.68 8.44962C15.6909 8.50292 15.6866 8.55823 15.6674 8.60917C15.6483 8.66011 15.6152 8.70462 15.5719 8.73756C15.5286 8.7705 15.4768 8.79054 15.4227 8.79536C15.3685 8.80018 15.314 8.7896 15.2656 8.76482L13.6 7.84722L11.932 8.76482C11.8835 8.7896 11.829 8.80018 11.7749 8.79536C11.7207 8.79054 11.6689 8.7705 11.6256 8.73756C11.5823 8.70462 11.5492 8.66011 11.5301 8.60917C11.5109 8.55823 11.5066 8.50292 11.5176 8.44962L11.8376 6.50562L10.4864 5.12882C10.4478 5.08973 10.4206 5.04089 10.4077 4.98753C10.3949 4.93417 10.3967 4.8783 10.4132 4.82593C10.4296 4.77356 10.46 4.72665 10.5011 4.69023C10.5422 4.65381 10.5924 4.62927 10.6464 4.61922L12.5112 4.33522L13.344 2.56642C13.3659 2.51685 13.4018 2.47472 13.4472 2.44515C13.4927 2.41558 13.5457 2.39984 13.6 2.39984C13.6542 2.39984 13.7072 2.41558 13.7527 2.44515C13.7981 2.47472 13.834 2.51685 13.856 2.56642Z" fill="#F7BD06"/>
<path d="M34.656 2.56642L35.4904 4.33522L37.3552 4.61922C37.4092 4.62927 37.4594 4.65381 37.5005 4.69023C37.5415 4.72665 37.5719 4.77356 37.5884 4.82593C37.6048 4.8783 37.6067 4.93417 37.5938 4.98753C37.5809 5.04089 37.5537 5.08973 37.5152 5.12882L36.164 6.50562L36.484 8.44962C36.4949 8.50292 36.4906 8.55823 36.4715 8.60917C36.4524 8.66011 36.4192 8.70462 36.3759 8.73756C36.3326 8.7705 36.2809 8.79054 36.2267 8.79536C36.1725 8.80018 36.118 8.7896 36.0696 8.76482L34.4 7.84722L32.732 8.76482C32.6836 8.7896 32.6291 8.80018 32.5749 8.79536C32.5207 8.79054 32.469 8.7705 32.4257 8.73756C32.3824 8.70462 32.3492 8.66011 32.3301 8.60917C32.311 8.55823 32.3067 8.50292 32.3176 8.44962L32.6376 6.50562L31.2864 5.12882C31.2479 5.08973 31.2207 5.04089 31.2078 4.98753C31.1949 4.93417 31.1968 4.8783 31.2132 4.82593C31.2297 4.77356 31.2601 4.72665 31.3011 4.69023C31.3422 4.65381 31.3924 4.62927 31.4464 4.61922L33.3112 4.33522L34.144 2.56642C34.166 2.51685 34.2018 2.47472 34.2473 2.44515C34.2927 2.41558 34.3458 2.39984 34.4 2.39984C34.4542 2.39984 34.5073 2.41558 34.5527 2.44515C34.5982 2.47472 34.634 2.51685 34.656 2.56642Z" fill="#F7BD06"/>
<path d="M16 41.6H32C32.4244 41.6 32.8313 41.7685 33.1314 42.0686C33.4315 42.3687 33.6 42.7756 33.6 43.2V46.4C33.6 46.6121 33.5157 46.8156 33.3657 46.9657C33.2157 47.1157 33.0122 47.2 32.8 47.2H15.2C14.9879 47.2 14.7844 47.1157 14.6343 46.9657C14.4843 46.8156 14.4 46.6121 14.4 46.4V43.2C14.4 42.7756 14.5686 42.3687 14.8687 42.0686C15.1687 41.7685 15.5757 41.6 16 41.6Z" fill="#2F2B3F"/>
</svg>
