<svg width="48" height="48" viewBox="0 0 48 48" fill="none" xmlns="http://www.w3.org/2000/svg">
<path d="M41.25 21.75C41.25 32.52 32.52 41.25 21.75 41.25C12.3543 41.25 4.51122 34.606 2.66341 25.7597C1.97985 22.4892 2.14738 19.0979 3.14994 15.9107C4.1525 12.7234 5.95653 9.8469 8.38927 7.55661C10.822 5.26631 13.802 3.63891 17.0439 2.83025C20.2857 2.02158 23.6809 2.05874 26.9043 2.93815C27.3328 3.05533 27.7565 3.18658 28.1728 3.33283C31.9938 4.66666 35.3054 7.15602 37.6485 10.4559C39.9916 13.7558 41.2502 17.7029 41.25 21.75Z" fill="#2291EB"/>
<path d="M21 11.25V15.75L16.5 20.25H8.25002V24.75L2.44971 18.9497C3.03004 14.9239 4.85872 11.1816 7.67814 8.25H12.75L9.00002 12L12 15L15.75 11.25H21Z" fill="#4DB7E5"/>
<path d="M22.5 27.75V38.25H20.25L15 33V29.25H8.25V24.75H16.5L18 27.75H22.5Z" fill="#4DB7E5"/>
<path d="M21.0001 8.25001V5.25001L13.7972 3.94032C17.9205 2.10663 22.5503 1.75262 26.9044 2.93814L27.0001 6.00001L21.0001 8.25001Z" fill="#4DB7E5"/>
<path d="M22.5 27.75V38.25H20.25L15 33V29.25H8.25V27.4969C9.10778 27.6183 9.97305 27.6791 10.8394 27.6788C13.0698 27.6816 15.2818 27.2762 17.3663 26.4825L18 27.75H22.5Z" fill="#4AAFDB"/>
<path d="M31.5 15.75H33V27H31.5V15.75Z" fill="#75C83A"/>
<path d="M24.75 17.25H26.25C27.8413 17.25 29.3674 17.8821 30.4926 19.0074C31.6179 20.1326 32.25 21.6587 32.25 23.25H30.75C29.1587 23.25 27.6326 22.6179 26.5074 21.4926C25.3821 20.3674 24.75 18.8413 24.75 17.25Z" fill="#6CD420"/>
<path d="M33.75 23.25H32.25C32.25 21.6587 32.8821 20.1326 34.0074 19.0074C35.1326 17.8821 36.6587 17.25 38.25 17.25H39.75C39.75 18.8413 39.1179 20.3674 37.9926 21.4926C36.8674 22.6179 35.3413 23.25 33.75 23.25Z" fill="#75C83A"/>
<path d="M26.25 11.25H27.75C28.9435 11.25 30.0881 11.7241 30.932 12.568C31.7759 13.4119 32.25 14.5565 32.25 15.75H30.75C29.5565 15.75 28.4119 15.2759 27.568 14.432C26.7241 13.5881 26.25 12.4435 26.25 11.25Z" fill="#6CD420"/>
<path d="M33.75 15.75H32.25C32.25 14.5565 32.7241 13.4119 33.568 12.568C34.4119 11.7241 35.5565 11.25 36.75 11.25H38.25C38.25 12.4435 37.7759 13.5881 36.932 14.432C36.0881 15.2759 34.9435 15.75 33.75 15.75Z" fill="#75C83A"/>
<path d="M21.75 35.8919L30.75 26.9846C31.1485 26.5901 31.687 26.3695 32.2478 26.371C32.8085 26.3724 33.3458 26.5958 33.7423 26.9923L33.75 27L42.75 36V40.5H21.75V35.8919Z" fill="#92563A"/>
<path d="M45.75 36V45.75H27.4012C26.6601 45.7498 25.9453 45.4757 25.394 44.9803L19.6087 39.7734C19.2187 39.4223 18.9444 38.9613 18.8218 38.451C18.6992 37.9408 18.7342 37.4054 18.9222 36.9155C19.1101 36.4255 19.4422 36.0041 19.8746 35.7068C20.3069 35.4094 20.8193 35.2502 21.344 35.25H21.525C22.1537 35.2498 22.761 35.478 23.234 35.8922L28.5 40.5H29.625C28.9288 40.5 28.2611 40.2234 27.7688 39.7312C27.2765 39.2389 27 38.5712 27 37.875C27 37.1788 27.2765 36.5111 27.7688 36.0188C28.2611 35.5266 28.9288 35.25 29.625 35.25H35.25L35.4206 35.1366C36.776 34.2322 38.369 33.7497 39.9984 33.75H39.9994C41.7851 33.7502 43.5226 34.3295 44.9512 35.4009L45.75 36Z" fill="#FEC9A3"/>
<path d="M34.5 41.25H29.625C29.4261 41.25 29.2353 41.171 29.0947 41.0303C28.954 40.8897 28.875 40.6989 28.875 40.5C28.875 40.3011 28.954 40.1103 29.0947 39.9697C29.2353 39.829 29.4261 39.75 29.625 39.75H34.5C34.6989 39.75 34.8897 39.829 35.0303 39.9697C35.171 40.1103 35.25 40.3011 35.25 40.5C35.25 40.6989 35.171 40.8897 35.0303 41.0303C34.8897 41.171 34.6989 41.25 34.5 41.25Z" fill="#FEB784"/>
<path d="M30 30H31.5V31.5H30V30Z" fill="#78462F"/>
<path d="M33 31.5H34.5V33H33V31.5Z" fill="#78462F"/>
<path d="M45.75 37.8113V45.75H30.0769C35.9307 44.1216 41.3616 41.5763 45.75 37.8113Z" fill="#FEC093"/>
</svg>
