<svg width="24" height="24" viewBox="0 0 24 24" fill="none" xmlns="http://www.w3.org/2000/svg">
<path d="M15.5128 1H1.97436C0.883951 1 0 1.88395 0 2.97436V21.0256C0 22.1161 0.883951 23 1.97436 23H15.5128C16.6032 23 17.4872 22.1161 17.4872 21.0256V2.97436C17.4872 1.88395 16.6032 1 15.5128 1Z" fill="#90CAF9"/>
<path d="M12.1281 4.38464H5.35888C4.26847 4.38464 3.38452 5.26859 3.38452 6.359V9.74362C3.38452 10.834 4.26847 11.718 5.35888 11.718H12.1281C13.2185 11.718 14.1025 10.834 14.1025 9.74362V6.359C14.1025 5.26859 13.2185 4.38464 12.1281 4.38464Z" fill="#1E88E5"/>
<path d="M9.8717 18.4872H4.23068C4.00626 18.4872 3.79104 18.398 3.63235 18.2393C3.47367 18.0807 3.38452 17.8654 3.38452 17.641C3.38452 17.4166 3.47367 17.2014 3.63235 17.0427C3.79104 16.884 4.00626 16.7949 4.23068 16.7949H9.8717C10.0961 16.7949 10.3113 16.884 10.47 17.0427C10.6287 17.2014 10.7179 17.4166 10.7179 17.641C10.7179 17.8654 10.6287 18.0807 10.47 18.2393C10.3113 18.398 10.0961 18.4872 9.8717 18.4872Z" fill="#1E88E5"/>
<path d="M13.2563 15.1026H4.23068C4.00626 15.1026 3.79104 15.0134 3.63235 14.8548C3.47367 14.6961 3.38452 14.4808 3.38452 14.2564C3.38452 14.032 3.47367 13.8168 3.63235 13.6581C3.79104 13.4994 4.00626 13.4103 4.23068 13.4103H13.2563C13.4807 13.4103 13.696 13.4994 13.8546 13.6581C14.0133 13.8168 14.1025 14.032 14.1025 14.2564C14.1025 14.4808 14.0133 14.6961 13.8546 14.8548C13.696 15.0134 13.4807 15.1026 13.2563 15.1026Z" fill="#1E88E5"/>
</svg>
