<svg width="24" height="24" viewBox="0 0 24 24" fill="none" xmlns="http://www.w3.org/2000/svg">
<path d="M9.99283 7.82936C9.65956 7.6442 9.25 7.88518 9.25 8.26643V15.7336C9.25 16.1148 9.65955 16.3558 9.99281 16.1707L16.7133 12.4372C17.0562 12.2467 17.0562 11.7536 16.7133 11.5631L9.99283 7.82936Z" fill="white"/>
<path d="M12 1C5.92491 1 1 5.92492 1 12C1 18.0751 5.92491 23 12 23C18.0751 23 23 18.0751 23 12C23 5.92492 18.0751 1 12 1ZM8.92756 8.14073C8.92756 7.76305 9.33024 7.52172 9.66331 7.6998L16.5086 11.3597C16.8609 11.5481 16.8609 12.0532 16.5085 12.2416L9.6633 15.9012C9.33023 16.0793 8.92756 15.838 8.92756 15.4603V8.14073Z" fill="#DB2B42"/>
</svg>
