<svg width="24" height="24" viewBox="0 0 24 24" fill="none" xmlns="http://www.w3.org/2000/svg">
<path d="M16.6589 3H2.4433C1.79544 3.00047 1.17425 3.25804 0.716146 3.71615C0.25804 4.17425 0.000470657 4.79544 0 5.4433V16.105C0.000470657 16.7528 0.25804 17.374 0.716146 17.8321C1.17425 18.2902 1.79544 18.5478 2.4433 18.5483H3.54679C3.78424 18.5485 4.01189 18.6429 4.1798 18.8109C4.3477 18.9788 4.44213 19.2064 4.44237 19.4439V19.9956C4.43812 20.392 4.55366 20.7804 4.77386 21.1099C4.99406 21.4395 5.30866 21.6949 5.67646 21.8427C5.92284 21.9454 6.18695 21.9989 6.45387 22C6.71489 21.9991 6.97314 21.9465 7.21366 21.845C7.45417 21.7436 7.67216 21.5955 7.85499 21.4092L10.4538 18.8104C10.621 18.6413 10.8485 18.5454 11.0864 18.5438H16.6589C17.306 18.5434 17.9265 18.2864 18.3845 17.8293C18.8424 17.3721 19.1005 16.7521 19.1022 16.105V5.4433C19.1017 4.79544 18.8441 4.17425 18.386 3.71615C17.9279 3.25804 17.3067 3.00047 16.6589 3Z" fill="#4285F4"/>
<path d="M13.9935 9.66355H5.10874C4.93201 9.66355 4.76252 9.59335 4.63755 9.46838C4.51259 9.34341 4.44238 9.17392 4.44238 8.9972C4.44238 8.82047 4.51259 8.65098 4.63755 8.52601C4.76252 8.40105 4.93201 8.33084 5.10874 8.33084H13.9935C14.1702 8.33084 14.3397 8.40105 14.4647 8.52601C14.5896 8.65098 14.6598 8.82047 14.6598 8.9972C14.6598 9.17392 14.5896 9.34341 14.4647 9.46838C14.3397 9.59335 14.1702 9.66355 13.9935 9.66355Z" fill="white"/>
<path d="M10.4396 13.2174H5.10874C4.93201 13.2174 4.76252 13.1472 4.63755 13.0223C4.51259 12.8973 4.44238 12.7278 4.44238 12.5511C4.44238 12.3744 4.51259 12.2049 4.63755 12.0799C4.76252 11.9549 4.93201 11.8847 5.10874 11.8847H10.4396C10.6163 11.8847 10.7858 11.9549 10.9108 12.0799C11.0357 12.2049 11.1059 12.3744 11.1059 12.5511C11.1059 12.7278 11.0357 12.8973 10.9108 13.0223C10.7858 13.1472 10.6163 13.2174 10.4396 13.2174Z" fill="white"/>
</svg>
