<svg width="24" height="24" viewBox="0 0 24 24" fill="none" xmlns="http://www.w3.org/2000/svg">
<g clip-path="url(#clip0_85_153)">
<path d="M20.233 15.6841H18.5317V14.2729H20.2332C20.521 14.2729 20.7555 14.0391 20.7555 13.7516V10.6306C20.7555 10.3431 20.521 10.1093 20.2332 10.1093H18.5317V8.69824H20.2332C21.3008 8.69824 22.1693 9.56506 22.1693 10.6306V13.7516C22.1693 14.8173 21.3008 15.6841 20.233 15.6841Z" fill="#FF8900"/>
<path d="M19.0581 6.29242V16.8252C19.0581 19.1808 17.138 21.097 14.7779 21.097H8.50506C6.14499 21.097 4.22485 19.1808 4.22485 16.8252V6.29242H19.0581Z" fill="#C06100"/>
<path d="M15.1642 11.4401C15.1642 12.5689 14.9535 14.1513 13.9658 15.3653C13.3257 16.1512 12.4676 16.6507 11.6413 16.9678C10.721 17.3214 9.84022 17.4485 9.34579 17.4941L11.6413 14.6215L12.5241 13.5172L11.6413 12.8487L11.3976 12.6645L8.19199 16.6752C8.08319 15.8492 7.89661 13.3422 9.31699 11.5966C9.95709 10.8107 10.8152 10.3112 11.6413 9.99426C12.9925 9.47534 14.2575 9.44385 14.3413 9.44238L14.9365 9.43213L15.0482 10.0153C15.0587 10.0704 15.1642 10.6423 15.1642 11.4401Z" fill="#F7BD06"/>
<path d="M1.85522 21.1541C1.85522 20.6018 2.30294 20.1541 2.85522 20.1541H20.4275C20.9798 20.1541 21.4275 20.6018 21.4275 21.1541V22.9531C21.4275 23.5054 20.9798 23.9531 20.4275 23.9531H2.85523C2.30294 23.9531 1.85522 23.5054 1.85522 22.9531V21.1541Z" fill="#FFAA20"/>
<path d="M10.4699 5.31134L9.58398 4.21161L9.57829 4.21619C9.58031 4.21454 9.77937 4.04572 9.87972 3.80438C9.95421 3.62512 9.992 3.39606 9.70616 3.05566C8.66592 1.81714 9.1666 0.521667 9.75698 -0.046875L10.7389 0.968445L10.7466 0.960938C10.7451 0.962402 10.598 1.11566 10.5378 1.33813C10.5119 1.43372 10.4334 1.72485 10.7897 2.14911C11.3111 2.77002 11.375 3.36383 11.3366 3.75275C11.2467 4.66388 10.549 5.2478 10.4699 5.31134Z" fill="#F7BD06"/>
<path d="M13.3077 5.31134L12.4217 4.21161L12.4161 4.21619C12.4181 4.21454 12.6171 4.04572 12.7175 3.80438C12.792 3.62512 12.8298 3.39606 12.5439 3.05566C11.5037 1.81714 12.0044 0.521667 12.5948 -0.046875L13.5767 0.968445L13.5844 0.960938C13.5829 0.962402 13.4358 1.11566 13.3756 1.33813C13.3497 1.43372 13.2712 1.72485 13.6275 2.14911C14.1489 2.77002 14.2127 3.36383 14.1744 3.75275C14.0845 4.66388 13.3868 5.2478 13.3077 5.31134Z" fill="#F7BD06"/>
</g>
<defs>
<clipPath id="clip0_85_153">
<rect width="24" height="24" fill="white"/>
</clipPath>
</defs>
</svg>
