<svg width="64" height="64" viewBox="0 0 64 64" fill="none" xmlns="http://www.w3.org/2000/svg">
<rect width="64" height="64" rx="32" fill="#6EC94D"/>
<path d="M45.1875 20.75H18.8125C17.2649 20.75 16 22.0093 16 23.5625V40.4375C16 41.9913 17.2657 43.25 18.8125 43.25H45.1875C46.7351 43.25 48 41.9907 48 40.4375V23.5625C48 22.0089 46.7345 20.75 45.1875 20.75ZM44.7556 22.625C43.8463 23.5373 33.1653 34.2531 32.7265 34.6934C32.36 35.061 31.6402 35.0612 31.2735 34.6934L19.2444 22.625H44.7556ZM17.875 40.0928V23.9072L25.9416 32L17.875 40.0928ZM19.2444 41.375L27.2653 33.328L29.9456 36.0171C31.0439 37.119 32.9565 37.1186 34.0545 36.0171L36.7348 33.3281L44.7556 41.375H19.2444ZM46.125 40.0928L38.0584 32L46.125 23.9072V40.0928Z" fill="white"/>
</svg>
