<svg width="64" height="64" viewBox="0 0 64 64" fill="none" xmlns="http://www.w3.org/2000/svg">
<rect width="64" height="64" rx="32" fill="#A7B6CA"/>
<path fill-rule="evenodd" clip-rule="evenodd" d="M21.996 43.043C22.477 37.972 26.754 34 31.95 34C33.482 34 34.934 34.345 36.232 34.962C36.731 35.199 37.328 34.986 37.565 34.488C37.802 33.989 37.589 33.392 37.091 33.156C35.532 32.415 33.789 32 31.95 32C25.714 32 20.583 36.768 20.004 42.854C19.952 43.404 20.356 43.892 20.905 43.944C21.455 43.997 21.943 43.593 21.996 43.043Z" fill="white"/>
<path fill-rule="evenodd" clip-rule="evenodd" d="M31.9501 20C28.6391 20 25.9501 22.689 25.9501 26C25.9501 29.311 28.6391 32 31.9501 32C35.2621 32 37.9501 29.311 37.9501 26C37.9501 22.689 35.2621 20 31.9501 20ZM31.9501 22C34.1581 22 35.9501 23.792 35.9501 26C35.9501 28.208 34.1581 30 31.9501 30C29.7431 30 27.9501 28.208 27.9501 26C27.9501 23.792 29.7431 22 31.9501 22Z" fill="white"/>
<path fill-rule="evenodd" clip-rule="evenodd" d="M40.576 39.0001H37C36.448 39.0001 36 39.4481 36 40.0001C36 40.5521 36.448 41.0001 37 41.0001H40.582L39.458 42.1241C39.067 42.5151 39.067 43.1481 39.458 43.5381C39.848 43.9291 40.482 43.9291 40.872 43.5381L43.7 40.7101C44.091 40.3201 44.091 39.6861 43.7 39.2961L40.872 36.4671C40.482 36.0771 39.848 36.0771 39.458 36.4671C39.067 36.8581 39.067 37.4911 39.458 37.8821L40.576 39.0001Z" fill="white"/>
</svg>
