<svg width="64" height="64" viewBox="0 0 64 64" fill="none" xmlns="http://www.w3.org/2000/svg">
<rect width="64" height="64" rx="32" fill="#6EC94D"/>
<path fill-rule="evenodd" clip-rule="evenodd" d="M42.2267 31.4602C42.605 31.8431 42.605 32.4638 42.2267 32.8467L38.3517 36.7682C37.9734 37.1511 37.36 37.1511 36.9817 36.7682C36.6033 36.3854 36.6033 35.7646 36.9817 35.3818L39.2029 33.1338H32.5C31.965 33.1338 31.5312 32.6949 31.5312 32.1534C31.5312 31.612 31.965 31.173 32.5 31.173H39.2029L36.9817 28.9251C36.6033 28.5422 36.6033 27.9215 36.9817 27.5386C37.36 27.1557 37.9734 27.1557 38.3517 27.5386L42.2267 31.4602Z" fill="white"/>
<path fill-rule="evenodd" clip-rule="evenodd" d="M26.0417 21.369C25.15 21.369 24.4271 22.1006 24.4271 23.003V41.3036C24.4271 42.206 25.15 42.9376 26.0417 42.9376H38.9584C39.8501 42.9376 40.573 42.206 40.573 41.3036V39.9964C40.573 39.455 41.0067 39.016 41.5417 39.016C42.0767 39.016 42.5105 39.455 42.5105 39.9964V41.3036C42.5105 43.289 40.9201 44.8984 38.9584 44.8984H26.0417C24.0799 44.8984 22.4896 43.289 22.4896 41.3036V23.003C22.4896 21.0176 24.0799 19.4082 26.0417 19.4082H38.9584C40.9201 19.4082 42.5105 21.0176 42.5105 23.003V24.3101C42.5105 24.8516 42.0767 25.2905 41.5417 25.2905C41.0067 25.2905 40.573 24.8516 40.573 24.3101V23.003C40.573 22.1006 39.8501 21.369 38.9584 21.369H26.0417Z" fill="white"/>
</svg>
