<svg width="32" height="32" viewBox="0 0 32 32" fill="none" xmlns="http://www.w3.org/2000/svg">
<path d="M16 26C15.651 26.0021 15.3086 26.0955 15.0068 26.2709C14.7051 26.4464 14.4545 26.6977 14.28 27H10C9.73478 27 9.48043 26.8946 9.29289 26.7071C9.10536 26.5196 9 26.2652 9 26V24C9 23.7348 8.89464 23.4804 8.70711 23.2929C8.51957 23.1054 8.26522 23 8 23C7.73478 23 7.48043 23.1054 7.29289 23.2929C7.10536 23.4804 7 23.7348 7 24V26C7 26.7956 7.31607 27.5587 7.87868 28.1213C8.44129 28.6839 9.20435 29 10 29H14.28C14.4558 29.3045 14.7088 29.5572 15.0134 29.7328C15.318 29.9083 15.6635 30.0005 16.0151 30C16.3666 29.9994 16.7119 29.9062 17.016 29.7297C17.32 29.5533 17.5722 29.2997 17.7471 28.9947C17.922 28.6897 18.0133 28.344 18.012 27.9924C18.0107 27.6409 17.9167 27.2958 17.7395 26.9922C17.5624 26.6885 17.3083 26.4369 17.0029 26.2627C16.6975 26.0885 16.3516 25.9979 16 26Z" fill="black"/>
<path d="M16 2C13.0826 2 10.2847 3.15893 8.22183 5.22183C6.15893 7.28473 5 10.0826 5 13C5 13.2652 5.10536 13.5196 5.29289 13.7071C5.48043 13.8946 5.73478 14 6 14C6.26522 14 6.51957 13.8946 6.70711 13.7071C6.89464 13.5196 7 13.2652 7 13C7 10.6131 7.94821 8.32387 9.63604 6.63604C11.3239 4.94821 13.6131 4 16 4C18.3869 4 20.6761 4.94821 22.364 6.63604C24.0518 8.32387 25 10.6131 25 13C25 13.2652 25.1054 13.5196 25.2929 13.7071C25.4804 13.8946 25.7348 14 26 14C26.2652 14 26.5196 13.8946 26.7071 13.7071C26.8946 13.5196 27 13.2652 27 13C27 10.0826 25.8411 7.28473 23.7782 5.22183C21.7153 3.15893 18.9174 2 16 2Z" fill="black"/>
<path d="M25 25H24C23.2044 25 22.4413 24.6839 21.8787 24.1213C21.3161 23.5587 21 22.7956 21 22V15C21 14.2044 21.3161 13.4413 21.8787 12.8787C22.4413 12.3161 23.2044 12 24 12H25C26.3261 12 27.5979 12.5268 28.5355 13.4645C29.4732 14.4021 30 15.6739 30 17V20C30 21.3261 29.4732 22.5979 28.5355 23.5355C27.5979 24.4732 26.3261 25 25 25ZM24 14C23.7348 14 23.4804 14.1054 23.2929 14.2929C23.1054 14.4804 23 14.7348 23 15V22C23 22.2652 23.1054 22.5196 23.2929 22.7071C23.4804 22.8946 23.7348 23 24 23H25C25.7956 23 26.5587 22.6839 27.1213 22.1213C27.6839 21.5587 28 20.7956 28 20V17C28 16.2044 27.6839 15.4413 27.1213 14.8787C26.5587 14.3161 25.7956 14 25 14H24Z" fill="#4056B5"/>
<path d="M8 25H7C5.67392 25 4.40215 24.4732 3.46447 23.5355C2.52678 22.5979 2 21.3261 2 20V17C2 15.6739 2.52678 14.4021 3.46447 13.4645C4.40215 12.5268 5.67392 12 7 12H8C8.79565 12 9.55871 12.3161 10.1213 12.8787C10.6839 13.4413 11 14.2044 11 15V22C11 22.7956 10.6839 23.5587 10.1213 24.1213C9.55871 24.6839 8.79565 25 8 25ZM7 14C6.20435 14 5.44129 14.3161 4.87868 14.8787C4.31607 15.4413 4 16.2044 4 17V20C4 20.7956 4.31607 21.5587 4.87868 22.1213C5.44129 22.6839 6.20435 23 7 23H8C8.26522 23 8.51957 22.8946 8.70711 22.7071C8.89464 22.5196 9 22.2652 9 22V15C9 14.7348 8.89464 14.4804 8.70711 14.2929C8.51957 14.1054 8.26522 14 8 14H7Z" fill="#4056B5"/>
</svg>
