<svg width="32" height="32" viewBox="0 0 32 32" fill="none" xmlns="http://www.w3.org/2000/svg">
<path d="M15.9999 18.0901C15.7956 18.0888 15.5929 18.1279 15.4037 18.2052C15.2145 18.2825 15.0424 18.3965 14.8975 18.5406C14.7525 18.6846 14.6374 18.8559 14.5589 19.0446C14.4804 19.2334 14.4399 19.4357 14.4399 19.6401C14.4412 19.8644 14.4921 20.0856 14.5889 20.2879C14.6857 20.4901 14.8261 20.6685 14.9999 20.8101V22.9101C14.9999 23.1753 15.1053 23.4297 15.2928 23.6172C15.4804 23.8048 15.7347 23.9101 15.9999 23.9101C16.2652 23.9101 16.5195 23.8048 16.707 23.6172C16.8946 23.4297 16.9999 23.1753 16.9999 22.9101V20.8101C17.1738 20.6685 17.3142 20.4901 17.411 20.2879C17.5078 20.0856 17.5587 19.8644 17.5599 19.6401C17.5599 19.4357 17.5195 19.2334 17.441 19.0446C17.3625 18.8559 17.2474 18.6846 17.1024 18.5406C16.9574 18.3965 16.7854 18.2825 16.5962 18.2052C16.407 18.1279 16.2043 18.0888 15.9999 18.0901Z" fill="#4056B5"/>
<path d="M16 2C13.8783 2 11.8434 2.84285 10.3431 4.34315C8.84285 5.84344 8 7.87827 8 10V14C8 14.2652 8.10536 14.5196 8.29289 14.7071C8.48043 14.8946 8.73478 15 9 15C9.26522 15 9.51957 14.8946 9.70711 14.7071C9.89464 14.5196 10 14.2652 10 14V10C10 8.4087 10.6321 6.88258 11.7574 5.75736C12.8826 4.63214 14.4087 4 16 4C17.5913 4 19.1174 4.63214 20.2426 5.75736C21.3679 6.88258 22 8.4087 22 10V14C22 14.2652 22.1054 14.5196 22.2929 14.7071C22.4804 14.8946 22.7348 15 23 15C23.2652 15 23.5196 14.8946 23.7071 14.7071C23.8946 14.5196 24 14.2652 24 14V10C24 7.87827 23.1571 5.84344 21.6569 4.34315C20.1566 2.84285 18.1217 2 16 2Z" fill="#4056B5"/>
<path d="M24 30H8C7.20435 30 6.44129 29.6839 5.87868 29.1213C5.31607 28.5587 5 27.7956 5 27V16C5 15.2044 5.31607 14.4413 5.87868 13.8787C6.44129 13.3161 7.20435 13 8 13H24C24.7956 13 25.5587 13.3161 26.1213 13.8787C26.6839 14.4413 27 15.2044 27 16V27C27 27.7956 26.6839 28.5587 26.1213 29.1213C25.5587 29.6839 24.7956 30 24 30ZM8 15C7.73478 15 7.48043 15.1054 7.29289 15.2929C7.10536 15.4804 7 15.7348 7 16V27C7 27.2652 7.10536 27.5196 7.29289 27.7071C7.48043 27.8946 7.73478 28 8 28H24C24.2652 28 24.5196 27.8946 24.7071 27.7071C24.8946 27.5196 25 27.2652 25 27V16C25 15.7348 24.8946 15.4804 24.7071 15.2929C24.5196 15.1054 24.2652 15 24 15H8Z" fill="black"/>
</svg>
