<svg width="32" height="32" viewBox="0 0 32 32" fill="none" xmlns="http://www.w3.org/2000/svg">
<path d="M18 30H14C13.2043 30 12.4413 29.6839 11.8787 29.1213C11.3161 28.5587 11 27.7956 11 27C11.0028 26.7618 10.941 26.5272 10.8213 26.3212C10.7016 26.1152 10.5284 25.9455 10.32 25.83C10.1163 25.7124 9.88521 25.6505 9.64999 25.6505C9.41477 25.6505 9.18369 25.7124 8.97999 25.83C8.63835 26.0275 8.26111 26.1557 7.86987 26.2071C7.47863 26.2586 7.08108 26.2324 6.69999 26.13C6.31955 26.0276 5.96302 25.8512 5.65074 25.611C5.33847 25.3708 5.07656 25.0714 4.87999 24.73L2.87999 21.27C2.68361 20.9274 2.55679 20.5495 2.5068 20.1578C2.45681 19.7661 2.48465 19.3684 2.5887 18.9875C2.69275 18.6065 2.87098 18.2499 3.11316 17.938C3.35535 17.6262 3.65671 17.3652 3.99999 17.17C4.20562 17.0516 4.37642 16.8812 4.49519 16.6758C4.61396 16.4703 4.67649 16.2373 4.67649 16C4.67649 15.7627 4.61396 15.5297 4.49519 15.3242C4.37642 15.1188 4.20562 14.9484 3.99999 14.83C3.65839 14.6332 3.35893 14.371 3.11874 14.0583C2.87856 13.7457 2.70234 13.3888 2.60018 13.008C2.49802 12.6272 2.47192 12.23 2.52336 11.8392C2.5748 11.4483 2.70278 11.0714 2.89999 10.73L4.89999 7.27C5.09681 6.9284 5.35904 6.62895 5.67167 6.38876C5.9843 6.14857 6.34121 5.97236 6.72199 5.87019C7.10277 5.76803 7.49995 5.74193 7.89083 5.79337C8.2817 5.84481 8.65861 5.9728 8.99999 6.17C9.2064 6.29035 9.44105 6.35377 9.67999 6.35377C9.91892 6.35377 10.1536 6.29035 10.36 6.17C10.5602 6.04858 10.7249 5.87645 10.8372 5.67101C10.9496 5.46557 11.0058 5.2341 11 5C11 4.20435 11.3161 3.44129 11.8787 2.87868C12.4413 2.31607 13.2043 2 14 2H18C18.7956 2 19.5587 2.31607 20.1213 2.87868C20.6839 3.44129 21 4.20435 21 5C21.0023 5.23342 21.065 5.46226 21.1822 5.66418C21.2993 5.8661 21.4668 6.0342 21.6682 6.15207C21.8697 6.26994 22.0983 6.33356 22.3318 6.3367C22.5652 6.33984 22.7954 6.2824 23 6.17C23.3416 5.9725 23.7189 5.84434 24.1101 5.79286C24.5013 5.74138 24.8989 5.76759 25.28 5.87C25.6604 5.97242 26.017 6.14877 26.3292 6.38898C26.6415 6.6292 26.9034 6.92857 27.1 7.27L29.1 10.73C29.2972 11.0714 29.4252 11.4483 29.4766 11.8392C29.5281 12.23 29.502 12.6272 29.3998 13.008C29.2976 13.3888 29.1214 13.7457 28.8812 14.0583C28.641 14.371 28.3416 14.6332 28 14.83C27.7944 14.9484 27.6235 15.1188 27.5048 15.3242C27.386 15.5297 27.3235 15.7627 27.3235 16C27.3235 16.2373 27.386 16.4703 27.5048 16.6758C27.6235 16.8812 27.7944 17.0516 28 17.17C28.6882 17.5692 29.1896 18.2254 29.3941 18.9943C29.5985 19.7632 29.4891 20.5818 29.09 21.27L27.09 24.73C26.6925 25.4172 26.0389 25.9188 25.2723 26.125C24.5056 26.3312 23.6885 26.2251 23 25.83C22.7936 25.7096 22.5589 25.6462 22.32 25.6462C22.0811 25.6462 21.8464 25.7096 21.64 25.83C21.4398 25.9514 21.2751 26.1235 21.1627 26.329C21.0504 26.5344 20.9942 26.7659 21 27C21 27.7956 20.6839 28.5587 20.1213 29.1213C19.5587 29.6839 18.7956 30 18 30ZM9.64999 23.64C10.5386 23.6453 11.3891 24.0013 12.0165 24.6305C12.6439 25.2598 12.9974 26.1114 13 27C13 27.2652 13.1053 27.5196 13.2929 27.7071C13.4804 27.8946 13.7348 28 14 28H18C18.2652 28 18.5196 27.8946 18.7071 27.7071C18.8946 27.5196 19 27.2652 19 27C18.9966 26.4108 19.1505 25.8315 19.4458 25.3217C19.7412 24.8119 20.1672 24.3901 20.68 24.1C21.1857 23.8009 21.7624 23.643 22.35 23.643C22.9375 23.643 23.5143 23.8009 24.02 24.1C24.1352 24.1672 24.2626 24.2106 24.3949 24.2278C24.5271 24.245 24.6615 24.2355 24.79 24.2C25.0442 24.1287 25.2599 23.9597 25.39 23.73L27.39 20.27C27.4558 20.1561 27.4985 20.0304 27.5157 19.9C27.5329 19.7695 27.5241 19.637 27.49 19.51C27.4535 19.3806 27.3913 19.2599 27.3071 19.1551C27.2229 19.0503 27.1185 18.9635 27 18.9C26.4913 18.6058 26.0689 18.183 25.7753 17.674C25.4816 17.165 25.327 16.5876 25.327 16C25.327 15.4124 25.4816 14.835 25.7753 14.326C26.0689 13.817 26.4913 13.3942 27 13.1C27.1146 13.0347 27.2151 12.9473 27.2958 12.843C27.3765 12.7386 27.4357 12.6193 27.4701 12.492C27.5045 12.3647 27.5134 12.2318 27.4962 12.101C27.479 11.9702 27.4361 11.8441 27.37 11.73L25.37 8.27C25.3047 8.15541 25.2173 8.05488 25.113 7.9742C25.0086 7.89351 24.8893 7.83427 24.762 7.79988C24.6346 7.76549 24.5018 7.75663 24.371 7.77381C24.2402 7.79099 24.1141 7.83388 24 7.9C23.4915 8.1878 22.9165 8.33759 22.3322 8.3345C21.748 8.33141 21.1746 8.17555 20.6692 7.8824C20.1638 7.58924 19.7438 7.16899 19.451 6.66336C19.1582 6.15772 19.0027 5.58429 19 5C19 4.73478 18.8946 4.48043 18.7071 4.29289C18.5196 4.10536 18.2652 4 18 4H14C13.7348 4 13.4804 4.10536 13.2929 4.29289C13.1053 4.48043 13 4.73478 13 5C13.0034 5.58916 12.8495 6.16854 12.5542 6.67834C12.2588 7.18814 11.8328 7.60988 11.32 7.9C10.8166 8.19536 10.2436 8.35108 9.65999 8.35108C9.07638 8.35108 8.50334 8.19536 7.99999 7.9C7.88479 7.83284 7.75733 7.78939 7.62509 7.77221C7.49285 7.75504 7.35852 7.76449 7.22999 7.8C6.97579 7.87132 6.7601 8.04027 6.62999 8.27L4.62999 11.73C4.56415 11.8439 4.52143 11.9696 4.50427 12.1C4.48711 12.2305 4.49585 12.363 4.52999 12.49C4.56413 12.6177 4.62324 12.7374 4.70392 12.8421C4.78459 12.9468 4.88522 13.0344 4.99999 13.1C5.5087 13.3942 5.93107 13.817 6.22471 14.326C6.51836 14.835 6.67294 15.4124 6.67294 16C6.67294 16.5876 6.51836 17.165 6.22471 17.674C5.93107 18.183 5.5087 18.6058 4.99999 18.9C4.8854 18.9653 4.78487 19.0527 4.70419 19.157C4.6235 19.2614 4.56426 19.3807 4.52987 19.508C4.49547 19.6353 4.48662 19.7682 4.5038 19.899C4.52098 20.0298 4.56387 20.1559 4.62999 20.27L6.62999 23.73C6.69532 23.8446 6.78267 23.9451 6.88702 24.0258C6.99137 24.1065 7.11064 24.1657 7.23798 24.2001C7.36532 24.2345 7.49821 24.2434 7.62899 24.2262C7.75977 24.209 7.88585 24.1661 7.99999 24.1C8.49991 23.8041 9.06909 23.6454 9.64999 23.64Z" fill="black"/>
<path d="M16 22C14.8133 22 13.6533 21.6481 12.6666 20.9888C11.6799 20.3295 10.9109 19.3925 10.4567 18.2961C10.0026 17.1997 9.88378 15.9933 10.1153 14.8295C10.3468 13.6656 10.9182 12.5965 11.7574 11.7574C12.5965 10.9182 13.6656 10.3468 14.8295 10.1153C15.9933 9.88378 17.1997 10.0026 18.2961 10.4567C19.3925 10.9109 20.3295 11.6799 20.9888 12.6666C21.6481 13.6533 22 14.8133 22 16C22 17.5913 21.3679 19.1174 20.2426 20.2426C19.1174 21.3679 17.5913 22 16 22ZM16 12C15.2089 12 14.4355 12.2346 13.7777 12.6741C13.1199 13.1136 12.6072 13.7384 12.3045 14.4693C12.0017 15.2002 11.9225 16.0044 12.0769 16.7804C12.2312 17.5563 12.6122 18.269 13.1716 18.8284C13.731 19.3878 14.4437 19.7688 15.2196 19.9231C15.9956 20.0775 16.7998 19.9983 17.5307 19.6955C18.2616 19.3928 18.8864 18.8801 19.3259 18.2223C19.7654 17.5645 20 16.7911 20 16C20 14.9391 19.5786 13.9217 18.8284 13.1716C18.0783 12.4214 17.0609 12 16 12Z" fill="#4056B5"/>
</svg>
