<svg width="64" height="64" viewBox="0 0 64 64" fill="none" xmlns="http://www.w3.org/2000/svg">
<rect width="64" height="64" rx="32" fill="#6EC94D"/>
<g clip-path="url(#clip0_225_2121)">
<path d="M40.0625 47.4874C44.4375 47.4874 48 43.9249 48 39.5499C48 35.1812 44.45 31.625 40.0875 31.6125C38.8125 30.725 37.2 30.0437 35.3563 29.5937C36.675 28.2062 37.4875 26.325 37.4875 24.2625C37.4875 19.9875 34.0125 16.5125 29.7375 16.5125C25.4625 16.5125 21.9875 19.9875 21.9875 24.2625C21.9875 26.325 22.8 28.2 24.1187 29.5937C22.0875 30.0812 20.3438 30.8625 19.0125 31.8812C17.0375 33.3937 16 35.4062 16 37.7187V43.5C16 45.7 18.0375 47.4874 20.5437 47.4874M46.375 39.5499C46.375 43.0312 43.5438 45.8624 40.0625 45.8624C36.5812 45.8624 33.75 43.0312 33.75 39.5499C33.75 36.0687 36.5812 33.2374 40.0625 33.2374C43.5438 33.2374 46.375 36.0687 46.375 39.5499ZM29.7312 18.1375C33.1125 18.1375 35.8563 20.8875 35.8563 24.2625C35.8563 27.6375 33.1062 30.3875 29.7312 30.3875C26.3562 30.3875 23.6062 27.6375 23.6062 24.2625C23.6062 20.8875 26.3562 18.1375 29.7312 18.1375ZM17.625 37.7187C17.625 35.9062 18.425 34.3812 19.9938 33.1749C21.4063 32.0937 23.3938 31.3125 25.7563 30.9187C26.9188 31.6187 28.2812 32.0187 29.7312 32.0187C31.1812 32.0187 32.5437 31.6187 33.7062 30.9187C35.125 31.1562 36.4125 31.5312 37.5187 32.0312C34.3875 33.0937 32.1313 36.0624 32.1313 39.5499C32.1313 42.1187 33.3625 44.4062 35.2625 45.8624H20.5437C18.9312 45.8624 17.625 44.8 17.625 43.5V37.7187ZM39.0625 40.3312L42.7687 36.625C43.0875 36.3062 43.6 36.3062 43.9188 36.625C44.2375 36.9437 44.2375 37.4562 43.9188 37.775L39.6375 42.0562C39.4875 42.2062 39.2812 42.2937 39.0625 42.2937C38.85 42.2937 38.6375 42.2062 38.4875 42.0562L36.2125 39.7812C35.8937 39.4625 35.8937 38.95 36.2125 38.6312C36.5312 38.3125 37.0437 38.3125 37.3625 38.6312L39.0625 40.3312Z" fill="white"/>
</g>
<defs>
<clipPath id="clip0_225_2121">
<rect width="32" height="32" fill="white" transform="translate(16 16)"/>
</clipPath>
</defs>
</svg>
