<svg width="24" height="24" viewBox="0 0 24 24" fill="none" xmlns="http://www.w3.org/2000/svg">
<path d="M5.10001 14.1899H14.85V15.6899H5.10001C4.27501 15.6899 3.60001 16.3649 3.60001 17.1899C3.60001 18.0149 4.27501 18.6899 5.10001 18.6899H14.85V20.1899H5.10001C1.13251 20.0624 1.13251 14.3174 5.10001 14.1899ZM15.7575 8.19743C15.5475 14.1374 6.99001 14.1374 6.78001 8.19743C6.99001 2.25743 15.5475 2.25743 15.7575 8.19743ZM11.2725 5.20493C7.32001 5.33243 7.32001 11.0549 11.2725 11.1824C15.2175 11.0549 15.225 5.33243 11.2725 5.20493ZM18.8175 14.0849L17.76 15.1424L19.0425 16.4249H16.02V17.9249H19.0425L17.76 19.2074L18.8175 20.2649L21.9075 17.1749L18.8175 14.0774V14.0849Z" fill="#72839E"/>
</svg>
