<svg width="24" height="24" viewBox="0 0 24 24" fill="none" xmlns="http://www.w3.org/2000/svg">
<path d="M17 9.25C13.8291 9.25 11.25 11.8291 11.25 15C11.25 18.1709 13.8291 20.75 17 20.75C20.1709 20.75 22.75 18.1709 22.75 15C22.75 11.8291 20.1709 9.25 17 9.25ZM17 19.25C14.6562 19.25 12.75 17.3438 12.75 15C12.75 12.6562 14.6562 10.75 17 10.75C19.3438 10.75 21.25 12.6562 21.25 15C21.25 17.3438 19.3438 19.25 17 19.25ZM19.5303 13.1367C19.8232 13.4297 19.8232 13.9043 19.5303 14.1973L16.8633 16.8633C16.7168 17.0098 16.5244 17.083 16.333 17.083C16.1406 17.083 15.9492 17.0098 15.8027 16.8633L14.4697 15.5303C14.1768 15.2373 14.1768 14.7627 14.4697 14.4697C14.7627 14.1768 15.2373 14.1768 15.5303 14.4697L16.333 15.2725L18.4697 13.1367C18.7627 12.8437 19.2373 12.8437 19.5303 13.1367ZM13.5784 8.89966C13.2388 8.73981 13 8.40015 13 8C13 7.44769 13.4477 7 14 7C14.5523 7 15 7.44769 15 8C15 8.11035 14.9703 8.21179 14.9373 8.31104C14.46 8.45856 14.0063 8.6587 13.5784 8.89966ZM22.75 6V10C22.75 10.2908 22.6923 10.5659 22.6083 10.8292C22.2207 10.3093 21.7642 9.84576 21.25 9.45099V6C21.25 5.31055 20.6895 4.75 20 4.75H4C3.31055 4.75 2.75 5.31055 2.75 6V10C2.75 10.6895 3.31055 11.25 4 11.25H11.0994C10.8023 11.7159 10.5592 12.2183 10.3779 12.75H4C2.4834 12.75 1.25 11.5166 1.25 10V6C1.25 4.4834 2.4834 3.25 4 3.25H20C21.5166 3.25 22.75 4.4834 22.75 6ZM19 8C19 8.09943 18.9704 8.18964 18.9434 8.28027C18.3255 8.10119 17.6748 8 17 8C17 7.44769 17.4477 7 18 7C18.5523 7 19 7.44769 19 8ZM6 7C6.55231 7 7 7.44769 7 8C7 8.55225 6.55231 9 6 9C5.44769 9 5 8.55225 5 8C5 7.44769 5.44769 7 6 7ZM10 7C10.5523 7 11 7.44769 11 8C11 8.55225 10.5523 9 10 9C9.44769 9 9 8.55225 9 8C9 7.44769 9.44769 7 10 7Z" fill="#72839E"/>
</svg>
