<svg width="24" height="24" viewBox="0 0 24 24" fill="none" xmlns="http://www.w3.org/2000/svg">
<path fill-rule="evenodd" clip-rule="evenodd" d="M7.18284 2H11C11.4971 2 11.9 2.40295 11.9 2.9C11.9 3.39706 11.4971 3.8 11 3.8H7.22001C6.44908 3.8 5.92502 3.8007 5.51994 3.8338C5.12536 3.86603 4.92358 3.92447 4.78282 3.99619C4.44413 4.16876 4.16877 4.44413 3.99619 4.78282C3.92447 4.92358 3.86604 5.12536 3.8338 5.51994C3.8007 5.92502 3.8 6.44908 3.8 7.22V14.78C3.8 15.5509 3.8007 16.075 3.8338 16.4801C3.86604 16.8747 3.92447 17.0764 3.99619 17.2172C4.16877 17.5559 4.44413 17.8313 4.78282 18.0038C4.92358 18.0755 5.12536 18.1339 5.51994 18.1662C5.92502 18.1993 6.44908 18.2 7.22001 18.2H11C11.4971 18.2 11.9 18.6029 11.9 19.1C11.9 19.5971 11.4971 20 11 20H7.18282C6.45835 20 5.86043 20 5.37336 19.9602C4.86748 19.9189 4.40244 19.8302 3.96564 19.6076C3.28825 19.2624 2.73752 18.7117 2.39238 18.0344C2.16981 17.5975 2.08111 17.1325 2.03977 16.6266C1.99998 16.1395 1.99999 15.5417 2 14.8172V7.18283C1.99999 6.45836 1.99998 5.86043 2.03977 5.37335C2.08111 4.86747 2.16981 4.40243 2.39238 3.96564C2.73752 3.28825 3.28825 2.73752 3.96564 2.39237C4.40244 2.16981 4.86748 2.08111 5.37336 2.03977C5.86044 1.99998 6.45836 1.99999 7.18284 2ZM14.8636 6.7636C15.2151 6.41213 15.785 6.41213 16.1364 6.7636L19.7364 10.3636C20.0879 10.7151 20.0879 11.2849 19.7364 11.6364L16.1364 15.2364C15.785 15.5878 15.2151 15.5878 14.8636 15.2364C14.5122 14.8849 14.5122 14.3151 14.8636 13.9636L16.9272 11.9H10.1C9.60294 11.9 9.20001 11.4971 9.20001 11C9.20001 10.5029 9.60294 10.1 10.1 10.1H16.9272L14.8636 8.0364C14.5122 7.68492 14.5122 7.11508 14.8636 6.7636Z" fill="#72839E"/>
</svg>
