<svg width="32" height="32" viewBox="0 0 32 32" fill="none" xmlns="http://www.w3.org/2000/svg">
<rect x="0.5" y="0.5" width="31" height="31" rx="15.5" fill="white"/>
<rect x="0.5" y="0.5" width="31" height="31" rx="15.5" stroke="#DEE5EF"/>
<path d="M21.674 11.5H19.527L19.277 10.75C19.1565 10.3858 18.9242 10.069 18.6131 9.84453C18.302 9.62009 17.9281 9.49953 17.5445 9.5H14.4555C14.072 9.49971 13.6982 9.62035 13.3873 9.84477C13.0763 10.0692 12.844 10.386 12.7235 10.75L12.473 11.5H10.326C9.84188 11.5005 9.37773 11.6931 9.03541 12.0354C8.69308 12.3777 8.50053 12.8419 8.5 13.326V20.676C8.50106 21.1598 8.69384 21.6234 9.03611 21.9653C9.37838 22.3072 9.84222 22.4995 10.326 22.5H21.676C22.1598 22.4989 22.6234 22.3062 22.9653 21.9639C23.3072 21.6216 23.4995 21.1578 23.5 20.674V13.324C23.4989 12.8402 23.3062 12.3766 22.9639 12.0347C22.6216 11.6928 22.1578 11.5005 21.674 11.5ZM22.5 20.674C22.4997 20.893 22.4126 21.1029 22.2578 21.2578C22.1029 21.4126 21.893 21.4997 21.674 21.5H10.326C10.107 21.4997 9.89707 21.4126 9.74222 21.2578C9.58737 21.1029 9.50026 20.893 9.5 20.674V13.324C9.50079 13.1054 9.58814 12.8959 9.74293 12.7415C9.89772 12.5871 10.1074 12.5003 10.326 12.5H12.8335C12.9384 12.4999 13.0406 12.4669 13.1257 12.4055C13.2107 12.3441 13.2744 12.2575 13.3075 12.158L13.672 11.0645C13.7267 10.9 13.8319 10.757 13.9725 10.6556C14.1132 10.5543 14.2822 10.4999 14.4555 10.5H17.5445C17.7179 10.4998 17.887 10.5543 18.0277 10.6557C18.1683 10.7572 18.2734 10.9004 18.328 11.065L18.6925 12.158C18.7256 12.2575 18.7893 12.3441 18.8743 12.4055C18.9594 12.4669 19.0616 12.4999 19.1665 12.5H21.674C21.893 12.5003 22.1029 12.5874 22.2578 12.7422C22.4126 12.8971 22.4997 13.107 22.5 13.326V20.674Z" fill="#5F6878"/>
<path d="M16 13C15.2583 13 14.5333 13.2199 13.9166 13.632C13.2999 14.044 12.8193 14.6297 12.5355 15.3149C12.2516 16.0002 12.1774 16.7542 12.3221 17.4816C12.4668 18.209 12.8239 18.8772 13.3484 19.4017C13.8728 19.9261 14.541 20.2833 15.2684 20.4279C15.9958 20.5726 16.7498 20.4984 17.4351 20.2145C18.1203 19.9307 18.706 19.4501 19.118 18.8334C19.5301 18.2167 19.75 17.4917 19.75 16.75C19.7489 15.7558 19.3535 14.8026 18.6505 14.0995C17.9475 13.3965 16.9942 13.0011 16 13ZM16 19.5C15.4561 19.5 14.9244 19.3387 14.4722 19.0365C14.0199 18.7344 13.6675 18.3049 13.4593 17.8024C13.2512 17.2999 13.1967 16.7469 13.3028 16.2135C13.409 15.6801 13.6709 15.1901 14.0555 14.8055C14.4401 14.4209 14.9301 14.159 15.4635 14.0528C15.997 13.9467 16.5499 14.0012 17.0524 14.2093C17.5549 14.4175 17.9844 14.7699 18.2865 15.2222C18.5887 15.6744 18.75 16.2061 18.75 16.75C18.7492 17.4791 18.4592 18.1781 17.9437 18.6937C17.4281 19.2092 16.7291 19.4992 16 19.5Z" fill="#5F6878"/>
<path d="M21 14.5C21.2761 14.5 21.5 14.2761 21.5 14C21.5 13.7239 21.2761 13.5 21 13.5C20.7239 13.5 20.5 13.7239 20.5 14C20.5 14.2761 20.7239 14.5 21 14.5Z" fill="#5F6878"/>
</svg>
