<svg width="28" height="28" viewBox="0 0 28 28" fill="none" xmlns="http://www.w3.org/2000/svg">
<path fill-rule="evenodd" clip-rule="evenodd" d="M21.1794 22.6999C22.0056 22.6999 22.6752 22.0284 22.6752 21.1999V18.8C22.6752 18.3029 23.077 17.9 23.5726 17.9C24.0683 17.9 24.4701 18.3029 24.4701 18.8V21.1999C24.4701 23.0225 22.9969 24.5 21.1794 24.5H18.7864C18.2907 24.5 17.8889 24.097 17.8889 23.6C17.8889 23.1029 18.2907 22.6999 18.7864 22.6999H21.1794Z" fill="white"/>
<path fill-rule="evenodd" clip-rule="evenodd" d="M21.1794 5.3C22.0056 5.3 22.6752 5.97157 22.6752 6.8V9.2C22.6752 9.69705 23.077 10.1 23.5726 10.1C24.0683 10.1 24.4701 9.69705 24.4701 9.2V6.8C24.4701 4.97745 22.9969 3.5 21.1794 3.5H18.7864C18.2907 3.5 17.8889 3.90294 17.8889 4.4C17.8889 4.89706 18.2907 5.3 18.7864 5.3H21.1794Z" fill="white"/>
<path fill-rule="evenodd" clip-rule="evenodd" d="M6.82053 22.6999C5.99447 22.6999 5.32481 22.0284 5.32481 21.1999V18.8C5.32481 18.3029 4.92302 17.9 4.42737 17.9C3.93174 17.9 3.52994 18.3029 3.52994 18.8V21.1999C3.52994 23.0225 5.00319 24.5 6.82053 24.5H9.2137C9.70934 24.5 10.1111 24.097 10.1111 23.6C10.1111 23.1029 9.70934 22.6999 9.2137 22.6999H6.82053Z" fill="white"/>
<path fill-rule="evenodd" clip-rule="evenodd" d="M6.82053 5.3C5.99447 5.3 5.32481 5.97157 5.32481 6.8V9.20001C5.32481 9.69705 4.92302 10.1 4.42737 10.1C3.93174 10.1 3.52994 9.69705 3.52994 9.20001V6.8C3.52994 4.97747 5.00319 3.5 6.82053 3.5H9.2137C9.70934 3.5 10.1111 3.90294 10.1111 4.4C10.1111 4.89706 9.70934 5.3 9.2137 5.3H6.82053Z" fill="white"/>
<path fill-rule="evenodd" clip-rule="evenodd" d="M25.6667 14C25.6667 14.497 25.2649 14.9 24.7693 14.9H3.23078C2.73514 14.9 2.33334 14.497 2.33334 14C2.33334 13.503 2.73514 13.1 3.23078 13.1H24.7693C25.2649 13.1 25.6667 13.503 25.6667 14Z" fill="white"/>
</svg>
