<svg width="24" height="24" viewBox="0 0 24 24" fill="none" xmlns="http://www.w3.org/2000/svg">
<path d="M21.7 20.3L18 16.6C21.1 12.7 20.5 6.99999 16.6 3.89999C12.7 0.799994 6.99999 1.49999 3.89999 5.29999C0.799994 9.19999 1.49999 14.9 5.29999 18C8.59999 20.6 13.3 20.6 16.6 18L20.3 21.7C20.7 22.1 21.3 22.1 21.7 21.7C22.1 21.3 22.1 20.7 21.7 20.3ZM11 18C7.09999 18 3.99999 14.9 3.99999 11C3.99999 7.09999 7.09999 3.99999 11 3.99999C14.9 3.99999 18 7.09999 18 11C18 14.9 14.9 18 11 18Z" fill="#7AB91E"/>
</svg>
