<svg width="42" height="42" viewBox="0 0 42 42" fill="none" xmlns="http://www.w3.org/2000/svg">
<path d="M7.21875 15.0938C7.21875 7.31589 13.6625 1.04279 21.5027 1.3217C28.9708 1.58682 34.7812 7.95114 34.7812 15.4239C34.7812 19.4749 33.5022 23.4229 31.1259 26.7035L21 40.6875L11.0677 26.9712C8.56603 23.5167 7.21875 19.3594 7.21875 15.0938Z" fill="#4CAF50"/>
<path d="M21 26.25C27.1614 26.25 32.1562 21.2552 32.1562 15.0938C32.1562 8.93232 27.1614 3.9375 21 3.9375C14.8386 3.9375 9.84375 8.93232 9.84375 15.0938C9.84375 21.2552 14.8386 26.25 21 26.25Z" fill="white"/>
<path d="M27.5625 17.6006V24.1106C25.725 25.4559 23.4544 26.25 21 26.25C18.5456 26.25 16.275 25.4559 14.4375 24.1106V17.6006C14.6409 17.6794 14.8641 17.7188 15.0938 17.7188C15.6384 17.7188 16.1306 17.4956 16.485 17.1413C16.8394 16.7869 17.0625 16.2947 17.0625 15.75C17.0625 16.2947 17.2856 16.7869 17.64 17.1413C17.9944 17.4956 18.4866 17.7188 19.0312 17.7188C19.5759 17.7188 20.0681 17.4956 20.4225 17.1413C20.7769 16.7869 21 16.2947 21 15.75C21 16.2947 21.2231 16.7869 21.5775 17.1413C21.9319 17.4956 22.4241 17.7188 22.9688 17.7188C23.5134 17.7188 24.0056 17.4956 24.36 17.1413C24.7144 16.7869 24.9375 16.2947 24.9375 15.75C24.9375 16.2947 25.1606 16.7869 25.515 17.1413C25.8694 17.4956 26.3616 17.7188 26.9062 17.7188C27.1359 17.7188 27.3591 17.6794 27.5625 17.6006Z" fill="#D7E3F2"/>
<path d="M14.4375 24.1014C16.2803 25.4468 18.5437 26.25 21 26.25C23.4563 26.25 25.7198 25.4468 27.5625 24.1014V18.375H14.4375V24.1014Z" fill="#D7E3F2"/>
<path d="M28.875 15.75C28.875 16.2947 28.6519 16.7869 28.2975 17.1413C28.0941 17.3447 27.8447 17.5087 27.5625 17.6006C27.3591 17.6794 27.1359 17.7188 26.9062 17.7188C26.3616 17.7188 25.8694 17.4956 25.515 17.1413C25.1606 16.7869 24.9375 16.2947 24.9375 15.75C24.9375 16.2947 24.7144 16.7869 24.36 17.1413C24.0056 17.4956 23.5134 17.7188 22.9688 17.7188C22.4241 17.7188 21.9319 17.4956 21.5775 17.1413C21.2231 16.7869 21 16.2947 21 15.75C21 16.2947 20.7769 16.7869 20.4225 17.1413C20.0681 17.4956 19.5759 17.7188 19.0312 17.7188C18.4866 17.7188 17.9944 17.4956 17.64 17.1413C17.2856 16.7869 17.0625 16.2947 17.0625 15.75C17.0625 16.2947 16.8394 16.7869 16.485 17.1413C16.1306 17.4956 15.6384 17.7188 15.0938 17.7188C14.8641 17.7188 14.6409 17.6794 14.4375 17.6006C14.1553 17.5087 13.9059 17.3447 13.7025 17.1413C13.3481 16.7869 13.125 16.2947 13.125 15.75L14.4375 9.1875H27.5625L28.875 15.75Z" fill="#C43535"/>
<path d="M24.9375 15.75L24.2812 9.1875H27.5625L28.875 15.75C28.875 16.8374 27.9937 17.7188 26.9062 17.7188C25.8188 17.7188 24.9375 16.8374 24.9375 15.75Z" fill="#DDDDDD"/>
<path d="M21 15.75V9.1875H17.7188L17.0625 15.75C17.0625 16.8374 17.9438 17.7188 19.0312 17.7188C20.1187 17.7188 21 16.8374 21 15.75Z" fill="#DDDDDD"/>
<path d="M17 20H25V23H17V20Z" fill="#59A2D8"/>
<path d="M15.0938 17.7188C16.1812 17.7188 17.0625 16.8374 17.0625 15.75H13.125C13.125 16.8374 14.0063 17.7188 15.0938 17.7188Z" fill="#A02525"/>
<path d="M22.9688 17.7188C24.0562 17.7188 24.9375 16.8374 24.9375 15.75H21C21 16.8374 21.8813 17.7188 22.9688 17.7188Z" fill="#A02525"/>
<path d="M24.9375 15.75C24.9375 16.8374 25.8188 17.7188 26.9062 17.7188C27.9937 17.7188 28.875 16.8374 28.875 15.75H24.9375Z" fill="#B5B5B5"/>
<path d="M19.0312 17.7188C20.1187 17.7188 21 16.8374 21 15.75H17.0625C17.0625 16.8374 17.9438 17.7188 19.0312 17.7188Z" fill="#B5B5B5"/>
</svg>
