<svg width="24" height="24" viewBox="0 0 24 24" fill="none" xmlns="http://www.w3.org/2000/svg">
<g clip-path="url(#clip0_243_2185)">
<path d="M12 24C18.6274 24 24 18.6274 24 12C24 5.37258 18.6274 0 12 0C5.37258 0 0 5.37258 0 12C0 18.6274 5.37258 24 12 24Z" fill="#FFDA24"/>
<path d="M24 12C24 18.6272 18.6272 24 12 24C5.37281 24 0 18.6272 0 12C0 11.5242 0.0276563 11.055 0.0815625 10.5938C0.777656 16.5581 5.84859 21.1875 12 21.1875C18.1514 21.1875 23.2223 16.5581 23.9184 10.5938C23.9723 11.055 24 11.5242 24 12Z" fill="#FFC024"/>
<path d="M16.0078 12.4101C17.6375 12.4101 18.9586 11.089 18.9586 9.45933C18.9586 7.82965 17.6375 6.50854 16.0078 6.50854C14.3781 6.50854 13.057 7.82965 13.057 9.45933C13.057 11.089 14.3781 12.4101 16.0078 12.4101Z" fill="white"/>
<path d="M16.0078 11.4407C17.1021 11.4407 17.9892 10.5536 17.9892 9.45931C17.9892 8.36501 17.1021 7.47791 16.0078 7.47791C14.9135 7.47791 14.0264 8.36501 14.0264 9.45931C14.0264 10.5536 14.9135 11.4407 16.0078 11.4407Z" fill="#473535"/>
<path d="M15.0684 11.4511C15.6327 11.4511 16.0903 10.9936 16.0903 10.4292C16.0903 9.86486 15.6327 9.40735 15.0684 9.40735C14.504 9.40735 14.0465 9.86486 14.0465 10.4292C14.0465 10.9936 14.504 11.4511 15.0684 11.4511Z" fill="white"/>
<path d="M7.98936 12.4101C9.61903 12.4101 10.9401 11.089 10.9401 9.45933C10.9401 7.82965 9.61903 6.50854 7.98936 6.50854C6.35968 6.50854 5.03857 7.82965 5.03857 9.45933C5.03857 11.089 6.35968 12.4101 7.98936 12.4101Z" fill="white"/>
<path d="M7.98934 11.4407C9.08364 11.4407 9.97075 10.5536 9.97075 9.45931C9.97075 8.36501 9.08364 7.47791 7.98934 7.47791C6.89504 7.47791 6.00793 8.36501 6.00793 9.45931C6.00793 10.5536 6.89504 11.4407 7.98934 11.4407Z" fill="#473535"/>
<path d="M8.92825 11.4511C9.49261 11.4511 9.95012 10.9936 9.95012 10.4292C9.95012 9.86486 9.49261 9.40735 8.92825 9.40735C8.36388 9.40735 7.90637 9.86486 7.90637 10.4292C7.90637 10.9936 8.36388 11.4511 8.92825 11.4511Z" fill="white"/>
<path d="M18.2794 5.39575C18.4744 5.93669 18.0577 6.50341 17.483 6.47575C16.9589 6.44997 16.3285 6.49403 15.706 6.71809C15.0835 6.94216 14.5702 7.31153 14.1835 7.66544C13.7592 8.05356 13.0763 7.88341 12.8813 7.34247C12.7922 7.09497 12.8278 6.81841 12.9802 6.60419C13.2811 6.18184 13.9191 5.50591 15.1135 5.07512C16.3078 4.64434 17.2303 4.75778 17.7314 4.89044C17.986 4.95794 18.1899 5.14778 18.2789 5.39528L18.2794 5.39575Z" fill="#473535"/>
<path d="M5.71734 5.39575C5.52234 5.93669 5.93906 6.50341 6.51375 6.47575C7.03781 6.44997 7.66828 6.49403 8.29078 6.71809C8.91328 6.94216 9.42656 7.31153 9.81328 7.66544C10.2375 8.05356 10.9205 7.88341 11.1155 7.34247C11.2045 7.09497 11.1689 6.81841 11.0166 6.60419C10.7156 6.18184 10.0777 5.50591 8.88328 5.07512C7.68891 4.64434 6.76641 4.75778 6.26531 4.89044C6.01078 4.95794 5.80688 5.14778 5.71781 5.39528L5.71734 5.39575Z" fill="#473535"/>
<path d="M8.37657 16.5309C8.4075 16.0889 9.4786 14.5598 11.9986 14.5598C14.5186 14.5598 15.5897 16.0889 15.6206 16.5309C15.6483 16.9275 15.3759 17.0943 15.0417 17.0259C14.708 16.9575 13.8863 16.1859 11.9986 16.1859C10.1109 16.1859 9.28922 16.9579 8.95547 17.0259C8.62172 17.0943 8.34891 16.9275 8.37657 16.5309Z" fill="#473535"/>
</g>
<defs>
<clipPath id="clip0_243_2185">
<rect width="24" height="24" fill="white"/>
</clipPath>
</defs>
</svg>
