<svg width="24" height="24" viewBox="0 0 24 24" fill="none" xmlns="http://www.w3.org/2000/svg">
<g clip-path="url(#clip0_243_2152)">
<path d="M12 24C18.6274 24 24 18.6274 24 12C24 5.37258 18.6274 0 12 0C5.37258 0 0 5.37258 0 12C0 18.6274 5.37258 24 12 24Z" fill="#FFDA24"/>
<path d="M24 12C24 18.6272 18.6272 24 12 24C5.37281 24 0 18.6272 0 12C0 11.5242 0.0276563 11.055 0.0815625 10.5938C0.777656 16.5581 5.84859 21.1875 12 21.1875C18.1514 21.1875 23.2223 16.5581 23.9184 10.5938C23.9723 11.055 24 11.5242 24 12Z" fill="#FFC024"/>
<path d="M7.32283 10.7996H16.6777C17.3949 10.7996 17.9771 11.3817 17.9771 12.0989V12.1219C17.9771 15.4078 15.3094 18.0755 12.0235 18.0755H12.0005C8.7019 18.0755 6.02393 15.3975 6.02393 12.0989C6.02393 11.3817 6.60611 10.7996 7.3233 10.7996H7.32283Z" fill="#473535"/>
<path d="M15.6938 16.8099C14.6822 17.6025 13.4082 18.0755 12.023 18.0755H12C10.6083 18.0755 9.32816 17.6002 8.31238 16.8024C9.14628 15.6727 10.4878 14.9396 12 14.9396C13.5122 14.9396 14.8599 15.6755 15.6938 16.8099Z" fill="#FF7E27"/>
<path d="M17.3268 10.974V11.3194C17.3268 12.18 16.6289 12.8785 15.7678 12.8785H8.23216C7.37106 12.8785 6.6731 12.18 6.6731 11.3194V10.974C6.86435 10.8633 7.08606 10.8 7.32278 10.8H16.6776C16.9139 10.8 17.1361 10.8633 17.3273 10.974H17.3268Z" fill="white"/>
<path d="M14.0587 7.92892C13.9111 7.92892 13.762 7.88908 13.627 7.80564C13.2417 7.56705 13.1236 7.0608 13.3617 6.67548C13.4845 6.4772 14.6072 4.73767 16.2051 4.73767C17.8031 4.73767 18.9258 6.4772 19.0486 6.67548C19.2872 7.0608 19.1681 7.56611 18.7828 7.8047C18.3979 8.04283 17.8936 7.9247 17.655 7.5408C17.4169 7.16111 16.7494 6.37783 16.2056 6.37783C15.6619 6.37783 14.9944 7.16111 14.7562 7.5408C14.6011 7.79111 14.3334 7.92892 14.0592 7.92892H14.0587Z" fill="#473535"/>
<path d="M5.64845 7.92892C5.50079 7.92892 5.35173 7.88908 5.21673 7.80564C4.83142 7.56705 4.71329 7.0608 4.95142 6.67548C5.07423 6.4772 6.19689 4.73767 7.79486 4.73767C9.39283 4.73767 10.5155 6.4772 10.6383 6.67548C10.8769 7.0608 10.7578 7.56611 10.3725 7.8047C9.9872 8.0433 9.48189 7.92423 9.24329 7.53892C9.00658 7.16158 8.33908 6.3783 7.79533 6.3783C7.25158 6.3783 6.58408 7.16158 6.34595 7.54126C6.19079 7.79158 5.92314 7.92939 5.64892 7.92939L5.64845 7.92892Z" fill="#473535"/>
</g>
<defs>
<clipPath id="clip0_243_2152">
<rect width="24" height="24" fill="white"/>
</clipPath>
</defs>
</svg>
