<svg width="24" height="24" viewBox="0 0 24 24" fill="none" xmlns="http://www.w3.org/2000/svg">
<g clip-path="url(#clip0_243_2206)">
<path d="M5.74021 7.08118H0.999588C0.445361 7.08118 0 7.52654 0 8.08076V23.0004C0 23.5546 0.445361 23.9999 0.999588 23.9999H5.74021C6.29443 23.9999 6.73979 23.5546 6.73979 23.0004V8.08076C6.73979 7.53149 6.29443 7.08118 5.74021 7.08118Z" fill="#1B5986"/>
<path d="M3.36988 22.0305C4.06132 22.0305 4.62184 21.47 4.62184 20.7786C4.62184 20.0871 4.06132 19.5266 3.36988 19.5266C2.67844 19.5266 2.11792 20.0871 2.11792 20.7786C2.11792 21.47 2.67844 22.0305 3.36988 22.0305Z" fill="#F2F2F2"/>
<path d="M24 9.87216V9.70887C24 8.69443 23.1785 7.87299 22.1641 7.87299H14.6078C15.7163 6.35381 16.3695 4.48825 16.3695 2.47423V1.91505C16.3695 0.856083 15.5134 0 14.4544 0C13.3954 0 12.5394 0.856083 12.5394 1.91505V2.46928C12.5394 5.42351 10.1344 7.82351 7.18513 7.82351C7.04657 7.82351 6.90801 7.83835 6.7744 7.86804H6.71997C6.73482 7.93732 6.74471 8.0066 6.74471 8.08082V8.67959V22.3967V22.9955C6.74471 23.0697 6.73482 23.139 6.71997 23.2082H20.7785C21.793 23.2082 22.6144 22.3868 22.6144 21.3724V21.2091C22.6144 20.1946 21.793 19.3732 20.7785 19.3732H21.2734C22.2878 19.3732 23.1092 18.5518 23.1092 17.5373V17.374C23.1092 16.3596 22.2878 15.5381 21.2734 15.5381H21.7534C22.7678 15.5381 23.5893 14.7167 23.5893 13.7023V13.539C23.5893 12.5245 22.7678 11.7031 21.7534 11.7031H22.169C23.1785 11.708 24 10.8816 24 9.87216Z" fill="#F8D21B"/>
</g>
<defs>
<clipPath id="clip0_243_2206">
<rect width="24" height="24" fill="white"/>
</clipPath>
</defs>
</svg>
