<svg width="24" height="24" viewBox="0 0 24 24" fill="none" xmlns="http://www.w3.org/2000/svg">
<g clip-path="url(#clip0_243_2166)">
<path d="M12 24C18.6274 24 24 18.6274 24 12C24 5.37258 18.6274 0 12 0C5.37258 0 0 5.37258 0 12C0 18.6274 5.37258 24 12 24Z" fill="#FFDA24"/>
<path d="M14.1324 6.65301C14.3236 6.11067 15.0052 5.93536 15.4322 6.3202C15.8218 6.67129 16.3378 7.03645 16.9618 7.25629C17.5857 7.47614 18.2166 7.51504 18.7402 7.48598C19.3144 7.45364 19.7353 8.01754 19.5441 8.55989C19.4564 8.80833 19.2539 8.99958 19.0003 9.06895C18.5002 9.20536 17.5786 9.32583 16.381 8.90348C15.1833 8.48161 14.5407 7.80989 14.2364 7.39036C14.0822 7.17708 14.0443 6.90098 14.1319 6.65301H14.1324Z" fill="#473535"/>
<path d="M9.8644 6.65301C9.67315 6.11067 8.99159 5.93536 8.56455 6.3202C8.17502 6.67129 7.65893 7.03645 7.03502 7.25629C6.41112 7.47614 5.78018 7.51504 5.25659 7.48598C4.68237 7.45364 4.26143 8.01754 4.45268 8.55989C4.54034 8.80833 4.74283 8.99958 4.99643 9.06895C5.49658 9.20536 6.41815 9.32583 7.6158 8.90348C8.81346 8.48161 9.45612 7.80989 9.76034 7.39036C9.91455 7.17708 9.95252 6.90098 9.86487 6.65301H9.8644Z" fill="#473535"/>
<path d="M8.79139 18.9319C8.81858 18.5405 9.76686 17.1868 11.9981 17.1868C14.2294 17.1868 15.1776 18.5405 15.2048 18.9319C15.2292 19.283 14.9883 19.4307 14.692 19.3702C14.3967 19.3097 13.6687 18.6263 11.9976 18.6263C10.3265 18.6263 9.59905 19.3097 9.30326 19.3702C9.00795 19.4307 8.76608 19.283 8.79045 18.9319H8.79139Z" fill="#473535"/>
<path d="M16.2117 15.6557C17.7943 15.6557 19.0772 14.3728 19.0772 12.7903C19.0772 11.2077 17.7943 9.9248 16.2117 9.9248C14.6292 9.9248 13.3463 11.2077 13.3463 12.7903C13.3463 14.3728 14.6292 15.6557 16.2117 15.6557Z" fill="white"/>
<path d="M16.2117 14.3231C17.2395 14.3231 18.0726 13.4899 18.0726 12.4621C18.0726 11.4344 17.2395 10.6012 16.2117 10.6012C15.1839 10.6012 14.3508 11.4344 14.3508 12.4621C14.3508 13.4899 15.1839 14.3231 16.2117 14.3231Z" fill="#473535"/>
<path d="M17.1126 12.5207C17.6428 12.5207 18.0726 12.0909 18.0726 11.5607C18.0726 11.0305 17.6428 10.6007 17.1126 10.6007C16.5825 10.6007 16.1526 11.0305 16.1526 11.5607C16.1526 12.0909 16.5825 12.5207 17.1126 12.5207Z" fill="white"/>
<path d="M7.78826 15.6557C9.37081 15.6557 10.6537 14.3728 10.6537 12.7903C10.6537 11.2077 9.37081 9.9248 7.78826 9.9248C6.2057 9.9248 4.92279 11.2077 4.92279 12.7903C4.92279 14.3728 6.2057 15.6557 7.78826 15.6557Z" fill="white"/>
<path d="M7.78824 14.3231C8.81601 14.3231 9.64918 13.4899 9.64918 12.4621C9.64918 11.4344 8.81601 10.6012 7.78824 10.6012C6.76048 10.6012 5.92731 11.4344 5.92731 12.4621C5.92731 13.4899 6.76048 14.3231 7.78824 14.3231Z" fill="#473535"/>
<path d="M8.68919 12.5207C9.21938 12.5207 9.64919 12.0909 9.64919 11.5607C9.64919 11.0305 9.21938 10.6007 8.68919 10.6007C8.15899 10.6007 7.72919 11.0305 7.72919 11.5607C7.72919 12.0909 8.15899 12.5207 8.68919 12.5207Z" fill="white"/>
</g>
<defs>
<clipPath id="clip0_243_2166">
<rect width="24" height="24" fill="white"/>
</clipPath>
</defs>
</svg>
